<svg id="Group_285" data-name="Group 285" xmlns="http://www.w3.org/2000/svg" width="36.762" height="29.857" viewBox="0 0 36.762 29.857">
  <g id="Group_284" data-name="Group 284">
    <path id="Path_10280" data-name="Path 10280" d="M2017.457,84.8h-33.94c-.57,0-1.032-1.023-1.032-2.287V58.9c0-1.262.462-2.286,1.032-2.286h33.94c.57,0,1.032,1.023,1.032,2.286V82.51C2018.489,83.773,2018.027,84.8,2017.457,84.8Z" transform="translate(-1982.106 -55.778)" fill="#ffb806"/>
    <g id="Group_283" data-name="Group 283">
      <g id="Group_279" data-name="Group 279" transform="translate(11.429 28.179)">
        <path id="Path_10281" data-name="Path 10281" d="M1995.064,88.561v-.614c.044.031.094.031.1-.156.021.021.05.031.063.067.046.138.071.122.116-.017.031-.1.085-.055.119.051,0,.005.035-.038.054-.058.009.082.013.032.032.009s.078-.063.106-.036c.053.05-.018.065-.013.068.04.021.091.071.123.039.156-.156.317,0,.473-.068l0-.006c.143.086.282-.112.444.045.116.112.3-.011.436-.119.1-.079.145.069.215.106.026.014.057-.021.085-.018a1.321,1.321,0,0,1,.336.047c.058.02.107.137.165.168.023.011.076-.086.085-.153.034-.243.126.049.166-.1.065.09.164.1.161.344a1.087,1.087,0,0,1,.043-.207c.076-.162.147-.024.224.016.056.029.134.043.183-.1a.232.232,0,0,1-.045-.021l0-.041a.3.3,0,0,1,.084.037.167.167,0,0,1,.025.079.1.1,0,0,1-.019.052.1.1,0,0,1-.041.021c.006.018.016.052.019.049.027-.016.074-.033.076-.061.011-.187.09.019.11-.1.127.148.139.143.271.042.039-.03.093.017.126-.025.078-.1.066.058.09.118.011.025.031.033.047.048a.72.72,0,0,1-.026-.088.346.346,0,0,1,0-.061c.057.014.095.127.176-.025.062-.117.219.039.326-.008s.157-.025.21.143c.039-.2.123-.219.207-.227a2.418,2.418,0,0,0,.308-.025c.08-.018,0,.252.041.148.052-.148.114-.144.165-.133.076.017.173-.089.229.117l-.041.061.09.06v.008l.013.011v-.029c.048-.227.132,0,.2-.072s.132-.046.2-.046c.039,0,.106-.1.11.1,0,.013.026.041.037.035s.06-.035.065-.072c.017-.107.069-.17.154-.159s.184-.032.259.037c.126.115.255-.01.387.1.063.051.136.055.2.177.038.071-.032-.126.042-.128.147-.006.013.423.144.394.051-.011.135.188.151-.093-.009.006-.019.022-.026.017s-.03-.044-.046-.061c-.057-.061-.042-.156-.027-.253.041.036.113.061.117.111.01.135.06.043.078.093-.005-.029-.011-.057-.015-.087,0,0,.007-.021.011-.021l.214.005-.047.121c.064-.013.156-.089.188-.025.059.118.145-.144.173.094.031-.026.056-.159.093-.016.033-.162.13.138.157-.1,0-.009.065.017.1.026l.343.1c-.075.153.071.158.042.285a.242.242,0,0,0,.011.072l.01-.074v0h0c.107.285.137-.047.2-.118h0l0,0c.021.094.046.182.1.154.009-.005.014-.047.021-.073-.042-.024-.064-.2-.125-.081h0l0,0c-.062-.047-.132-.083-.087-.287.006-.027.068-.064,0-.1-.011-.005-.037.021-.037.025a1.418,1.418,0,0,1-.078.479h0a.958.958,0,0,1-.021-.24c.073-.245.155-.393.319-.3.135.079.29-.009.437-.018.039,0,.1-.079.095.1l.03-.089c.155.156.338-.089.485.163,0,0,.015-.008.02-.017s.033-.049.048-.075a.1.1,0,0,1-.035,0s-.007-.021-.011-.033c.03-.025.059-.067.089-.069a2.571,2.571,0,0,1,.359-.011c.024,0,.047.049.071.076a.742.742,0,0,1-.09.054c-.023.011-.048.024-.068.01-.078-.054-.167.093-.239-.06a.576.576,0,0,0-.018.086c-.013.167.022.069.05.047s.07-.04.08-.014c.018.054,0,.16.047.016.026-.077.143-.064.207-.016.112.085.156-.227.26-.161.039.025.087-.023.131-.023.138,0,.276.005.415.016.017,0,.039.041.047.076a.925.925,0,0,1,.012.146c0-.047,0-.095,0-.142a.528.528,0,0,1,.011-.064.1.1,0,0,1,.011.032c.005.066.01.132.015.2.05-.035.047-.112.037-.2a.145.145,0,0,1,.022-.058c0-.005.01,0,.015,0,0,.02-.005.041-.009.061a.2.2,0,0,0,.054.215.607.607,0,0,1,.05.09.279.279,0,0,0-.029.039.142.142,0,0,0-.009.035c.017,0,.034.017.049.007a.138.138,0,0,0,.018-.073c0-.091-.013-.181-.015-.271,0-.121.01-.133.081-.073a.3.3,0,0,1,.043.057c.056-.259.134-.019.2-.018.12,0,.242.141.339-.125,0-.005.018.011.026.022.025.031.05.1.071.091.065-.018.127-.074.192-.094a.981.981,0,0,1,.262-.048c.018,0,.037.076.055.119,0,.163.011.277.1.194l.032.09a1.8,1.8,0,0,0,.206.012.413.413,0,0,1,.414.15c.066.08.177.071.263.161.017.018.063-.086.1-.134-.042.005-.012-.261-.092-.117-.039-.123-.13.047-.157-.131-.006-.046-.006-.1-.009-.145.04.034.079.1.119.1a.53.53,0,0,0,.239-.076c.063-.038.078.005.076.126,0,.011,0,.022,0,.033.016-.143.054-.051.084-.038a.588.588,0,0,0-.008.114.164.164,0,0,0,.04.088c.075.058.084-.1.117-.176l.134.005-.039.1.057.09.008.025.029.032.012-.007c.09-.164.162-.144.21.1,0,.011.011.014.017.021-.04-.242.066-.2.112-.266-.036-.076-.041-.143.019-.159.08-.022.16-.033.24-.047.007,0,.014.008.021.012s-.011.024-.016.037a.92.92,0,0,0-.032.107c0,.005.02.033.031.051l.011-.083c.047.019.1.083.138.06.086-.049.03.136.043.123a.93.93,0,0,0,.078-.151c.01-.019.027-.033.04-.031s.018.034.026.054c-.013,0-.028-.013-.039,0a.236.236,0,0,0-.04.068.12.12,0,0,0,0,.037l.105,0c.042.012.1.069.123.029a.112.112,0,0,0-.039-.168c-.022-.014-.055.052-.082.083-.035-.186.1-.1.086-.253.028.107.1-.156.118.071a.075.075,0,0,0,.01.025.487.487,0,0,0,.047-.1.657.657,0,0,0,.007-.114c0-.038,0-.075.007-.112l.052.045a.128.128,0,0,0-.035.011.066.066,0,0,0-.005.034c.01.061.022.12.033.18l.046-.06c-.011-.01-.028-.011-.033-.029a.178.178,0,0,1,0-.077c.034-.051.071-.093.107-.138-.006.026-.013.053-.018.081-.021.108.005.165.048.194a.064.064,0,0,1,.011.1c-.021.027-.05.026-.075.038a.537.537,0,0,1,.051.056c.095.135.042-.077.062-.12.079-.174.141.112.216.046h0c.029.047.05.2.094.014.013-.054.061-.08.083.025.063-.095.127-.19.191-.284,0-.005.014,0,.015,0,.011.089.022.178.033.267-.023-.007-.052,0-.067-.024-.062-.114-.065.105-.109.081a.624.624,0,0,1,.063.093c.108.225.008-.118.049-.083.011.009.029-.029.041-.023.129.058.114-.232.176-.335.023-.038.058-.041.087-.061a.306.306,0,0,1,.01.084c-.047.246.089.212.119.357s.087.3.187.279c.022-.005.046.026.067.02s.024-.048.035-.075c-.112.061-.112-.348-.231-.256-.012.01-.03-.01-.046-.015a1.649,1.649,0,0,1,.105-.171.464.464,0,0,1,.047.1.232.232,0,0,1,0,.041.326.326,0,0,0,.045-.061.734.734,0,0,1,.059-.146c.013-.014.043.046.066.072a.214.214,0,0,0-.073.042c-.008.009-.048.1.006.084s.086-.08.13-.116c.007-.006.029.036.031.032.048-.126.088,0,.1.047.043.144.045.292-.054.34-.011.006-.03-.061-.046-.1a.623.623,0,0,0,0,.093c.036.027.094.086.107.057.054-.127.1-.242.169-.047l0-.035c-.033-.054-.066-.145-.1-.149s-.043-.012-.016-.069c.01-.019.026-.021.036-.04.022-.047-.1.026-.015-.077.008-.01.008-.191.04-.02,0,.022.061.033.072.006.032-.079.129.184.117-.105,0-.012.024-.036.038-.045.082-.052.156-.178.25-.111a.218.218,0,0,1,.033.025.067.067,0,0,1,.009.033c-.086.271.032.172.077.2h0c-.024,0-.053-.012-.068.013-.052.087.035.076.025.141l.125-.032,0,.007,0,0-.036.248c.066-.049.107.227.174.076.04-.091-.08-.279.032-.361-.01-.011-.022-.016-.028-.033-.067-.17-.085.146-.142.069l0-.011h0l.035-.054-.118-.068h0c.09-.1.007-.134-.017-.191a.273.273,0,0,1-.008-.03.151.151,0,0,1,.029-.015c.1-.033.213.06.307-.09.005-.009.026.006.029.021a.567.567,0,0,1,.015.119.419.419,0,0,1-.015.079l.136.064c0-.034,0-.069,0-.1a.144.144,0,0,1,.011-.055c.082-.024.164-.036.246-.067s.168.12.248-.018l.01.011a.434.434,0,0,1-.016.11.29.29,0,0,1-.067.071c.069-.039-.015.26.078.17a.2.2,0,0,0,.022-.029.171.171,0,0,1-.015-.034c-.011-.037-.022-.074-.032-.112l.011-.025c.009.152.055-.047.075.039a.283.283,0,0,0,.045.121c.013.012.05-.027.055-.06a1.113,1.113,0,0,0,0-.187.111.111,0,0,0-.012-.032c.006-.009.013-.026.019-.025a.294.294,0,0,1,.107.052c.03.029.062.134.08.121.074-.061-.046-.025-.012-.084.084-.148.187-.083.274-.067a.635.635,0,0,1,.311.247c.056.069.078-.054.118-.029l-.015-.155a1.1,1.1,0,0,0-.1.063.287.287,0,0,0-.042.064.632.632,0,0,1,.007-.105c.017-.059.047-.163.057-.155.154.122.309.02.463.032.04,0,.077.061.117.065s.057-.053.088-.069c.008,0,.033.053.032.055-.017.054-.036.1-.055.155a.416.416,0,0,0,.081-.064.8.8,0,0,0,.065-.116c.01-.018.025-.057.025-.056.127.24.264-.086.392.028l.03.026a.1.1,0,0,1-.008.025c-.036.033-.118.083-.1.1a.3.3,0,0,0,.24.073c.029,0,.057-.1.083-.16a.518.518,0,0,0,.009-.079c.082.011.162.028.243.044-.019.016-.04.031-.059.049v.037l.121,0a.136.136,0,0,0,0-.04.559.559,0,0,0-.031-.056.145.145,0,0,1,.047-.016,2.519,2.519,0,0,1,.414.031c.042.01.081.113.121.172.008.011.018.02.026.015a.07.07,0,0,0,.022-.044c.023-.288.075.039.11-.02a.7.7,0,0,1,.047.094l.023.044a.389.389,0,0,0,.011-.064.154.154,0,0,0-.014-.038c-.005-.014-.01-.028-.014-.042s.017-.031.021-.026c.062.05.131.077.179.163.073.128-.1.037-.043.179.009.022.013.061.024.067a.957.957,0,0,0,.111.06v.565a.171.171,0,0,0-.13.042c-.015.012-.163.133-.192-.135-.075.145-.141-.125-.218-.022-.013.018-.04-.014-.061-.023l.014-.153,0-.038c-.009,0-.019,0-.025.011a.334.334,0,0,0-.024.064c.036.072.024.107-.019.1-.01,0-.057.1-.041-.041a.189.189,0,0,0-.059.021s0,.061,0,.069c-.181.268-.361.132-.548.021-.064-.038-.163.11-.21.046-.071-.1-.107.071-.164.02s-.1-.021-.156-.03c-.113-.017-.217.126-.346,0-.057-.055-.2-.134-.3.083-.03.067-.136-.014-.206-.046-.1-.046-.2-.107-.3-.163-.026.3-.133.152-.209.195s-.2-.141-.275.077c0,.006-.011,0-.018,0,.005-.113.01-.227.017-.34a.161.161,0,0,1,.014-.039c-.007-.005-.018-.019-.02-.014-.045.106-.089.215-.133.323a.535.535,0,0,1-.027.067c-.006.008-.018,0-.026-.006a.175.175,0,0,0,.023-.051.6.6,0,0,0,0-.095.159.159,0,0,0-.1.008c-.037.025-.068.1-.1.112a.418.418,0,0,1-.409-.034c-.091-.072-.184.152-.274,0a.809.809,0,0,1-.045-.175l0,0h0c.017-.1.04-.014.045.007.045.2.023-.026.028-.076l.01,0c0,.008.005.019.01.038l.01-.031-.02-.007c-.006-.017-.009-.016-.01,0a.869.869,0,0,0-.118-.038.441.441,0,0,0-.017.08l.062.027v0h0c-.022.043-.051.124-.061.114-.055-.054-.14.024-.169-.178-.006-.046-.072-.054-.111-.075a.177.177,0,0,0-.011.059c.01.065.007.175.064.1.006-.008.021.012.032.02-.031.041-.061.114-.092.118a3.93,3.93,0,0,1-.419.018.385.385,0,0,1-.076-.013l.052-.019c-.007-.014-.015-.042-.02-.04-.033.013-.067.051-.1.049-.2-.011-.394-.033-.591-.048s-.412-.045-.618-.043c-.107,0-.214.073-.322.083-.17.014-.34-.005-.51.01-.039,0-.105-.054-.119.11-.141-.182-.3.088-.439-.079-.083-.1-.129.083-.2.075-.2-.024-.409.067-.614-.065-.083-.054-.184.106-.272-.053,0-.008-.054.155-.117.137-.115-.033-.23.083-.351-.056-.051-.06-.151,0-.214.076-.091.105.01-.288-.082-.126,0,.006-.021-.025-.024-.018-.016.033-.026.088-.044.1s-.032-.043-.049-.065c-.053-.065-.109-.194-.157-.181a.526.526,0,0,0-.314.213c-.074.11-.037-.049-.045-.062-.066-.1-.153.194-.206-.056-.013.15-.122-.1-.12.131,0,.02-.032.041-.048.062l-.011-.105c-.055.064-.131.235-.149-.035-.019-.285-.034.052-.052-.008a.159.159,0,0,0-.054-.074s-.02.041-.021.04c-.017-.034-.033-.071-.048-.108a.33.33,0,0,0,.054-.031c.007-.005.011-.025.018-.038a.209.209,0,0,1-.03-.027c-.015-.016-.029-.034-.043-.052.083.2-.185-.151-.049.142a.3.3,0,0,1,0,.113.184.184,0,0,1-.091.032c-.014,0-.028-.023-.042-.036.015.042.029.085.045.126.009.023.019.042.03.063-.01,0-.022,0-.03,0a.828.828,0,0,1-.085-.112.309.309,0,0,1,0-.079c-.025.009-.063.044-.074.02-.039-.087-.071-.038-.106,0l-.019-.048c-.02.038-.042.072-.06.113-.01.023-.013.077-.022.081s-.033-.019-.039-.044a.4.4,0,0,1,0-.095l0-.049c-.013.015-.038.027-.039.044,0,.07-.091-.062-.048.1.005.019.005.046.009.069l-.134-.107c-.031.257-.107-.281-.137.036,0,.006-.031,0-.047,0,.067-.063-.111-.033-.009-.112.005,0,.008-.025.012-.038s-.009-.013-.013-.015c-.034-.015-.084-.065-.1-.034-.037.072-.157.212-.2.167-.012-.011.008-.137-.005-.187-.036-.133-.023-.04-.026.026a.509.509,0,0,1-.032.166c-.154-.04-.315.128-.465-.059-.006-.007-.021.01-.029.024a.116.116,0,0,0,0,.048c0,.033.01.066.015.1l-.049.006a.2.2,0,0,0,.021-.044.074.074,0,0,0-.009-.041,1,1,0,0,0-.127-.136c-.023-.018-.052.005-.076,0a.217.217,0,0,1-.011-.084.345.345,0,0,1,.062-.066l-.03-.107v0h0v0l.108-.126a.788.788,0,0,0-.1-.011c-.025,0-.069,0-.07.011-.007.1.026.125.065.128v0c-.045.115-.087.235-.136.341-.007.015-.047-.052-.073-.064-.112-.054-.118.288-.22.281-.025,0-.053.049-.073.035s-.036-.079-.054-.121a.749.749,0,0,0,.1-.01l.006-.067c-.027.031-.046-.029-.057-.033a.571.571,0,0,0-.208-.006h-.041a.37.37,0,0,0,.021-.062.125.125,0,0,0,0-.048.715.715,0,0,0-.081-.018.19.19,0,0,1,.018.046c.007.043.011.088.017.132a.62.62,0,0,1-.092.028,2.387,2.387,0,0,1-.332.042c-.112,0-.226-.034-.338-.035-.064,0-.13.062-.192.048a.349.349,0,0,1-.225-.14c-.116-.169-.241-.061-.36-.1-.024-.007-.055.12-.084.186-.012-.166-.083-.166-.134-.228a.806.806,0,0,1-.07-.178v-.005h0l.077-.131-.1-.09.026.22v.005c.01.444-.119.058-.17.128a.842.842,0,0,0-.061.129c-.014-.04-.02-.145-.05-.014-.01.043-.051.052-.078.076.015-.056.018-.076-.049-.18a.885.885,0,0,1,.016-.122l-.08.025-.064-.093c-.015-.021-.052-.025-.061,0a1.367,1.367,0,0,0-.049.186.676.676,0,0,1,.091-.06c.027-.011.054-.021.083-.03.027.04.048.07.064.1a.269.269,0,0,0,.045.179c-.113-.006-.219-.2-.338-.067.044-.16-.032-.19-.062-.267,0-.012-.017-.011-.025-.015.019.465-.135.068-.192.178-.076.148-.166-.229-.248.009-.026-.231-.106-.145-.174-.145a.521.521,0,0,1-.133-.035l-.01.005c-.017-.088-.034-.176-.051-.264a1.351,1.351,0,0,1,.023.246c-.009.091-.039.239-.065.246-.115.03-.238-.029-.346.035-.09.054-.11-.2-.149-.134-.11.189-.121-.213-.2-.13s.072.065.024.166c0,.006.072.171.013.184-.082.018-.18.112-.256-.05a1.465,1.465,0,0,1-.056-.2c0,.083-.1.033-.057.185a.23.23,0,0,0-.084.042c-.1.1-.176-.087-.267-.075.03-.175-.049-.095-.047-.082.056.364-.09.143-.108.141a.3.3,0,0,1-.222-.12c-.061-.082.065-.016.035-.118.023-.011.072-.013.034-.083-.02-.037-.09-.008-.118.043a.238.238,0,0,1-.3.141.416.416,0,0,0-.275.1c-.056.037-.11,0-.156-.144-.01-.029-.088.069-.112.035-.09-.131-.155.319-.242.036-.083.333-.058-.206-.117-.067l-.012.025c.018.059.1.135.041.17-.086.054-.185.121-.284.01a.139.139,0,0,0-.164-.035c-.057.026-.1-.025-.149-.03-.074-.008-.152.06-.233.018-.013-.008-.033.044-.051.069.026-.131-.112-.162-.042-.331.01-.025.088-.053.026-.154a1.071,1.071,0,0,0-.055.164.142.142,0,0,1-.273.047c-.015-.027-.051-.058-.054-.047-.054.138-.083.177-.063-.057a.057.057,0,0,0-.017-.022c-.026.08-.046.18-.105.132.014.141-.037.1-.056.074-.088-.1-.062.224-.135.159v.063l-.031-.062c-.022.072-.071.2-.087.1-.041-.265-.124-.131-.184-.123s-.107.143-.156.017a.73.73,0,0,1-.01-.394.389.389,0,0,0-.019-.174c-.01-.026-.046-.006-.07-.007.016.028.045.055.046.087a.928.928,0,0,1-.015.242c-.018.067-.052.065-.059-.039a.394.394,0,0,1-.02.107c-.066.063-.122,0-.178-.072a.313.313,0,0,0-.086-.069c0,.046.005.091,0,.135a.275.275,0,0,1-.02.069c-.013-.2-.094-.024-.127-.108a.583.583,0,0,1-.031-.1c-.013-.054-.022-.11-.033-.164-.043.057.005.1,0,.148,0,.115-.021.225-.091.22.02-.2-.168.16-.1-.171a.747.747,0,0,0-.154.054c-.061.035-.154.163-.173.12-.08-.173-.1.126-.156.061a.263.263,0,0,1-.019-.07c.058.034-.042-.2.043-.12a1.652,1.652,0,0,0,0-.173C1995.1,88.628,1995.086,88.579,1995.064,88.561Zm21.761.151.144.142c0-.054.012-.152.009-.154a.441.441,0,0,0-.114-.04Zm-.325-.458c.032.022.035.054.088-.041l-.006.015,0,.006-.005.012c-.009.022-.012.029,0,0l.005-.012,0-.006.018-.046c-.04-.022-.088-.084-.119-.056A.082.082,0,0,0,2016.5,88.254Zm-.15.228.105.143.032-.166c-.012-.022-.026-.062-.033-.057A.757.757,0,0,0,2016.35,88.482Zm-.164.141c.051.033.087.083.114.067.05-.032-.062-.134.009-.184-.022,0-.046-.008-.066.005A.5.5,0,0,0,2016.186,88.623Zm-.4-.245a.769.769,0,0,0,.1.167c.017.016-.029-.228.089-.073l-.009-.242Zm-.932-.018c.061.073.145.141.208.1.156-.089-.043-.141-.034-.158-.026.153-.056-.014-.09-.095C2014.954,88.381,2014.834,88.337,2014.853,88.359Zm-.306.222c.013.157.056.232.17.191l.086-.087c-.036-.015-.072-.029-.107-.045a.04.04,0,0,1-.012-.02l-.083-.25c-.054.118.06.1.034.191a.425.425,0,0,0,0,.051c-.015-.025-.028-.061-.045-.07S2014.547,88.573,2014.548,88.582Zm-1.261.412c0,.019.018.04.028.04.038,0,.079.009.111-.025a.845.845,0,0,0,.1-.184.112.112,0,0,0,0-.054c-.006-.015-.023-.03-.026-.024-.051.108-.1.189-.173.056h-.025a.226.226,0,0,1,.018.053c0,.039,0,.08,0,.119-.005,0-.013,0-.017-.007s-.013-.038-.02-.057A.512.512,0,0,0,2013.287,88.994Zm-1.622-.543c.05.1.121-.107.171.048a.362.362,0,0,0,.017-.094c-.035-.236-.1-.013-.148-.04C2011.658,88.323,2011.658,88.435,2011.666,88.451Zm-1.761.158.018-.04.048.161c.033-.051.078-.17.06.054,0,.058,0,.119,0,.179.005,0,.014,0,.016-.006.026-.129.048-.137.068.007.01-.01.023-.014.026-.029a.224.224,0,0,0,0-.076c-.013-.069-.034-.134-.044-.2a.337.337,0,0,1,0-.076v0c0-.013,0-.011,0,0-.113-.187-.026.137-.083.016a1.589,1.589,0,0,1-.033-.261c0-.012-.065,0-.068.019C2009.9,88.434,2009.906,88.523,2009.9,88.609Zm-.723.076c.009.226.047.022.072.015s.051-.045.072.046c.06-.374-.052-.2-.088-.206C2009.22,88.535,2009.18,88.638,2009.181,88.685Zm-.307,0a.6.6,0,0,0,.252.025c.014,0,.042-.069.04-.087-.054-.307-.144.016-.157,0C2008.9,88.536,2008.866,88.684,2008.875,88.687Zm-2.024.264c-.011-.159-.077-.084-.119-.122v0a.221.221,0,0,0,.047-.044.185.185,0,0,0,.033-.079c.017-.154-.058-.163-.088-.242,0-.009-.025.017-.038.026.01.027.023.052.032.083s.018.073.028.111a.044.044,0,0,0-.018,0,.132.132,0,0,0-.047.02.137.137,0,0,0-.009.051c.019.027.04.049.059.073v0l0,0,0,0c.01.1.018.2.081.185A.093.093,0,0,0,2006.851,88.951Zm-.221-.629.185.188.04-.027c-.041-.2-.155-.053-.208-.2Zm-2.812.257c.05,0,.009.054-.038.132l.131-.026c-.056-.124-.089-.4-.167-.339C2003.69,88.386,2003.72,88.575,2003.818,88.578Zm-1.79-.194a.94.94,0,0,0,.185.119c.017.006.041-.085.061-.132l-.2-.071Zm-.28.042.047.085c.05-.22.113-.045.188-.036.059-.118-.019-.24-.043-.23C2001.873,88.272,2001.811,88.361,2001.748,88.426Zm-.92-.358c.026.014.052.029.076.04s.063.024.095.035c-.025.212.047.063.072.09.009.009.022,0,.033,0a.934.934,0,0,0-.013-.127c-.053-.2-.129-.07-.2-.057C2000.874,88.051,2000.857,87.906,2000.828,88.069Zm-.005.35c.066.313.183.126.278.148l.01-.02c-.09-.052-.181-.105-.271-.155C2000.833,88.388,2000.826,88.413,2000.823,88.418Zm-.041.333a1.2,1.2,0,0,0,.139.115c.011.007.028-.04.043-.063a1.536,1.536,0,0,0-.134-.136C2000.823,88.66,2000.805,88.709,2000.782,88.751Zm-.508-.475c.028.018.057.02.075.052.068.126.112-.119.174-.045a.318.318,0,0,0,.006-.078c-.034-.127-.056,0-.084.017s-.036,0-.053,0c0-.053.075-.122.005-.143C2000.362,88.072,2000.319,88.2,2000.274,88.276Zm-.217.056.092.087c.015-.1-.074-.147-.024-.262a.426.426,0,0,0-.007-.1Zm-1.8.384c.031.05.061.1.092.147,0,0,.016-.042.012-.032.019-.2-.054-.113-.074-.175Zm-1.218.011c.053.177.1-.2.156,0,.029-.082.01-.105-.042-.121l-.011-.111C1997.113,88.584,1997.106,88.718,1997.038,88.727Z" transform="translate(-1995.064 -87.741)" fill="#ffb806"/>
      </g>
      <g id="Group_280" data-name="Group 280" transform="translate(0 0.315)">
        <path id="Path_10282" data-name="Path 10282" d="M1983.465,56.564v.613c-.032-.025-.07-.022-.069.165-.015-.017-.034-.018-.045-.052-.042-.13-.062-.1-.076.053-.009.1-.043.094-.084.01a.5.5,0,0,0-.023.088c-.022-.068-.015-.019-.022.013-.012.048-.03.114-.053.11-.042,0-.005-.069-.009-.068a.1.1,0,0,0-.08.079c-.035.263-.155.356-.175.61v.009c-.077.179-.013.41-.083.646a3.268,3.268,0,0,0,.054.965,1.282,1.282,0,0,1-.047.476c-.006.058.01.126.008.19,0,.248,0,.5-.02.742-.01.127-.062.237-.076.366a.317.317,0,0,0,.069.188c.11.076-.023.28.044.368-.041.143-.047.364-.155.356.032.031.071.044.094.095a.921.921,0,0,1-.008.5.712.712,0,0,0,.045.4c0-.033.005-.067.01-.1l.018,0c-.005.062-.007.128-.017.187a.085.085,0,0,1-.036.054c-.005,0-.018-.024-.023-.043a.733.733,0,0,1-.01-.092c-.008.015-.024.035-.022.045a.627.627,0,0,0,.027.166c.084.025-.009.2.044.242a1.085,1.085,0,0,0-.019.6c.014.086-.007.207.011.278.047.174-.026.146-.053.2a.5.5,0,0,0-.022.1.447.447,0,0,1,.04-.058c.008-.007.018,0,.027,0a.7.7,0,0,0,.011.388,5.362,5.362,0,0,1,0,.722.7.7,0,0,1-.064.465.7.7,0,0,1,.1.459c.005.228,0,.457.011.683.008.177-.114.009-.067.091a.66.66,0,0,1,.06.365c-.007.17.041.385-.053.509l-.027-.093-.027.2h0l-.005.027.013,0c.1.105,0,.29.032.439a2.21,2.21,0,0,1,.021.44c0,.087.047.235-.046.243a.177.177,0,0,0-.016.082.378.378,0,0,0,.032.145c.048.037.076.153.071.34a3.941,3.941,0,0,1-.017.575c-.051.277.005.563-.044.856a2.21,2.21,0,0,1-.079.444c-.032.083.056-.072.058.093,0,.325-.192.029-.178.319.005.112-.084.3.042.335a.234.234,0,0,1-.007-.056c.007-.036.019-.066.027-.1.027-.126.07-.093.114-.06a1.052,1.052,0,0,1-.05.258c-.062.024-.019.132-.042.173a.358.358,0,0,1,.04-.034.046.046,0,0,1,.009.027l0,.473-.055-.1a1.772,1.772,0,0,1,.011.417c-.053.13.065.322-.042.384.011.066.071.124.007.2.073.073-.062.288.045.348,0,0-.007.145-.012.222l-.045.762c-.069-.165-.072.157-.129.091-.007-.008-.021.018-.033.027l.033.02v0h0c-.129.237.021.3.053.441v.005a.261.261,0,0,0-.069.23c0,.02.022.032.033.047.011-.093.09-.142.036-.277h0l0-.005c.022-.138.038-.292.13-.193.012.014.029.15.045.006a.268.268,0,0,0-.011-.081c-.087.038-.147-.1-.216-.173h0c.037-.018.086-.08.108-.047a.918.918,0,0,1,.134.706,7.747,7.747,0,0,0,.008.966c0,.086.036.217-.046.212a.353.353,0,0,1,.04.065,8.612,8.612,0,0,1-.074,1.074.157.157,0,0,0,.007.045l.034.107c0-.026,0-.053,0-.078s.01-.017.015-.025a1.316,1.316,0,0,1,.031.194c.005.264.008.529.005.794a.726.726,0,0,1-.034.158c-.008-.067-.018-.134-.025-.2a.736.736,0,0,1,0-.151c.025-.174-.041-.37.027-.53-.013-.013-.025-.033-.039-.039-.076-.028-.031.049-.021.112a.53.53,0,0,1,.006.176c-.024.043-.072,0-.007.1a1.184,1.184,0,0,1,.007.458c-.038.248.1.346.073.577a2.529,2.529,0,0,0,.011.288c0,.307,0,.613-.008.919a.2.2,0,0,1-.034.1c-.018.022-.043.018-.065.025a.531.531,0,0,1,.064.008c.01,0,.019.018.029.026-.005.009-.01.023-.015.025l-.089.033c.015.114.052.1.091.08.006,0,.018.023.027.037a.089.089,0,0,1,0,.025.119.119,0,0,1-.028-.014c-.056-.042-.076.025-.095.111-.01.039-.024.072-.035.109-.007-.018-.013-.038-.021-.054s-.01-.01-.017-.014a.551.551,0,0,0,0,.1c0,.018.025.031.035.025.04-.021.079-.053.12-.069s.058,0,.043.125a.79.79,0,0,1-.017.085c.123.019.039.208.062.314.037.178.055.458.193.391a.12.12,0,0,1,.008.044.538.538,0,0,0,.013.15.552.552,0,0,0,.144.1,1.372,1.372,0,0,0,.184.11c.013.006.018.09.028.137-.018.158-.012.276.072.22l.024.092a.73.73,0,0,0,.2.019.413.413,0,0,1,.414.15c.066.08.177.071.263.161.018.018.063-.086.1-.134-.043.005-.012-.261-.093-.117-.038-.123-.129.047-.156-.131-.007-.046-.007-.1-.01-.145.04.034.08.1.119.1a.533.533,0,0,0,.24-.076c.063-.038.078.005.076.126v.033c.017-.143.054-.051.084-.038a.583.583,0,0,0-.007.114.157.157,0,0,0,.04.088c.075.058.084-.1.117-.176l.134.005-.039.1.057.09.008.025.029.032.013-.007c.089-.164.161-.144.209.1,0,.011.011.014.017.021-.039-.242.066-.2.112-.266-.036-.076-.041-.143.019-.159.08-.022.16-.033.24-.047.007,0,.015.008.022.012s-.011.024-.017.037a.9.9,0,0,0-.033.107.3.3,0,0,0,.032.051l.011-.083c.046.019.1.083.137.06.086-.049.03.136.043.123a.921.921,0,0,0,.078-.151c.011-.019.027-.033.04-.031s.018.034.026.054c-.013,0-.028-.013-.039,0a.253.253,0,0,0-.04.068.149.149,0,0,0,0,.037l.105,0c.042.012.1.069.123.029a.111.111,0,0,0-.039-.168c-.021-.014-.055.052-.082.083-.034-.186.1-.1.087-.253.028.107.1-.156.117.071a.167.167,0,0,0,.01.025.452.452,0,0,0,.048-.1.746.746,0,0,0,.006-.114l.007-.112.052.045a.121.121,0,0,0-.034.011.065.065,0,0,0-.006.034l.033.18.046-.06c-.011-.01-.028-.011-.033-.029a.165.165,0,0,1,0-.077c.034-.051.071-.093.107-.138-.007.026-.014.053-.019.081-.021.108.006.165.049.194a.065.065,0,0,1,.01.1c-.021.027-.049.026-.075.038a.55.55,0,0,1,.051.056c.095.135.043-.077.063-.12.08-.174.14.112.216.046h0c.029.047.051.2.095.014.012-.054.061-.08.083.025l.19-.284c0-.005.015,0,.015,0l.032.267c-.022-.007-.052,0-.067-.024-.062-.114-.065.105-.108.081a.685.685,0,0,1,.063.093c.107.225.007-.118.048-.083.011.009.029-.029.041-.023.129.058.114-.232.176-.335.023-.038.058-.041.088-.061a.339.339,0,0,1,.01.084c-.047.246.089.212.12.357s.086.3.187.279c.021-.005.045.026.066.02s.024-.048.035-.075c-.111.061-.111-.348-.231-.256-.012.01-.03-.01-.046-.015a1.861,1.861,0,0,1,.105-.171.464.464,0,0,1,.047.1.165.165,0,0,1,0,.041.3.3,0,0,0,.045-.061.734.734,0,0,1,.059-.146c.013-.014.043.046.066.072a.2.2,0,0,0-.072.042c-.009.009-.048.1.005.084s.086-.08.13-.116c.008-.006.029.036.031.032.048-.126.088,0,.1.047.043.144.045.292-.054.34-.01.006-.03-.061-.046-.1a.623.623,0,0,0,0,.093c.036.027.095.086.107.057.054-.127.1-.242.17-.047l0-.035c-.033-.054-.066-.145-.1-.149s-.043-.012-.015-.069c.009-.019.026-.021.035-.04.022-.047-.1.026-.015-.077.008-.01.008-.191.041-.02,0,.022.062.033.072.006.032-.079.129.184.117-.105,0-.012.024-.036.038-.045.082-.052.157-.178.249-.111a.232.232,0,0,1,.034.025.067.067,0,0,1,.008.033c-.086.271.031.172.077.2h0c-.023,0-.053-.012-.068.013-.051.087.035.076.025.141l.125-.032,0,.007,0,0-.036.248c.067-.049.107.227.174.076.041-.091-.08-.279.033-.361-.01-.011-.022-.016-.028-.033-.067-.17-.085.146-.142.069l0-.011h0l.035-.054-.117-.068h0c.091-.1.007-.134-.017-.191a.3.3,0,0,1-.008-.03.134.134,0,0,1,.03-.015c.1-.033.212.06.307-.09.005-.009.026.006.03.021a.631.631,0,0,1,.014.119.419.419,0,0,1-.015.079l.136.064c0-.034,0-.069,0-.1a.142.142,0,0,1,.01-.055c.082-.024.165-.036.246-.067s.168.12.248-.018l.01.011a.445.445,0,0,1-.015.11.292.292,0,0,1-.068.071c.07-.039-.014.26.079.17a.276.276,0,0,0,.021-.029.254.254,0,0,1-.015-.034l-.032-.112.01-.025c.009.152.055-.047.075.039a.282.282,0,0,0,.046.121c.013.012.05-.027.054-.06a1.113,1.113,0,0,0,0-.187.107.107,0,0,0-.012-.032c.006-.009.013-.026.018-.025a.288.288,0,0,1,.107.052c.03.029.063.134.08.121.074-.061-.045-.025-.011-.084.083-.148.187-.083.273-.067a.63.63,0,0,1,.311.247c.057.069.078-.054.118-.029l-.015-.155c-.032.021-.067.038-.1.063a.263.263,0,0,0-.041.064.562.562,0,0,1,.007-.105c.016-.059.047-.163.056-.155.154.122.309.02.463.032.04,0,.078.061.118.065s.057-.053.087-.069c.009,0,.032.053.032.055-.017.054-.036.1-.054.155a.42.42,0,0,0,.081-.064.725.725,0,0,0,.066-.116l.025-.056c.127.24.264-.086.392.028l.03.026a.094.094,0,0,1-.008.025c-.036.033-.118.083-.1.1a.3.3,0,0,0,.24.073c.029,0,.058-.1.083-.16a.5.5,0,0,0,.009-.079l.243.044-.058.049v.037l.122,0a.228.228,0,0,0,0-.04c-.01-.02-.021-.038-.032-.056a.144.144,0,0,1,.047-.016,2.516,2.516,0,0,1,.414.031c.043.01.081.113.122.172.007.011.018.02.026.015a.075.075,0,0,0,.023-.044c.022-.288.074.039.109-.02a.583.583,0,0,1,.047.094l.023.044a.317.317,0,0,0,.011-.064c0-.011-.01-.025-.014-.038l-.014-.042c.007-.01.017-.031.022-.026.061.05.13.077.178.163.074.128-.1.037-.042.179.008.022.013.061.023.067a1.045,1.045,0,0,0,.111.06v.565a.171.171,0,0,0-.13.042c-.015.012-.163.133-.191-.135-.075.145-.141-.125-.219-.022-.013.018-.04-.014-.061-.023l.014-.153,0-.038c-.008,0-.019,0-.025.011a.29.29,0,0,0-.024.064c.035.072.024.107-.019.1-.01,0-.057.1-.04-.041a.194.194,0,0,0-.06.021s0,.061,0,.069c-.18.268-.361.132-.547.021-.065-.038-.164.11-.211.046-.07-.1-.106.071-.164.02s-.1-.021-.156-.03c-.113-.017-.217.126-.345,0-.058-.055-.2-.134-.3.083-.029.067-.136-.014-.206-.046-.1-.046-.2-.107-.3-.163-.026.3-.132.152-.209.195s-.2-.141-.275.077c0,.006-.011,0-.017,0l.016-.34a.127.127,0,0,1,.015-.039c-.007-.005-.019-.019-.021-.014l-.133.323a.431.431,0,0,1-.027.067c-.005.008-.018,0-.026-.006a.16.16,0,0,0,.023-.051.752.752,0,0,0,0-.095.16.16,0,0,0-.1.008c-.036.025-.068.1-.1.112a.419.419,0,0,1-.409-.034c-.091-.072-.184.152-.274,0a.862.862,0,0,1-.045-.175l0,0h0c.016-.1.039-.014.044.007.045.2.024-.026.028-.076l.01,0c0,.008.006.019.01.038l.01-.031-.02-.007c-.005-.017-.009-.016-.01,0a.875.875,0,0,0-.118-.038.437.437,0,0,0-.018.08l.063.027v0h0c-.021.043-.051.124-.061.114-.055-.054-.14.024-.169-.178-.006-.046-.071-.054-.11-.075a.17.17,0,0,0-.011.059c.01.065.007.175.065.1.006-.008.02.012.031.02-.031.041-.061.114-.092.118a3.924,3.924,0,0,1-.419.018.38.38,0,0,1-.076-.013l.051-.019c-.006-.014-.015-.042-.02-.04-.033.013-.067.051-.1.049l-.591-.048c-.206-.017-.412-.045-.618-.043-.107,0-.214.073-.321.083l-.51.01c-.039,0-.105-.054-.119.11-.141-.182-.3.088-.44-.079-.083-.1-.129.083-.195.075-.2-.024-.41.067-.615-.065-.083-.054-.184.106-.272-.053,0-.008-.055.155-.116.137-.116-.033-.231.083-.351-.056-.052-.06-.152,0-.214.076-.09.105.01-.288-.082-.126,0,.006-.021-.025-.024-.018-.016.033-.026.088-.044.1s-.031-.042-.055-.067c-.067-.069-.127-.211-.183-.221a3.218,3.218,0,0,0-.4-.071c-.108,0-.03-.094-.036-.115-.045-.167-.215-.081-.191-.372-.062.088-.076-.3-.149-.14-.006.014-.041-.039-.063-.062l.028-.092c-.065-.074-.187-.176-.093-.362s-.043-.053-.028-.127a.9.9,0,0,0,0-.163c0-.011-.028-.036-.028-.036.005-.054.015-.11.024-.161a1.035,1.035,0,0,0,.036.117c.006.014.017.018.025.025,0-.027,0-.054,0-.08s0-.081,0-.12c-.057.27,0-.488-.08-.069-.005.032-.044.056-.047.047a1.614,1.614,0,0,1-.045-.235.612.612,0,0,1,.005-.119c-.017.047-.03.094-.043.146-.008.03-.012.066-.018.1a.744.744,0,0,1-.008-.085,2.138,2.138,0,0,1,.03-.26c0-.016.023,0,.035-.006a.774.774,0,0,1-.019-.2.481.481,0,0,0-.005-.278.288.288,0,0,1,.022-.04c-.017-.045-.033-.092-.051-.133-.011-.022-.035-.028-.037-.048a.172.172,0,0,1,.02-.087c.01-.013.028,0,.043.009l.022.006c-.006-.029-.012-.083-.02-.084-.032-.006.028-.2-.045-.108-.009.011-.02.013-.031.019l.048-.294c-.116-.069.127-.239-.017-.3v-.105c.029.148.015-.247.05-.02a.09.09,0,0,0,.018.029.177.177,0,0,0,.007-.03.938.938,0,0,0,.015-.222,1.281,1.281,0,0,1-.075-.45c.005-.025.062.018.084-.011.06-.079.018-.05-.012-.055s-.076-.052-.075-.069a5.314,5.314,0,0,1,.026-1.032.165.165,0,0,0-.011-.065c0-.009-.015-.008-.022,0a.478.478,0,0,0-.045.033l0-.109a.217.217,0,0,0,.019.047s.017-.009.019-.02c.022-.092.046-.183.062-.28.008-.05,0-.114,0-.17,0-.012.035-.032.039-.022.013.04.02.091.03.138l.048-.068v0h0l.057.238.005-.225a1.233,1.233,0,0,0-.005-.156c-.047-.015-.056.059-.058.144h0c-.052-.1-.106-.191-.154-.3a1.56,1.56,0,0,1,.029-.161c.024-.248-.131-.261-.127-.488,0-.054-.022-.117-.016-.162a.4.4,0,0,1,.054-.118c0,.072,0,.145,0,.217,0,.007.02.009.031.013a.264.264,0,0,1,.015-.126c.011-.149,0-.306,0-.459v-.09a.243.243,0,0,0,.029.046c.005.006.021,0,.021-.009l.009-.179a.171.171,0,0,1-.021.042.463.463,0,0,1-.06.036c0-.069-.01-.135-.012-.2-.008-.245-.018-.49-.018-.734s.015-.5.015-.749c0-.142-.028-.287-.021-.426a2.3,2.3,0,0,1,.062-.5,3.563,3.563,0,0,0,.045-.8c0-.052-.055-.124-.084-.186.075-.028.075-.184.1-.3a.6.6,0,0,1,.08-.155h0l.059.171.041-.229-.1.058v0l0,0c-.2.021-.026-.263-.058-.376a.819.819,0,0,0-.058-.134c.018-.032.065-.045.006-.112a.67.67,0,0,1-.034-.172c.026.033.034.04.082-.11a.134.134,0,0,1,.054.035L1982.29,72l.042-.142a.317.317,0,0,0,0-.134.489.489,0,0,0-.084-.109c.01.068.021.134.027.2l.013.182-.043.142c-.031-.007-.059.015-.082.1a2.913,2.913,0,0,0,.031-.749c.072.1.085-.071.12-.139a.283.283,0,0,0,.007-.056c-.21.043-.031-.3-.081-.424-.067-.169.1-.367,0-.549.1-.057.066-.235.066-.385,0-.1.01-.2.016-.293a.181.181,0,0,0,0-.022l.12-.114c-.037.019-.077.067-.111.05a.209.209,0,0,1-.111-.144c-.014-.254.013-.526-.017-.766-.024-.2.092-.242.061-.331-.085-.242.1-.267.059-.436-.044-.2-.029.161-.075.053,0-.007-.077.16-.083.031a1.322,1.322,0,0,1,.023-.567.581.581,0,0,1,.091-.126c-.038-.01-.016-.221-.084-.126a1.733,1.733,0,0,0-.019-.187,2.836,2.836,0,0,1,.033-.589c.079.065.043-.11.037-.105-.164.124-.064-.2-.063-.24a2.148,2.148,0,0,1,.054-.492c.037-.134.007.144.054.077,0,.051.005.159.038.076a.6.6,0,0,0-.019-.261,1.72,1.72,0,0,1-.064-.675,3.7,3.7,0,0,0-.044-.61.5.5,0,0,1,.065-.344c.013-.02-.032-.193-.016-.246.059-.2-.144-.343-.017-.538-.15-.182.093-.128.03-.258l-.01-.025c-.027.039-.062.218-.077.09a1.775,1.775,0,0,1,0-.629,1.261,1.261,0,0,0,.016-.363,2.417,2.417,0,0,1,.013-.331c0-.163-.026-.337-.008-.516a.369.369,0,0,0-.031-.112c.059.057.073-.248.149-.094.011.023.024.2.069.059a.574.574,0,0,0-.074-.121.923.923,0,0,1-.021-.606.377.377,0,0,0,.021-.121c-.062-.119-.079-.183.026-.14l.01-.036a.266.266,0,0,1-.06-.234c-.064.031-.043-.083-.033-.126.047-.192-.1-.136-.072-.3h-.028l.028-.068c-.033-.049-.092-.156-.045-.192.12-.081.06-.326.071-.487,0-.139-.037-.326.034-.423.066-.079.123-.012.173.094a.052.052,0,0,0,.082.012.535.535,0,0,0,.027-.144c-.018.022-.039.074-.053.065a.213.213,0,0,1-.1-.12c-.022-.065-.005-.148.041-.12a.254.254,0,0,1-.034-.092.515.515,0,0,1,.132-.355,1.3,1.3,0,0,0,.083-.129.489.489,0,0,1-.049-.082.385.385,0,0,1-.007-.085c.076.105.083-.165.14-.16a.1.1,0,0,1,.054.021.531.531,0,0,1,.074.078c.02-.105-.033-.073-.044-.111a.353.353,0,0,1,.026-.314c.025.191.137-.362.137.018.048-.072.1-.136.15-.2.058-.088.155-.267.183-.23.1.136.115-.158.186-.1.011.01.016.044.024.068-.069-.027.049.2-.049.126a1.4,1.4,0,0,0,0,.174C1983.425,56.5,1983.444,56.547,1983.465,56.564Zm7.857,28.292.145.142c0-.054.011-.152.009-.154a.46.46,0,0,0-.115-.04ZM1991,84.4c.032.022.035.054.088-.041l-.006.015,0,.006-.005.012h0l.005-.012,0-.006.019-.046c-.04-.022-.088-.084-.119-.056A.082.082,0,0,0,1991,84.4Zm-.15.228.105.143.032-.166c-.011-.022-.026-.062-.033-.057A.766.766,0,0,0,1990.846,84.626Zm-.164.141c.051.033.088.083.115.067.049-.032-.063-.134.008-.184-.022,0-.045-.008-.066.005A.492.492,0,0,0,1990.682,84.767Zm-.4-.245a.737.737,0,0,0,.1.167c.018.016-.03-.228.088-.073l-.008-.242Zm-.933-.018c.062.073.146.141.208.1.157-.089-.043-.141-.034-.158-.026.153-.055-.014-.09-.095C1989.45,84.525,1989.33,84.48,1989.349,84.5Zm-.306.222c.013.157.056.232.171.191l.085-.087-.107-.045a.039.039,0,0,1-.012-.02l-.083-.25c-.055.118.06.1.033.191a.482.482,0,0,0,0,.051c-.014-.025-.028-.061-.045-.07S1989.043,84.717,1989.044,84.726Zm-1.26.412c0,.019.018.04.028.04.037,0,.078.009.11-.025a.888.888,0,0,0,.1-.184.125.125,0,0,0,0-.054c-.005-.015-.023-.03-.026-.024-.051.108-.1.189-.172.056h-.025a.213.213,0,0,1,.018.053c0,.039,0,.08,0,.119-.005,0-.013,0-.017-.007s-.013-.038-.019-.057A.428.428,0,0,0,1987.784,85.138Zm-1.623-.543c.05.1.121-.107.171.048a.333.333,0,0,0,.017-.094c-.035-.236-.1-.013-.148-.04C1986.155,84.467,1986.154,84.579,1986.161,84.595Zm-1.76.158.018-.04.049.161c.032-.051.078-.17.059.054,0,.058,0,.119,0,.179.005,0,.014,0,.016-.006.026-.129.048-.137.068.007.009-.01.022-.014.026-.029a.224.224,0,0,0,0-.076c-.013-.069-.033-.134-.044-.2a.411.411,0,0,1,0-.076v0c0-.013,0-.011,0,0-.113-.187-.026.137-.083.016a1.577,1.577,0,0,1-.033-.261c0-.012-.065,0-.067.019C1984.4,84.578,1984.4,84.667,1984.4,84.753Zm-.724.076c.01.226.047.022.072.015s.051-.045.072.046c.061-.374-.052-.2-.088-.206C1983.716,84.679,1983.676,84.782,1983.677,84.829Zm-.311-.009a.474.474,0,0,0,.256.036c.014,0,.042-.069.04-.087-.054-.307-.143.016-.156,0C1983.4,84.676,1983.358,84.814,1983.366,84.82Zm-1.1-3.482c.072-.026.039-.172.055-.263h0c.006.035.01.074.019.1s.022.068.036.076c.069.037.074-.128.11-.2a.5.5,0,0,0-.012-.084c-.012.024-.024.052-.037.072a.673.673,0,0,1-.05.06c0-.013,0-.026,0-.04a.979.979,0,0,0-.009-.1c0-.012-.022-.024-.023-.019-.012.041-.023.086-.033.13h0v0c-.043.023-.09.04-.083.178C1982.239,81.286,1982.258,81.341,1982.265,81.338Zm.285-.489-.085.41.012.09c.092-.092.024-.345.091-.462Zm-.116-6.225c0,.111-.025.02-.06-.083l.012.288c.055-.123.179-.2.153-.369C1982.52,74.339,1982.434,74.406,1982.433,74.624Zm.088-3.964c-.019.137-.044.271-.054.411,0,.036.038.09.059.134l.032-.448Zm-.019-.619-.039.1c.1.112.02.252.017.416.053.132.108-.041.1-.095A3.273,3.273,0,0,0,1982.5,70.041Zm.162-2.038-.018.17-.016.21c-.1-.054-.029.1-.041.16a.338.338,0,0,0,0,.073c.018-.009.041-.007.057-.028.09-.117.032-.286.026-.435C1982.672,68.1,1982.737,68.068,1982.664,68Zm-.158-.011c-.141.145-.056.4-.067.614,0,.006.005.014.009.021l.07-.6A.091.091,0,0,0,1982.505,67.992Zm-.15-.091c-.02.114-.039.208-.053.307a.354.354,0,0,0,.029.095c.021-.1.045-.194.062-.3A.445.445,0,0,0,1982.355,67.9Zm.214-1.124a.887.887,0,0,1-.024.164c-.056.15.054.248.021.386.011.005.026.024.035.013.057-.073,0-.124-.008-.186a1.042,1.042,0,0,1,0-.119c.024,0,.055.166.065.013A.9.9,0,0,0,1982.57,66.776Zm-.025-.48-.039.2c.043.034.066-.162.118-.051.007.015.031-.011.047-.017Zm-.173-3.987-.067.2.015.027c.092.044.051-.119.079-.163Zm-.005-2.7c-.079.118.092.228,0,.346.037.064.048.022.055-.092l.05-.026C1982.431,59.779,1982.37,59.762,1982.366,59.611Z" transform="translate(-1982.054 -56.021)" fill="#ffb806"/>
      </g>
      <g id="Group_281" data-name="Group 281" transform="translate(1.411)">
        <path id="Path_10283" data-name="Path 10283" d="M2007.582,56.52v.613c-.044-.03-.094-.03-.1.157-.021-.021-.05-.031-.062-.067-.046-.139-.071-.123-.116.016-.031.1-.085.056-.119-.05,0-.005-.035.038-.054.058-.009-.082-.013-.032-.032-.009s-.078.063-.106.036c-.053-.05.019-.065.013-.068-.04-.021-.091-.071-.123-.04-.156.157-.317,0-.473.069l0,.006c-.144-.087-.282.111-.444-.045-.116-.112-.3.011-.436.119-.1.08-.145-.068-.215-.105-.026-.014-.057.02-.085.018a1.321,1.321,0,0,1-.335-.047c-.058-.02-.107-.138-.165-.168-.023-.011-.076.086-.085.153-.034.242-.126-.049-.166.1-.065-.09-.164-.1-.161-.344a1.156,1.156,0,0,1-.043.207c-.076.162-.147.024-.224-.016-.056-.029-.135-.043-.183.1a.256.256,0,0,1,.045.021l0,.041a.3.3,0,0,1-.084-.038.163.163,0,0,1-.025-.079.094.094,0,0,1,.019-.051.1.1,0,0,1,.041-.021c-.006-.018-.016-.052-.02-.049-.026.016-.073.033-.075.061-.011.186-.09-.019-.11.1-.127-.148-.139-.143-.271-.042-.039.03-.093-.017-.126.025-.078.1-.066-.059-.09-.118-.011-.026-.031-.033-.047-.048a.7.7,0,0,1,.026.088.348.348,0,0,1,0,.06c-.057-.013-.095-.126-.176.026-.062.116-.219-.039-.326.008s-.157.025-.21-.143c-.039.2-.123.218-.207.227a2.417,2.417,0,0,0-.308.024c-.08.019,0-.251-.041-.147-.052.147-.114.144-.165.133-.076-.017-.173.089-.229-.118l.041-.061-.09-.061v-.008l-.012-.01v.029c-.048.227-.132,0-.2.072s-.131.046-.2.046c-.039,0-.106.1-.11-.1,0-.014-.026-.041-.037-.035s-.06.035-.066.072c-.016.107-.068.17-.153.158s-.184.033-.259-.037c-.125-.114-.255.011-.387-.1-.063-.052-.136-.056-.2-.177-.038-.071.032.126-.042.128-.147.006-.013-.423-.144-.394-.051.011-.135-.188-.151.093.009-.006.019-.022.025-.017s.031.043.047.061c.057.061.042.156.027.253-.041-.037-.113-.061-.117-.112-.01-.134-.06-.042-.078-.093.005.029.011.058.015.088,0,0-.008.021-.011.021l-.214-.005.047-.121c-.064.012-.156.088-.188.025-.059-.118-.145.143-.173-.094-.031.026-.056.158-.093.016-.032.162-.13-.139-.157.1,0,.008-.065-.017-.1-.027l-.343-.1c.075-.153-.071-.158-.042-.285a.272.272,0,0,0-.011-.072l-.01.074v0h0c-.107-.285-.137.047-.2.118h0l0,0c-.021-.094-.046-.182-.1-.154-.009,0-.014.047-.021.073.042.024.064.2.125.081h0l0,0c.062.047.132.083.087.287-.006.027-.068.063,0,.1.011.006.037-.02.037-.025a1.414,1.414,0,0,1,.078-.479h0a.969.969,0,0,1,.021.24c-.073.245-.155.392-.319.3-.135-.079-.29.008-.437.018-.039,0-.1.079-.095-.1l-.03.089c-.155-.156-.338.088-.486-.163,0-.005-.014.008-.02.016l-.048.076a.1.1,0,0,1,.036,0s.007.021.011.033c-.029.024-.058.067-.088.069a2.712,2.712,0,0,1-.359.011c-.024,0-.047-.049-.071-.076a.758.758,0,0,1,.09-.055c.023-.01.048-.023.069-.009.078.054.167-.093.239.059a.553.553,0,0,0,.017-.086c.013-.167-.022-.068-.05-.047s-.07.04-.08.015c-.018-.054,0-.16-.047-.016-.026.077-.143.064-.207.016-.112-.085-.156.227-.26.16-.04-.025-.087.024-.131.024-.138,0-.277-.005-.415-.016-.017,0-.039-.041-.047-.076a.914.914,0,0,1-.012-.145c0,.047,0,.095,0,.142a.506.506,0,0,1-.011.064.1.1,0,0,1-.011-.033c-.005-.065-.01-.132-.015-.2-.05.035-.048.112-.037.2a.145.145,0,0,1-.022.058c0,.005-.01,0-.015,0,0-.02.005-.041.009-.061a.207.207,0,0,0-.053-.216.585.585,0,0,1-.05-.089.344.344,0,0,0,.029-.039.174.174,0,0,0,.009-.035c-.017,0-.034-.017-.049-.007a.136.136,0,0,0-.018.073c0,.09.012.181.015.271,0,.121-.011.133-.081.073a.337.337,0,0,1-.043-.057c-.056.258-.134.019-.2.018-.119,0-.242-.141-.339.125,0,.005-.019-.011-.026-.022-.025-.031-.05-.1-.072-.091-.064.018-.126.074-.192.094a.945.945,0,0,1-.262.047c-.018,0-.037-.076-.055-.118,0-.163-.012-.277-.105-.194l-.031-.09a1.8,1.8,0,0,0-.206-.012.415.415,0,0,1-.414-.15c-.066-.08-.177-.071-.263-.162-.018-.018-.063.087-.1.135.042-.006.012.261.092.117.039.123.129-.047.156.131.007.046.007.1.01.145-.04-.034-.079-.1-.119-.1a.537.537,0,0,0-.24.076c-.063.038-.078-.005-.075-.126,0-.011,0-.022,0-.033-.016.143-.054.05-.084.038a.532.532,0,0,0,.007-.115.157.157,0,0,0-.04-.087c-.075-.058-.084.1-.117.176l-.134-.006.039-.1-.057-.09-.008-.025-.029-.032-.012.006c-.09.165-.162.145-.21-.1,0-.01-.01-.013-.017-.02.039.242-.066.2-.113.265.036.077.041.143-.019.16-.08.021-.16.033-.24.047-.007,0-.014-.008-.021-.012s.011-.024.016-.037a.9.9,0,0,0,.033-.107c0-.005-.02-.033-.031-.052l-.011.083c-.047-.018-.1-.082-.138-.059-.086.049-.03-.136-.043-.123a.9.9,0,0,0-.078.151c-.011.019-.027.033-.04.031s-.018-.035-.026-.054c.013,0,.028.013.039,0a.242.242,0,0,0,.04-.069.113.113,0,0,0,0-.036l-.105,0c-.042-.012-.1-.069-.123-.029a.11.11,0,0,0,.039.167c.022.015.054-.052.082-.082.035.186-.1.1-.086.253-.028-.107-.1.156-.118-.071a.109.109,0,0,0-.01-.025.511.511,0,0,0-.047.1.662.662,0,0,0-.007.115c0,.038,0,.075-.007.112l-.052-.045a.137.137,0,0,0,.035-.011.069.069,0,0,0,.005-.035c-.011-.06-.022-.119-.033-.179l-.046.06c.011.009.028.011.033.028a.182.182,0,0,1,0,.078c-.034.051-.071.093-.107.138.006-.027.013-.054.018-.081.021-.108-.005-.165-.048-.2a.064.064,0,0,1-.01-.1c.021-.026.05-.025.075-.037a.549.549,0,0,1-.051-.056c-.095-.136-.042.076-.062.119-.079.175-.141-.111-.216-.045h0c-.029-.048-.05-.2-.094-.014-.013.054-.062.079-.083-.025-.063.095-.127.19-.191.284,0,.005-.015,0-.015,0-.011-.089-.022-.177-.032-.267.023.007.052,0,.067.025.062.113.065-.105.109-.081a.566.566,0,0,1-.063-.094c-.108-.224-.008.119-.049.084-.01-.009-.029.029-.041.023-.129-.059-.114.232-.176.334-.023.038-.058.042-.087.061a.312.312,0,0,1-.01-.085c.047-.245-.089-.212-.119-.356s-.087-.3-.187-.28c-.022.005-.046-.026-.067-.019s-.024.048-.035.075c.112-.061.112.348.231.256.012-.01.03.01.046.015a1.649,1.649,0,0,1-.105.171.485.485,0,0,1-.047-.1.221.221,0,0,1,0-.041.332.332,0,0,0-.045.061.749.749,0,0,1-.059.146c-.013.014-.043-.046-.066-.073a.2.2,0,0,0,.073-.041c.008-.009.048-.1-.006-.084s-.086.08-.13.116c-.008.006-.029-.036-.031-.032-.048.126-.088,0-.1-.047-.043-.145-.045-.292.054-.341.011-.005.03.062.046.1a.623.623,0,0,0,0-.093c-.036-.027-.095-.087-.107-.057-.054.126-.1.241-.169.047l0,.035c.032.054.066.144.1.149s.043.012.016.069c-.01.018-.026.021-.036.04-.022.047.1-.026.015.077-.008.009-.008.191-.04.019,0-.021-.061-.032-.072-.005-.032.079-.129-.185-.117.1,0,.013-.024.037-.038.046-.082.052-.156.178-.249.11a.131.131,0,0,1-.034-.025.057.057,0,0,1-.009-.033c.086-.271-.031-.172-.077-.2h0c.024,0,.053.012.068-.013.052-.087-.035-.076-.025-.141l-.125.031,0-.006,0,0,.036-.248c-.066.049-.107-.227-.174-.076-.04.091.08.279-.032.361.01.011.022.016.028.033.067.17.085-.146.142-.069l0,.01h0l-.035.055.118.068h0c-.09.1-.007.134.017.191a.211.211,0,0,1,.008.03.227.227,0,0,1-.029.015c-.1.033-.213-.061-.307.09-.005.008-.026-.006-.029-.021a.575.575,0,0,1-.015-.119.424.424,0,0,1,.015-.078l-.136-.064c0,.034,0,.069,0,.1a.15.15,0,0,1-.01.055c-.082.024-.164.036-.246.067s-.168-.12-.248.018l-.01-.012a.432.432,0,0,1,.016-.109.3.3,0,0,1,.067-.072c-.07.04.015-.259-.078-.169a.185.185,0,0,0-.022.028c.005.011.01.022.015.034.011.037.022.075.033.113l-.011.025c-.009-.151-.055.047-.075-.038a.284.284,0,0,0-.046-.121c-.012-.012-.049.027-.054.059a1.123,1.123,0,0,0,0,.188.117.117,0,0,0,.012.032c-.006.009-.013.026-.018.025a.277.277,0,0,1-.107-.053c-.03-.028-.063-.134-.08-.12-.074.061.045.025.012.084-.084.148-.188.083-.274.067a.639.639,0,0,1-.311-.247c-.056-.07-.078.054-.118.029l.015.155a.933.933,0,0,0,.1-.062.291.291,0,0,0,.042-.064.659.659,0,0,1-.007.105c-.017.058-.047.163-.057.155-.154-.123-.309-.02-.463-.032-.04,0-.078-.062-.117-.065s-.057.053-.088.069c-.008,0-.032-.052-.032-.054.017-.054.036-.1.054-.155a.424.424,0,0,0-.081.064.834.834,0,0,0-.066.115c-.009.018-.025.058-.025.057-.127-.24-.264.085-.392-.028l-.03-.026a.1.1,0,0,1,.008-.026c.036-.033.118-.082.1-.1a.3.3,0,0,0-.24-.073c-.029,0-.057.1-.083.16a.493.493,0,0,0-.009.079c-.082-.011-.163-.028-.243-.044.019-.016.039-.031.059-.049v-.037l-.121,0a.122.122,0,0,0,0,.039.509.509,0,0,0,.031.057.144.144,0,0,1-.047.016,2.515,2.515,0,0,1-.414-.031c-.043-.01-.081-.113-.121-.172-.008-.011-.019-.02-.026-.015a.068.068,0,0,0-.022.044c-.023.288-.075-.039-.11.02a.727.727,0,0,1-.047-.094l-.023-.045a.421.421,0,0,0-.011.064.148.148,0,0,0,.014.039c.005.013.01.028.014.042s-.017.03-.021.026c-.062-.05-.131-.077-.179-.163-.073-.129.1-.037.043-.179-.009-.022-.013-.061-.024-.068a.961.961,0,0,0-.111-.059v-.565a.174.174,0,0,0,.13-.042c.015-.012.163-.133.191.135.075-.145.141.124.219.022.013-.018.04.014.061.022l-.014.154,0,.038c.009,0,.019,0,.026-.011a.346.346,0,0,0,.024-.064c-.036-.072-.024-.107.018-.1.01,0,.057-.1.041.04a.168.168,0,0,0,.059-.02s0-.061,0-.069c.181-.268.361-.132.548-.021.064.038.163-.11.21-.046.071.1.107-.071.164-.02s.1.021.156.029c.113.018.217-.126.346,0,.057.055.2.134.3-.084.03-.066.136.015.206.047.1.045.2.107.3.163.026-.3.133-.152.209-.2s.2.141.275-.077c0-.006.011,0,.018,0-.005.113-.01.228-.017.34a.162.162,0,0,1-.014.04c.007.005.018.018.02.014.045-.106.089-.215.133-.324a.457.457,0,0,1,.027-.066c.005-.009.018,0,.026.006a.171.171,0,0,0-.023.051.6.6,0,0,0,0,.095.153.153,0,0,0,.1-.009c.036-.024.068-.1.1-.111a.418.418,0,0,1,.409.034c.091.072.183-.152.274-.005a.831.831,0,0,1,.045.175l0,0h0c-.017.1-.04.014-.045-.007-.045-.2-.023.026-.028.076l-.01,0c0-.008-.006-.019-.01-.039l-.01.032.02.007c.006.017.009.016.01,0a1.014,1.014,0,0,0,.118.038.457.457,0,0,0,.018-.08l-.062-.027v0h0c.022-.043.051-.124.061-.113.055.054.14-.024.169.178.006.046.072.053.111.074a.173.173,0,0,0,.01-.058c-.01-.066-.007-.175-.064-.1-.006.009-.021-.012-.032-.019.031-.041.061-.114.092-.119a4.174,4.174,0,0,1,.419-.017.332.332,0,0,1,.076.013l-.052.019c.007.014.015.041.02.04.033-.013.067-.051.1-.049.2.011.394.032.591.048s.412.045.618.042c.107,0,.214-.072.322-.082.169-.015.34.005.51-.01.039,0,.105.054.12-.11.141.182.3-.089.439.078.083.1.129-.082.2-.074.2.024.409-.068.614.065.083.054.184-.107.272.052,0,.009.054-.154.116-.136.116.032.231-.083.352.056.051.06.151,0,.213-.077.091-.105-.01.289.082.127,0-.006.021.024.024.018.016-.033.026-.088.044-.1s.032.043.049.064c.053.066.109.2.157.182a.526.526,0,0,0,.314-.213c.074-.111.037.049.045.061.066.1.153-.193.206.057.013-.151.122.1.12-.132,0-.019.032-.041.048-.061l.011.1c.054-.064.131-.235.149.036s.034-.052.051.008a.167.167,0,0,0,.054.074s.02-.041.021-.04c.017.034.033.071.048.107a.375.375,0,0,0-.054.032c-.007.005-.011.025-.018.038a.294.294,0,0,1,.03.026c.015.017.029.035.043.053-.083-.2.185.151.049-.142a.326.326,0,0,1-.005-.114.21.21,0,0,1,.092-.032c.014,0,.028.024.042.037-.015-.042-.029-.085-.045-.126-.009-.023-.019-.042-.03-.063.01,0,.022-.005.03,0a.768.768,0,0,1,.085.112.3.3,0,0,1,0,.079c.026-.009.063-.044.074-.02.04.086.071.038.106,0l.018.049c.02-.038.042-.072.06-.113.01-.023.013-.077.022-.081s.033.018.039.043a.4.4,0,0,1,0,.1l0,.048c.013-.014.038-.026.039-.043,0-.07.091.062.048-.1-.005-.02-.005-.046-.009-.069l.133.107c.031-.257.107.281.137-.036,0-.006.031,0,.047,0-.067.063.112.033.009.111-.005,0-.008.025-.012.039s.009.013.013.015c.034.015.084.065.1.034.037-.072.157-.212.2-.167.012.011-.008.137.005.186.036.134.023.041.025-.026a.486.486,0,0,1,.032-.165c.155.04.315-.128.466.058.006.008.021-.009.029-.023a.118.118,0,0,0,0-.048c0-.033-.01-.066-.015-.1l.049-.006a.207.207,0,0,0-.021.044.075.075,0,0,0,.009.041,1.063,1.063,0,0,0,.126.136c.023.018.052-.005.076,0a.217.217,0,0,1,.01.084.377.377,0,0,1-.062.066l.03.107v0h0v0l-.108.126a.976.976,0,0,0,.1.011c.025,0,.069,0,.07-.011.007-.1-.026-.125-.065-.128v0c.045-.115.087-.235.136-.341.007-.015.047.052.073.064.112.054.118-.288.22-.281.025,0,.053-.049.073-.035s.036.079.054.121a.748.748,0,0,0-.1.01l-.006.067c.027-.031.046.028.057.033a.552.552,0,0,0,.208.007h.041a.345.345,0,0,0-.021.062.12.12,0,0,0,0,.047.716.716,0,0,0,.081.019.2.2,0,0,1-.018-.046c-.007-.043-.011-.088-.017-.132a.744.744,0,0,1,.092-.029,2.255,2.255,0,0,1,.332-.041c.112,0,.226.034.338.035.064,0,.13-.062.192-.048a.349.349,0,0,1,.225.14c.116.169.241.061.36.1.023.008.055-.119.084-.185.012.166.083.166.134.228a.8.8,0,0,1,.07.177v.006h0l-.077.131.1.09-.026-.22v-.006c-.01-.444.119-.057.17-.128a.885.885,0,0,0,.061-.128c.014.04.02.145.05.013.01-.042.051-.051.078-.076-.015.056-.018.076.049.18a.9.9,0,0,1-.016.122l.08-.025.064.093c.015.021.052.025.061,0a1.353,1.353,0,0,0,.049-.185.683.683,0,0,1-.091.06c-.027.011-.055.021-.083.03-.027-.04-.048-.07-.064-.1a.268.268,0,0,0-.045-.179c.113.006.219.2.338.067-.044.16.032.189.062.267,0,.012.017.011.026.015-.019-.466.134-.068.192-.178.076-.148.166.228.248-.009.026.231.106.144.174.145a.532.532,0,0,1,.133.035l.01-.005c.018.088.035.176.052.264a1.365,1.365,0,0,1-.023-.247c.009-.091.039-.238.065-.245.115-.03.238.029.346-.035.09-.054.109.2.149.134.11-.19.121.213.2.13.09-.1-.072-.065-.024-.166,0-.006-.072-.171-.013-.184.082-.018.18-.112.256.051a1.464,1.464,0,0,1,.056.2c0-.083.1-.034.057-.185a.23.23,0,0,0,.084-.042c.1-.1.176.087.266.074-.029.176.05.095.048.083-.056-.364.089-.143.108-.141a.3.3,0,0,1,.222.12c.061.082-.065.015-.035.117-.023.011-.072.014-.034.084.02.037.09.007.118-.043a.239.239,0,0,1,.3-.141.414.414,0,0,0,.275-.1c.056-.038.11,0,.156.143.01.029.088-.069.112-.034.09.131.155-.319.242-.037.083-.333.058.206.117.068l.011-.025c-.018-.06-.1-.135-.04-.17.086-.054.185-.121.284-.01a.139.139,0,0,0,.164.035c.057-.026.1.024.149.029.074.009.152-.059.233-.017.013.007.033-.045.051-.069-.026.13.112.162.042.331-.01.025-.088.053-.026.154a1.038,1.038,0,0,0,.055-.165.142.142,0,0,1,.273-.046c.015.027.051.058.054.047.054-.139.083-.177.063.057a.058.058,0,0,0,.017.022c.026-.08.045-.18.105-.133-.014-.141.037-.1.056-.073.087.1.062-.224.135-.16v-.062l.031.062c.022-.072.071-.206.087-.1.04.265.124.131.183.123s.107-.143.156-.017a.723.723,0,0,1,.01.394.4.4,0,0,0,.02.174c.01.026.046.006.07.007-.016-.029-.045-.056-.046-.087a.935.935,0,0,1,.015-.242c.018-.066.051-.064.059.039a.392.392,0,0,1,.02-.106c.066-.064.122,0,.178.072a.33.33,0,0,0,.086.069c0-.046-.005-.091,0-.136a.28.28,0,0,1,.02-.069c.013.2.094.024.127.108a.582.582,0,0,1,.031.1c.012.053.022.109.033.164.043-.058-.006-.1,0-.148,0-.115.021-.225.091-.22-.02.2.168-.161.1.171a.748.748,0,0,0,.154-.054c.061-.035.154-.163.173-.121.08.173.1-.126.156-.061a.254.254,0,0,1,.019.07c-.058-.034.042.2-.043.12a1.619,1.619,0,0,0,0,.173C2007.543,56.453,2007.56,56.5,2007.582,56.52Zm-21.761-.151-.144-.142c0,.054-.012.152-.009.154a.441.441,0,0,0,.114.04Zm.325.458c-.032-.023-.035-.054-.088.041l.006-.015,0-.006.005-.012c.009-.022.012-.029,0,0l-.005.012,0,.006-.018.046c.04.022.088.084.119.056A.082.082,0,0,0,1986.146,56.827Zm.15-.228-.105-.143-.032.166c.012.022.026.061.033.057A.764.764,0,0,0,1986.3,56.6Zm.164-.141c-.051-.033-.087-.084-.115-.067-.049.032.063.133-.008.184.022,0,.046.008.066-.006S1986.43,56.52,1986.46,56.458Zm.4.245a.842.842,0,0,0-.1-.168c-.018-.015.029.229-.089.074l.009.242Zm.932.018c-.061-.073-.145-.141-.208-.105-.156.09.043.141.034.158.026-.153.056.015.09.1C1987.692,56.7,1987.812,56.744,1987.793,56.721Zm.306-.222c-.013-.158-.056-.233-.17-.191l-.086.087c.036.015.072.029.107.045a.037.037,0,0,1,.012.02l.083.25c.055-.118-.06-.1-.034-.191a.479.479,0,0,0,0-.052c.015.025.028.061.045.071S1988.1,56.508,1988.1,56.5Zm1.26-.412c0-.019-.018-.04-.028-.04-.038,0-.079-.009-.111.025a.85.85,0,0,0-.1.184.112.112,0,0,0,0,.054c.006.014.023.03.026.024.051-.108.1-.189.172-.056h.025a.213.213,0,0,1-.018-.053c0-.04,0-.08,0-.119.005,0,.013,0,.017.007s.013.038.02.057A.512.512,0,0,0,1989.359,56.087Zm1.622.543c-.05-.1-.121.107-.171-.048a.367.367,0,0,0-.017.094c.035.235.1.012.148.04S1990.989,56.646,1990.981,56.63Zm1.761-.158-.018.04-.048-.161c-.033.051-.078.17-.06-.054,0-.058,0-.119,0-.18-.005,0-.014,0-.016.007-.026.129-.048.137-.068-.007-.01.01-.023.014-.026.029a.223.223,0,0,0,0,.076c.013.069.034.134.044.2a.337.337,0,0,1,0,.076v0c0,.012,0,.01,0,0,.113.186.026-.137.083-.016a1.577,1.577,0,0,1,.033.261c0,.011.065,0,.068-.019C1992.744,56.647,1992.74,56.558,1992.742,56.472Zm.723-.077c-.009-.226-.047-.021-.072-.015s-.051.046-.072-.045c-.061.374.052.2.088.206C1993.426,56.545,1993.467,56.443,1993.465,56.395Zm.307,0a.631.631,0,0,0-.252-.025c-.014,0-.042.07-.04.088.054.307.144-.016.157,0C1993.747,56.545,1993.78,56.4,1993.772,56.393Zm2.024-.263c.011.159.077.084.119.122v0a.216.216,0,0,0-.047.043.2.2,0,0,0-.033.08c-.017.154.058.163.088.242,0,.008.025-.017.038-.026-.011-.027-.023-.053-.033-.083s-.018-.074-.027-.111a.065.065,0,0,0,.018,0,.117.117,0,0,0,.047-.019.137.137,0,0,0,.009-.051c-.019-.027-.04-.049-.059-.073v0l0,0,0,0c-.01-.1-.018-.2-.081-.185A.091.091,0,0,0,1995.8,56.13Zm.22.629-.185-.188-.04.027c.042.2.156.053.209.2Zm2.812-.257c-.05,0-.009-.054.038-.132l-.131.026c.056.124.089.4.167.338C1998.956,56.7,1998.926,56.505,1998.828,56.5Zm1.79.194a.94.94,0,0,0-.185-.119c-.017-.006-.041.084-.062.131l.2.072Zm.28-.042-.047-.085c-.05.22-.113.044-.188.036-.059.118.019.239.043.229C2000.774,56.809,2000.835,56.719,2000.9,56.655Zm.92.358c-.026-.014-.052-.03-.076-.04s-.063-.024-.095-.036c.025-.211-.047-.063-.072-.089-.009-.009-.022,0-.033,0a.905.905,0,0,0,.013.127c.053.2.129.071.2.057C2001.772,57.03,2001.789,57.175,2001.818,57.012Zm.005-.35c-.066-.314-.183-.126-.278-.148l-.01.019c.09.053.181.105.271.155C2001.812,56.692,2001.821,56.667,2001.823,56.663Zm.041-.333a1.214,1.214,0,0,0-.139-.116c-.01-.006-.029.041-.043.064a1.794,1.794,0,0,0,.133.136C2001.823,56.42,2001.841,56.372,2001.865,56.33Zm.508.475c-.028-.018-.057-.02-.075-.052-.068-.126-.111.119-.174.045a.32.32,0,0,0-.006.077c.033.128.056,0,.084-.017s.036,0,.054,0c0,.053-.075.122-.005.143C2002.285,57.009,2002.328,56.88,2002.372,56.8Zm.216-.056-.091-.087c-.015.1.074.147.024.262a.432.432,0,0,0,.007.1Zm1.8-.384c-.031-.05-.061-.1-.092-.147,0,0-.016.042-.012.032-.019.2.054.112.074.175Zm1.218-.011c-.053-.177-.1.2-.156,0-.029.082-.01.105.041.121l.012.111C2005.533,56.5,2005.54,56.363,2005.609,56.354Z" transform="translate(-1983.66 -55.662)" fill="#ffb806"/>
      </g>
      <g id="Group_282" data-name="Group 282" transform="translate(25.333 0.108)">
        <path id="Path_10284" data-name="Path 10284" d="M2020.911,84.676v-.614c.032.025.07.022.068-.164.014.017.034.018.045.052.042.129.062.1.075-.053.009-.1.043-.094.084-.01a.535.535,0,0,0,.023-.088c.021.068.014.019.022-.013.012-.048.03-.114.053-.11.042,0,.005.069.008.068a.1.1,0,0,0,.081-.079c.035-.263.155-.356.175-.61v-.009c.077-.179.013-.41.083-.646a3.268,3.268,0,0,0-.054-.965,1.271,1.271,0,0,1,.047-.477c.006-.057-.01-.126-.008-.189,0-.248,0-.5.02-.742.01-.128.062-.238.076-.366a.316.316,0,0,0-.069-.188c-.11-.076.022-.28-.044-.368.04-.144.047-.364.156-.356-.032-.031-.071-.044-.094-.095a.92.92,0,0,1,.008-.5.718.718,0,0,0-.045-.4c0,.033-.005.067-.01.1l-.018,0c.005-.063.007-.128.017-.187a.085.085,0,0,1,.036-.054c.005,0,.018.024.023.043a.743.743,0,0,1,.01.092c.008-.016.024-.035.022-.045a.649.649,0,0,0-.027-.167c-.084-.025.009-.2-.044-.242a1.083,1.083,0,0,0,.019-.6c-.014-.085.007-.206-.011-.278-.047-.173.026-.145.053-.2a.571.571,0,0,0,.022-.1.514.514,0,0,1-.039.058c-.008.007-.018,0-.027,0a.692.692,0,0,0-.011-.387,5.391,5.391,0,0,1,0-.723.7.7,0,0,1,.064-.464.71.71,0,0,1-.1-.459c0-.228,0-.457-.01-.683-.009-.178.114-.009.067-.091a.67.67,0,0,1-.061-.365c.008-.17-.04-.385.054-.509l.027.093.027-.2h0l0-.027-.013,0c-.1-.105,0-.29-.032-.439a2.2,2.2,0,0,1-.021-.44c0-.087-.047-.236.046-.244a.17.17,0,0,0,.016-.081.379.379,0,0,0-.032-.146c-.048-.036-.076-.152-.071-.339a3.954,3.954,0,0,1,.017-.574c.051-.278-.005-.563.044-.857a2.212,2.212,0,0,1,.079-.444c.033-.083-.056.071-.058-.093,0-.325.191-.03.178-.32-.005-.112.084-.3-.042-.334a.229.229,0,0,1,.007.056c-.007.036-.019.066-.027.1-.027.126-.07.093-.114.06a1.062,1.062,0,0,1,.05-.259c.061-.023.019-.131.042-.172a.443.443,0,0,1-.04.033s-.01-.017-.01-.026l0-.473.055.1a1.757,1.757,0,0,1-.01-.416c.053-.13-.065-.322.042-.384-.011-.067-.072-.125-.007-.2-.073-.073.062-.288-.045-.348,0,0,.007-.146.012-.222l.045-.762c.069.165.072-.157.129-.092.007.008.021-.017.033-.026l-.033-.021v0h0c.129-.237-.021-.3-.053-.442v0a.262.262,0,0,0,.069-.231c0-.019-.022-.031-.033-.047-.01.093-.089.142-.036.278h0l0,0c-.022.139-.038.293-.13.193-.012-.013-.029-.149-.045-.005a.264.264,0,0,0,.011.08c.087-.037.147.1.216.174h0c-.037.018-.086.08-.108.047a.916.916,0,0,1-.134-.706,7.725,7.725,0,0,0-.008-.966c0-.085-.036-.216.046-.211a.353.353,0,0,1-.04-.065,8.626,8.626,0,0,1,.074-1.075.135.135,0,0,0-.008-.044l-.033-.107c0,.026,0,.053,0,.078,0,.01-.01.017-.015.025a1.33,1.33,0,0,1-.031-.2c-.005-.264-.008-.529-.005-.793a.733.733,0,0,1,.034-.158c.008.067.018.133.025.2a.671.671,0,0,1,0,.151c-.024.173.042.37-.026.53.013.013.026.033.039.039.076.027.031-.05.021-.112a.542.542,0,0,1-.006-.177c.024-.042.072.005.007-.1a1.185,1.185,0,0,1-.007-.458c.038-.247-.1-.346-.073-.576a2.515,2.515,0,0,0-.01-.289c0-.306,0-.612.007-.918a.205.205,0,0,1,.035-.1c.019-.022.043-.018.065-.025a.4.4,0,0,1-.064-.009c-.01,0-.019-.017-.029-.025s.01-.023.015-.025l.089-.033c-.015-.114-.052-.1-.091-.08-.006,0-.018-.023-.027-.037a.089.089,0,0,1,0-.025.261.261,0,0,1,.028.013c.056.042.076-.025.095-.11.01-.039.024-.072.035-.109.006.018.013.038.021.054s.011.01.017.014a.548.548,0,0,0,0-.1c0-.018-.025-.032-.035-.025-.04.02-.079.053-.12.069s-.058,0-.044-.125c0-.028.011-.056.018-.086-.123-.018-.04-.207-.062-.314-.037-.178-.055-.459-.193-.391a.12.12,0,0,1-.008-.044.579.579,0,0,0-.013-.15.558.558,0,0,0-.144-.1,1.4,1.4,0,0,0-.185-.109c-.012-.006-.017-.09-.027-.138.018-.157.012-.275-.072-.219l-.024-.092a.729.729,0,0,0-.2-.019.415.415,0,0,1-.414-.15c-.066-.08-.177-.071-.263-.162-.018-.018-.063.087-.1.135.043-.006.012.261.093.117.038.123.129-.047.156.131.007.046.007.1.01.145-.04-.034-.08-.1-.119-.1a.53.53,0,0,0-.24.076c-.063.038-.078-.005-.077-.126v-.033c-.017.143-.054.05-.084.038a.591.591,0,0,0,.007-.115.164.164,0,0,0-.039-.087c-.075-.058-.084.1-.117.176l-.134-.006.039-.1-.057-.09-.008-.025-.03-.032-.012.006c-.09.165-.161.145-.209-.1,0-.01-.011-.013-.017-.02.04.242-.066.2-.112.265.036.077.041.143-.019.16-.08.021-.16.033-.24.047-.007,0-.015-.008-.022-.012s.011-.024.017-.037a1.088,1.088,0,0,0,.032-.107.32.32,0,0,0-.032-.052l-.011.083c-.046-.018-.1-.082-.137-.059-.086.049-.03-.136-.043-.123a.821.821,0,0,0-.078.151c-.01.019-.027.033-.04.031s-.018-.035-.026-.054c.013,0,.028.013.039,0a.26.26,0,0,0,.04-.069.145.145,0,0,0,0-.036l-.105,0c-.042-.012-.1-.069-.124-.029a.111.111,0,0,0,.04.167c.021.015.055-.052.082-.082.034.186-.1.1-.087.253-.028-.107-.1.156-.117-.071a.1.1,0,0,0-.01-.025.511.511,0,0,0-.047.1.78.78,0,0,0-.006.115l-.007.112-.052-.045a.121.121,0,0,0,.034-.011.067.067,0,0,0,.006-.035l-.034-.179-.045.06c.011.009.027.011.033.028a.169.169,0,0,1,0,.078c-.034.051-.071.093-.107.138.007-.027.014-.054.019-.081.021-.108-.006-.165-.049-.2a.065.065,0,0,1-.01-.1c.021-.026.049-.025.075-.037a.522.522,0,0,1-.051-.056c-.1-.136-.043.076-.062.119-.08.175-.14-.111-.216-.045h0c-.029-.048-.051-.2-.095-.014-.012.054-.061.079-.083-.025l-.19.284c0,.005-.015,0-.015,0l-.033-.267c.022.007.052,0,.067.025.061.113.065-.105.108-.081a.7.7,0,0,1-.063-.094c-.107-.224-.007.119-.048.084-.011-.009-.029.029-.041.023-.129-.059-.114.232-.176.334-.024.038-.058.042-.088.061a.352.352,0,0,1-.01-.085c.047-.245-.089-.212-.119-.356s-.086-.3-.187-.28c-.021.005-.045-.026-.066-.019s-.024.048-.035.075c.111-.061.111.348.231.256.012-.01.03.01.046.015-.035.059-.069.122-.105.171a.485.485,0,0,1-.047-.1.132.132,0,0,1,0-.041.3.3,0,0,0-.045.061.756.756,0,0,1-.059.146c-.013.014-.043-.046-.066-.073a.188.188,0,0,0,.072-.041c.008-.009.048-.1-.005-.084s-.086.08-.13.116c-.008.006-.03-.036-.031-.032-.048.126-.088,0-.1-.047-.044-.145-.045-.292.053-.341.011-.005.03.062.046.1a.623.623,0,0,0,0-.093c-.036-.027-.095-.087-.107-.057-.054.126-.1.241-.17.047l0,.035c.033.054.066.144.1.149s.043.012.015.069c-.009.018-.026.021-.035.04-.022.047.1-.026.015.077-.008.009-.008.191-.04.019,0-.021-.062-.032-.072-.005-.032.079-.129-.185-.117.1,0,.013-.024.037-.038.046-.082.052-.157.178-.25.11a.151.151,0,0,1-.034-.025.064.064,0,0,1-.008-.033c.086-.271-.032-.172-.077-.2h0c.023,0,.053.012.068-.013.051-.087-.035-.076-.025-.141l-.125.031,0-.006,0,0,.035-.248c-.066.049-.106-.227-.173-.076-.041.091.08.279-.032.361.009.011.022.016.028.033.067.17.085-.146.142-.069l0,.01h0l-.035.055.117.068h0c-.09.1-.007.134.017.191a.211.211,0,0,1,.008.03.191.191,0,0,1-.03.015c-.1.033-.212-.061-.307.09-.005.008-.026-.006-.03-.021a.64.64,0,0,1-.014-.119.356.356,0,0,1,.015-.078l-.136-.064c0,.034,0,.069,0,.1a.152.152,0,0,1-.011.055c-.082.024-.165.036-.246.067s-.168-.12-.248.018l-.01-.012a.4.4,0,0,1,.015-.109.3.3,0,0,1,.068-.072c-.07.04.014-.259-.079-.169a.245.245,0,0,0-.021.028c.005.011.01.022.015.034l.032.113-.01.025c-.009-.151-.055.047-.075-.038a.286.286,0,0,0-.046-.121c-.013-.012-.05.027-.055.059a1.11,1.11,0,0,0,0,.188.117.117,0,0,0,.012.032c-.006.009-.013.026-.018.025a.271.271,0,0,1-.107-.053c-.03-.028-.063-.134-.08-.12-.074.061.045.025.011.084-.083.148-.187.083-.273.067a.636.636,0,0,1-.311-.247c-.057-.07-.078.054-.118.029l.014.155a.956.956,0,0,0,.1-.062.291.291,0,0,0,.041-.064.562.562,0,0,1-.007.105c-.016.058-.047.163-.056.155-.154-.123-.309-.02-.463-.032-.04,0-.078-.062-.118-.065s-.057.053-.087.069c-.009,0-.032-.052-.032-.054.017-.054.035-.1.055-.155a.417.417,0,0,0-.081.064.745.745,0,0,0-.066.115l-.025.057c-.127-.24-.263.085-.392-.028l-.03-.026a.107.107,0,0,1,.008-.026c.036-.033.118-.082.1-.1a.3.3,0,0,0-.241-.073c-.028,0-.057.1-.083.16a.493.493,0,0,0-.009.079l-.243-.044.058-.049V57l-.122,0a.207.207,0,0,0,0,.039c.01.021.021.039.032.057a.144.144,0,0,1-.047.016,2.51,2.51,0,0,1-.414-.031c-.043-.01-.081-.113-.122-.172-.007-.011-.018-.02-.025-.015a.072.072,0,0,0-.023.044c-.022.288-.074-.039-.109.02a.7.7,0,0,1-.047-.094l-.022-.045a.328.328,0,0,0-.011.064c0,.012.01.025.014.039l.014.042c-.007.009-.017.03-.022.026-.061-.05-.13-.077-.178-.163-.074-.129.1-.037.042-.179-.008-.022-.013-.061-.023-.068a1.029,1.029,0,0,0-.111-.059v-.565a.175.175,0,0,0,.13-.042c.015-.012.163-.133.191.135.075-.145.141.124.218.022.014-.018.041.014.062.022l-.014.154,0,.038c.009,0,.02,0,.026-.011a.289.289,0,0,0,.024-.064c-.035-.072-.024-.107.019-.1.01,0,.057-.1.041.04a.172.172,0,0,0,.06-.02s0-.061,0-.069c.18-.268.361-.132.547-.021.065.038.164-.11.211-.046.07.1.106-.071.164-.02s.1.021.156.029c.113.018.217-.126.345,0,.058.055.2.134.3-.084.029-.066.136.015.205.047.1.045.2.107.3.163.026-.3.132-.152.209-.2s.2.141.275-.077c0-.006.011,0,.017,0l-.016.34a.135.135,0,0,1-.015.04c.007.005.018.018.02.014l.133-.324a.471.471,0,0,1,.027-.066c.005-.009.018,0,.026.006a.15.15,0,0,0-.023.051.733.733,0,0,0,0,.095.154.154,0,0,0,.1-.009c.036-.024.068-.1.1-.111a.416.416,0,0,1,.408.034c.092.072.185-.152.275-.005a.878.878,0,0,1,.045.175l0,0h0c-.016.1-.04.014-.045-.007-.044-.2-.023.026-.027.076l-.01,0c0-.008-.006-.019-.01-.039l-.01.032.02.007c.005.017.009.016.01,0a1.016,1.016,0,0,0,.118.038.457.457,0,0,0,.018-.08l-.063-.027v0h0c.021-.043.051-.124.062-.113.055.054.14-.024.169.178.006.046.071.053.11.074a.171.171,0,0,0,.011-.058c-.01-.066-.007-.175-.065-.1-.006.009-.02-.012-.031-.019.031-.041.061-.114.092-.119a4.166,4.166,0,0,1,.419-.017.324.324,0,0,1,.076.013l-.052.019c.007.014.015.041.021.04.033-.013.066-.051.1-.049l.591.048c.206.017.412.045.618.042.107,0,.213-.072.321-.082l.51-.01c.039,0,.105.054.119-.11.141.182.3-.089.44.078.083.1.129-.082.195-.074.2.024.41-.068.615.065.083.054.184-.107.272.052,0,.009.054-.154.116-.136.116.032.231-.083.351.056.052.06.152,0,.214-.077.09-.105-.01.289.082.127,0-.006.021.024.024.018.016-.033.026-.088.044-.1s.031.042.055.067c.067.069.127.211.184.221a3.385,3.385,0,0,0,.4.071c.108,0,.029.094.036.115.045.167.215.08.191.372.062-.089.076.3.148.14.006-.014.041.039.062.062l-.027.092c.065.074.187.176.093.362s.043.053.028.126a.85.85,0,0,0,0,.164c0,.011.028.036.028.036-.005.054-.015.109-.024.161a.779.779,0,0,0-.037-.117c-.005-.015-.016-.018-.024-.025,0,.027,0,.054,0,.08s0,.081,0,.12c.057-.27,0,.488.08.069.005-.031.044-.055.047-.047a1.667,1.667,0,0,1,.045.235.6.6,0,0,1-.005.119c.017-.047.03-.094.043-.146.008-.03.012-.066.018-.1a.78.78,0,0,1,.008.085,2.118,2.118,0,0,1-.03.26c0,.017-.023.005-.035.007a.765.765,0,0,1,.019.2.476.476,0,0,0,.005.277.248.248,0,0,1-.022.041c.017.045.033.092.051.132.01.023.035.029.037.049a.173.173,0,0,1-.02.087c-.011.013-.028,0-.043-.009l-.022-.006a.337.337,0,0,0,.019.084c.032.005-.028.2.046.108.009-.011.02-.013.031-.019l-.048.294c.116.069-.127.238.017.3l0,.105c-.028-.148-.014.247-.049.02,0-.013-.011-.019-.018-.029a.159.159,0,0,0-.007.03.935.935,0,0,0-.015.222,1.281,1.281,0,0,1,.075.45c-.005.025-.062-.018-.084.011-.06.079-.019.05.012.055s.076.052.075.069a5.326,5.326,0,0,1-.026,1.032.161.161,0,0,0,.01.064c0,.01.015.009.022.005a.5.5,0,0,0,.045-.033l0,.109a.17.17,0,0,0-.02-.047s-.016.008-.018.02c-.022.092-.046.183-.062.28-.008.05,0,.113,0,.169,0,.013-.034.033-.038.023-.013-.041-.02-.091-.03-.138l-.048.067h0v0h0l-.057-.239-.005.226a1.242,1.242,0,0,0,.005.156c.047.014.056-.059.058-.144v0c.052.1.106.192.154.3a1.551,1.551,0,0,1-.029.161c-.024.248.131.261.127.488,0,.054.022.116.016.162a.381.381,0,0,1-.055.118c0-.072,0-.145,0-.217,0-.007-.02-.01-.031-.014a.259.259,0,0,1-.015.126c-.01.15,0,.307,0,.46v.09a.277.277,0,0,0-.029-.047c-.005-.005-.021,0-.021.01l-.009.178a.18.18,0,0,1,.021-.041.387.387,0,0,1,.06-.036c0,.068.01.135.012.2.008.245.018.489.018.734s-.015.5-.016.749c0,.142.029.287.022.426a2.256,2.256,0,0,1-.063.5,3.611,3.611,0,0,0-.044.8c0,.052.054.124.083.186-.075.028-.075.184-.1.3a.6.6,0,0,1-.08.155h0l-.059-.17-.04.228.1-.058v0l0,0c.2-.021.025.263.058.376a.8.8,0,0,0,.058.134c-.019.031-.066.045-.006.111a.673.673,0,0,1,.034.173c-.026-.033-.034-.04-.082.109a.13.13,0,0,1-.054-.034l.011.177-.042.142a.315.315,0,0,0,0,.134.464.464,0,0,0,.084.108c-.01-.068-.021-.134-.027-.2l-.013-.182.043-.143c.031.007.059-.015.081-.1a2.948,2.948,0,0,0-.03.749c-.072-.1-.085.071-.12.139a.282.282,0,0,0-.007.056c.21-.043.031.3.081.424.067.169-.1.367,0,.549-.1.057-.065.235-.065.385,0,.1-.011.2-.016.293a.091.091,0,0,0,0,.022l-.12.114c.037-.019.077-.067.111-.05a.209.209,0,0,1,.111.144c.014.254-.013.526.017.766.024.2-.092.242-.061.33.085.242-.1.267-.059.436.044.2.029-.16.075-.052,0,.007.077-.16.083-.031a1.324,1.324,0,0,1-.023.567.554.554,0,0,1-.091.125c.038.011.016.222.083.126.006.063.008.132.019.188a2.836,2.836,0,0,1-.033.589c-.079-.066-.043.11-.037.105.164-.124.064.2.063.24a2.128,2.128,0,0,1-.054.492c-.037.134-.007-.144-.053-.077,0-.051-.006-.16-.038-.076a.6.6,0,0,0,.019.26,1.727,1.727,0,0,1,.064.676,3.686,3.686,0,0,0,.044.609.5.5,0,0,1-.065.344c-.013.021.032.194.016.247-.059.2.144.343.017.537.15.183-.093.129-.031.259l.011.025c.027-.04.062-.218.077-.09a1.775,1.775,0,0,1,0,.629,1.27,1.27,0,0,0-.016.363,2.4,2.4,0,0,1-.013.331c0,.163.026.336.008.515a.37.37,0,0,0,.031.113c-.059-.058-.073.248-.149.094-.011-.023-.024-.2-.07-.059a.6.6,0,0,0,.075.121.924.924,0,0,1,.021.606.374.374,0,0,0-.021.121c.062.119.079.183-.026.14l-.01.036a.263.263,0,0,1,.06.234c.064-.031.043.083.033.125-.047.193.1.137.072.3h.028l-.028.068c.033.049.092.156.045.191-.12.082-.06.327-.071.487,0,.139.037.326-.034.423-.066.079-.123.011-.173-.094a.052.052,0,0,0-.082-.012.518.518,0,0,0-.027.144c.017-.022.039-.074.053-.065a.214.214,0,0,1,.1.119c.022.066.005.148-.041.121a.252.252,0,0,1,.033.091.516.516,0,0,1-.132.356,1.416,1.416,0,0,0-.083.128.566.566,0,0,1,.049.083.392.392,0,0,1,.007.085c-.076-.106-.083.165-.14.16a.1.1,0,0,1-.054-.021.578.578,0,0,1-.074-.078c-.02.105.032.073.044.111a.354.354,0,0,1-.026.314c-.025-.19-.137.362-.137-.018-.048.072-.1.136-.15.2-.058.088-.155.267-.183.23-.1-.136-.115.157-.186.1-.011-.01-.016-.045-.024-.068.068.027-.049-.2.049-.126a1.425,1.425,0,0,0,0-.174C2020.95,84.739,2020.932,84.692,2020.911,84.676Zm-7.857-28.292-.145-.142c0,.054-.011.152-.009.154a.461.461,0,0,0,.115.04Zm.325.458c-.032-.023-.035-.054-.088.041l.006-.015,0-.006.005-.012h0l-.005.012,0,.006-.018.046c.04.022.088.084.119.056A.082.082,0,0,0,2013.379,56.842Zm.15-.228-.105-.143-.032.166c.012.022.026.061.034.057A.765.765,0,0,0,2013.529,56.613Zm.164-.141c-.051-.033-.088-.084-.115-.067-.049.032.063.133-.009.184.023,0,.046.008.067-.006S2013.663,56.535,2013.693,56.473Zm.4.245a.764.764,0,0,0-.1-.168c-.018-.015.029.229-.088.074l.008.242Zm.933.018c-.062-.073-.146-.141-.208-.105-.157.09.043.141.034.158.025-.153.055.015.089.1C2014.925,56.714,2015.045,56.759,2015.026,56.736Zm.306-.222c-.013-.158-.056-.233-.171-.191l-.085.087.107.045a.037.037,0,0,1,.012.02l.083.25c.055-.118-.06-.1-.033-.191a.425.425,0,0,0,0-.052c.014.025.028.061.045.071S2015.332,56.523,2015.332,56.514Zm1.26-.412c0-.019-.018-.04-.028-.04-.037,0-.078-.009-.11.025a.883.883,0,0,0-.1.184.114.114,0,0,0,0,.054c.005.014.023.03.025.024.051-.108.1-.189.172-.056h.025a.213.213,0,0,1-.018-.053c0-.04,0-.08,0-.119.006,0,.014,0,.018.007s.013.038.019.057A.428.428,0,0,0,2016.591,56.1Zm1.623.543c-.05-.1-.121.107-.171-.048a.338.338,0,0,0-.017.094c.035.235.1.012.149.04S2018.222,56.661,2018.214,56.645Zm1.76-.158-.017.04-.049-.161c-.032.051-.078.17-.059-.054,0-.058,0-.119,0-.18-.005,0-.015,0-.016.007-.026.129-.048.137-.069-.007-.009.01-.022.014-.025.029a.223.223,0,0,0,0,.076c.013.069.033.134.044.2a.409.409,0,0,1,0,.076v0c0,.012,0,.01,0,0,.112.186.025-.137.083-.016a1.59,1.59,0,0,1,.033.261c0,.011.065,0,.067-.019C2019.976,56.662,2019.973,56.573,2019.974,56.487Zm.724-.077c-.01-.226-.047-.021-.072-.015s-.051.046-.072-.045c-.061.374.052.2.088.206C2020.659,56.56,2020.7,56.458,2020.7,56.41Zm.31.01a.47.47,0,0,0-.256-.037c-.014,0-.042.07-.039.088.054.307.143-.016.156,0C2020.979,56.563,2021.017,56.425,2021.008,56.419Zm1.1,3.482c-.072.026-.039.172-.055.263h0c-.006-.036-.01-.074-.019-.105s-.022-.067-.036-.075c-.069-.037-.074.128-.11.2a.494.494,0,0,0,.012.084c.012-.025.024-.052.037-.072a.737.737,0,0,1,.05-.061c0,.013,0,.027,0,.04a.974.974,0,0,0,.009.1c0,.012.022.025.023.02.012-.041.023-.086.033-.13h0v0c.043-.023.09-.04.083-.178C2022.137,59.954,2022.118,59.9,2022.11,59.9Zm-.285.489.085-.411-.012-.089c-.092.092-.024.345-.091.462Zm.116,6.225c0-.111.025-.02.06.083l-.012-.289c-.055.124-.179.2-.153.37C2021.855,66.9,2021.941,66.833,2021.942,66.615Zm-.088,3.964c.019-.136.044-.271.054-.41,0-.037-.038-.09-.059-.135l-.032.449Zm.019.62.039-.1c-.1-.112-.02-.251-.017-.416-.053-.132-.108.04-.1.095A3.354,3.354,0,0,0,2021.873,71.2Zm-.162,2.038.018-.17.016-.21c.1.054.029-.105.04-.16a.346.346,0,0,0,0-.073c-.019.009-.041.007-.057.028-.09.117-.033.285-.026.434C2021.7,73.134,2021.638,73.171,2021.712,73.237Zm.158.011c.141-.145.056-.4.067-.615,0-.006-.005-.014-.009-.021l-.07.6A.091.091,0,0,0,2021.87,73.247Zm.15.091c.02-.114.039-.208.052-.307a.321.321,0,0,0-.028-.095c-.021.1-.045.194-.062.3A.4.4,0,0,0,2022.02,73.339Zm-.214,1.124a.964.964,0,0,1,.023-.164c.057-.15-.054-.248-.02-.386-.011-.005-.027-.024-.035-.014-.057.074,0,.125.008.187a1.058,1.058,0,0,1,0,.119c-.024,0-.055-.165-.065-.012A.9.9,0,0,0,2021.806,74.463Zm.025.48.039-.2c-.043-.033-.066.163-.118.052-.007-.015-.031.011-.047.017ZM2022,78.93l.067-.2s-.019-.035-.015-.026c-.092-.044-.051.119-.079.163Zm.005,2.7c.079-.117-.092-.228,0-.345-.037-.065-.048-.022-.055.092l-.05.025C2021.944,81.461,2022.005,81.477,2022.01,81.628Z" transform="translate(-2010.893 -55.785)" fill="#ffb806"/>
      </g>
    </g>
  </g>
</svg>
