<svg xmlns="http://www.w3.org/2000/svg" width="87.447" height="39.122" viewBox="0 0 87.447 39.122">
  <path id="Path_10279" data-name="Path 10279" d="M2063.169,65.155c.008-.182-.027-.372-.027-.558,0-.328.02-.654.02-.982s-.014-.641-.024-.962c0-.09-.01-.178-.016-.267a.45.45,0,0,0-.074.047c-.01.008-.018.035-.026.054l.01-.235c0-.008.019-.019.027-.012a.289.289,0,0,1,.035.061v-.119c0-.2-.01-.407,0-.6a.386.386,0,0,0,.019-.166c.013.006.037.009.038.018,0,.095,0,.191,0,.285a.485.485,0,0,0,.069-.155c.008-.06-.021-.141-.019-.212,0-.3-.189-.314-.158-.64.007-.076.045-.19.036-.211-.059-.142-.127-.264-.192-.394h0c0,.112-.014.208-.072.19a1.453,1.453,0,0,1-.006-.206l.006-.3.071.314v0l.061-.089a1.658,1.658,0,0,0,.038.181c0,.013.046-.012.047-.029.005-.073-.008-.156,0-.221.019-.127.049-.247.077-.368,0-.015.019-.032.023-.025a.319.319,0,0,1,.026.061l0-.142a.575.575,0,0,1-.055.042c-.009,0-.024.006-.027-.006a.222.222,0,0,1-.013-.084,7.271,7.271,0,0,0,.033-1.352c0-.024-.06-.086-.093-.091s-.089.031-.014-.073c.027-.039.1.018.1-.015a1.733,1.733,0,0,0-.094-.589,1.261,1.261,0,0,1,.019-.291.293.293,0,0,1,.008-.04c.008.013.019.021.022.038.045.3.027-.219.063-.026V56.85c-.177-.086.125-.308-.02-.4l.061-.386c-.013.008-.027.01-.039.025-.091.123-.017-.134-.056-.141-.01,0-.017-.072-.024-.111l.027.009c.019.005.041.028.053.011a.22.22,0,0,0,.025-.114c0-.026-.032-.035-.045-.064-.024-.053-.043-.114-.064-.173a.259.259,0,0,0,.027-.054.663.663,0,0,1-.005-.363,1.155,1.155,0,0,0-.025-.259c.015,0,.041.012.044-.009a2.875,2.875,0,0,0,.036-.341.713.713,0,0,0-.01-.112c-.007.045-.013.091-.022.131-.017.068-.033.129-.054.192a.7.7,0,0,0,.006-.155,2.3,2.3,0,0,0-.054-.308c0-.012-.053.02-.059.061-.1.548-.028-.444-.1-.09,0-.052.005-.1.005-.158,0-.034,0-.069,0-.1.01.011.023.014.03.033a1.159,1.159,0,0,1,.046.154c.01-.068.024-.139.029-.211,0,0-.033-.033-.034-.047a1.06,1.06,0,0,1,0-.215c.018-.1-.16.081-.036-.166a.385.385,0,0,0-.116-.474l.035-.12c-.027-.032-.071-.1-.079-.082-.091.209-.108-.3-.185-.184.029-.383-.183-.269-.238-.488-.009-.028.089-.147-.046-.151a4.064,4.064,0,0,1-.494-.093c-.07-.014-.145-.2-.229-.29-.03-.033-.053-.1-.067-.088s-.035.09-.055.133c0,.007-.026-.033-.03-.024-.114.211.011-.3-.1-.167-.077.095-.2.179-.266.1-.15-.184-.294-.032-.438-.075-.077-.023-.139.191-.145.18-.11-.209-.236,0-.339-.069-.255-.174-.51-.054-.765-.086-.083-.01-.141.228-.243.1-.172-.219-.372.135-.547-.1-.018.214-.1.14-.15.144l-.634.012c-.135.012-.267.106-.4.108-.257,0-.514-.034-.77-.056l-.736-.062c-.042,0-.082.046-.124.063-.007,0-.017-.033-.025-.051l.064-.025a.429.429,0,0,0-.094-.018,4.717,4.717,0,0,0-.522.023c-.04,0-.077.1-.115.155.013.01.031.037.039.025.072-.1.069.043.08.128a.218.218,0,0,1-.013.077c-.048-.028-.129-.038-.138-.1-.035-.265-.141-.163-.21-.234-.013-.013-.049.092-.075.148h0v.005l.078.036a.745.745,0,0,1-.022.105,1.206,1.206,0,0,1-.147-.05c.006-.066-.021-.357.034-.1.006.028.035.14.056.009h0l0-.006a1.13,1.13,0,0,0-.057-.228c-.112-.193-.228.1-.341.006a.5.5,0,0,0-.51-.045c-.045.012-.084.114-.13.146a.185.185,0,0,1-.125.011,1.187,1.187,0,0,1,0-.124.213.213,0,0,1,.029-.068c-.011,0-.026-.018-.033-.008a.574.574,0,0,0-.034.087l-.166.424c0,.006-.017-.011-.026-.018a.175.175,0,0,0,.019-.051l.02-.445c-.007,0-.018-.008-.021,0-.1.285-.229.033-.343.1-.095.056-.228-.135-.259.256-.123-.073-.246-.154-.37-.213-.086-.041-.219-.148-.256-.06-.12.284-.3.182-.368.11-.16-.162-.29.026-.43,0-.065-.011-.137.014-.2-.039s-.117.154-.2.026c-.058-.083-.182.11-.262.06-.233-.145-.458-.323-.683.028-.008.011,0,.087,0,.09a.2.2,0,0,1-.074.027c.021-.183-.039-.051-.051-.054-.053-.012-.068.034-.024.128a.449.449,0,0,1-.029.083c-.008.014-.021.011-.031.016l0-.05.017-.2c-.026-.011-.06-.053-.077-.03-.1.134-.177-.219-.271-.029-.034-.351-.219-.193-.238-.177a.213.213,0,0,1-.162.055v.725h-.012a.44.44,0,0,1-.047-.2,2.2,2.2,0,0,1,0-.227c.106.1-.018-.2.054-.158a.383.383,0,0,0-.025-.092c-.068-.084-.095.307-.195.081-.024-.055-.14.112-.216.158a.934.934,0,0,1-.191.07c.087-.435-.146.034-.122-.224-.088-.008-.108.136-.113.286,0,.06.058.119,0,.194-.014-.072-.025-.146-.041-.215a1,1,0,0,0-.038-.126c-.042-.111-.142.119-.159-.141a.364.364,0,0,0-.026.09c0,.058,0,.118,0,.177a.419.419,0,0,1-.107-.09c-.069-.1-.14-.177-.221-.094a.507.507,0,0,0-.026.14c-.009-.135-.051-.138-.073-.051a1.323,1.323,0,0,0-.019.317c0,.039.032.072.053.107h-.078l-.005,0a.553.553,0,0,1-.024-.228.994.994,0,0,0-.013-.516c-.06-.166-.129.013-.193.022s-.178.186-.229-.162c-.019-.137-.08.037-.108.132l-.038-.082v.082c-.092-.083-.06.343-.169.209-.024-.029-.088-.09-.07.1-.075-.063-.1.068-.132.173,0,0-.021-.022-.02-.029.024-.306-.012-.257-.078-.075-.005.013-.05-.026-.068-.062a.176.176,0,0,0-.341.061,1.371,1.371,0,0,1-.068.216c-.077-.133.02-.17.033-.2.086-.222-.085-.263-.053-.434-.022.032-.047.1-.064.09-.1-.056-.2.033-.289.022-.057-.007-.115-.073-.187-.039a.167.167,0,0,1-.2-.046c-.123-.147-.247-.058-.354.012-.071.047.029.146.051.224,0,0-.01.02-.014.033-.073.183-.043-.524-.146-.088-.109-.37-.19.22-.3.048-.029-.046-.127.083-.139.045-.057-.186-.124-.237-.193-.188a.5.5,0,0,1-.343.128.293.293,0,0,0-.38.184c-.033.067-.121.105-.147.056-.047-.092.014-.095.043-.11-.038-.133.119-.046.043-.153a.366.366,0,0,0-.277-.158c-.022,0-.2-.292-.134.185,0,.017-.1.122-.06-.107-.113.016-.21-.229-.331-.1a.288.288,0,0,1-.105.055c.054.2-.066.134-.071.242a1.983,1.983,0,0,0-.071-.265c-.094-.213-.217-.089-.319-.066-.073.018.021.233.017.242-.06.133.142.089.03.217-.095.109-.109-.418-.245-.17-.05.091-.075-.244-.186-.175-.134.085-.288.007-.43.047-.034.01-.07.2-.082.322a1.67,1.67,0,0,0,.026.309h0c-.021-.111-.041-.222-.062-.333,0,0-.008.008-.012.007a.645.645,0,0,0-.165-.046c-.084,0-.184.112-.216-.191-.1.312-.214-.181-.309.011-.071.146-.263-.375-.238.234-.011-.005-.026,0-.033-.018-.038-.1-.132-.141-.077-.35-.15.176-.28-.079-.422-.088a.364.364,0,0,1,.056.235l.08.126c.034-.012.069-.025.1-.04a.889.889,0,0,0,.114-.078,1.8,1.8,0,0,1-.062.243c-.011.029-.057.025-.075,0l-.08-.121-.1.033a1.339,1.339,0,0,0,.02-.16c-.084-.138-.08-.163-.062-.236-.034.032-.085.044-.1.1-.038.172-.045.034-.062-.018a1.137,1.137,0,0,1-.076.169c-.063.092-.223-.414-.211.169v.007l.033.288-.128-.117.1-.171h0v-.007a1.073,1.073,0,0,0-.088-.234c-.063-.081-.151-.08-.166-.3-.036.086-.077.253-.105.243-.148-.048-.3.091-.449-.13a.429.429,0,0,0-.279-.183c-.078-.018-.16.064-.24.063-.141,0-.281-.046-.422-.046a2.657,2.657,0,0,0-.413.054.828.828,0,0,0-.115.037c.007.058.011.117.02.173a.333.333,0,0,0,.024.06.836.836,0,0,1-.1-.025.157.157,0,0,1-.005-.062.6.6,0,0,1,.026-.083h-.051a.639.639,0,0,1-.258-.009c-.015-.005-.038-.083-.071-.042a.6.6,0,0,1,.007-.088.722.722,0,0,1,.123-.012c-.022-.056-.039-.14-.067-.159s-.061.048-.091.046c-.127-.01-.135.439-.274.368-.032-.016-.082-.1-.091-.083-.062.138-.113.3-.169.446v0c.048,0,.09.034.082.168,0,.014-.058.016-.088.015a1.224,1.224,0,0,1-.127-.015l.134-.165v0h0v0l-.039-.14a.484.484,0,0,0,.078-.088.3.3,0,0,0-.013-.11c-.031-.011-.067.018-.095,0a1.392,1.392,0,0,1-.157-.178.1.1,0,0,1-.011-.054.256.256,0,0,1,.026-.057l-.061.008c.006.043.013.086.018.13a.178.178,0,0,1,0,.063c-.01.018-.029.04-.036.03-.188-.244-.388-.024-.581-.076a.708.708,0,0,0-.039.217c0,.088.013.209-.031.034-.017-.065.008-.229-.007-.244-.057-.059-.206.124-.253.218-.019.041-.082-.025-.125-.044a.082.082,0,0,1-.017-.02c.005-.017.009-.045.017-.05.127-.1-.095-.062-.011-.145-.021,0-.059-.011-.06,0-.037.415-.133-.291-.17.047l-.166-.14a.882.882,0,0,0,.01.09c.053.213-.057.039-.061.131,0,.022-.031.038-.047.057l0-.064a.561.561,0,0,0,.005-.125c-.008-.033-.034-.064-.049-.057s-.015.076-.027.105c-.023.054-.049.1-.075.149l-.023-.064c-.044.049-.083.112-.133,0-.013-.031-.06.016-.091.026a.464.464,0,0,0,0-.1,1.086,1.086,0,0,0-.106-.147c-.01-.012-.025,0-.037-.006.012.028.026.053.038.083.019.053.036.109.055.164-.017-.018-.034-.049-.052-.047a.232.232,0,0,0-.115.041.468.468,0,0,0,.006.148c.17.385-.165-.081-.061.187-.018-.023-.035-.047-.054-.069a.354.354,0,0,0-.038-.035.212.212,0,0,1,.022-.05.551.551,0,0,1,.067-.04c-.02-.047-.04-.1-.061-.141,0,0-.022.057-.026.052a.216.216,0,0,1-.067-.1c-.021-.079-.04.364-.064-.011-.023-.354-.118-.131-.185-.047l-.015-.138c-.02.027-.06.055-.06.081,0,.306-.132-.025-.149.173-.065-.329-.174.054-.256-.075-.011-.017.037-.226-.056-.082a.65.65,0,0,1-.391.28c-.061.017-.131-.152-.2-.237-.022-.029-.047-.1-.062-.085s-.035.09-.054.133c0,.007-.026-.033-.03-.024-.114.211.011-.3-.1-.167-.077.095-.2.179-.266.1-.15-.184-.294-.032-.438-.075-.076-.023-.139.191-.145.18-.11-.209-.235,0-.339-.069-.255-.174-.51-.054-.765-.086-.083-.01-.141.228-.243.1-.172-.219-.372.135-.548-.1-.017.214-.1.14-.147.144-.212.019-.423-.006-.635.012-.134.012-.267.106-.4.108-.256,0-.513-.034-.77-.056s-.491-.048-.737-.062c-.04,0-.082.046-.124.063-.007,0-.017-.033-.026-.051l.065-.025a.45.45,0,0,0-.095-.018,4.72,4.72,0,0,0-.523.023c-.04,0-.076.1-.114.155.013.01.031.037.039.025.072-.1.068.043.08.128a.22.22,0,0,1-.013.077c-.048-.028-.129-.038-.138-.1-.035-.265-.14-.163-.21-.234-.012-.013-.049.092-.076.148h0v.005l.078.036a.71.71,0,0,1-.022.105,1.206,1.206,0,0,1-.147-.05c.006-.066-.02-.357.034-.1.006.028.036.14.056.009h0l0-.006a1.188,1.188,0,0,0-.056-.228c-.112-.193-.228.1-.342.006a.5.5,0,0,0-.51-.045c-.045.012-.084.114-.13.146a.185.185,0,0,1-.125.011.83.83,0,0,1,0-.124.21.21,0,0,1,.029-.068c-.011,0-.026-.018-.032-.008a.574.574,0,0,0-.034.087c-.055.142-.11.285-.166.424,0,.006-.017-.011-.025-.018a.178.178,0,0,0,.018-.051c.008-.148.014-.3.02-.445-.007,0-.018-.008-.021,0-.1.285-.228.033-.344.1-.095.056-.227-.135-.259.256-.123-.073-.246-.154-.37-.213-.086-.041-.219-.148-.256-.06-.119.284-.3.182-.368.11-.16-.162-.29.026-.43,0-.065-.011-.137.014-.2-.039s-.117.154-.2.026c-.058-.083-.182.11-.262.06-.233-.145-.458-.323-.682.028-.008.011,0,.087,0,.09s-.011,0-.017.006l-.038-.008c-.006,0-.012-.01-.018-.013,0-.07-.019-.05-.037-.027-.055-.062-.113-.182-.174-.249-.03-.033-.054-.1-.068-.088s-.035.09-.055.133c0,.007-.025-.033-.03-.024-.113.211.012-.3-.1-.167a.457.457,0,0,1-.122.1.133.133,0,0,0-.085.026.081.081,0,0,1-.06-.03c-.15-.184-.293-.032-.437-.075-.077-.023-.14.191-.145.18-.111-.209-.236,0-.339-.069-.255-.174-.511-.054-.765-.086-.083-.01-.141.228-.243.1-.172-.219-.372.135-.548-.1-.017.214-.1.14-.148.144l-.634.012c-.134.012-.267.106-.4.108-.257,0-.514-.034-.77-.056l-.736-.062c-.041,0-.083.046-.124.063-.007,0-.017-.033-.026-.051l.064-.025a.45.45,0,0,0-.095-.018,4.71,4.71,0,0,0-.522.023c-.04,0-.076.1-.115.155.013.01.032.037.04.025.072-.1.068.043.08.128a.242.242,0,0,1-.013.077c-.048-.028-.13-.038-.138-.1-.035-.265-.141-.163-.21-.234-.013-.013-.049.092-.076.148h0v.005l.078.036a.529.529,0,0,1-.022.105,1.187,1.187,0,0,1-.146-.05c.005-.066-.021-.357.034-.1.006.028.035.14.055.009h0l0-.006a1.127,1.127,0,0,0-.056-.228c-.111-.193-.227.1-.342.006a.5.5,0,0,0-.51-.045c-.045.012-.083.114-.129.146a.187.187,0,0,1-.126.011,1.021,1.021,0,0,1,0-.124.231.231,0,0,1,.028-.068c-.011,0-.025-.018-.032-.008a.7.7,0,0,0-.034.087c-.054.141-.11.282-.165.424,0,.006-.017-.011-.026-.018a.174.174,0,0,0,.018-.051l.02-.445c-.008,0-.019-.008-.022,0-.1.285-.228.033-.343.1-.1.056-.228-.135-.26.256-.123-.073-.245-.154-.369-.213-.087-.041-.22-.148-.256-.06-.12.284-.3.182-.368.11-.161-.162-.29.026-.431,0-.066-.011-.137.014-.195-.039s-.117.154-.2.026c-.058-.083-.182.11-.263.06-.232-.145-.458-.323-.682.028-.007.011,0,.087,0,.09a.194.194,0,0,1-.073.027c.02-.183-.039-.051-.052-.054-.053-.012-.067.034-.023.128a.451.451,0,0,1-.03.083c-.007.014-.02.011-.031.016l0-.05.018-.2c-.026-.011-.06-.053-.076-.03-.1.134-.178-.219-.272-.029-.034-.351-.219-.193-.237-.177a.213.213,0,0,1-.161.055v.725h-.013a.456.456,0,0,1-.047-.2,2.171,2.171,0,0,1,0-.227c.106.1-.019-.2.054-.158a.4.4,0,0,0-.024-.092c-.069-.084-.095.307-.2.081-.025-.055-.14.112-.216.158a.955.955,0,0,1-.192.07c.088-.435-.147.034-.121-.224-.088-.008-.108.136-.114.286,0,.06.058.119,0,.194-.013-.072-.026-.146-.041-.215a.83.83,0,0,0-.039-.126c-.041-.111-.142.119-.159-.141a.4.4,0,0,0-.026.09c0,.058,0,.118,0,.177a.4.4,0,0,1-.107-.09c-.07-.1-.141-.177-.221-.094a.507.507,0,0,0-.025.14c-.01-.135-.052-.138-.073-.051a1.316,1.316,0,0,0-.019.317c0,.039.033.072.053.107h-.078l-.005,0a.553.553,0,0,1-.025-.228,1,1,0,0,0-.012-.516c-.061-.166-.129.013-.194.022s-.177.186-.228-.162c-.02-.137-.081.037-.108.132l-.038-.082v.082c-.091-.083-.06.343-.168.209-.025-.029-.088-.09-.071.1-.075-.063-.1.068-.131.173,0,0-.021-.022-.02-.029.024-.306-.012-.257-.079-.075-.005.013-.049-.026-.068-.062a.176.176,0,0,0-.341.061,1.466,1.466,0,0,1-.068.216c-.077-.133.02-.17.033-.2.087-.222-.084-.263-.053-.434-.021.032-.047.1-.063.09-.1-.056-.2.033-.29.022-.056-.007-.115-.073-.186-.039a.168.168,0,0,1-.2-.046c-.123-.147-.247-.058-.353.012-.072.047.029.146.051.224a.246.246,0,0,1-.015.033c-.073.183-.043-.524-.145-.088-.109-.37-.191.22-.3.048-.03-.046-.127.083-.139.045-.057-.186-.125-.237-.194-.188a.5.5,0,0,1-.343.128.292.292,0,0,0-.379.184c-.034.067-.122.105-.147.056-.047-.092.014-.095.043-.11-.038-.133.119-.046.043-.153a.367.367,0,0,0-.277-.158c-.023,0-.2-.292-.135.185,0,.017-.1.122-.059-.107-.113.016-.211-.229-.332-.1a.292.292,0,0,1-.105.055c.054.2-.065.134-.071.242a1.85,1.85,0,0,0-.07-.265c-.095-.213-.217-.089-.319-.066-.073.018.021.233.017.242-.061.133.141.089.03.217-.095.109-.109-.418-.245-.17-.05.091-.075-.244-.186-.175-.135.085-.288.007-.431.047-.033.01-.07.2-.081.322a1.67,1.67,0,0,0,.026.309h0c-.02-.111-.04-.222-.062-.333,0,0-.009.008-.012.007a.644.644,0,0,0-.165-.046c-.084,0-.185.112-.217-.191-.1.312-.213-.181-.308.011-.071.146-.263-.375-.239.234-.011-.005-.026,0-.032-.018-.038-.1-.133-.141-.078-.35-.149.176-.279-.079-.421-.088a.358.358,0,0,1,.055.235c.021.034.047.074.081.126.034-.012.069-.025.1-.04a.785.785,0,0,0,.114-.078,1.837,1.837,0,0,1-.061.243c-.012.029-.057.025-.075,0l-.08-.121-.1.033a1.2,1.2,0,0,0,.019-.16c-.083-.138-.08-.163-.062-.236-.033.032-.084.044-.1.1-.038.172-.046.034-.063-.018a1.114,1.114,0,0,1-.075.169c-.064.092-.223-.414-.212.169l0,0v0c.011.1.021.192.033.288l-.129-.117.1-.171h0v-.007a1.082,1.082,0,0,0-.087-.234c-.064-.081-.151-.08-.167-.3-.035.086-.075.253-.1.243-.148-.048-.3.091-.449-.13a.429.429,0,0,0-.28-.183c-.077-.018-.159.064-.239.063-.141,0-.281-.046-.422-.046a2.673,2.673,0,0,0-.414.054.826.826,0,0,0-.114.037c.006.058.011.117.02.173a.236.236,0,0,0,.024.06.807.807,0,0,1-.1-.025.169.169,0,0,1-.005-.062.746.746,0,0,1,.026-.083h-.051a.643.643,0,0,1-.259-.009c-.015-.005-.038-.083-.071-.042a.687.687,0,0,1,.008-.088.719.719,0,0,1,.122-.012c-.022-.056-.04-.14-.066-.159s-.061.048-.091.046c-.127-.01-.134.439-.274.368-.032-.016-.082-.1-.09-.083-.061.138-.114.3-.17.446v0c.048,0,.09.034.081.168,0,.014-.057.016-.088.015a1.243,1.243,0,0,1-.126-.015l.134-.165v0h0v0l-.038-.14a.476.476,0,0,0,.077-.088.3.3,0,0,0-.012-.11c-.031-.011-.067.018-.095,0a1.387,1.387,0,0,1-.158-.178.112.112,0,0,1-.01-.054.223.223,0,0,1,.026-.057l-.062.008c.006.043.013.086.018.13a.176.176,0,0,1,0,.063c-.011.018-.029.04-.037.03-.187-.244-.387-.024-.58-.076a.681.681,0,0,0-.04.217c0,.088.013.209-.032.034-.017-.065.009-.229-.006-.244-.058-.059-.206.124-.253.218-.02.041-.082-.025-.125-.044-.006,0-.011-.013-.017-.02s.009-.045.016-.05c.127-.1-.094-.062-.011-.145-.02,0-.058-.011-.059,0-.037.415-.133-.291-.171.047l-.165-.14a.881.881,0,0,0,.011.09c.053.213-.057.039-.061.131,0,.022-.031.038-.047.057l0-.064a.555.555,0,0,0,0-.125c-.008-.033-.033-.064-.048-.057s-.015.076-.028.105c-.022.054-.049.1-.074.149l-.023-.064c-.045.049-.083.112-.133,0-.013-.031-.061.016-.092.026a.426.426,0,0,0,0-.1,1.086,1.086,0,0,0-.106-.147c-.01-.012-.025,0-.038-.006a.792.792,0,0,1,.038.083c.019.053.037.109.055.164-.018-.018-.035-.049-.052-.047a.229.229,0,0,0-.115.041.441.441,0,0,0,.006.148c.169.385-.165-.081-.061.187-.018-.023-.035-.047-.054-.069a.481.481,0,0,0-.038-.035.178.178,0,0,1,.022-.05.431.431,0,0,1,.067-.04c-.02-.047-.039-.1-.061-.141,0,0-.022.057-.026.052a.2.2,0,0,1-.067-.1c-.022-.079-.04.364-.064-.011-.024-.354-.118-.131-.186-.047l-.014-.138c-.021.027-.061.055-.06.081,0,.306-.133-.025-.149.173-.065-.329-.174.054-.256-.075-.01-.017.036-.226-.056-.082a.65.65,0,0,1-.392.28c-.06.017-.13-.152-.2-.237-.021-.029-.047-.1-.061-.085s-.035.09-.055.133c0,.007-.026-.033-.03-.024-.113.211.012-.3-.1-.167-.077.095-.2.179-.267.1-.149-.184-.293-.032-.437-.075-.077-.023-.139.191-.145.18-.111-.209-.236,0-.339-.069-.255-.174-.511-.054-.765-.086-.083-.01-.141.228-.243.1-.172-.219-.372.135-.548-.1-.017.214-.1.14-.149.144-.211.019-.423-.006-.634.012-.134.012-.267.106-.4.108-.257,0-.514-.034-.77-.056s-.491-.048-.736-.062c-.041,0-.083.046-.124.063-.007,0-.017-.033-.026-.051l.064-.025a.45.45,0,0,0-.095-.018,4.713,4.713,0,0,0-.522.023c-.039,0-.076.1-.115.155.013.01.032.037.04.025.072-.1.068.043.08.128a.238.238,0,0,1-.013.077c-.048-.028-.13-.038-.138-.1-.035-.265-.141-.163-.21-.234-.013-.013-.049.092-.076.148h0l0,.005.078.036a.631.631,0,0,1-.021.105,1.15,1.15,0,0,1-.147-.05c.006-.066-.021-.357.034-.1.006.028.035.14.055.009h0l0-.006a1.073,1.073,0,0,0-.056-.228c-.112-.193-.227.1-.342.006a.5.5,0,0,0-.51-.045c-.045.012-.083.114-.129.146a.187.187,0,0,1-.125.011.846.846,0,0,1,0-.124.231.231,0,0,1,.028-.068c-.01,0-.025-.018-.032-.008a.679.679,0,0,0-.034.087c-.054.142-.109.285-.165.424,0,.006-.017-.011-.026-.018a.175.175,0,0,0,.019-.051c.008-.148.013-.3.02-.445-.008,0-.019-.008-.022,0-.1.285-.229.033-.343.1-.1.056-.228-.135-.26.256-.123-.073-.245-.154-.369-.213-.087-.041-.22-.148-.256-.06-.12.284-.3.182-.368.11-.161-.162-.29.026-.43,0-.066-.011-.137.014-.2-.039s-.117.154-.2.026c-.058-.083-.182.11-.263.06-.232-.145-.457-.323-.682.028-.007.011,0,.087,0,.09a.194.194,0,0,1-.073.027c.02-.183-.039-.051-.052-.054-.053-.012-.067.034-.023.128a.451.451,0,0,1-.03.083c-.007.014-.02.011-.031.016l0-.05.018-.2c-.026-.011-.06-.053-.077-.03-.1.134-.178-.219-.271-.029-.035-.351-.22-.193-.238-.177a.213.213,0,0,1-.162.055v.725l-.012,0a.432.432,0,0,1-.052-.2,1.965,1.965,0,0,1,0-.228c.123.09-.025-.2.061-.165-.009-.03-.014-.076-.029-.089-.089-.074-.1.311-.232.133-.034-.048-.156.186-.228.3-.062.088-.127.172-.187.267,0-.5-.14.225-.17-.025a.487.487,0,0,0-.033.412c.015.049.081.007.055.145a.765.765,0,0,0-.092-.1.116.116,0,0,0-.068-.027c-.072-.007-.079.348-.175.21a.5.5,0,0,0,.01.111.736.736,0,0,0,.061.108,1.58,1.58,0,0,1-.1.169.688.688,0,0,0-.163.466.319.319,0,0,0,.041.12c-.058-.036-.079.072-.052.158a.283.283,0,0,0,.12.157c.016.011.04-.048.062-.079-.007.044-.011.092-.018.137a.18.18,0,0,1-.012.046.062.062,0,0,1-.1-.017c-.062-.139-.135-.227-.216-.123-.088.127-.039.372-.043.554-.014.21.061.531-.089.638-.059.047.016.187.056.252l-.035.088h.036c-.037.213.147.14.09.393-.013.055-.039.2.041.163a.357.357,0,0,0,.075.307l-.013.047c-.131-.057-.11.027-.033.183a.509.509,0,0,1-.026.158,1.275,1.275,0,0,0,.026.795.729.729,0,0,1,.092.159c-.056.179-.072-.047-.086-.077-.1-.2-.113.2-.186.123a.583.583,0,0,1,.039.148c-.024.235.014.462.009.676a3.332,3.332,0,0,0-.016.434,1.775,1.775,0,0,1-.02.476,2.458,2.458,0,0,0,.005.824c.02.167.063-.069.1-.119,0,0,.009.023.014.034.078.17-.225.1-.038.338-.159.255.094.443.02.7-.019.069.036.3.019.322a.691.691,0,0,0-.081.452,5.132,5.132,0,0,1,.055.8,2.371,2.371,0,0,0,.079.885.814.814,0,0,1,.025.342c-.04.11-.041-.033-.047-.1-.057.088-.019-.277-.066-.1a3,3,0,0,0-.068.644c0,.053-.125.477.08.314.007-.005.052.224-.047.138a3.975,3.975,0,0,0-.042.772c.015.075.017.164.025.246.084-.125.057.153.1.166a.731.731,0,0,0-.113.164,1.8,1.8,0,0,0-.028.743c.007.17.1-.049.1-.04.057.141.039-.328.093-.069.047.22-.179.254-.073.571.04.116-.1.173-.075.433.036.314,0,.671.02,1a.274.274,0,0,0,.138.19c.04.02.088-.035.133-.062v0l-.143.144a.146.146,0,0,1,0,.029c-.006.128-.019.257-.019.385,0,.2.048.429-.082.5.134.239-.078.5.005.719.062.166-.162.612.1.556a.385.385,0,0,1-.008.074c-.044.088-.061.31-.15.181a4.1,4.1,0,0,1-.038.982c.027-.111.062-.14.1-.13l.054-.187-.017-.239c-.007-.09-.022-.177-.033-.266a.68.68,0,0,1,.1.142.429.429,0,0,1,0,.177l-.053.186.015.233a.163.163,0,0,0-.069-.046c-.059.2-.069.186-.1.143a.877.877,0,0,0,.043.226c.074.088.015.105-.008.146a1.18,1.18,0,0,1,.072.175c.04.149-.177.52.073.493l0,0v0l.124-.076-.05.3-.074-.223h0a.792.792,0,0,0-.1.2c-.035.148-.035.351-.128.387.037.083.109.177.1.245a4.93,4.93,0,0,1-.055,1.044,3.167,3.167,0,0,0-.079.652c-.008.182.028.372.027.558,0,.328-.019.654-.019.982s.014.641.023.962c0,.09.011.178.016.267a.42.42,0,0,0,.075-.047.212.212,0,0,0,.026-.054l-.01.235c0,.008-.019.019-.026.012a.3.3,0,0,1-.035-.061v.119c0,.2.01.407,0,.6a.368.368,0,0,0-.019.166c-.013-.006-.038-.01-.038-.018,0-.095,0-.191-.005-.285a.526.526,0,0,0-.068.155c-.008.06.021.141.02.212,0,.3.188.314.158.639-.007.076-.045.19-.036.211.059.142.126.265.191.394h0c0-.112.015-.208.072-.19a1.557,1.557,0,0,1,.007.206l-.007.3-.071-.314v0l-.061.089a1.662,1.662,0,0,0-.037-.181c0-.012-.047.012-.047.029,0,.073.008.156,0,.221-.019.127-.05.247-.077.368,0,.015-.019.032-.024.025a.322.322,0,0,1-.025-.061l0,.142a.486.486,0,0,1,.056-.042c.009,0,.023-.006.027.006a.23.23,0,0,1,.012.084,7.444,7.444,0,0,0-.032,1.352c0,.024.06.086.093.091s.09-.031.015.073c-.028.039-.1-.018-.105.015a1.745,1.745,0,0,0,.094.589,1.258,1.258,0,0,1-.018.291c0,.014-.006.026-.009.04-.008-.012-.019-.021-.022-.038-.044-.3-.026.22-.062.026,0,.047,0,.136,0,.138.178.086-.125.308.02.4l-.061.386c.013-.008.028-.01.039-.025.091-.122.017.134.056.142.01,0,.017.072.025.111l-.027-.009c-.018-.005-.04-.028-.054-.011a.231.231,0,0,0-.025.114c0,.026.032.035.046.064.023.053.042.114.064.173a.318.318,0,0,0-.028.054.67.67,0,0,1,.006.364,1.1,1.1,0,0,0,.025.258c-.015,0-.041-.012-.045.009a3.066,3.066,0,0,0-.036.341.876.876,0,0,0,.01.112c.007-.045.013-.091.023-.131.016-.068.033-.129.053-.191a.857.857,0,0,0-.006.155,2.169,2.169,0,0,0,.055.308c0,.012.052-.02.059-.061.1-.549.027.444.1.09,0,.052-.006.1-.006.158,0,.034,0,.069,0,.1-.01-.011-.023-.014-.03-.033a1.518,1.518,0,0,1-.046-.154c-.011.068-.023.139-.029.211,0,0,.034.033.034.047a1.094,1.094,0,0,1,0,.215c-.018.1.16-.081.036.166a.386.386,0,0,0,.115.474l-.034.12c.027.032.07.1.078.082.09-.209.108.3.185.184-.03.383.183.269.238.488.008.028-.09.147.046.151a4.045,4.045,0,0,1,.493.093c.07.014.146.2.228.29.03.033.053.1.068.088s.034-.09.054-.133c0-.007.026.033.03.024.113-.211-.012.3.1.167.077-.095.2-.179.267-.1.15.184.293.032.438.075.077.023.14-.191.145-.18.111.209.236,0,.339.069.256.174.511.054.765.086.083.01.141-.228.243-.1.172.219.372-.135.548.1.017-.214.1-.14.149-.144l.634-.013c.134-.011.268-.105.4-.107.256,0,.513.034.769.056l.736.062c.041,0,.083-.046.124-.063.007,0,.018.033.026.051l-.064.025a.516.516,0,0,0,.095.018,4.715,4.715,0,0,0,.522-.024c.04,0,.077-.1.115-.155-.013-.01-.032-.037-.04-.025-.072.1-.069-.043-.08-.128a.245.245,0,0,1,.013-.077c.048.028.13.038.138.1.036.265.141.163.21.234.013.013.05-.092.076-.148h0v-.005l-.078-.036a.52.52,0,0,1,.022-.105,1.2,1.2,0,0,1,.146.05c-.005.065.021.357-.034.1-.006-.028-.035-.14-.055-.009h0l0,.005a1.119,1.119,0,0,0,.056.228c.112.193.228-.1.342-.006a.5.5,0,0,0,.51.045c.045-.012.083-.114.129-.146a.187.187,0,0,1,.126-.011,1.03,1.03,0,0,1,0,.124.228.228,0,0,1-.028.068c.011,0,.026.018.032.008a.587.587,0,0,0,.034-.087l.165-.424c0-.006.017.011.025.018a.213.213,0,0,0-.018.051l-.02.445c.008,0,.019.008.022,0,.1-.285.228-.033.343-.1.1-.056.228.135.26-.256.123.073.245.154.369.213.087.041.22.148.256.06.12-.284.3-.182.369-.11.16.162.289-.026.429,0,.066.011.137-.014.2.039s.117-.154.2-.026c.058.083.183-.11.263-.06.232.145.458.323.683-.028.007-.011,0-.087,0-.09a.194.194,0,0,1,.073-.027c-.02.183.04.051.052.054.053.012.068-.033.023-.128a.442.442,0,0,1,.03-.083c.007-.014.021-.011.032-.016l0,.05-.018.2c.026.011.06.053.076.03.1-.134.178.219.272.029.034.351.219.193.237.177a.213.213,0,0,1,.162-.055v-.725h.013a.459.459,0,0,1,.047.2,2.171,2.171,0,0,1,0,.227c-.106-.1.019.2-.054.158a.394.394,0,0,0,.024.092c.068.084.095-.307.195-.081.025.055.141-.112.216-.158a.949.949,0,0,1,.191-.07c-.088.435.147-.034.121.224.088.008.108-.136.114-.286,0-.06-.058-.119,0-.194.013.072.025.146.04.215a.919.919,0,0,0,.039.126c.041.111.142-.119.159.141a.392.392,0,0,0,.025-.09c0-.058,0-.118,0-.177a.4.4,0,0,1,.107.09c.07.1.141.177.221.094a.507.507,0,0,0,.026-.14c.01.136.052.138.073.051a1.31,1.31,0,0,0,.019-.317c0-.039-.032-.072-.053-.107h.078l.005,0a.553.553,0,0,1,.025.228,1,1,0,0,0,.012.516c.061.166.129-.013.194-.022s.177-.186.228.162c.02.137.081-.037.108-.132l.038.082v-.082c.091.084.06-.343.168-.209.025.029.088.089.071-.1.075.063.1-.068.131-.173a.08.08,0,0,1,.021.029c-.025.306.011.257.078.075.005-.013.049.026.068.062a.177.177,0,0,0,.342-.061,1.382,1.382,0,0,1,.068-.216c.077.133-.02.17-.032.2-.087.222.085.263.053.434.021-.032.047-.1.063-.09.1.056.2-.033.29-.022.056.007.115.073.186.039a.168.168,0,0,1,.2.046c.123.147.247.058.353-.012.072-.047-.029-.146-.051-.224l.015-.033c.073-.183.043.524.145.088.11.37.191-.22.3-.048.03.046.127-.083.139-.045.057.186.125.237.194.188a.5.5,0,0,1,.343-.128.292.292,0,0,0,.38-.184c.034-.067.122-.105.147-.056.047.092-.014.095-.042.11.037.133-.119.046-.044.153a.367.367,0,0,0,.277.158c.023,0,.2.292.135-.185,0-.017.1-.122.059.107.113-.016.211.229.332.1a.29.29,0,0,1,.105-.055c-.054-.2.066-.134.071-.242a1.9,1.9,0,0,0,.07.265c.095.213.217.089.319.066.073-.018-.02-.233-.017-.242.061-.133-.141-.089-.03-.217.095-.109.11.418.245.17.051-.091.075.244.186.175.135-.085.288-.007.431-.047.033-.01.07-.2.081-.322a1.67,1.67,0,0,0-.026-.309h0c.02.111.04.222.061.333,0,0,.009-.008.012-.007a.7.7,0,0,0,.165.047c.084,0,.184-.113.217.19.1-.312.214.181.308-.011.071-.146.263.375.239-.234.01.005.026,0,.032.018.038.1.133.141.078.35.148-.176.279.08.421.088a.357.357,0,0,1-.055-.235c-.021-.035-.047-.075-.081-.127-.034.012-.069.025-.1.04a.828.828,0,0,0-.114.078,1.837,1.837,0,0,1,.061-.243c.012-.029.057-.025.076,0l.08.121.1-.033a1.172,1.172,0,0,0-.019.161c.083.137.08.163.061.235.033-.032.085-.044.1-.1.038-.172.046-.035.063.018a1.126,1.126,0,0,1,.075-.169c.064-.092.223.414.212-.168l0-.005,0,0-.032-.288.128.117-.1.171h0v.007a1.044,1.044,0,0,0,.088.233c.063.081.15.08.166.3.035-.086.076-.253.1-.243.149.048.3-.091.449.13a.431.431,0,0,0,.28.183c.077.018.159-.064.239-.063.14,0,.281.046.422.046a2.671,2.671,0,0,0,.414-.054.815.815,0,0,0,.114-.037c-.006-.058-.011-.117-.02-.173a.236.236,0,0,0-.024-.06.68.68,0,0,1,.1.025.152.152,0,0,1,.005.062.746.746,0,0,1-.026.083h.051a.644.644,0,0,1,.259.009c.015.005.038.083.071.042a.687.687,0,0,1-.008.088.718.718,0,0,1-.122.012c.022.056.04.14.066.16s.061-.049.091-.047c.127.01.135-.439.274-.368.033.016.082.1.091.083.062-.138.114-.3.17-.446v0c-.047,0-.09-.034-.081-.168,0-.014.057-.016.088-.015a1.235,1.235,0,0,1,.126.015l-.134.165v0h0v0l.038.14a.48.48,0,0,0-.077.088.3.3,0,0,0,.012.11c.031.011.067-.018.095,0a1.342,1.342,0,0,1,.158.178.128.128,0,0,1,.011.054.292.292,0,0,1-.027.058l.062-.009c-.006-.043-.013-.086-.019-.13a.178.178,0,0,1,0-.063c.01-.018.029-.04.037-.031.187.245.387.025.581.076a.717.717,0,0,0,.039-.217c0-.088-.013-.209.032-.034.017.065-.009.229.006.244.058.059.206-.124.253-.218.02-.041.083.025.125.045.006,0,.011.012.017.019s-.009.045-.016.05c-.127.1.094.062.011.145.02,0,.058.011.059,0,.037-.415.133.291.171-.047l.165.14a.882.882,0,0,0-.01-.09c-.053-.213.058-.039.061-.131,0-.022.031-.038.047-.057l0,.063a.572.572,0,0,0,0,.126c.008.033.033.064.048.057s.016-.076.028-.105c.022-.054.049-.1.074-.149l.024.064c.044-.049.083-.112.132,0,.013.031.061-.016.092-.026a.55.55,0,0,0,0,.1,1.165,1.165,0,0,0,.106.147c.01.012.025,0,.038.006a.792.792,0,0,1-.038-.083c-.019-.053-.037-.109-.055-.164.017.018.035.049.052.047a.229.229,0,0,0,.115-.041.46.46,0,0,0-.005-.148c-.17-.385.164.081.06-.187.018.023.036.047.054.069a.441.441,0,0,0,.038.035.182.182,0,0,1-.022.05.433.433,0,0,1-.067.04c.02.047.04.1.061.141,0,0,.022-.057.026-.052a.2.2,0,0,1,.067.1c.022.079.04-.364.064.011.024.354.118.131.186.047l.014.138c.021-.027.061-.055.06-.081,0-.306.133.025.149-.173.065.329.174-.054.256.075.011.017-.036.226.056.082a.653.653,0,0,1,.392-.28c.06-.017.131.152.2.238.021.028.047.1.061.084s.035-.09.055-.133c0-.007.025.033.03.024.113-.211-.012.3.1.167.077-.095.2-.179.267-.1.15.184.293.032.438.075.077.023.14-.191.145-.18.111.209.236,0,.339.069.256.174.511.054.765.086.083.01.141-.228.243-.1.172.219.373-.135.548.1.017-.214.1-.14.148-.144.211-.019.423.006.634-.013.135-.011.267-.105.4-.107.256,0,.513.034.77.056s.491.048.736.062c.041,0,.083-.046.124-.063.007,0,.017.033.026.051l-.064.025a.515.515,0,0,0,.095.018,4.717,4.717,0,0,0,.522-.024c.04,0,.076-.1.115-.155-.013-.01-.032-.037-.04-.025-.072.1-.068-.043-.08-.128a.245.245,0,0,1,.013-.077c.048.028.13.038.138.1.036.265.141.163.21.234.013.013.049-.092.077-.148h0v-.005l-.078-.036a.52.52,0,0,1,.022-.105,1.188,1.188,0,0,1,.146.05c-.005.065.021.357-.034.1-.006-.028-.035-.14-.055-.009h0l0,.005a1.128,1.128,0,0,0,.056.228c.113.193.228-.1.342-.006a.5.5,0,0,0,.509.045c.045-.012.083-.114.129-.146a.187.187,0,0,1,.125-.011.871.871,0,0,1,0,.124.228.228,0,0,1-.028.068c.01,0,.026.018.032.008a.7.7,0,0,0,.034-.087c.055-.142.11-.285.165-.424,0-.006.017.011.025.018a.182.182,0,0,0-.018.051c-.007.148-.013.3-.02.445.008,0,.019.008.022,0,.1-.285.228-.033.343-.1.1-.056.228.135.26-.256.123.073.245.154.369.213.087.041.22.148.256.06.12-.284.3-.182.369-.11.16.162.289-.026.43,0,.066.011.137-.014.195.039s.117-.154.2-.026c.058.083.183-.11.263-.06.232.145.457.323.682-.028.007-.011,0-.087,0-.09s.011,0,.016-.006l.039.008c.005,0,.011.01.018.013,0,.07.019.05.037.027.054.062.112.182.174.249.029.033.054.1.068.088s.035-.09.054-.133c0-.007.026.033.03.024.113-.211-.011.3.1.167a.442.442,0,0,1,.122-.1.137.137,0,0,0,.085-.026.081.081,0,0,1,.059.03c.15.184.294.032.438.075.077.023.14-.191.145-.18.111.209.236,0,.339.069.256.174.511.054.766.086.082.01.141-.228.243-.1.172.219.372-.135.547.1.017-.214.1-.14.148-.144l.635-.013c.134-.011.267-.105.4-.107.256,0,.513.034.77.056l.737.062c.04,0,.082-.046.124-.063.006,0,.017.033.025.051l-.065.025a.516.516,0,0,0,.095.018,4.733,4.733,0,0,0,.523-.024c.039,0,.076-.1.114-.155-.013-.01-.032-.037-.039-.025-.072.1-.069-.043-.08-.128a.22.22,0,0,1,.013-.077c.048.028.129.038.137.1.036.265.141.163.211.234.013.013.049-.092.076-.148h0v-.005l-.078-.036a.583.583,0,0,1,.022-.105,1.193,1.193,0,0,1,.147.05c-.006.065.02.357-.034.1-.006-.028-.036-.14-.056-.009h0l0,.005a1.188,1.188,0,0,0,.056.228c.112.193.228-.1.342-.006a.5.5,0,0,0,.51.045c.045-.012.084-.114.129-.146a.187.187,0,0,1,.126-.011,1.175,1.175,0,0,1,0,.124.233.233,0,0,1-.029.068c.011,0,.026.018.032.008a.574.574,0,0,0,.034-.087c.055-.141.11-.282.166-.424,0-.006.017.011.026.018a.153.153,0,0,0-.018.051l-.02.445c.007,0,.018.008.021,0,.1-.285.228-.033.343-.1.1-.056.228.135.26-.256.123.073.245.154.37.213.086.041.219.148.256.06.119-.284.3-.182.368-.11.16.162.289-.026.43,0,.065.011.137-.014.2.039s.117-.154.2-.026c.058.083.182-.11.262-.06.233.145.458.323.682-.028.007-.011,0-.087,0-.09a.2.2,0,0,1,.074-.027c-.02.183.039.051.051.054.053.012.068-.033.023-.128a.451.451,0,0,1,.03-.083c.007-.014.021-.011.032-.016l0,.05-.018.2c.026.011.061.053.077.03.095-.134.177.219.271.029.034.351.219.193.237.177a.215.215,0,0,1,.162-.055v-.725h.012a.441.441,0,0,1,.047.2c.005.073,0,.151,0,.227-.106-.1.018.2-.055.158a.352.352,0,0,0,.025.092c.068.084.095-.307.195-.081.024.055.14-.112.215-.158a.955.955,0,0,1,.192-.07c-.087.435.147-.034.122.224.087.008.108-.136.113-.286,0-.06-.058-.119,0-.194.013.072.026.146.041.215a.8.8,0,0,0,.038.126c.042.111.142-.119.159.141a.393.393,0,0,0,.026-.09c0-.058,0-.118,0-.177a.422.422,0,0,1,.108.09c.069.1.14.177.221.094a.547.547,0,0,0,.026-.14c.009.136.051.138.073.051a1.282,1.282,0,0,0,.018-.317.253.253,0,0,0-.052-.107h.078l0,0a.539.539,0,0,1,.025.228,1,1,0,0,0,.012.516c.061.166.13-.013.194-.022s.178-.186.229.162c.019.137.08-.037.108-.132l.038.082v-.082c.092.084.06-.343.169-.209.024.029.088.089.07-.1.075.063.1-.068.132-.173,0,0,.021.022.02.029-.025.306.011.257.078.075.005-.013.05.026.068.062a.176.176,0,0,0,.341-.061,1.384,1.384,0,0,1,.068-.216c.077.133-.021.17-.033.2-.087.222.085.263.053.434.022-.032.047-.1.063-.09.1.056.2-.033.29-.022.057.007.115.073.186.039a.168.168,0,0,1,.2.046c.123.147.247.058.354-.012.071-.047-.029-.146-.051-.224,0,0,.01-.02.014-.033.073-.183.043.524.146.088.109.37.19-.22.3-.048.029.046.127-.083.139-.045.056.186.124.237.193.188a.5.5,0,0,1,.343-.128.293.293,0,0,0,.38-.184c.033-.067.121-.105.147-.056.047.092-.015.095-.043.11.038.133-.119.046-.044.153a.367.367,0,0,0,.277.158c.023,0,.206.292.135-.185,0-.017.1-.122.06.107.112-.016.21.229.331.1a.29.29,0,0,1,.105-.055c-.054-.2.066-.134.071-.242a2.168,2.168,0,0,0,.07.265c.095.213.218.089.32.066.073-.018-.021-.233-.018-.242.061-.133-.141-.089-.029-.217.095-.109.109.418.245.17.05-.091.075.244.186.175.135-.085.288-.007.43-.047.033-.01.07-.2.082-.322a1.674,1.674,0,0,0-.027-.309h0c.02.111.041.222.063.333,0,0,.008-.008.012-.007a.674.674,0,0,0,.165.047c.085,0,.184-.113.216.19.1-.312.214.181.308-.011.072-.146.263.375.239-.234.011.005.026,0,.031.018.038.1.134.141.078.35.148-.176.28.08.422.088a.362.362,0,0,1-.056-.235c-.021-.035-.047-.075-.08-.127-.034.012-.069.025-.1.04a.813.813,0,0,0-.114.078,1.814,1.814,0,0,1,.062-.243c.011-.029.056-.025.076,0l.08.121.1-.033a1.328,1.328,0,0,0-.02.161c.084.137.08.163.061.235.033-.032.085-.044.1-.1.037-.172.045-.035.062.018a1.235,1.235,0,0,1,.075-.169c.064-.092.224.414.212-.168v-.008c-.01-.1-.022-.192-.032-.288l.128.117-.1.171h0v.007a1.044,1.044,0,0,0,.088.233c.063.081.15.08.166.3.035-.086.075-.253.105-.243.149.048.3-.091.448.13a.433.433,0,0,0,.28.183c.078.018.16-.064.24-.063.141,0,.281.046.422.046a2.672,2.672,0,0,0,.413-.054.822.822,0,0,0,.115-.037c-.007-.058-.012-.117-.021-.173a.278.278,0,0,0-.023-.06.693.693,0,0,1,.1.025.152.152,0,0,1,.005.062.515.515,0,0,1-.026.083h.051a.644.644,0,0,1,.259.009c.015.005.038.083.071.042a.765.765,0,0,1-.007.088.73.73,0,0,1-.123.012c.022.056.04.14.067.16s.06-.049.09-.047c.128.01.135-.439.275-.368.032.016.081.1.09.083.061-.138.114-.3.169-.446v0c-.048,0-.09-.034-.082-.168,0-.014.057-.016.088-.015a1.252,1.252,0,0,1,.127.015l-.134.165v0h0v0l.039.14a.445.445,0,0,0-.078.088.314.314,0,0,0,.012.11c.031.011.067-.018.095,0a1.308,1.308,0,0,1,.158.178.105.105,0,0,1,.012.054.3.3,0,0,1-.026.058l.06-.009c-.006-.043-.013-.086-.017-.13a.154.154,0,0,1,0-.063c.01-.018.029-.04.036-.031.187.245.387.025.581.076a.713.713,0,0,0,.04-.217c0-.088-.014-.209.031-.034.017.065-.008.229.006.244.058.059.207-.124.253-.218.02-.041.083.025.126.045.005,0,.01.012.017.019s-.01.045-.017.05c-.127.1.094.062.011.145.021,0,.059.011.06,0,.037-.415.132.291.17-.047l.166.14a.709.709,0,0,0-.012-.09c-.052-.213.058-.039.062-.131,0-.022.031-.038.047-.057l0,.063a.571.571,0,0,0-.005.126c.008.033.034.064.049.057s.015-.076.027-.105c.023-.054.049-.1.075-.149l.023.064c.044-.049.083-.112.132,0,.013.031.06-.016.092-.026a.55.55,0,0,0,0,.1,1.1,1.1,0,0,0,.107.147c.01.012.025,0,.037.006-.012-.028-.026-.053-.038-.083-.019-.053-.037-.109-.055-.164.018.018.035.049.053.047a.227.227,0,0,0,.114-.041.437.437,0,0,0-.005-.148c-.17-.385.165.081.061-.187.018.023.035.047.054.069a.347.347,0,0,0,.037.035.184.184,0,0,1-.021.05.558.558,0,0,1-.067.04c.019.047.039.1.06.141,0,0,.022-.057.026-.052a.211.211,0,0,1,.068.1c.021.079.04-.364.064.011.023.354.117.131.186.047,0,.047.01.092.014.138.021-.027.061-.055.061-.081,0-.306.132.025.149-.173.065.329.173-.054.256.075.01.017-.037.226.055.082a.653.653,0,0,1,.392-.28c.061-.017.131.152.2.238.022.028.046.1.062.084s.035-.09.054-.133c0-.007.026.033.03.024.114-.211-.011.3.1.167.078-.095.2-.179.267-.1.15.184.295.032.438.075.077.023.14-.191.145-.18.111.209.236,0,.339.069.256.174.511.054.766.086.082.01.14-.228.243-.1.172.219.372-.135.547.1.017-.214.1-.14.149-.144.212-.019.423.006.635-.013.134-.011.267-.105.4-.107.256,0,.513.034.769.056s.491.048.737.062c.041,0,.082-.046.124-.063.006,0,.017.033.026.051l-.065.025a.511.511,0,0,0,.095.018,4.735,4.735,0,0,0,.523-.024c.039,0,.076-.1.114-.155-.013-.01-.032-.037-.039-.025-.072.1-.068-.043-.081-.128a.235.235,0,0,1,.014-.077c.048.028.129.038.137.1.036.265.14.163.211.234.012.013.049-.092.075-.148h0v-.005l-.078-.036a.611.611,0,0,1,.022-.105,1.193,1.193,0,0,1,.147.05c-.006.065.02.357-.035.1-.005-.028-.035-.14-.055-.009h0l0,.005a1.12,1.12,0,0,0,.056.228c.113.193.228-.1.342-.006a.5.5,0,0,0,.509.045c.045-.012.084-.114.129-.146a.187.187,0,0,1,.125-.011.75.75,0,0,1,0,.124.235.235,0,0,1-.028.068c.011,0,.026.018.032.008a.629.629,0,0,0,.034-.087c.055-.142.11-.285.166-.424,0-.006.017.011.026.018a.156.156,0,0,0-.019.051c-.008.148-.014.3-.02.445.007,0,.019.008.021,0,.1-.285.229-.033.343-.1.1-.056.228.135.26-.256.123.073.245.154.37.213.086.041.219.148.256.06.119-.284.3-.182.368-.11.16.162.289-.026.43,0,.065.011.137-.014.2.039s.116-.154.2-.026c.057.083.182-.11.261-.06.233.145.458.323.683-.028.008-.011,0-.087,0-.09a.206.206,0,0,1,.074-.027c-.021.183.039.051.051.054.053.012.068-.033.024-.128a.356.356,0,0,1,.029-.083c.007-.014.021-.011.032-.016l0,.05c-.006.067-.011.134-.018.2.026.011.061.053.077.03.095-.134.177.219.271.029.034.351.219.193.237.177a.215.215,0,0,1,.163-.055v-.725h0l.011,0a.416.416,0,0,1,.052.2,2.139,2.139,0,0,1,0,.228c-.123-.09.023.2-.062.165a.287.287,0,0,0,.029.089c.09.074.1-.311.232-.133.034.048.156-.186.227-.3.063-.088.127-.172.188-.267,0,.5.139-.225.171.025a.491.491,0,0,0,.032-.412c-.014-.049-.08-.007-.055-.145a.9.9,0,0,0,.092.1.119.119,0,0,0,.069.027c.071.007.078-.348.174-.21a.587.587,0,0,0-.009-.111.687.687,0,0,0-.062-.108,1.917,1.917,0,0,1,.1-.169.693.693,0,0,0,.164-.466.342.342,0,0,0-.041-.12c.058.036.078-.072.051-.158a.282.282,0,0,0-.12-.157c-.016-.011-.04.048-.062.079.008-.044.011-.092.018-.137a.153.153,0,0,1,.012-.046.063.063,0,0,1,.1.017c.062.139.133.227.216.123.088-.127.038-.372.042-.554.014-.21-.062-.531.089-.638.059-.047-.016-.187-.056-.252l.035-.088h-.035c.036-.213-.147-.14-.09-.392.012-.056.038-.2-.042-.164a.364.364,0,0,0-.074-.307l.012-.047c.132.057.11-.027.032-.183a.541.541,0,0,1,.026-.158,1.27,1.27,0,0,0-.025-.795.7.7,0,0,1-.093-.159c.057-.179.073.047.087.077.095.2.112-.2.186-.123a.516.516,0,0,1-.039-.148c.024-.235-.015-.462-.01-.676a3.366,3.366,0,0,0,.017-.434,1.771,1.771,0,0,1,.019-.476,2.435,2.435,0,0,0-.005-.824c-.02-.167-.062.069-.1.119,0,0-.009-.023-.014-.034-.079-.17.225-.1.037-.338.159-.255-.094-.443-.02-.7.019-.069-.035-.3-.019-.322a.689.689,0,0,0,.081-.452,5.162,5.162,0,0,1-.055-.8,2.353,2.353,0,0,0-.079-.885.83.83,0,0,1-.024-.342c.04-.11.041.033.047.1.057-.088.02.277.066.1a2.937,2.937,0,0,0,.068-.644c0-.053.126-.477-.079-.314-.007.005-.053-.224.046-.138a4,4,0,0,0,.042-.772,2.341,2.341,0,0,1-.024-.246c-.085.125-.058-.153-.1-.166a.792.792,0,0,0,.113-.164,1.832,1.832,0,0,0,.028-.743c-.007-.17-.1.049-.1.04-.057-.141-.038.328-.093.069-.047-.221.179-.255.073-.572-.039-.116.105-.173.075-.433-.036-.314,0-.671-.019-1a.283.283,0,0,0-.138-.19c-.042-.02-.088.035-.133.062v0l.143-.144a.236.236,0,0,1,0-.029c.007-.128.019-.257.02-.385,0-.2-.049-.429.081-.5-.134-.239.078-.5,0-.719-.062-.166.162-.612-.1-.556a.3.3,0,0,1,.009-.074c.044-.088.061-.31.15-.181a4.053,4.053,0,0,1,.038-.982c-.028.111-.062.14-.1.13-.014.05-.032.108-.054.187l.017.239c.008.09.023.177.033.266a.653.653,0,0,1-.1-.142.411.411,0,0,1,0-.177l.052-.186-.014-.233a.168.168,0,0,0,.069.046c.059-.2.069-.186.1-.143a.883.883,0,0,0-.042-.226c-.074-.087-.015-.105.007-.146a1.249,1.249,0,0,1-.072-.175c-.04-.149.177-.52-.072-.493l0,0,0,0-.124.076.051-.3.073.223h0a.821.821,0,0,0,.1-.2c.034-.148.034-.351.127-.387-.036-.083-.108-.177-.1-.245a4.939,4.939,0,0,1,.056-1.044A3.186,3.186,0,0,0,2063.169,65.155Zm-.407-1.675h0v0l.041.027c-.013.012-.031.046-.04.035l0,0v-.061l0,0h0l0,0v-.424A.381.381,0,0,1,2062.762,63.48Zm-86.507,15.664a.062.062,0,0,1-.023-.033.4.4,0,0,1,.023-.2Zm8.234-26.754h-.018c-.015-.042-.031-.085-.04-.08-.028.014-.03.054-.046.08h-.1a1.029,1.029,0,0,0,.073-.151c.016-.038.089.04.134.075A.3.3,0,0,1,1984.489,52.391Zm-1.418,36.923h.018c.014.042.03.085.04.08.028-.014.03-.054.046-.08h.1a1.049,1.049,0,0,0-.073.151c-.016.039-.089-.04-.133-.075A.254.254,0,0,1,1983.071,89.314Zm43.073-36.923h-.018c-.015-.042-.03-.085-.04-.08-.027.014-.029.054-.045.08h-.1a.862.862,0,0,0,.073-.151c.016-.038.089.04.134.075A.348.348,0,0,1,2026.145,52.391Zm-11.857,0h-.018c-.015-.042-.031-.085-.04-.08-.028.014-.03.054-.046.08h-.1a1.016,1.016,0,0,0,.073-.151c.016-.038.089.04.133.075A.3.3,0,0,1,2014.287,52.391Zm-1.418,36.923h.018c.015.042.031.085.04.08.028-.014.03-.054.046-.08h.1a1.074,1.074,0,0,0-.073.151c-.016.039-.089-.04-.133-.075A.308.308,0,0,1,2012.87,89.314Zm11.856,0h.018c.015.042.03.085.04.08.027-.014.029-.054.045-.08h.1a1.074,1.074,0,0,0-.073.151c-.015.039-.088-.04-.133-.075A.292.292,0,0,1,2024.726,89.314Zm31.217-36.923h-.019c-.015-.042-.03-.085-.04-.08-.027.014-.029.054-.045.08h-.1a.89.89,0,0,0,.073-.151c.016-.038.089.04.134.075A.324.324,0,0,1,2055.943,52.391Zm-1.419,36.923h.018c.015.042.03.085.041.08.027-.014.029-.054.045-.08h.1a1.063,1.063,0,0,0-.073.151c-.016.039-.088-.04-.133-.075A.271.271,0,0,1,2054.524,89.314Zm8.234-26.754c.009.01.021.019.022.033a.407.407,0,0,1-.022.2Zm.069-5.624c.018.01.033.058.045.1s.017.091.024.138h0c.021-.119-.021-.31.068-.345.01,0,.034.069.036.111.008.182-.051.2-.1.235v0h0c-.013.057-.025.116-.041.17,0,.005-.025-.01-.028-.025a1.35,1.35,0,0,1-.011-.137c0-.017,0-.035,0-.052-.019.023-.038.045-.055.071v-.22C2062.774,56.944,2062.794,56.918,2062.827,56.937Zm-1.551-4.721a.563.563,0,0,1,.319.048c.01.008-.037.188-.173.068,0-.006-.017.023-.033.059h-.148c0-.019-.01-.033-.014-.06S2061.258,52.217,2061.276,52.216Zm-.158.017c.031-.009.078-.277.091.019a.4.4,0,0,1-.034.139h-.166a1.432,1.432,0,0,1,.02-.218C2061.054,52.293,2061.085,52.242,2061.118,52.233Zm-.66.049a.445.445,0,0,0,.17.109h-.252C2060.408,52.329,2060.441,52.264,2060.457,52.282Zm-.152.109h-.014l.016-.038Zm-.292-.465c0-.02.021-.025.032-.038.024.188.053.178.085.009,0-.008.012-.006.019-.009,0,.078.006.16,0,.235-.024.294.033.138.074.071l.057.2h-.105a.146.146,0,0,0,0-.018c-.031-.068-.029-.029-.027.018h-.077a.569.569,0,0,0,0-.1c-.012-.093-.038-.177-.054-.268A.293.293,0,0,1,2060.013,51.926Zm-.7.373a.755.755,0,0,0,.025.091h-.042a.534.534,0,0,0-.005-.119C2059.3,52.281,2059.312,52.286,2059.314,52.3Zm-3.153-.088c.026-.009.055.033.083.025.075-.019.129.055.17.154h-.192c-.026-.064-.057-.109-.1-.083C2056.132,52.274,2056.145,52.217,2056.162,52.212Zm-.369-.142a1.21,1.21,0,0,1,.127-.241c.039-.043.091-.029.138-.032.012,0,.03.026.035.052a.634.634,0,0,1,0,.107c-.009-.025-.016-.053-.026-.075s-.013-.007-.021-.01c0,.052,0,.105.005.156a.373.373,0,0,0,.022.069h-.031c-.086-.174-.151-.069-.214.073,0,.008-.025-.011-.032-.03A.167.167,0,0,1,2055.793,52.069Zm-.2.233a.332.332,0,0,0,.044.089h-.025c-.008-.015-.015-.031-.022-.043A.21.21,0,0,1,2055.6,52.3Zm-.949-.1c.083-.2.135.164.216.1l-.012.085h-.2A.362.362,0,0,1,2054.649,52.206Zm-.083-.317c.005.025.01.04.012.05l-.024-.01Zm-.255.25c.142-.054.2.043.212.249l0,0h-.081a.466.466,0,0,0-.022-.043l0,.043h-.046l-.017-.053c0-.011-.01-.024-.016-.026l-.133-.06Zm-1.971.108c.034-.022.08.046.143.088a.5.5,0,0,0-.024.056h-.106C2052.338,52.333,2052.3,52.272,2052.34,52.247Zm-.833-.215.18.186-.048.069a.572.572,0,0,1-.142-.054S2051.5,52.1,2051.506,52.032Zm.64.3.042.061h-.053Zm-5.806-.127c.067.261.129-.235.195,0-.06.008-.082.1-.1.192h-.038l0-.029C2046.329,52.342,2046.3,52.31,2046.341,52.2Zm-1.437-.183c.039.061.076.127.114.192l-.038.078c-.024-.081-.117.04-.091-.228A.354.354,0,0,1,2044.9,52.02Zm-3.2-.005a1.548,1.548,0,0,1,.173.151c-.029.055-.051.119-.061.112-.056-.051-.111-.118-.166-.179C2041.664,52.069,2041.686,52.006,2041.7,52.015Zm.035.376h-.161C2041.63,52.369,2041.685,52.345,2041.734,52.391Zm-3.6-.17c-.056.1-.1.166-.048.17h-.07a.918.918,0,0,0-.044-.136Zm-.967.163h0l0,0c0-.033.008-.064.011-.1a.383.383,0,0,1,.015.094v.007h-.027l0-.008h0l0,.008h-.184C2037.03,52.255,2037.076,52.122,2037.169,52.383Zm-.294.008h-.1c.005-.025.01-.049.018-.053C2036.828,52.318,2036.854,52.344,2036.875,52.391Zm-2.515-.568c.077-.018.088.118.1.242l0,0,0,0v0c.025.031.05.061.074.1a.187.187,0,0,1-.011.067.145.145,0,0,1-.059.025.062.062,0,0,1-.022,0c.01.044.019.089.03.13h-.094a.3.3,0,0,1-.019-.16.258.258,0,0,1,.042-.1.3.3,0,0,1,.06-.057v0c-.051-.049-.133.048-.148-.16A.122.122,0,0,1,2034.36,51.823Zm-2.882.394a.736.736,0,0,1,.314.033c.011.005-.03.2-.168.083,0-.006-.017.023-.033.059h-.148c0-.019-.01-.033-.014-.06S2031.46,52.217,2031.478,52.216Zm-.158.017c.032-.009.078-.277.09.019a.4.4,0,0,1-.034.139h-.166a1.453,1.453,0,0,1,.02-.218C2031.256,52.293,2031.287,52.242,2031.319,52.233Zm-.661.049a.45.45,0,0,0,.17.109h-.252C2030.61,52.329,2030.643,52.264,2030.659,52.282Zm-.151.109h-.015l.016-.038Zm-.293-.465c0-.02.02-.025.032-.038.025.188.053.178.085.009,0-.008.012-.006.019-.009,0,.078.006.16,0,.235-.024.294.032.138.074.071l.057.2h-.105s0-.013,0-.018c-.031-.068-.029-.029-.027.018h-.076a.572.572,0,0,0,0-.1c-.012-.093-.038-.177-.054-.268A.293.293,0,0,1,2030.215,51.926Zm-.7.373a.735.735,0,0,0,.025.091h-.041a.528.528,0,0,0-.005-.119C2029.5,52.281,2029.513,52.286,2029.516,52.3Zm-3.153-.088c.026-.009.055.033.083.025.075-.019.129.055.17.154h-.193c-.026-.064-.056-.109-.1-.083C2026.334,52.274,2026.347,52.217,2026.363,52.212Zm-.369-.142a1.179,1.179,0,0,1,.128-.241c.039-.043.091-.029.137-.032.012,0,.031.026.035.052a.55.55,0,0,1,0,.107.726.726,0,0,0-.025-.075c0-.01-.013-.007-.021-.01,0,.052,0,.105.005.156a.355.355,0,0,0,.022.069h-.031c-.086-.174-.151-.069-.214.073,0,.008-.025-.011-.032-.03A.165.165,0,0,1,2025.994,52.069Zm-.2.233a.344.344,0,0,0,.044.089h-.026c-.008-.015-.015-.031-.022-.043A.192.192,0,0,1,2025.8,52.3Zm-.949-.1c.083-.2.134.164.216.1l-.011.085h-.2A.362.362,0,0,1,2024.851,52.206Zm-.083-.317a.445.445,0,0,0,.013.05l-.026-.01Zm-.255.25c.142-.054.2.043.213.249l0,0h-.081c-.007-.015-.014-.03-.022-.043l0,.043h-.046l-.017-.053a.046.046,0,0,0-.016-.026c-.044-.021-.089-.04-.133-.06Zm-1.971.108c.034-.022.08.046.143.088-.011.023-.017.038-.025.056h-.106C2022.539,52.333,2022.5,52.272,2022.541,52.247Zm-.151.144h-.053l.01-.061Zm-.683-.359.18.186-.048.069a.572.572,0,0,1-.142-.054S2021.7,52.1,2021.708,52.032Zm-3.109.267c-.022.031-.044.06-.065.092h-.013s0-.013,0-.018l0,0c0-.031,0-.063,0-.081a.844.844,0,0,0,.057-.094Zm-.241-.372c0-.02.021-.025.032-.038.025.188.053.178.085.009,0-.008.012-.006.019-.009,0,.078.005.16,0,.235a.925.925,0,0,0,0,.114c-.021,0-.05.079-.078.141a.5.5,0,0,0,0-.084c-.012-.093-.039-.177-.055-.268A.3.3,0,0,1,2018.358,51.926Zm-.7.373c.008.04.017.061.025.091h-.04a.536.536,0,0,0-.005-.119C2017.645,52.281,2017.656,52.286,2017.659,52.3Zm-3.153-.088c.027-.009.056.033.083.025.076-.019.129.055.17.154h-.192c-.026-.064-.056-.109-.1-.083C2014.477,52.274,2014.49,52.217,2014.506,52.212Zm-.368-.142a1.179,1.179,0,0,1,.127-.241c.04-.043.091-.029.138-.032.011,0,.03.026.034.052a.555.555,0,0,1,0,.107.756.756,0,0,0-.025-.075c0-.01-.014-.007-.021-.01,0,.052,0,.105.005.156a.264.264,0,0,0,.022.069h-.031c-.087-.174-.151-.069-.215.073,0,.008-.025-.011-.032-.03A.164.164,0,0,1,2014.138,52.069Zm-.2.233a.309.309,0,0,0,.045.089h-.026a.4.4,0,0,0-.022-.043A.4.4,0,0,1,2013.942,52.3Zm-.948-.1c.083-.2.134.164.216.1l-.011.085h-.2A.36.36,0,0,1,2012.994,52.206Zm-.084-.317c.006.025.01.04.013.05l-.025-.01Zm-.255.25c.143-.054.2.043.213.249v0h-.081c-.007-.015-.015-.03-.022-.043l0,.043h-.047l-.016-.053a.058.058,0,0,0-.016-.026l-.134-.06Zm-1.97.108c.034-.022.08.046.142.088-.01.023-.017.038-.025.056h-.105C2010.682,52.333,2010.646,52.272,2010.685,52.247Zm-.833-.215.179.186-.047.069a.577.577,0,0,1-.143-.054S2009.847,52.1,2009.851,52.032Zm.64.3.042.061h-.054Zm-5.806-.127c.066.261.128-.235.194,0-.06.008-.082.1-.1.192h-.038l0-.029C2004.674,52.342,2004.65,52.31,2004.686,52.2Zm-1.438-.183c.04.061.077.127.114.192l-.038.078c-.025-.081-.116.04-.091-.228C2003.229,52.076,2003.247,52.018,2003.248,52.02Zm-3.2-.005a1.617,1.617,0,0,1,.173.151c-.029.055-.051.119-.061.112a2.366,2.366,0,0,1-.166-.179C2000.009,52.069,2000.031,52.006,2000.044,52.015Zm.034.376h-.16C1999.974,52.369,2000.03,52.345,2000.079,52.391Zm-3.6-.17c-.057.1-.1.166-.048.17h-.07a1.224,1.224,0,0,0-.044-.136Zm-.967.163h0v0l.011-.1a.355.355,0,0,1,.016.094v.007h-.027v-.008h0l0,.008h-.184C1995.375,52.255,1995.421,52.122,1995.514,52.383Zm-.294.008h-.1c0-.025.01-.049.018-.053C1995.173,52.318,1995.2,52.344,1995.22,52.391Zm-2.516-.568c.078-.018.088.118.1.242l0,0,0,0v0c.025.031.05.061.073.1a.183.183,0,0,1-.011.067.15.15,0,0,1-.059.025.066.066,0,0,1-.023,0c.01.044.019.089.031.13h-.094a.3.3,0,0,1-.019-.16.256.256,0,0,1,.042-.1.3.3,0,0,1,.059-.057v0c-.051-.049-.133.048-.148-.16A.125.125,0,0,1,1992.7,51.823Zm-2.882.394a.739.739,0,0,1,.315.033c.01.005-.031.2-.168.083,0-.006-.018.023-.033.059h-.148a.511.511,0,0,1-.014-.06C1989.77,52.308,1989.8,52.217,1989.822,52.216Zm-.157.017c.032-.009.078-.277.09.019a.376.376,0,0,1-.033.139h-.166a1.436,1.436,0,0,1,.02-.218C1989.6,52.293,1989.631,52.242,1989.665,52.233Zm-.661.049a.459.459,0,0,0,.17.109h-.251C1988.955,52.329,1988.988,52.264,1989,52.282Zm-.151.109h-.015l.016-.038Zm-.293-.465c0-.02.021-.025.032-.038.025.188.053.178.085.009,0-.008.012-.006.019-.009,0,.078.005.16,0,.235-.023.294.033.138.075.071l.056.2h-.1s0-.013,0-.018c-.031-.068-.029-.029-.027.018h-.077a.559.559,0,0,0,0-.1c-.012-.093-.039-.177-.055-.268A.3.3,0,0,1,1988.56,51.926Zm-.7.373c.008.04.017.061.025.091h-.04a.536.536,0,0,0-.005-.119C1987.847,52.281,1987.858,52.286,1987.861,52.3Zm-3.153-.088c.027-.009.056.033.083.025.076-.019.129.055.17.154h-.192c-.026-.064-.056-.109-.1-.083C1984.679,52.274,1984.692,52.217,1984.708,52.212Zm-.368-.142a1.179,1.179,0,0,1,.127-.241c.04-.043.091-.029.138-.032.011,0,.03.026.034.052a.555.555,0,0,1,0,.107.756.756,0,0,0-.025-.075c0-.01-.014-.007-.021-.01,0,.052,0,.105.005.156a.3.3,0,0,0,.022.069h-.031c-.087-.174-.151-.069-.215.073,0,.008-.025-.011-.032-.03A.164.164,0,0,1,1984.34,52.069Zm-.2.233a.332.332,0,0,0,.045.089h-.026a.4.4,0,0,0-.022-.043A.4.4,0,0,1,1984.144,52.3Zm-.948-.1c.083-.2.134.164.216.1l-.011.085h-.2A.351.351,0,0,1,1983.2,52.206Zm-.084-.317c.006.025.01.04.013.05l-.025-.01Zm-.255.25c.143-.054.2.043.213.249v0h-.081a.467.467,0,0,0-.022-.043l0,.043h-.047l-.016-.053c0-.011-.01-.024-.016-.026-.044-.021-.089-.04-.133-.06Zm-1.97.108c.034-.022.08.046.143.088-.011.023-.018.038-.025.056h-.105C1980.884,52.333,1980.848,52.272,1980.887,52.247Zm-.834-.215.179.186-.047.069a.576.576,0,0,1-.143-.054S1980.049,52.1,1980.053,52.032Zm.64.3.042.061h-.053ZM1976.13,67.8a.427.427,0,0,1-.036-.124c.016-.13.04-.254.065-.4a.6.6,0,0,1,.047.14C1976.185,67.544,1976.156,67.67,1976.13,67.8Zm-.016-7.551c.006.011-.018-.035-.018-.035l.083-.266.033.088C1976.177,60.09,1976.229,60.3,1976.114,60.247Zm.061-3.385c.111-.154-.1-.3,0-.452a.314.314,0,0,0,.083.236v.089l-.012.007C1976.234,56.891,1976.22,56.947,1976.175,56.862Zm.081,10.757v.343A1.726,1.726,0,0,1,1976.256,67.619Zm0,8.473v.155a.584.584,0,0,0-.059.1c0-.094-.007-.187-.014-.379C1976.225,76.1,1976.252,76.21,1976.256,76.092Zm0,2.133h0v0l-.041-.027c.014-.012.032-.046.04-.035l0,0v.061l0,0h0l0,0v.424A.381.381,0,0,1,1976.252,78.225Zm-.065,6.543c-.018-.01-.034-.058-.045-.1a1.074,1.074,0,0,1-.025-.138h0c-.021.119.021.31-.068.344-.01,0-.033-.069-.035-.11-.008-.182.05-.2.1-.235l0-.007v.006h0c.013-.057.026-.116.041-.17,0-.005.026.01.029.025a1.32,1.32,0,0,1,.01.137.489.489,0,0,1,0,.052.879.879,0,0,0,.056-.07v.219C1976.239,84.761,1976.22,84.788,1976.187,84.768Zm1.551,4.721a.555.555,0,0,1-.319-.048c-.01-.008.037-.188.172-.068.005.006.018-.023.033-.059h.147a.512.512,0,0,1,.014.06C1977.791,89.4,1977.756,89.488,1977.738,89.489Zm.157-.017c-.032.009-.078.277-.09-.019a.377.377,0,0,1,.034-.139h.165a1.345,1.345,0,0,1-.02.218C1977.959,89.413,1977.929,89.464,1977.9,89.472Zm.661-.049a.452.452,0,0,0-.171-.109h.252C1978.606,89.376,1978.573,89.441,1978.557,89.423Zm.151-.109h.015l-.016.038Zm.292.465c0,.02-.021.025-.032.038-.025-.188-.053-.178-.084-.009,0,.008-.013.006-.019.009,0-.078-.006-.16,0-.235.023-.294-.033-.138-.075-.071l-.056-.2h.1s0,.013,0,.018c.03.068.028.029.026-.018h.076a.572.572,0,0,0,0,.1c.013.093.039.177.055.268A.3.3,0,0,1,1979,89.779Zm.7-.373a.923.923,0,0,0-.025-.091h.04a.578.578,0,0,0,.005.119C1979.714,89.424,1979.7,89.42,1979.7,89.406Zm3.153.088c-.026.009-.056-.033-.083-.025-.076.019-.129-.055-.17-.154h.192c.026.064.056.109.1.083C1982.882,89.431,1982.868,89.488,1982.853,89.493Zm.368.142a1.127,1.127,0,0,1-.127.241c-.039.043-.091.029-.138.032-.011,0-.03-.026-.034-.052a.545.545,0,0,1,0-.107.726.726,0,0,0,.025.075c0,.01.014.007.021.01,0-.052,0-.105-.005-.156a.273.273,0,0,0-.022-.069h.031c.087.174.151.069.215-.073,0-.008.025.011.031.03A.164.164,0,0,1,1983.221,89.636Zm.2-.233a.315.315,0,0,0-.045-.089h.026c.007.015.015.031.022.043A.268.268,0,0,1,1983.417,89.4Zm.948.1c-.083.2-.133-.164-.216-.1l.011-.085h.2A.359.359,0,0,1,1984.364,89.5Zm.084.317c-.006-.025-.01-.04-.013-.05l.025.01Zm.255-.25c-.142.054-.2-.043-.213-.249l0,0h.08l.022.043,0-.043h.047l.017.053a.052.052,0,0,0,.015.026l.134.06Zm1.97-.108c-.034.022-.08-.046-.142-.087l.025-.057h.105C1986.676,89.372,1986.712,89.433,1986.674,89.458Zm.834.215-.179-.186.047-.069a.576.576,0,0,1,.143.054S1987.512,89.6,1987.507,89.673Zm-.64-.3-.042-.061h.053Zm5.806.127c-.066-.261-.128.235-.194,0,.06-.008.082-.1.1-.192h.039l0,.029C1992.685,89.363,1992.709,89.4,1992.673,89.5Zm1.438.183c-.039-.061-.076-.126-.114-.192l.038-.078c.025.081.116-.04.091.229C1994.13,89.63,1994.111,89.687,1994.111,89.685Zm3.2.005a1.546,1.546,0,0,1-.172-.151c.029-.055.05-.119.06-.112a2.389,2.389,0,0,1,.166.179C1997.35,89.637,1997.328,89.7,1997.314,89.69Zm-.034-.376h.16C1997.385,89.336,1997.328,89.36,1997.28,89.314Zm3.6.17c.057-.1.1-.166.048-.17h.07a1.175,1.175,0,0,0,.044.136Zm.967-.163h0v0l-.011.1a.356.356,0,0,1-.016-.094v-.007h.027v.008h0l0-.008h.183C2001.984,89.45,2001.938,89.583,2001.844,89.322Zm.294-.008h.1c0,.025-.01.049-.017.053C2002.186,89.387,2002.16,89.361,2002.139,89.314Zm2.516.568c-.078.018-.088-.118-.1-.242l0,0,0,0v0c-.025-.031-.049-.061-.073-.1a.17.17,0,0,1,.011-.067.142.142,0,0,1,.058-.025.066.066,0,0,1,.023,0c-.011-.044-.019-.089-.031-.13h.094a.3.3,0,0,1,.019.16.258.258,0,0,1-.042.1.278.278,0,0,1-.059.057v0c.051.049.133-.048.148.16A.121.121,0,0,1,2004.655,89.883Zm2.882-.394a.739.739,0,0,1-.315-.033c-.01,0,.031-.2.168-.083.005.006.018-.023.033-.059h.148a.512.512,0,0,1,.014.06C2007.589,89.4,2007.554,89.488,2007.537,89.489Zm.157-.017c-.032.009-.078.277-.089-.019a.392.392,0,0,1,.033-.139h.166a1.453,1.453,0,0,1-.02.218C2007.757,89.413,2007.727,89.464,2007.694,89.472Zm.661-.049a.454.454,0,0,0-.171-.109h.252C2008.4,89.376,2008.371,89.441,2008.355,89.423Zm.151-.109h.015l-.016.038Zm.293.465c0,.02-.021.025-.033.038-.025-.188-.053-.178-.085-.009,0,.008-.012.006-.018.009,0-.078-.006-.16,0-.235.023-.294-.033-.138-.075-.071l-.056-.2h.1s0,.013,0,.018c.03.068.028.029.026-.018h.076a.572.572,0,0,0,0,.1c.013.093.039.177.055.268A.3.3,0,0,1,2008.8,89.779Zm.7-.373a.923.923,0,0,0-.025-.091h.04a.585.585,0,0,0,.005.119C2009.512,89.424,2009.5,89.42,2009.5,89.406Zm3.153.088c-.026.009-.056-.033-.083-.025-.076.019-.129-.055-.17-.154h.192c.026.064.056.109.1.083C2012.68,89.431,2012.667,89.488,2012.651,89.493Zm.368.142a1.173,1.173,0,0,1-.127.241c-.039.043-.091.029-.138.032-.011,0-.03-.026-.034-.052a.545.545,0,0,1,0-.107.726.726,0,0,0,.025.075c0,.01.014.007.021.01,0-.052,0-.105-.005-.156a.268.268,0,0,0-.022-.069h.031c.087.174.151.069.215-.073,0-.008.025.011.032.03A.151.151,0,0,1,2013.019,89.636Zm.2-.233a.369.369,0,0,0-.045-.089h.026a.376.376,0,0,0,.022.043A.268.268,0,0,1,2013.215,89.4Zm.948.1c-.083.2-.134-.164-.216-.1l.011-.085h.2A.361.361,0,0,1,2014.163,89.5Zm.084.317c-.006-.025-.01-.04-.013-.05l.025.01Zm.255-.25c-.142.054-.2-.043-.213-.249v0h.081c.007.015.015.03.022.043l0-.043h.047l.017.053a.052.052,0,0,0,.015.026l.134.06Zm1.97-.108c-.034.022-.08-.046-.143-.087.011-.024.018-.039.026-.057h.106C2016.475,89.372,2016.511,89.433,2016.472,89.458Zm.151-.144h.054l-.011.061Zm.683.359-.179-.186.047-.069a.577.577,0,0,1,.143.054S2017.31,89.6,2017.306,89.673Zm3.11-.267c.021-.031.043-.06.064-.092h.014a.124.124,0,0,0,0,.018l0,0c0,.031,0,.063,0,.081a.74.74,0,0,0-.056.094Zm.24.372c0,.02-.02.025-.032.038-.025-.188-.053-.178-.085-.009,0,.008-.012.006-.019.009,0-.078-.006-.16,0-.235a.973.973,0,0,0,0-.114c.02,0,.05-.079.077-.14a.417.417,0,0,0,0,.083c.012.093.038.177.054.268A.293.293,0,0,1,2020.655,89.779Zm.7-.373a.781.781,0,0,0-.025-.091h.041a.566.566,0,0,0,0,.119C2021.369,89.424,2021.357,89.42,2021.354,89.406Zm3.153.088c-.026.009-.055-.033-.083-.025-.075.019-.129-.055-.17-.154h.192c.026.064.057.109.1.083C2024.536,89.431,2024.524,89.488,2024.507,89.493Zm.368.142a1.133,1.133,0,0,1-.127.241c-.039.043-.091.029-.137.032-.012,0-.031-.026-.035-.052a.633.633,0,0,1,0-.107c.009.025.016.053.026.075s.013.007.02.01c0-.052,0-.105,0-.156a.347.347,0,0,0-.022-.069h.03c.087.174.152.069.215-.073,0-.008.025.011.032.03A.151.151,0,0,1,2024.875,89.636Zm.2-.233a.34.34,0,0,0-.044-.089h.025c.008.015.015.031.022.043A.187.187,0,0,1,2025.071,89.4Zm.949.1c-.084.2-.135-.164-.217-.1l.012-.085h.2A.363.363,0,0,1,2026.02,89.5Zm.083.317a.445.445,0,0,0-.013-.05l.026.01Zm.255-.25c-.142.054-.2-.043-.213-.249l0,0h.081c.007.015.014.03.022.043l0-.043h.047l.017.053c0,.011.01.024.016.026l.133.06Zm1.971-.108c-.034.022-.08-.046-.143-.087a.618.618,0,0,0,.025-.057h.106C2028.331,89.372,2028.367,89.433,2028.329,89.458Zm.834.215-.18-.186.048-.069a.572.572,0,0,1,.142.054S2029.166,89.6,2029.163,89.673Zm-.64-.3-.043-.061h.054Zm5.8.127c-.066-.261-.128.235-.194,0,.06-.008.082-.1.1-.192h.039l0,.029C2034.339,89.363,2034.364,89.4,2034.327,89.5Zm1.438.183c-.039-.061-.077-.126-.114-.192l.038-.078c.025.081.117-.04.091.229A.387.387,0,0,1,2035.765,89.685Zm3.2.005a1.548,1.548,0,0,1-.173-.151c.029-.055.051-.119.06-.112a2.158,2.158,0,0,1,.166.179C2039,89.637,2038.983,89.7,2038.97,89.69Zm-.035-.376h.16C2039.039,89.336,2038.984,89.36,2038.935,89.314Zm3.6.17c.056-.1.1-.166.047-.17h.07a1.152,1.152,0,0,0,.044.136Zm.967-.163h0l0,0-.011.1a.349.349,0,0,1-.015-.094v-.007h.027l0,.008h0l0-.008h.183C2043.639,89.45,2043.593,89.583,2043.5,89.322Zm.294-.008h.1c-.005.025-.01.049-.018.053C2043.841,89.387,2043.814,89.361,2043.794,89.314Zm2.515.568c-.078.018-.088-.118-.1-.242l0,0,0,0v0c-.025-.031-.05-.061-.074-.1a.185.185,0,0,1,.011-.067.145.145,0,0,1,.059-.025.062.062,0,0,1,.022,0c-.01-.044-.02-.089-.03-.13h.094a.3.3,0,0,1,.018.16.246.246,0,0,1-.042.1.278.278,0,0,1-.059.057v0c.051.049.133-.048.148.16A.121.121,0,0,1,2046.309,89.883Zm2.882-.394a.733.733,0,0,1-.314-.033c-.011,0,.03-.2.168-.083,0,.006.017-.023.033-.059h.147c0,.019.01.033.014.06S2049.209,89.488,2049.191,89.489Zm.158-.017c-.032.009-.079.277-.091-.019a.4.4,0,0,1,.034-.139h.165a1.341,1.341,0,0,1-.02.218C2049.413,89.413,2049.382,89.464,2049.349,89.472Zm.661-.049a.451.451,0,0,0-.171-.109h.252C2050.059,89.376,2050.026,89.441,2050.01,89.423Zm.151-.109h.015l-.016.038Zm.292.465c0,.02-.021.025-.032.038-.025-.188-.053-.178-.085-.009,0,.008-.013.006-.019.009,0-.078-.006-.16,0-.235.023-.294-.033-.138-.074-.071-.02-.065-.038-.131-.057-.2h.105a.109.109,0,0,0,0,.018c.031.068.028.029.026-.018h.078a.4.4,0,0,0,0,.1c.012.093.038.177.054.268A.3.3,0,0,1,2050.454,89.779Zm.7-.373c-.007-.04-.017-.061-.025-.091h.041a.574.574,0,0,0,0,.119C2051.167,89.424,2051.155,89.42,2051.153,89.406Zm3.153.088c-.026.009-.056-.033-.083-.025-.075.019-.129-.055-.169-.154h.192c.026.064.057.109.1.083C2054.334,89.431,2054.321,89.488,2054.306,89.493Zm.368.142a1.138,1.138,0,0,1-.127.241c-.039.043-.09.029-.137.032-.012,0-.031-.026-.035-.052a.632.632,0,0,1,0-.107.754.754,0,0,0,.026.075c0,.01.013.007.02.01,0-.052,0-.105,0-.156a.3.3,0,0,0-.023-.069h.031c.087.174.152.069.215-.073,0-.008.025.011.031.03A.155.155,0,0,1,2054.674,89.636Zm.2-.233a.34.34,0,0,0-.044-.089h.026c.007.015.015.031.022.043A.2.2,0,0,1,2054.869,89.4Zm.949.1c-.083.2-.134-.164-.217-.1l.012-.085h.2A.359.359,0,0,1,2055.818,89.5Zm.083.317a.445.445,0,0,0-.013-.05l.025.01Zm.255-.25c-.143.054-.2-.043-.213-.249l0,0h.081a.413.413,0,0,0,.022.043l0-.043h.047l.017.053c0,.011.01.024.016.026.044.021.089.04.132.06Zm1.971-.108c-.034.022-.08-.046-.143-.087.011-.024.017-.039.025-.057h.106C2058.129,89.372,2058.165,89.433,2058.127,89.458Zm.833.215-.179-.186.048-.069a.583.583,0,0,1,.142.054S2058.965,89.6,2058.96,89.673Zm-.64-.3-.042-.061h.053Zm4.564-15.467a.459.459,0,0,1,.036.124c-.016.13-.041.254-.065.4a.572.572,0,0,1-.048-.141C2062.829,74.161,2062.857,74.036,2062.884,73.907Zm.016,7.551c-.006-.011.018.035.018.035l-.083.266-.033-.088C2062.836,81.615,2062.784,81.4,2062.9,81.458Zm-.062,3.385c-.112.154.1.3,0,.452a.313.313,0,0,0-.083-.236V84.97l.012-.007C2062.78,84.814,2062.793,84.758,2062.839,84.843Zm-.08-10.757v-.343A1.717,1.717,0,0,1,2062.759,74.086Zm0-8.473v-.155a.64.64,0,0,0,.058-.1c0,.094.007.187.015.379C2062.79,65.6,2062.761,65.5,2062.759,65.613Z" transform="translate(-1975.783 -51.292)" fill="#4c1400"/>
</svg>
