<svg xmlns="http://www.w3.org/2000/svg" width="83" height="83" viewBox="0 0 83 83"><defs><style>.a{fill:#ffb806;}.b{fill:#4c1400;}</style></defs><g transform="translate(-1417.5 -657.5)"><circle class="a" cx="41.5" cy="41.5" r="41.5" transform="translate(1417.5 657.5)"/><path class="b" d="M31.667,14.833H29.69V10.881a9.881,9.881,0,0,0-19.762,0v3.952H7.952A3.964,3.964,0,0,0,4,18.786V38.548A3.964,3.964,0,0,0,7.952,42.5H31.667a3.964,3.964,0,0,0,3.952-3.952V18.786A3.964,3.964,0,0,0,31.667,14.833ZM19.81,32.619a3.952,3.952,0,1,1,3.952-3.952A3.964,3.964,0,0,1,19.81,32.619Zm6.126-17.786H13.683V10.881a6.126,6.126,0,1,1,12.252,0Z" transform="translate(1438.691 676.75)"/></g></svg>