<svg xmlns="http://www.w3.org/2000/svg" width="32.482" height="19.633" viewBox="0 0 32.482 19.633">
  <g id="Aa" transform="translate(-4151.525 4460.934)" style="mix-blend-mode: normal;isolation: isolate">
    <g id="Group_257" data-name="Group 257" transform="translate(4151.525 -4460.934)" style="mix-blend-mode: normal;isolation: isolate">
      <path id="Path_10266" data-name="Path 10266" d="M4151.525-4441.631l7.059-19.3h3.97l7.059,19.3h-3.75l-1.544-4.468h-7.529l-1.57,4.468Zm6.231-7.224h5.6l-2.813-8.024Z" transform="translate(-4151.525 4460.934)"/>
      <path id="Path_10267" data-name="Path 10267" d="M4178.6-4440.643a6.464,6.464,0,0,1-2.894-.565,3.9,3.9,0,0,1-1.682-1.5,4.006,4.006,0,0,1-.551-2.068,3.761,3.761,0,0,1,1.488-3.087,7.083,7.083,0,0,1,4.468-1.186h3.474v-.331a2.533,2.533,0,0,0-.8-2.069,3.012,3.012,0,0,0-1.986-.662,3.414,3.414,0,0,0-1.874.511,2.193,2.193,0,0,0-.992,1.5H4173.8a4.8,4.8,0,0,1,1.006-2.592,5.626,5.626,0,0,1,2.247-1.7,7.735,7.735,0,0,1,3.088-.593,6.788,6.788,0,0,1,4.6,1.46,5.189,5.189,0,0,1,1.682,4.137v8.41h-3.005l-.331-2.207a5.1,5.1,0,0,1-1.7,1.821A5,5,0,0,1,4178.6-4440.643Zm.8-2.757a2.923,2.923,0,0,0,2.358-.993,4.834,4.834,0,0,0,1.061-2.454h-3a3.133,3.133,0,0,0-2.014.51,1.578,1.578,0,0,0-.606,1.254,1.446,1.446,0,0,0,.606,1.242A2.669,2.669,0,0,0,4179.4-4443.4Z" transform="translate(-4153.951 4460.276)"/>
    </g>
  </g>
</svg>
