<svg xmlns="http://www.w3.org/2000/svg" width="31" height="30.997" viewBox="0 0 31 30.997">
  <g id="Group_256" data-name="Group 256" transform="translate(-4482.35 4921.419)">
    <path id="Path_10263" data-name="Path 10263" d="M4703.6-4800.415a2.1,2.1,0,0,0-2.1,2.1,2.092,2.092,0,0,0,2.085,2.1h.017v0a2.1,2.1,0,0,0,2.1-2.1A2.1,2.1,0,0,0,4703.6-4800.415Z" transform="translate(-201.429 -111.223)"/>
    <path id="Path_10264" data-name="Path 10264" d="M4582.655-4800.415a2.1,2.1,0,0,0-2.1,2.1,2.092,2.092,0,0,0,2.085,2.1h.016v0a2.1,2.1,0,0,0,2.1-2.1A2.1,2.1,0,0,0,4582.655-4800.415Z" transform="translate(-90.266 -111.223)"/>
    <path id="Path_10265" data-name="Path 10265" d="M4513.337-4913.709a7.225,7.225,0,0,0-.123-1.322,7.712,7.712,0,0,0-7.741-6.385q-3.792-.006-7.585,0c-2.569,0-5.137,0-7.706,0a7.731,7.731,0,0,0-7.829,7.826q-.01,7.664,0,15.329a7.708,7.708,0,0,0,.123,1.443,7.717,7.717,0,0,0,7.741,6.386c2.8,0,5.6.025,8.392-.012a16.1,16.1,0,0,0,2.963-.286,14.579,14.579,0,0,0,11.764-14.306C4513.359-4907.927,4513.348-4910.818,4513.337-4913.709Zm-10.8,20.914a6.518,6.518,0,0,0,.477-3.2c0-.153.006-.307.007-.46a15.033,15.033,0,0,1,.169-2.825,4.11,4.11,0,0,1,3.926-3.184c.25-.009.5-.015.75-.014.14,0,.28,0,.419.006a5.028,5.028,0,0,0,3.13-.73C4511.738-4899.555,4506.359-4893.235,4502.541-4892.795Zm9.086-14.236a2.609,2.609,0,0,1-2.805,2.827l-.523,0a12.734,12.734,0,0,0-2.167.137,5.778,5.778,0,0,0-2.087.817h-13.9a7.676,7.676,0,0,0,7.136,4.888,7.67,7.67,0,0,0,4.19-1.255,5.891,5.891,0,0,0-.161,1.225c-.022.925-.012,1.851-.009,2.777q0,.346,0,.692a2.61,2.61,0,0,1-2.786,2.771c-2.771,0-5.541.01-8.31,0a6,6,0,0,1-6.027-4.973,7,7,0,0,1-.1-1.283q0-.943,0-1.885,0-2.829,0-5.657c0-1.916-.006-3.832,0-5.748q0-.957.006-1.916a6,6,0,0,1,4.973-5.986,6.436,6.436,0,0,1,1.2-.1q7.6-.01,15.208,0a6.005,6.005,0,0,1,6.067,4.974,6.838,6.838,0,0,1,.1,1.244C4511.634-4911.333,4511.63-4909.181,4511.627-4907.031Z" transform="translate(0 0)"/>
  </g>
</svg>
