<svg xmlns="http://www.w3.org/2000/svg" width="74" height="70" viewBox="0 0 74 70">
  <g id="Group_365" data-name="Group 365" transform="translate(-26 -641)">
    <g id="Group_351" data-name="Group 351" transform="translate(26.215 641)">
      <rect id="Rectangle_445" data-name="Rectangle 445" width="74" height="70" rx="6" transform="translate(-0.215)" fill="#d1c7ba"/>
    </g>
    <text id="Choose_Background" data-name="Choose
Background" transform="translate(63 692)" font-size="10" font-family="Archer-Bold, Archer" font-weight="700"><tspan x="-16" y="0">Choose</tspan><tspan x="-26" y="10">Background</tspan></text>
    <path id="ic_insert_photo_24px" d="M27.3,24.6V5.7A2.708,2.708,0,0,0,24.6,3H5.7A2.708,2.708,0,0,0,3,5.7V24.6a2.708,2.708,0,0,0,2.7,2.7H24.6A2.708,2.708,0,0,0,27.3,24.6ZM10.425,17.175,13.8,21.238l4.725-6.088,6.075,8.1H5.7Z" transform="translate(48.4 648.7)"/>
  </g>
</svg>
