<svg xmlns="http://www.w3.org/2000/svg" width="74" height="70" viewBox="0 0 74 70">
  <g id="Group_367" data-name="Group 367" transform="translate(-188 -641)">
    <g id="Group_354" data-name="Group 354" transform="translate(188.215 641)">
      <rect id="Rectangle_445" data-name="Rectangle 445" width="74" height="70" rx="6" transform="translate(-0.215)" fill="#d1c7ba"/>
    </g>
    <text id="Add_Text" data-name="Add Text" transform="translate(225 697)" font-size="10" font-family="Archer-Bold, Archer" font-weight="700"><tspan x="-20" y="0">Add Text</tspan></text>
    <g id="Aa" transform="translate(-3940.228 5116.502)" style="mix-blend-mode: normal;isolation: isolate">
      <g id="Group_257" data-name="Group 257" transform="translate(4151.525 -4460.934)" style="mix-blend-mode: normal;isolation: isolate">
        <path id="Path_10266" data-name="Path 10266" d="M4151.525-4444.647l5.956-16.286h3.35l5.956,16.286h-3.164l-1.3-3.77h-6.353l-1.325,3.77Zm5.258-6.1h4.723l-2.374-6.771Z" transform="translate(-4151.525 4460.934)"/>
        <path id="Path_10267" data-name="Path 10267" d="M4177.8-4442.883a5.458,5.458,0,0,1-2.442-.477,3.288,3.288,0,0,1-1.419-1.269,3.379,3.379,0,0,1-.465-1.746,3.175,3.175,0,0,1,1.255-2.6,5.979,5.979,0,0,1,3.77-1h2.931v-.279a2.139,2.139,0,0,0-.674-1.746,2.54,2.54,0,0,0-1.676-.559,2.879,2.879,0,0,0-1.581.432,1.85,1.85,0,0,0-.836,1.268h-2.908a4.052,4.052,0,0,1,.849-2.187,4.754,4.754,0,0,1,1.9-1.43,6.522,6.522,0,0,1,2.606-.5,5.731,5.731,0,0,1,3.885,1.231,4.379,4.379,0,0,1,1.419,3.491v7.1h-2.536l-.28-1.861a4.3,4.3,0,0,1-1.431,1.536A4.223,4.223,0,0,1,4177.8-4442.883Zm.675-2.327a2.468,2.468,0,0,0,1.99-.837,4.082,4.082,0,0,0,.9-2.071h-2.535a2.639,2.639,0,0,0-1.7.431,1.33,1.33,0,0,0-.512,1.058,1.22,1.22,0,0,0,.512,1.048A2.248,2.248,0,0,0,4178.475-4445.209Z" transform="translate(-4157.001 4459.448)"/>
      </g>
    </g>
  </g>
</svg>
