<svg xmlns="http://www.w3.org/2000/svg" xmlns:xlink="http://www.w3.org/1999/xlink" width="74" height="70" viewBox="0 0 74 70">
  <defs>
    <clipPath id="clip-path">
      <rect id="Rectangle_614" data-name="Rectangle 614" width="25.387" height="25.398" fill="none"/>
    </clipPath>
  </defs>
  <g id="Group_368" data-name="Group 368" transform="translate(-269 -641)">
    <g id="Group_355" data-name="Group 355" transform="translate(269.215 641)">
      <rect id="Rectangle_445" data-name="Rectangle 445" width="74" height="70" rx="6" transform="translate(-0.215)" fill="#d1c7ba"/>
    </g>
    <text id="Remove_Sticker" data-name="Remove
Sticker" transform="translate(306 692)" font-size="10" font-family="Archer-Bold, Archer" font-weight="700"><tspan x="-17" y="0">Remove</tspan><tspan x="-16" y="10">Sticker</tspan></text>
    <g id="Group_357" data-name="Group 357" transform="translate(293.307 650.603)">
      <g id="Group_356" data-name="Group 356" clip-path="url(#clip-path)">
        <path id="Path_10294" data-name="Path 10294" d="M61.821,60.833a1.108,1.108,0,0,1-1.87.709c-.572-.551-1.128-1.121-1.69-1.682-.4-.4-.8-.8-1.2-1.205-.068-.069-.112-.07-.181,0-.918.922-1.842,1.84-2.758,2.764a1.207,1.207,0,0,1-.93.433,1.048,1.048,0,0,1-.984-.663,1.032,1.032,0,0,1,.2-1.191c.554-.576,1.126-1.135,1.691-1.7.4-.4.807-.811,1.215-1.212.084-.083.044-.128-.018-.19q-1.183-1.18-2.364-2.362c-.17-.17-.34-.339-.507-.512a1.106,1.106,0,0,1,1.566-1.562q1.373,1.361,2.735,2.731c.24.241.238.243.477,0,.883-.884,1.768-1.765,2.647-2.653a1.124,1.124,0,0,1,1.2-.348,1.1,1.1,0,0,1,.458,1.823c-.556.574-1.128,1.133-1.692,1.7-.4.4-.789.793-1.186,1.186-.071.07-.079.115,0,.19q1.255,1.247,2.5,2.5c.133.133.267.264.4.4a1.137,1.137,0,0,1,.3.841" transform="translate(-44.269 -44.3)"/>
        <path id="Path_10295" data-name="Path 10295" d="M.006,12.651c0-2.054-.006-4.107,0-6.161A6.352,6.352,0,0,1,6.459.008q6.236-.017,12.471,0a6.333,6.333,0,0,1,6.443,6.411c0,2.778.078,5.566-.128,8.331a11.7,11.7,0,0,1-9.354,10.331,23.347,23.347,0,0,1-4.03.284,56.928,56.928,0,0,1-6.449-.119,6.156,6.156,0,0,1-5.4-6.209c-.018-2.128,0-4.257,0-6.386m1.389.036c0,2.078-.026,4.157.006,6.235a4.881,4.881,0,0,0,4.8,5.041c2.376.091,4.757.049,7.136.013A2.071,2.071,0,0,0,15.5,21.784c.024-.876-.009-1.753.01-2.629a4.818,4.818,0,0,1,3.413-4.775,10.326,10.326,0,0,1,2.594-.259,2.2,2.2,0,0,0,2.468-2.447c.012-1.653.008-3.305,0-4.958A4.989,4.989,0,0,0,18.685,1.4q-6.01-.014-12.02,0A4.98,4.98,0,0,0,1.4,6.677c-.009,2,0,4.007,0,6.01m22.4,2.5c-.973.1-1.924.278-2.877.293-2.571.042-3.995,1.43-4.028,3.991-.017,1.31-.07,2.62-.106,3.9,3.285-.7,6.519-4.477,7.011-8.188" transform="translate(0 0.001)"/>
      </g>
    </g>
  </g>
</svg>
