<svg xmlns="http://www.w3.org/2000/svg" width="74" height="70" viewBox="0 0 74 70">
  <g id="Group_366" data-name="Group 366" transform="translate(-107 -641)">
    <g id="Group_352" data-name="Group 352" transform="translate(107.215 641)">
      <rect id="Rectangle_445" data-name="Rectangle 445" width="74" height="70" rx="6" transform="translate(-0.215)" fill="#d1c7ba"/>
    </g>
    <text id="Add_Stickers" data-name="Add
Stickers" transform="translate(144 692)" font-size="10" font-family="Archer-Bold, Archer" font-weight="700"><tspan x="-9" y="0">Add</tspan><tspan x="-18" y="10">Stickers</tspan></text>
    <g id="Group_353" data-name="Group 353" transform="translate(-4351.05 5572.021)">
      <path id="Path_10263" data-name="Path 10263" d="M4703.216-4800.415a1.721,1.721,0,0,0-1.722,1.721,1.715,1.715,0,0,0,1.708,1.721h.013a1.722,1.722,0,0,0,1.722-1.722A1.721,1.721,0,0,0,4703.216-4800.415Z" transform="translate(-204.629 -112.99)"/>
      <path id="Path_10264" data-name="Path 10264" d="M4582.276-4800.415a1.721,1.721,0,0,0-1.722,1.721,1.714,1.714,0,0,0,1.708,1.721h.013a1.722,1.722,0,0,0,1.721-1.722A1.721,1.721,0,0,0,4582.276-4800.415Z" transform="translate(-91.7 -112.99)"/>
      <path id="Path_10265" data-name="Path 10265" d="M4507.74-4915.1a5.92,5.92,0,0,0-.1-1.083,6.319,6.319,0,0,0-6.343-5.232q-3.108-.005-6.215,0c-2.1,0-4.209,0-6.314,0a6.335,6.335,0,0,0-6.415,6.413q-.009,6.279,0,12.56a6.3,6.3,0,0,0,.1,1.182,6.323,6.323,0,0,0,6.342,5.232c2.292,0,4.584.021,6.876-.01a13.207,13.207,0,0,0,2.428-.234,11.945,11.945,0,0,0,9.639-11.722C4507.758-4910.364,4507.749-4912.733,4507.74-4915.1Zm-8.846,17.136a5.339,5.339,0,0,0,.391-2.622c0-.125,0-.251.006-.377a12.308,12.308,0,0,1,.139-2.314,3.367,3.367,0,0,1,3.217-2.609c.2-.008.41-.012.615-.012.115,0,.229,0,.343,0a4.122,4.122,0,0,0,2.565-.6C4506.43-4903.5,4502.022-4898.326,4498.894-4897.965Zm7.445-11.665a2.137,2.137,0,0,1-2.3,2.316l-.428,0a10.421,10.421,0,0,0-1.776.112,4.736,4.736,0,0,0-1.71.67h-11.393a6.29,6.29,0,0,0,5.847,4.005,6.285,6.285,0,0,0,3.434-1.029,4.82,4.82,0,0,0-.132,1c-.018.758-.01,1.516-.007,2.275q0,.284,0,.567a2.138,2.138,0,0,1-2.283,2.271c-2.27,0-4.54.008-6.809,0a4.92,4.92,0,0,1-4.939-4.075,5.779,5.779,0,0,1-.084-1.052q0-.772,0-1.544,0-2.318,0-4.635c0-1.569,0-3.139,0-4.709q0-.784.005-1.569a4.918,4.918,0,0,1,4.074-4.9,5.284,5.284,0,0,1,.986-.083q6.23-.007,12.461,0a4.921,4.921,0,0,1,4.971,4.075,5.651,5.651,0,0,1,.084,1.019C4506.344-4913.155,4506.341-4911.392,4506.339-4909.63Z" transform="translate(0 0)"/>
    </g>
  </g>
</svg>
