<svg xmlns="http://www.w3.org/2000/svg" width="227.134" height="51.037" viewBox="0 0 227.134 51.037">
  <g id="Group_423" data-name="Group 423" transform="translate(-898.481 -681.544)">
    <g id="Group_88" data-name="Group 88" transform="translate(898.481 681.544)" style="mix-blend-mode: normal;isolation: isolate">
      <path id="Path_10148" data-name="Path 10148" d="M1771.586,975.93h-210.62c-3.539,0-6.408-1.74-6.408-3.885V931.922c0-2.146,2.869-3.885,6.408-3.885h210.62c3.54,0,6.408,1.74,6.408,3.885v40.122C1777.994,974.19,1775.126,975.93,1771.586,975.93Z" transform="translate(-1552.71 -926.465)" fill="#ffb806"/>
      <g id="Group_87" data-name="Group 87">
        <g id="Group_83" data-name="Group 83" transform="translate(103.496 47.892)">
          <path id="Path_10149" data-name="Path 10149" d="M1598.323,971.156V970c.214.058.461.058.509-.293.1.041.248.058.307.126.224.259.345.229.564-.031.153-.181.418-.1.58.1a2.162,2.162,0,0,0,.265-.11c.044.154.063.059.159.016a.819.819,0,0,1,.52-.067c.255.094-.09.122-.067.127a1.315,1.315,0,0,0,.6.073c.757-.293,1.546,0,2.305-.127.009,0,.017-.012.024-.011.7.161,1.376-.208,2.164.083a3.876,3.876,0,0,0,2.125-.223c.5-.149.707.128,1.051.2a2.891,2.891,0,0,0,.417-.034c.547.018,1.1.014,1.638.086.281.038.522.259.806.314a.566.566,0,0,0,.415-.286c.168-.455.617.092.812-.182.315.169.8.2.785.645.067-.132.095-.3.208-.388.37-.3.716-.044,1.1.03a.918.918,0,0,0,.89-.184c-.074-.012-.148-.022-.218-.039-.006,0,.005-.052.009-.079a3.47,3.47,0,0,1,.413.07.237.237,0,0,1,.119.149c.009.022-.052.078-.095.095a1,1,0,0,1-.2.041c.033.032.076.1.1.091.13-.028.359-.062.367-.115.056-.35.441.037.534-.18a1.342,1.342,0,0,0,1.321.078c.189-.055.456.032.614-.047.383-.193.32.108.44.22a.744.744,0,0,0,.231.09,1.258,1.258,0,0,1-.127-.165c-.017-.031,0-.074,0-.112.278.026.461.236.855-.048.3-.218,1.07.073,1.593-.015a.941.941,0,0,1,1.023.269c.195-.375.6-.41,1.01-.426.5-.02,1.008,0,1.506-.045.392-.036.02.471.2.276a.889.889,0,0,1,.806-.249c.376.031.848-.166,1.122.219,0,0-.133.075-.2.114l.437.114v.015l.06.018.007-.054c.233-.424.641.007.97-.134a2.615,2.615,0,0,1,.97-.086c.191,0,.52-.194.537.189,0,.026.128.079.179.067.117-.027.293-.067.321-.136.081-.2.336-.317.748-.3a4.851,4.851,0,0,1,1.267.07c.611.214,1.242-.02,1.889.182a2.918,2.918,0,0,1,.98.33c.183.133-.158-.235.2-.241.717-.011.065.794.7.738.248-.021.659.352.737-.175-.042.012-.094.042-.123.032-.079-.03-.146-.081-.224-.113-.28-.115-.206-.293-.132-.474.2.068.551.115.571.208.051.252.288.08.38.175-.026-.055-.054-.108-.074-.164,0-.009.038-.039.058-.039.349,0,.7.006,1.045.01l-.228.227c.315-.023.762-.165.919-.046.286.219.707-.27.845.176.147-.049.275-.3.451-.03.16-.3.635.259.768-.186a4.289,4.289,0,0,1,.49.049l1.678.188c-.365.287.346.3.2.534-.017.03.038.089.059.134.015-.046.029-.093.045-.137l.005,0h0c.522.535.668-.087.972-.22h.005l.007,0c.1.175.223.34.506.287.044-.009.069-.089.1-.135-.206-.046-.314-.372-.61-.151l0,0-.01.005c-.3-.089-.643-.155-.425-.537.028-.052.33-.12.012-.186a.343.343,0,0,0-.177.047c.083.362-.224.609-.382.9h0c-.041-.153-.176-.357-.1-.45a1.342,1.342,0,0,1,1.556-.553,9.107,9.107,0,0,0,2.131-.033c.188,0,.477-.149.464.192.049-.058.131-.171.144-.166.754.293,1.65-.165,2.368.306.015.01.07-.014.1-.03.081-.044.158-.094.237-.141a1.371,1.371,0,0,1-.174,0c-.021,0-.036-.039-.054-.06a1.694,1.694,0,0,1,.43-.131c.581-.022,1.165-.03,1.748-.022a1.106,1.106,0,0,1,.35.143c-.148.035-.294.076-.444.1a.842.842,0,0,1-.334.017c-.382-.1-.815.173-1.167-.111a.62.62,0,0,0-.085.161c-.062.313.108.127.245.088s.344-.075.388-.027c.094.1-.01.3.23.028.13-.144.7-.12,1.009-.028.545.159.763-.425,1.272-.3a3,3,0,0,0,.636-.044c.676,0,1.351.01,2.025.03a.344.344,0,0,1,.23.143.758.758,0,0,1,.056.272c.006-.089.006-.179.018-.266a.45.45,0,0,1,.058-.121c.019.02.049.038.054.06.027.123.048.246.071.371.245-.067.232-.211.181-.378-.008-.027.065-.076.109-.11.012-.009.048,0,.074.005a1.115,1.115,0,0,1-.046.114c-.124.231.058.316.261.4a1.477,1.477,0,0,1,.247.168,1.483,1.483,0,0,0-.144.071c-.021.015-.028.045-.041.067a.794.794,0,0,0,.239.012.161.161,0,0,0,.088-.137c-.015-.17-.063-.338-.074-.508-.015-.228.049-.249.4-.137a1.269,1.269,0,0,1,.209.107c.276-.485.655-.037.96-.033.583.005,1.178.265,1.655-.234.009-.01.088.021.128.041.119.059.244.182.35.171.317-.032.621-.137.938-.176a11.969,11.969,0,0,1,1.277-.089c.087,0,.179.143.268.221-.017.306.059.519.514.365l.151.168c.336.009.671.029,1.006.023a4.242,4.242,0,0,1,2.021.281c.32.149.861.133,1.283.3.088.036.309-.161.469-.251-.209.01-.06-.49-.452-.219-.187-.232-.632.089-.765-.246a1.153,1.153,0,0,1-.046-.27,1.946,1.946,0,0,0,.578.179,5.871,5.871,0,0,0,1.169-.143c.309-.071.382.01.372.234,0,.021,0,.042,0,.062.08-.268.265-.095.414-.07-.017.073-.063.154-.037.214a.335.335,0,0,0,.2.162c.364.11.41-.178.569-.328l.657.01-.19.189.278.17.038.048.143.059.06-.012c.441-.309.787-.271,1.023.189.01.02.054.026.083.039-.195-.453.321-.367.55-.5-.177-.145-.2-.268.093-.3.388-.041.78-.06,1.171-.087a.409.409,0,0,1,.1.023,1.026,1.026,0,0,0-.078.069,1.171,1.171,0,0,0-.16.2c-.006.01.1.063.151.1a1.5,1.5,0,0,1,.057-.155,2.126,2.126,0,0,0,.671.112c.421-.093.145.255.209.23a2.1,2.1,0,0,0,.383-.284.335.335,0,0,1,.2-.058c.047,0,.088.066.131.1a.564.564,0,0,0-.191-.006.7.7,0,0,0-.2.127c-.012.01.007.068.013.068.171,0,.341,0,.513,0,.206.023.491.129.6.054.292-.192-.071-.282-.191-.313-.1-.027-.264.1-.4.154-.169-.349.485-.191.423-.474.137.2.509-.293.573.133,0,.017.031.032.048.048a1.1,1.1,0,0,0,.228-.18c.041-.057.021-.143.031-.215s.024-.139.036-.21l.253.084a1.232,1.232,0,0,0-.169.021.067.067,0,0,0-.029.065c.052.113.11.224.166.335l.222-.111c-.057-.017-.137-.021-.164-.053s-.035-.131-.006-.147c.167-.095.347-.174.522-.258-.031.051-.067.1-.092.151-.1.2.028.309.239.364.172.046.191.119.049.19a1.4,1.4,0,0,1-.366.07,2.464,2.464,0,0,1,.252.1c.463.255.207-.144.3-.224.389-.327.685.208,1.057.085h0c.141.09.245.366.459.026a.243.243,0,0,1,.4.048c.308-.177.616-.356.927-.532a.11.11,0,0,1,.075.006c.056.166.107.334.159.5-.111-.012-.254.006-.327-.046-.3-.212-.317.2-.531.153a2.083,2.083,0,0,1,.309.175c.525.42.038-.222.239-.158.053.016.139-.054.2-.043.632.11.558-.433.86-.626a1.581,1.581,0,0,1,.425-.115c.019.054.07.118.049.159-.231.46.433.4.58.668a.924.924,0,0,0,.913.525c.1-.01.221.048.324.036.064-.007.115-.09.171-.139-.542.115-.542-.652-1.126-.479a.612.612,0,0,1-.223-.028,5.317,5.317,0,0,1,.513-.32c.023-.011.155.123.229.2.015.014,0,.05-.006.076a1.1,1.1,0,0,0,.22-.113c.1-.088.168-.223.287-.272.064-.026.211.086.319.135a1.875,1.875,0,0,0-.352.078c-.039.017-.237.183.028.159a3.332,3.332,0,0,0,.635-.218c.037-.012.143.068.15.059.234-.235.429,0,.5.087.212.271.219.547-.26.638-.054.011-.148-.117-.223-.18,0,.06-.021.168,0,.174.176.052.461.163.521.107.268-.238.484-.452.827-.089.005-.022.022-.059.012-.065-.161-.1-.32-.271-.492-.28-.227-.011-.208-.023-.074-.128.046-.037.128-.041.172-.077.108-.089-.486.05-.07-.144.038-.017.037-.359.2-.037a.467.467,0,0,0,.351.011c.159-.149.631.346.571-.2,0-.024.116-.068.185-.085.4-.1.764-.334,1.217-.206a1.448,1.448,0,0,1,.165.047c.021.01.048.053.039.063-.42.505.154.322.378.381h0c-.114.006-.256-.022-.329.026-.251.163.171.143.121.262l.608-.058-.021.012.014.006-.175.463c.322-.09.52.426.848.144.2-.171-.389-.524.159-.677a.455.455,0,0,1-.138-.06c-.325-.319-.417.272-.694.129l.007-.018h0l.17-.1-.572-.125h0c.439-.191.032-.252-.082-.358a.354.354,0,0,1-.038-.056c.048-.01.095-.022.144-.028.5-.062,1.034.113,1.5-.17a.178.178,0,0,1,.143.04.5.5,0,0,1,.07.224c0,.048-.046.1-.072.146l.665.12a1.368,1.368,0,0,1,0-.19c0-.037.028-.1.052-.1.4-.044.8-.068,1.2-.124s.818.225,1.21-.034a.09.09,0,0,1,.047.022c-.021.07-.021.165-.077.2a1.529,1.529,0,0,1-.329.135c.342-.073-.069.487.386.318a1.025,1.025,0,0,0,.1-.054.755.755,0,0,1-.072-.064c-.055-.069-.108-.139-.156-.212,0-.006.031-.031.049-.047.043.284.271-.089.364.071a.491.491,0,0,0,.222.228.326.326,0,0,0,.269-.112.8.8,0,0,0,0-.35c0-.022-.038-.041-.059-.06.031-.016.065-.049.091-.046a2.761,2.761,0,0,1,.523.1c.146.053.307.251.388.225.362-.112-.218-.047-.055-.158a1.992,1.992,0,0,1,1.333-.123,4.419,4.419,0,0,1,1.52.461c.276.132.381-.1.573-.053l-.071-.291c-.163.038-.328.069-.487.117a.989.989,0,0,0-.2.119c.01-.067,0-.144.033-.2.08-.11.232-.3.276-.291a8.169,8.169,0,0,0,2.26.058c.192.006.381.117.573.122.139,0,.278-.1.425-.128.042-.009.16.1.157.1-.081.1-.175.195-.266.29a2.873,2.873,0,0,0,.394-.12,2.021,2.021,0,0,0,.319-.217c.047-.033.121-.107.123-.106.621.45,1.284-.16,1.911.053l.147.049c-.014.017-.022.042-.041.048-.175.062-.573.155-.476.192a3.252,3.252,0,0,0,1.173.137c.139,0,.279-.187.405-.3.038-.033.034-.149.044-.149.4.022.791.053,1.188.084-.1.03-.193.057-.287.091-.011,0,0,.046,0,.069l.6-.006c-.007-.025,0-.058-.022-.073a1.539,1.539,0,0,0-.153-.106,1.519,1.519,0,0,1,.233-.031c.674.012,1.35,0,2.019.058.208.017.394.213.594.323a.2.2,0,0,0,.125.028c.043-.012.1-.049.11-.083.111-.54.362.072.535-.038a1.592,1.592,0,0,1,.228.176l.111.084a.41.41,0,0,0,.055-.121c0-.022-.047-.047-.07-.071s-.046-.053-.068-.079c.036-.017.081-.057.106-.049a3.556,3.556,0,0,1,.872.3c.357.243-.478.07-.208.337.041.041.064.115.112.127.177.043.359.076.54.111v1.058a1.891,1.891,0,0,0-.633.079c-.073.023-.8.249-.931-.253-.366.271-.69-.234-1.065-.042-.064.033-.2-.026-.3-.042l.067-.288c.006-.024.01-.047.015-.07a.341.341,0,0,0-.124.021.545.545,0,0,0-.116.121c.174.134.117.2-.091.184-.048-.005-.28.184-.2-.078a2,2,0,0,0-.288.04c-.02.005.011.112-.017.129a3.5,3.5,0,0,1-2.674.041c-.314-.072-.8.2-1.028.085-.344-.182-.52.132-.8.038a3.074,3.074,0,0,0-.764-.055c-.551-.032-1.058.236-1.686,0a1.512,1.512,0,0,0-1.442.158c-.144.124-.663-.027-1-.086-.485-.085-.965-.2-1.447-.3-.123.558-.643.283-1.018.365-.449.1-.959-.264-1.343.145-.011.011-.055,0-.084,0,.025-.213.048-.426.079-.638,0-.026.047-.048.071-.073-.035-.01-.09-.036-.1-.027-.219.2-.434.4-.648.607a.763.763,0,0,1-.134.125c-.026.015-.084-.006-.127-.012.038-.031.1-.058.111-.095a.4.4,0,0,0,0-.177,1.862,1.862,0,0,0-.492.015c-.179.046-.33.191-.506.208a4.976,4.976,0,0,1-2-.064c-.447-.135-.9.285-1.338.009-.11-.069-.149-.216-.221-.327l.01-.007h-.006c.079-.187.193-.027.217.012.217.367.112-.049.135-.143l.047.006a.526.526,0,0,1,.05.071l.048-.058-.1-.014c-.027-.031-.042-.03-.047-.006-.191-.027-.382-.054-.574-.072-.022,0-.056.1-.085.151l.307.052-.005.007h0c-.1.08-.248.232-.3.213-.272-.1-.684.044-.823-.335-.032-.085-.35-.1-.54-.139-.008,0-.064.08-.052.111.044.122.032.328.313.182.031-.015.1.023.153.037-.149.078-.295.215-.448.222-.682.032-1.364.028-2.045.033-.125,0-.248-.017-.372-.026l.253-.037c-.033-.026-.073-.078-.1-.073a2.975,2.975,0,0,1-.484.091c-.962-.021-1.925-.059-2.886-.09-1.005-.031-2.011-.084-3.016-.08-.523,0-1.045.137-1.57.154-.828.027-1.659-.01-2.487.019-.19.006-.516-.1-.581.206-.69-.34-1.473.165-2.146-.148-.4-.186-.631.154-.954.139a14.82,14.82,0,0,1-3-.122c-.4-.1-.9.2-1.328-.1-.022-.016-.265.288-.568.256-.563-.06-1.126.155-1.715-.106a1.6,1.6,0,0,0-1.045.144c-.442.2.049-.541-.4-.239-.016.012-.1-.044-.117-.033-.076.06-.127.165-.214.19-.055.016-.155-.081-.239-.122-.257-.123-.532-.364-.768-.34a4.078,4.078,0,0,0-1.534.4c-.362.207-.179-.093-.219-.116-.321-.185-.746.363-1-.106-.067.282-.6-.191-.585.245,0,.038-.153.078-.235.117l-.055-.2c-.267.12-.637.44-.728-.066-.1-.535-.166.1-.25-.015a.622.622,0,0,0-.263-.138c-.017-.007-.1.078-.1.075-.083-.064-.159-.133-.237-.2.087-.018.176-.032.261-.058.033-.01.057-.047.085-.07-.049-.017-.1-.031-.147-.051-.072-.031-.141-.065-.211-.1.409.383-.9-.282-.237.267a.248.248,0,0,1,.022.213,2.2,2.2,0,0,1-.45.059.655.655,0,0,1-.2-.068c.071.078.14.159.216.234a1.537,1.537,0,0,0,.148.118.432.432,0,0,1-.147-.007,3.663,3.663,0,0,1-.416-.211c-.026-.016,0-.1.009-.148-.123.016-.308.081-.36.038-.193-.162-.345-.071-.519,0-.01,0-.059-.059-.09-.091-.1.07-.2.135-.291.212-.049.043-.063.144-.109.152a.244.244,0,0,1-.191-.081c-.03-.043.01-.118.018-.18l.015-.091c-.065.027-.182.051-.186.083-.013.132-.445-.117-.239.187a.443.443,0,0,1,.043.128l-.649-.2c-.15.483-.525-.526-.67.068a1.51,1.51,0,0,1-.232,0c.325-.118-.544-.06-.044-.208.028-.007.043-.047.063-.072a.254.254,0,0,0-.065-.028c-.168-.027-.412-.122-.489-.064a1.658,1.658,0,0,1-.991.313c-.058-.021.04-.256-.026-.35-.174-.25-.111-.076-.122.049s-.115.314-.154.31c-.755-.074-1.54.242-2.275-.108-.03-.015-.1.017-.142.042-.021.014-.018.062-.01.091a1.8,1.8,0,0,0,.07.186l-.239.012a.44.44,0,0,0,.1-.083c.01-.016-.018-.067-.044-.078a5.42,5.42,0,0,0-.618-.255,2.585,2.585,0,0,0-.371-.006c-.028,0-.072-.144-.049-.158a1.8,1.8,0,0,1,.3-.124l-.148-.2,0,0h0l0-.005.527-.236c-.166-.008-.332-.02-.5-.021a1.274,1.274,0,0,0-.345.022c-.031.19.13.233.319.24l0,0c-.217.217-.423.441-.663.638-.036.03-.228-.1-.355-.12-.547-.1-.575.54-1.074.526-.12,0-.258.094-.356.067s-.175-.148-.26-.228c.159,0,.32-.005.479-.017.014,0,.02-.082.03-.126-.13.058-.22-.053-.28-.062a6.927,6.927,0,0,0-1.013-.012c-.068,0-.134,0-.2,0a.593.593,0,0,0,.1-.117c.014-.025-.006-.088-.02-.09-.131-.017-.262-.024-.394-.034.031.028.078.052.091.085a2.519,2.519,0,0,1,.08.248c-.149.019-.3.044-.45.053-.538.031-1.078.078-1.619.078s-1.1-.064-1.651-.065c-.313,0-.634.117-.938.09a2.876,2.876,0,0,1-1.1-.261c-.568-.316-1.177-.116-1.758-.186-.115-.014-.274.225-.411.349-.061-.312-.4-.311-.651-.426-.144-.068-.233-.218-.344-.334v-.01h0l.377-.245-.5-.167c.042.138.085.275.127.412l-.005,0,.006.006c.047.833-.578.109-.828.242a1.7,1.7,0,0,0-.294.24c-.069-.074-.1-.271-.245-.025-.048.08-.25.1-.381.142.073-.1.088-.141-.241-.336a.76.76,0,0,1,.078-.229c-.131.016-.261.031-.392.048l-.313-.175a.377.377,0,0,0-.3-.006,1.585,1.585,0,0,0-.239.349c.149-.038.3-.087.447-.112.133-.021.268-.039.4-.056.133.074.232.131.314.181-.015.127.033.243.219.335-.553-.011-1.068-.376-1.651-.126.216-.3-.157-.355-.306-.5-.022-.022-.081-.02-.123-.027.094.871-.657.126-.937.334-.371.276-.808-.429-1.209.016-.126-.434-.517-.271-.849-.271-.216,0-.43-.043-.646-.065-.017,0-.048.011-.049.009q-.127-.246-.251-.5c.042.155.147.32.111.462-.043.171-.187.446-.318.46a14.559,14.559,0,0,0-1.689.067c-.437.1-.532-.381-.728-.25-.534.355-.589-.4-.961-.244-.435.184.354.121.116.31-.015.012.352.322.067.345-.4.033-.88.211-1.251-.094a1.775,1.775,0,0,1-.275-.378c-.022.154-.489.063-.28.346a2.217,2.217,0,0,0-.414.079c-.474.188-.856-.163-1.3-.139.145-.328-.241-.177-.232-.154.274.683-.441.268-.53.265a2.655,2.655,0,0,1-1.083-.225c-.294-.153.318-.028.17-.219.112-.021.351-.025.168-.157a.733.733,0,0,0-.575.08,2.136,2.136,0,0,1-1.489.265,4.408,4.408,0,0,0-1.342.182.708.708,0,0,1-.759-.269c-.046-.054-.427.13-.542.064-.44-.245-.758.6-1.185.069-.4.625-.284-.387-.569-.125-.019.017-.06.043-.057.047.086.112.481.254.2.32a2.124,2.124,0,0,1-1.386.017,1.533,1.533,0,0,0-.8-.065,2.834,2.834,0,0,1-.731-.054,6.755,6.755,0,0,1-1.136.031c-.065-.013-.164.084-.248.129.127-.245-.547-.3-.207-.621.049-.047.431-.1.129-.288a1.438,1.438,0,0,0-.267.309c-.128.286-.975.343-1.337.086a.5.5,0,0,0-.266-.089c-.261.259-.4.33-.308-.107,0-.01-.078-.043-.079-.042-.126.151-.223.338-.515.248.067.266-.182.18-.277.138-.425-.191-.3.419-.659.3v.118l-.149-.117c-.109.135-.345.384-.422.187-.2-.5-.606-.245-.9-.23-.253.012-.522.269-.759.032a.585.585,0,0,1-.049-.738.338.338,0,0,0-.095-.325c-.049-.05-.226-.012-.345-.013.079.054.219.1.224.162a.718.718,0,0,1-.075.454c-.084.124-.249.122-.285-.072-.032.068-.043.177-.1.2a1.009,1.009,0,0,1-.866-.136,2.356,2.356,0,0,0-.421-.127,1.173,1.173,0,0,1,.012.254c-.006.046-.064.086-.1.129-.064-.373-.458-.046-.622-.2a.909.909,0,0,1-.15-.181c-.06-.1-.107-.2-.16-.307-.21.107.027.191.017.277-.022.214-.1.42-.446.41.1-.371-.818.3-.475-.322-.251.032-.506.047-.75.1-.3.067-.75.306-.845.227-.392-.324-.5.235-.764.115-.046-.021-.063-.086-.094-.132.285.064-.206-.375.21-.226a1.263,1.263,0,0,0,.015-.325C1598.515,971.281,1598.43,971.19,1598.323,971.156Zm106.205.283.7.266a1.411,1.411,0,0,0,.043-.288,4.922,4.922,0,0,0-.559-.075Zm-1.588-.859c.159.043.171.1.429-.076l-.029.027-.012.011-.025.023h0l.025-.023.012-.011.091-.085c-.2-.041-.43-.158-.579-.106C1702.62,970.42,1702.769,970.535,1702.94,970.58Zm-.732.429.515.269.155-.312c-.059-.041-.125-.116-.164-.107C1702.541,970.9,1702.376,970.956,1702.208,971.009Zm-.8.264c.248.06.426.156.561.124.243-.059-.308-.249.042-.344a1.459,1.459,0,0,0-.322.01C1701.612,971.083,1701.557,971.156,1701.406,971.273Zm-1.952-.461a2.216,2.216,0,0,0,.5.314c.085.03-.142-.429.431-.137-.018-.2-.03-.328-.041-.455Zm-4.553-.034a1.808,1.808,0,0,0,1.018.2c.765-.166-.211-.265-.166-.3-.124.286-.272-.027-.439-.18C1695.394,970.819,1694.81,970.735,1694.9,970.777Zm-1.49.417c.065.295.275.435.833.356l.417-.161c-.174-.028-.348-.056-.521-.085a.109.109,0,0,1-.06-.038c-.135-.155-.27-.312-.4-.468-.267.221.291.179.165.359-.02.026-.015.064-.021.1a.728.728,0,0,0-.219-.132A.282.282,0,0,0,1693.412,971.195Zm-6.15.773a.184.184,0,0,0,.137.072,1.665,1.665,0,0,0,.539-.044,2.267,2.267,0,0,0,.5-.345c.02-.015.012-.079-.01-.1s-.112-.055-.126-.044c-.249.2-.5.354-.842.106h-.119c.03.032.076.063.086.1a1.485,1.485,0,0,1,.02.224c-.028,0-.065,0-.082-.014a1.184,1.184,0,0,1-.1-.107C1687.263,971.865,1687.24,971.924,1687.262,971.968Zm-7.916-1.019c.244.186.592-.2.837.091.028-.059.1-.13.081-.175-.175-.444-.483-.025-.726-.075C1679.313,970.711,1679.308,970.919,1679.346,970.948Zm-8.594.3.086-.075.239.3c.161-.1.382-.32.291.1a1.533,1.533,0,0,0,0,.336c.026,0,.069,0,.075-.012.126-.243.237-.256.334.012.043-.017.108-.026.126-.053a.165.165,0,0,0,.01-.144,3.935,3.935,0,0,1-.216-.383.281.281,0,0,1-.014-.143l.006,0c0-.023,0-.018-.006,0-.55-.35-.123.258-.405.03-.124-.1-.09-.329-.164-.489a.658.658,0,0,0-.328.037A2.091,2.091,0,0,0,1670.752,971.245Zm-3.53.144c.044.422.228.041.352.028s.246-.085.35.085c.295-.7-.254-.374-.43-.388C1667.41,971.109,1667.212,971.3,1667.222,971.39Zm-1.5,0a7.7,7.7,0,0,0,1.23.048c.069,0,.207-.132.191-.165-.262-.574-.7.031-.763,0C1665.844,971.109,1665.682,971.387,1665.726,971.393Zm-9.876.493c-.059-.3-.381-.159-.581-.229v-.006a1.333,1.333,0,0,0,.23-.081c.068-.037.149-.091.166-.15.081-.287-.283-.3-.43-.454-.015-.016-.122.031-.186.049a1.94,1.94,0,0,1,.159.154c.051.065.089.138.133.208a.675.675,0,0,0-.088,0,1.168,1.168,0,0,0-.23.037c-.027.009-.053.09-.044.095.093.051.191.092.288.137v.005l-.011,0,.012,0c.051.18.089.373.395.348C1655.733,972,1655.856,971.918,1655.85,971.886Zm-1.079-1.178.906.351.2-.052c-.2-.381-.761-.1-1.019-.376Zm-13.72.479c.244,0,.043.1-.184.247l.636-.048c-.272-.232-.431-.745-.814-.634C1640.422,970.828,1640.568,971.184,1641.05,971.187Zm-8.738-.364a7.958,7.958,0,0,0,.9.223c.08.011.2-.16.3-.247l-.987-.136Zm-1.366.08.224.159c.246-.414.555-.084.917-.068.29-.221-.09-.449-.209-.43A4.381,4.381,0,0,0,1630.946,970.9Zm-4.493-.672c.132.027.253.055.376.076.154.026.309.044.463.067-.121.4.232.118.352.168a.478.478,0,0,0,.16-.006.721.721,0,0,0-.062-.239c-.259-.37-.631-.133-.957-.106C1626.679,970.2,1626.6,969.928,1626.453,970.233Zm-.023.657c.32.586.891.234,1.354.277.015,0,.032-.024.047-.037-.441-.1-.881-.2-1.323-.291C1626.483,970.834,1626.444,970.88,1626.43,970.889Zm-.2.624c.252.084.46.165.678.215.052.012.138-.076.208-.12-.216-.087-.427-.184-.651-.255C1626.428,971.342,1626.343,971.434,1626.229,971.513Zm-2.478-.891a1.221,1.221,0,0,1,.363.1c.331.236.546-.224.85-.085.011-.049.052-.112.03-.145-.161-.239-.273,0-.413.032a1.307,1.307,0,0,1-.261.006c0-.1.365-.229.027-.268C1624.179,970.24,1623.968,970.481,1623.751,970.622Zm-1.057.1.446.163c.075-.179-.357-.275-.115-.49.033-.029-.021-.127-.036-.193Zm-8.789.72c.148.094.294.188.448.276a.509.509,0,0,0,.058-.06c.1-.384-.261-.212-.358-.327Zm-5.948.021c.259.329.5-.38.761-.008.143-.153.049-.2-.2-.226l-.058-.208C1608.327,971.2,1608.291,971.45,1607.958,971.467Z" transform="translate(-1598.323 -969.619)" fill="#ffb806"/>
        </g>
        <g id="Group_84" data-name="Group 84" transform="translate(0 0.59)">
          <path id="Path_10150" data-name="Path 10150" d="M1559.946,928.167v1.048c-.155-.044-.347-.038-.335.281-.073-.028-.169-.031-.222-.088-.2-.222-.3-.165-.366.09-.044.17-.212.159-.413.016-.011-.009-.076.1-.112.151-.1-.116-.07-.034-.1.022-.06.083-.148.194-.262.188-.207,0-.026-.118-.042-.116-.146.018-.343.045-.393.135-.173.448-.753.607-.854,1.04a.065.065,0,0,0,.005.016c-.377.307-.062.7-.405,1.1-.246.439.026,1.127.262,1.647.176.386-.149.548-.233.814-.031.1.046.215.04.323a8.385,8.385,0,0,1-.1,1.268c-.044.218-.3.405-.37.624-.026.085.188.285.336.321.535.13-.108.478.215.629-.2.246-.231.621-.758.608a1.6,1.6,0,0,1,.456.162c.357.286.053.554-.034.847a.539.539,0,0,0,.216.689c.015-.056.027-.114.046-.168a.47.47,0,0,1,.092.007,1.75,1.75,0,0,1-.082.319c-.021.044-.109.079-.175.093-.027.007-.092-.041-.112-.073a.584.584,0,0,1-.048-.157c-.038.025-.113.058-.107.075.034.1.074.278.136.284.41.044-.043.342.212.414-.324.477-.315.526-.092,1.022.067.147-.037.354.057.476.225.3-.129.248-.26.341-.057.041-.073.118-.107.179a1.617,1.617,0,0,1,.194-.1.4.4,0,0,1,.132,0c-.029.215-.278.357.058.661.256.233-.086.828.016,1.235a.586.586,0,0,1-.316.791c.441.15.482.467.5.783.025.388,0,.78.053,1.165.042.3-.554.016-.324.156a.554.554,0,0,1,.293.624c-.037.291.194.657-.26.869l-.133-.158-.133.339h-.017l-.022.047.064.005c.5.181-.01.5.157.751a1.368,1.368,0,0,1,.1.751c0,.148.229.4-.223.416-.03,0-.091.1-.077.139.032.09.079.226.16.248a.492.492,0,0,1,.349.579,2.5,2.5,0,0,1-.081.98c-.253.474.022.962-.215,1.464a1.825,1.825,0,0,1-.389.759c-.156.141.277-.124.283.158.014.554-.933.05-.867.544.025.192-.415.511.206.571-.015-.033-.05-.073-.037-.1.034-.062.1-.113.133-.174.134-.217.345-.159.557-.1-.08.155-.134.427-.244.441-.3.04-.094.224-.206.294.064-.019.127-.041.193-.057.009,0,.046.029.046.046l-.012.808-.266-.176c.029.245.195.59.053.712-.257.221.318.549-.206.654.058.113.35.213.035.35.356.125-.3.492.218.594a2.057,2.057,0,0,1-.058.38l-.222,1.3c-.338-.283-.349.268-.627.156-.034-.014-.1.029-.159.046l.163.035-.005,0h0c-.629.4.1.517.26.753v0l0,.006c-.207.081-.4.173-.339.393.01.034.1.053.16.08.053-.159.437-.244.178-.473h0l-.006-.008c.1-.237.182-.5.632-.33.06.022.141.256.218.01a.2.2,0,0,0-.054-.138,2.014,2.014,0,0,1-1.056-.3h0c.179-.03.419-.136.527-.08.54.277.865.584.652,1.205a4.666,4.666,0,0,0,.039,1.65c0,.146.175.369-.227.36a1.2,1.2,0,0,1,.2.111c-.345.585.195,1.278-.36,1.835-.011.011.016.053.036.076l.165.182a.534.534,0,0,1,0-.133c0-.017.046-.028.07-.041a1.023,1.023,0,0,1,.153.332c.027.45.036.9.026,1.354,0,.091-.108.181-.167.271-.041-.113-.09-.227-.12-.342a.44.44,0,0,1-.021-.259c.121-.3-.2-.631.13-.9a.963.963,0,0,0-.19-.066c-.369-.047-.151.085-.1.191s.089.266.032.3c-.118.072-.353-.008-.034.179.17.1.14.54.034.781-.187.422.5.59.352.984-.054.147.053.328.052.493q0,.783-.034,1.568c0,.063-.091.146-.168.177a1.259,1.259,0,0,1-.32.044c.1,0,.209,0,.313.015a.644.644,0,0,1,.142.045c-.023.015-.044.038-.07.042l-.436.056c.076.193.254.163.446.136.032-.006.092.039.133.063.012.007,0,.028,0,.043a1.384,1.384,0,0,1-.137-.023.356.356,0,0,0-.463.189,2.5,2.5,0,0,1-.17.186,1.33,1.33,0,0,0-.1-.094.307.307,0,0,0-.08-.024.313.313,0,0,0,.017.176.224.224,0,0,0,.17.043c.2-.035.384-.09.582-.119.267-.037.286-.006.213.213a.876.876,0,0,1-.081.147c.6.032.188.354.3.535.177.305.269.782.944.668.012,0,.032.046.038.075.018.083-.007.219.063.256a4.521,4.521,0,0,0,.7.177c.308.068.6.141.9.188.062.01.085.154.137.234-.09.269-.063.47.35.374l.117.158c.283.025.641.037.971.032a4.629,4.629,0,0,1,2.021.256c.32.136.861.121,1.283.275.088.032.309-.147.47-.229-.209.009-.06-.447-.452-.2-.187-.211-.632.081-.765-.224a.965.965,0,0,1-.046-.246,2.079,2.079,0,0,0,.578.163,6.419,6.419,0,0,0,1.169-.13c.309-.065.382.009.372.213v.056c.08-.245.265-.087.414-.064-.017.066-.063.141-.037.2a.329.329,0,0,0,.2.148c.363.1.41-.163.569-.3l.657.009-.19.172.278.155.038.044.143.054.06-.011c.441-.282.787-.247,1.022.172.01.018.055.023.083.036-.194-.413.321-.335.55-.453-.176-.133-.2-.245.092-.273.389-.037.781-.055,1.172-.08a.448.448,0,0,1,.1.021c-.026.021-.056.04-.078.063a1.092,1.092,0,0,0-.16.183c-.006.009.1.057.151.088a1.263,1.263,0,0,1,.057-.141,2.305,2.305,0,0,0,.669.1c.423-.084.147.232.211.21a2.117,2.117,0,0,0,.383-.258.359.359,0,0,1,.2-.053c.047,0,.087.06.131.092a.617.617,0,0,0-.191-.005.7.7,0,0,0-.2.115c-.013.009.013.062.013.062l.512,0c.206.021.49.118.6.049.292-.175-.072-.257-.191-.285-.1-.025-.264.089-.4.14-.169-.318.485-.174.423-.432.137.183.509-.267.573.121,0,.016.031.029.048.044a1.092,1.092,0,0,0,.228-.164c.041-.052.021-.13.031-.2l.036-.191.253.076a1.388,1.388,0,0,0-.169.019.059.059,0,0,0-.029.06l.166.305.222-.1c-.057-.016-.137-.019-.164-.048s-.035-.119-.006-.133c.167-.086.347-.158.522-.234a1.654,1.654,0,0,0-.092.138c-.1.184.028.282.239.331.172.042.191.109.049.173a1.52,1.52,0,0,1-.366.064,2.368,2.368,0,0,1,.25.1c.465.232.207-.131.3-.2.388-.3.685.19,1.056.077h0c.141.082.246.333.461.023a.255.255,0,0,1,.4.044l.927-.485a.122.122,0,0,1,.075.005l.159.456a.9.9,0,0,1-.327-.042c-.3-.193-.317.181-.531.139a2.17,2.17,0,0,1,.309.159c.525.383.037-.2.239-.143.053.014.139-.049.2-.039.632.1.558-.4.86-.57a1.721,1.721,0,0,1,.425-.1c.018.049.069.108.049.145-.231.419.432.362.58.608a.939.939,0,0,0,.913.478c.1-.009.221.044.324.033.064-.007.115-.082.171-.127-.542.1-.542-.594-1.126-.436a.673.673,0,0,1-.223-.026,5.482,5.482,0,0,1,.513-.292c.023-.01.155.112.229.178.015.012,0,.046-.007.07a1.115,1.115,0,0,0,.221-.1c.1-.08.168-.2.287-.248.064-.024.211.079.319.124a2.036,2.036,0,0,0-.352.071c-.039.016-.236.167.028.145a3.565,3.565,0,0,0,.635-.2c.037-.011.143.062.15.054a.323.323,0,0,1,.5.08c.212.247.219.5-.26.581-.054.01-.148-.106-.223-.164,0,.055-.022.153,0,.158.175.047.461.148.523.1.266-.217.483-.412.826-.081,0-.02.022-.054.012-.059-.161-.092-.322-.247-.492-.255-.227-.01-.208-.021-.074-.117.046-.034.128-.037.172-.071.109-.081-.486.046-.07-.131.038-.016.037-.327.194-.034a.515.515,0,0,0,.353.01c.159-.136.631.315.57-.18,0-.021.116-.062.185-.077a2.444,2.444,0,0,1,1.217-.187,1.405,1.405,0,0,1,.164.043c.022.009.049.048.041.057-.42.46.154.293.378.347h0c-.113.006-.256-.02-.329.024-.251.148.172.13.121.239l.607-.053-.021.011.014.006-.175.422c.321-.082.52.388.848.131.2-.156-.389-.477.159-.616a.485.485,0,0,1-.138-.055c-.325-.291-.417.248-.693.118l.007-.017h0l.17-.094-.57-.115h0c.439-.174.032-.23-.083-.327a.249.249,0,0,1-.038-.051c.048-.009.095-.02.144-.026.5-.056,1.034.1,1.5-.155a.19.19,0,0,1,.143.036.424.424,0,0,1,.07.2c0,.044-.047.089-.071.134l.665.109a1.137,1.137,0,0,1,0-.173c.005-.034.028-.092.052-.1.4-.04.8-.062,1.2-.113s.818.205,1.21-.031c0,0,.047.02.047.02-.021.064-.021.15-.076.186a1.606,1.606,0,0,1-.329.122c.342-.066-.07.444.386.29a1.106,1.106,0,0,0,.1-.049.663.663,0,0,1-.071-.058l-.157-.193c-.005-.006.031-.028.048-.043.045.258.271-.081.364.065a.478.478,0,0,0,.223.208.339.339,0,0,0,.267-.1.653.653,0,0,0,0-.319c0-.02-.038-.037-.059-.055.031-.015.065-.045.091-.041a2.974,2.974,0,0,1,.522.089c.147.048.307.229.389.205.361-.1-.219-.042-.058-.144a2.176,2.176,0,0,1,1.335-.112,4.738,4.738,0,0,1,1.52.42c.276.12.381-.091.573-.048l-.072-.265c-.162.035-.328.063-.487.107a.966.966,0,0,0-.2.109c.01-.061,0-.131.033-.18.08-.1.23-.277.276-.265a8.969,8.969,0,0,0,2.26.053c.192.005.381.106.573.111a2.223,2.223,0,0,0,.425-.117c.042-.008.16.089.157.093-.081.092-.175.177-.266.264a3.126,3.126,0,0,0,.394-.109,2.044,2.044,0,0,0,.319-.2l.123-.1c.621.41,1.284-.146,1.911.048l.147.045c-.013.016-.022.038-.041.044-.175.056-.573.141-.476.175a3.545,3.545,0,0,0,1.173.125c.138,0,.279-.171.405-.273.038-.03.034-.136.044-.136l1.187.076-.286.083c-.011,0,0,.042,0,.063l.594-.006c-.006-.022,0-.053-.021-.066a1.57,1.57,0,0,0-.153-.1,1.663,1.663,0,0,1,.233-.028c.674.011,1.35,0,2.018.053.208.016.394.194.594.294a.221.221,0,0,0,.126.026c.043-.011.1-.045.11-.075.111-.492.362.065.535-.035a1.575,1.575,0,0,1,.228.16l.111.076a.357.357,0,0,0,.055-.11c0-.02-.047-.043-.07-.065l-.068-.072c.036-.016.081-.052.106-.045a3.788,3.788,0,0,1,.872.276c.358.221-.478.064-.209.306.042.037.065.1.113.116.178.039.359.07.54.1v.964a2.068,2.068,0,0,0-.633.072c-.073.021-.8.227-.932-.23-.366.247-.69-.213-1.065-.038-.065.031-.2-.023-.3-.038l.066-.263.015-.064a.378.378,0,0,0-.125.019.515.515,0,0,0-.116.11c.174.122.116.183-.091.167-.048,0-.28.167-.2-.071a2.157,2.157,0,0,0-.288.036c-.02,0,.011.1-.018.118a3.812,3.812,0,0,1-2.674.037c-.314-.065-.8.187-1.027.078-.345-.166-.52.12-.8.035a3.371,3.371,0,0,0-.764-.051c-.551-.029-1.058.216-1.686,0a1.64,1.64,0,0,0-1.441.144c-.144.113-.664-.025-1-.079-.486-.077-.965-.184-1.447-.277-.123.509-.643.258-1.018.332-.448.089-.959-.24-1.343.132-.011.01-.055,0-.084,0l.079-.581c0-.023.047-.044.072-.066-.034-.009-.09-.033-.1-.025l-.648.553a.726.726,0,0,1-.134.113c-.026.014-.084-.005-.127-.011.038-.028.1-.053.111-.086a.47.47,0,0,0-.005-.162,2.038,2.038,0,0,0-.492.013c-.177.042-.33.174-.506.19a5.449,5.449,0,0,1-2-.058c-.447-.124-.9.259-1.338.008-.11-.063-.149-.2-.221-.3l.009-.007h-.006c.08-.17.194-.024.218.011.217.334.112-.045.135-.13l.047.005a.506.506,0,0,1,.051.065l.048-.053-.1-.012c-.027-.028-.042-.027-.047-.005-.191-.025-.382-.049-.574-.065-.022,0-.056.089-.085.137l.306.047,0,.007h0c-.1.073-.248.211-.3.194-.272-.092-.684.041-.823-.305-.032-.077-.35-.09-.54-.127-.008,0-.064.073-.053.1.046.111.034.3.314.166.031-.013.1.021.153.034a1.348,1.348,0,0,1-.448.2c-.681.029-1.364.026-2.045.03-.125,0-.248-.016-.372-.023l.253-.034c-.033-.024-.073-.071-.1-.066a3.233,3.233,0,0,1-.484.083l-2.886-.082c-1.005-.028-2.011-.076-3.016-.073-.524,0-1.045.125-1.57.14l-2.487.017c-.19.005-.516-.092-.581.187-.69-.31-1.473.15-2.147-.135-.4-.17-.631.14-.954.127a16.281,16.281,0,0,1-3-.111c-.4-.091-.9.183-1.328-.089-.022-.015-.266.263-.568.233a5.466,5.466,0,0,1-1.715-.1,1.736,1.736,0,0,0-1.045.131c-.443.179.049-.493-.4-.218-.016.011-.1-.04-.117-.03-.076.055-.128.15-.214.173-.055.015-.151-.073-.265-.116a4.4,4.4,0,0,0-.9-.377c-.629-.033-1.321-.116-1.933-.121-.527-.005-.146-.161-.177-.2-.217-.285-1.048-.137-.934-.635-.3.15-.37-.512-.725-.239-.032.024-.2-.066-.307-.107l.136-.157c-.318-.127-.914-.3-.453-.617.486-.322-.209-.09-.139-.218a.508.508,0,0,0,.005-.28c0-.018-.136-.061-.136-.061a1.431,1.431,0,0,1,.115-.275,1.222,1.222,0,0,0,.178.2.363.363,0,0,0,.119.043,1.341,1.341,0,0,1-.02-.136,1.865,1.865,0,0,1,.023-.205c-.28.46-.007-.832-.389-.118-.026.054-.217.1-.229.08a1.335,1.335,0,0,1-.217-.4.371.371,0,0,1,.025-.2,2.064,2.064,0,0,0-.212.249,1.307,1.307,0,0,0-.087.17c-.013-.049-.046-.1-.038-.146a1.48,1.48,0,0,1,.143-.444c.014-.027.114-.008.174-.011-.043-.113-.151-.283-.1-.337.18-.184.057-.346-.022-.474-.005-.008.069-.046.107-.07a3.241,3.241,0,0,0-.25-.226c-.05-.038-.17-.048-.178-.083a.173.173,0,0,1,.1-.148c.052-.023.139.008.211.015l.107.011c-.032-.051-.059-.141-.1-.144-.155-.011.137-.345-.219-.185a.789.789,0,0,1-.152.033l.235-.5c-.567-.117.62-.406-.079-.519-.014,0,0-.117.005-.18.138.251.07-.422.244-.035.01.022.055.034.085.049a.178.178,0,0,0,.032-.05c.032-.13.144-.319.075-.379-.158-.141-.466-.593-.367-.768.025-.044.3.031.412-.019.293-.135.09-.086-.058-.1a.74.74,0,0,1-.366-.119c.089-.585-.283-1.192.13-1.761.016-.022-.021-.08-.051-.11a.165.165,0,0,0-.107-.008c-.074.014-.146.036-.219.055l-.013-.187a.4.4,0,0,0,.1.081.119.119,0,0,0,.091-.034,3.555,3.555,0,0,0,.3-.479c.039-.085-.011-.193.008-.288a.308.308,0,0,1,.186-.037,1.236,1.236,0,0,1,.147.234l.235-.115,0,0v0l.005,0,.279.407.024-.385c0-.092,0-.264-.026-.267-.224-.025-.275.1-.282.247l0,0c-.255-.168-.52-.328-.752-.514-.033-.027.114-.175.142-.274.118-.425-.636-.446-.62-.833,0-.092-.108-.2-.078-.276s.174-.135.267-.2c.005.123.006.248.021.372a.64.64,0,0,0,.148.022c-.068-.1.063-.171.073-.215a3.638,3.638,0,0,0,.015-.786v-.155a.749.749,0,0,0,.138.08.164.164,0,0,0,.1-.016l.042-.305a.352.352,0,0,1-.1.071c-.095.027-.193.042-.291.062-.021-.116-.052-.231-.063-.348-.036-.418-.09-.836-.091-1.254s.075-.853.078-1.28c0-.242-.138-.49-.107-.726a1.648,1.648,0,0,1,.308-.849c.371-.44.137-.911.218-1.362.016-.089-.265-.211-.409-.318.366-.047.365-.313.5-.505a1.432,1.432,0,0,1,.392-.266h.012l.288.291.2-.389-.485.1-.005,0-.007,0c-.979.036-.128-.448-.284-.641a1.7,1.7,0,0,0-.283-.229c.088-.053.319-.075.029-.19-.093-.036-.113-.193-.166-.294.123.056.165.067.4-.186a1.22,1.22,0,0,1,.27.059l-.057-.3.206-.242c.047-.056.055-.193.007-.229a2.066,2.066,0,0,0-.41-.185,3.192,3.192,0,0,1,.132.347l.065.31-.213.245a.412.412,0,0,0-.395.169c.014-.429.443-.828.148-1.279.351.167.417-.121.589-.236.026-.018.022-.064.032-.1-1.025.073-.149-.508-.393-.725-.325-.286.5-.625-.02-.936.51-.1.319-.4.319-.656a3.315,3.315,0,0,1,.078-.5.084.084,0,0,0-.011-.038l.582-.2a1.793,1.793,0,0,1-.542.086c-.2-.034-.525-.145-.541-.247a7.53,7.53,0,0,0-.077-1.308c-.119-.338.447-.412.293-.564-.417-.413.471-.456.287-.743-.216-.338-.142.273-.365.089-.015-.011-.378.273-.406.052-.039-.309-.248-.68.111-.967a2.254,2.254,0,0,1,.446-.214c-.182-.017-.075-.378-.408-.215a1.3,1.3,0,0,0-.093-.321c-.222-.367.191-.663.164-1.006.386.112.209-.187.181-.179-.8.211-.315-.341-.312-.41a1.492,1.492,0,0,1,.265-.84c.181-.228.034.246.259.131.024.087.03.273.185.13.081-.076.016-.342-.1-.444a1.2,1.2,0,0,1-.309-1.154,2.365,2.365,0,0,0-.216-1.039c-.083-.21,0-.415.317-.587.063-.036-.152-.331-.076-.421.288-.34-.7-.586-.081-.917-.734-.311.454-.22.148-.441-.02-.015-.055-.045-.055-.045-.131.067-.3.373-.377.156a1.123,1.123,0,0,1-.02-1.074.811.811,0,0,0,.076-.62c-.057-.216.054-.394.065-.566.019-.278-.131-.575-.037-.879.016-.052-.1-.128-.153-.193.288.1.358-.423.732-.16.054.038.114.334.339.1a1.668,1.668,0,0,0-.363-.208c-.337-.1-.4-.754-.1-1.035.06-.056.128-.191.1-.207-.306-.2-.388-.312.125-.238.013,0,.049-.062.049-.062-.177-.1-.4-.172-.292-.4-.312.053-.211-.14-.162-.213.225-.33-.493-.234-.351-.511h-.139l.138-.115c-.159-.084-.452-.267-.221-.328.589-.139.292-.557.346-.831.02-.237-.176-.557.168-.722a.819.819,0,0,1,.847.161.582.582,0,0,0,.4.02c.073-.021.09-.159.133-.246-.085.037-.191.126-.256.111a.959.959,0,0,1-.472-.205c-.107-.112-.026-.253.2-.205-.058-.051-.169-.1-.163-.157.028-.313.329-.487.641-.607a4.062,4.062,0,0,0,.408-.219,1.546,1.546,0,0,1-.239-.14c-.036-.031-.027-.1-.037-.145.376.181.4-.283.684-.274a1.167,1.167,0,0,1,.265.036,3.166,3.166,0,0,1,.362.134c.1-.181-.16-.126-.217-.19-.138-.162-.217-.359.131-.536.121.325.669-.617.668.031.235-.124.488-.234.733-.347.283-.151.758-.456.892-.393.505.232.561-.27.908-.173.057.017.079.077.115.116-.335-.046.241.333-.24.214a.916.916,0,0,0,0,.3C1559.752,928.059,1559.84,928.14,1559.946,928.167Zm38.343,48.3.7.243a1.185,1.185,0,0,0,.043-.263,5.4,5.4,0,0,0-.559-.068Zm-1.588-.782c.159.039.171.093.429-.07l-.029.025-.013.01-.025.021h0l.025-.021.013-.01.091-.077c-.2-.037-.43-.144-.579-.1C1596.38,975.534,1596.529,975.639,1596.7,975.68Zm-.732.391.515.245.155-.284c-.059-.037-.125-.106-.164-.1C1596.3,975.968,1596.136,976.023,1595.969,976.071Zm-.8.24a1.783,1.783,0,0,0,.561.113c.242-.054-.308-.227.042-.313a1.6,1.6,0,0,0-.322.009C1595.372,976.138,1595.318,976.2,1595.167,976.311Zm-1.952-.42a2.262,2.262,0,0,0,.5.286c.085.027-.142-.391.431-.125l-.041-.414Zm-4.553-.031a1.962,1.962,0,0,0,1.018.179c.765-.151-.211-.241-.168-.269-.123.26-.271-.025-.437-.164C1589.155,975.9,1588.571,975.822,1588.662,975.86Zm-1.49.38c.065.268.275.4.833.324l.416-.147-.521-.078a.111.111,0,0,1-.06-.035l-.4-.427c-.267.2.291.163.165.327-.02.024-.015.058-.021.088a.749.749,0,0,0-.219-.12A.3.3,0,0,0,1587.172,976.24Zm-6.15.7a.19.19,0,0,0,.137.066,1.828,1.828,0,0,0,.538-.04,2.289,2.289,0,0,0,.5-.314c.02-.013.012-.072-.011-.092a.2.2,0,0,0-.125-.041.649.649,0,0,1-.841.1h-.119c.029.029.076.057.086.09a1.221,1.221,0,0,1,.02.2.218.218,0,0,1-.082-.012,1.111,1.111,0,0,1-.1-.1C1581.024,976.851,1581,976.9,1581.022,976.944Zm-7.916-.928c.244.169.592-.182.836.083.03-.054.1-.118.083-.159-.175-.4-.484-.023-.726-.068C1573.074,975.8,1573.067,975.989,1573.107,976.016Zm-8.594.271.086-.068.239.275c.162-.087.382-.292.291.092a1.346,1.346,0,0,0,0,.306c.027,0,.07,0,.076-.011.126-.221.237-.234.334.011.043-.016.109-.023.126-.048a.139.139,0,0,0,.01-.131,3.576,3.576,0,0,1-.216-.349.237.237,0,0,1-.013-.13l.006,0c0-.021,0-.017-.006,0-.55-.319-.125.234-.405.027-.125-.091-.09-.3-.164-.445a.711.711,0,0,0-.328.033A1.739,1.739,0,0,0,1564.512,976.286Zm-3.53.131c.044.385.228.037.352.026s.246-.078.35.078c.295-.64-.254-.34-.43-.354C1561.171,976.162,1560.972,976.336,1560.982,976.418Zm-1.517-.016a6.289,6.289,0,0,0,1.251.063c.069,0,.206-.12.191-.151-.262-.523-.7.028-.764,0C1559.611,976.156,1559.426,976.391,1559.465,976.4Zm-5.376-5.944c.35-.045.186-.294.269-.449h.008a.84.84,0,0,0,.1.18.363.363,0,0,0,.176.128c.339.064.357-.219.535-.332.017-.012-.037-.094-.058-.145a1.627,1.627,0,0,1-.182.122c-.077.041-.163.07-.244.1a.312.312,0,0,0,0-.068.669.669,0,0,0-.043-.178c-.011-.021-.107-.04-.112-.034-.06.071-.11.148-.162.222h-.005l0-.008-.005.009c-.211.039-.439.07-.408.305C1553.958,970.368,1554.051,970.464,1554.089,970.458Zm1.386-.835-.414.7.06.151c.449-.157.116-.589.444-.789ZM1554.91,959c0,.189-.117.034-.29-.142.028.249.043.371.057.493.274-.211.877-.335.747-.631C1555.334,958.51,1554.915,958.625,1554.91,959Zm.427-6.767a4.529,4.529,0,0,0-.261.7c-.012.062.187.153.29.23.051-.245.1-.488.159-.765Zm-.092-1.058-.189.174c.487.192.1.43.08.711a.309.309,0,0,0,.507-.163A2.877,2.877,0,0,0,1555.245,951.172Zm.789-3.478-.09.291-.078.359c-.466-.094-.139.178-.2.273-.02.033,0,.082.007.124a1.134,1.134,0,0,0,.28-.047c.436-.2.157-.488.127-.742C1556.073,947.869,1556.392,947.806,1556.034,947.694Zm-.771-.018c-.69.247-.276.689-.328,1.048,0,.011.029.025.044.036l.342-1.025C1555.328,947.717,1555.274,947.686,1555.262,947.676Zm-.734-.156a4.836,4.836,0,0,0-.254.524c-.015.04.09.108.141.163.1-.167.215-.331.3-.5C1554.729,947.674,1554.622,947.608,1554.528,947.52Zm1.047-1.919c-.04.105-.043.215-.114.281-.278.257.263.423.1.659.057.009.132.041.17.022.282-.125,0-.212-.037-.319a.665.665,0,0,1-.008-.2c.116,0,.269.282.314.021C1556.025,945.932,1555.74,945.769,1555.575,945.6Zm-.123-.818-.191.344c.211.058.323-.276.577-.087.034.026.15-.017.229-.028Zm-.845-6.806-.324.346.07.046c.451.075.249-.2.384-.277Zm-.025-4.606c-.388.2.446.39.009.589.18.111.233.037.266-.157l.245-.044C1554.9,933.655,1554.6,933.628,1554.582,933.37Z" transform="translate(-1553.058 -927.24)" fill="#ffb806"/>
        </g>
        <g id="Group_85" data-name="Group 85" transform="translate(6.888)">
          <path id="Path_10151" data-name="Path 10151" d="M1675.4,928.369v1.151c-.214-.058-.461-.058-.509.293-.1-.039-.248-.057-.307-.124-.224-.26-.345-.23-.564.03-.152.181-.418.1-.58-.095a2.213,2.213,0,0,0-.265.11c-.044-.154-.063-.059-.159-.016a.819.819,0,0,1-.52.066c-.255-.094.09-.122.067-.127a1.312,1.312,0,0,0-.6-.073c-.757.293-1.546,0-2.306.127-.009,0-.017.012-.023.011-.7-.161-1.377.208-2.164-.083a3.877,3.877,0,0,0-2.125.223c-.5.149-.707-.128-1.051-.2a2.948,2.948,0,0,0-.417.034,16.021,16.021,0,0,1-1.638-.086c-.281-.038-.522-.258-.806-.314a.567.567,0,0,0-.415.286c-.167.455-.617-.092-.812.182-.316-.169-.8-.2-.785-.644-.066.132-.095.3-.208.388-.37.3-.716.044-1.1-.03a.919.919,0,0,0-.89.184c.074.012.148.022.218.04.006,0-.005.052-.009.079a3.207,3.207,0,0,1-.413-.07.237.237,0,0,1-.12-.149c-.009-.022.052-.078.095-.095a1.067,1.067,0,0,1,.2-.041c-.033-.032-.076-.1-.1-.091-.13.028-.359.062-.367.115-.055.35-.441-.037-.534.18a1.341,1.341,0,0,0-1.321-.078c-.188.055-.456-.032-.614.048-.383.192-.32-.11-.44-.222a.775.775,0,0,0-.232-.09,1.219,1.219,0,0,1,.127.165c.017.031,0,.074,0,.112-.279-.026-.461-.236-.855.048-.3.218-1.069-.073-1.593.015a.938.938,0,0,1-1.023-.269c-.195.375-.6.41-1.01.426-.5.02-1.008,0-1.506.044-.392.036-.02-.471-.2-.276a.89.89,0,0,1-.806.249c-.376-.031-.848.166-1.122-.219,0,0,.133-.075.2-.115l-.437-.113v-.015l-.061-.019-.007.055c-.233.424-.641-.009-.97.134a2.642,2.642,0,0,1-.97.085c-.191,0-.52.195-.537-.189,0-.026-.128-.079-.179-.066-.117.027-.293.066-.32.135-.081.2-.337.317-.748.3a4.828,4.828,0,0,1-1.267-.07c-.611-.214-1.242.02-1.889-.181a2.949,2.949,0,0,1-.979-.331c-.183-.133.158.235-.2.241-.717.011-.065-.793-.7-.738-.248.021-.659-.352-.737.175.042-.012.094-.042.123-.032.079.03.146.081.224.114.28.115.206.293.132.474-.2-.068-.551-.115-.57-.208-.05-.253-.288-.08-.379-.174a1.585,1.585,0,0,1,.074.164c0,.007-.038.038-.058.038-.349,0-.7-.006-1.045-.01l.228-.227c-.316.025-.763.165-.919.046-.286-.219-.707.27-.845-.176-.147.049-.275.3-.451.03-.16.3-.635-.259-.768.186a4.256,4.256,0,0,1-.49-.049l-1.678-.188c.365-.287-.346-.3-.2-.533.018-.03-.038-.089-.059-.134-.015.045-.029.092-.045.138l-.005,0h0c-.523-.535-.668.087-.972.22h0l-.008,0c-.1-.175-.223-.34-.506-.287-.044.008-.069.089-.1.135.206.045.314.372.61.151l0,0,.01-.005c.3.089.643.155.425.537-.028.052-.33.12-.012.186a.342.342,0,0,0,.177-.047c-.083-.362.224-.609.382-.9h0c.041.153.176.357.1.45a1.342,1.342,0,0,1-1.556.553,9.106,9.106,0,0,0-2.13.033c-.188.005-.477.149-.465-.192-.049.058-.13.172-.144.166-.754-.293-1.65.165-2.368-.306-.015-.01-.07.014-.1.03-.081.044-.157.094-.237.141a1.328,1.328,0,0,1,.174,0c.021,0,.036.039.054.06a1.7,1.7,0,0,1-.43.131c-.582.022-1.166.03-1.748.022a1.048,1.048,0,0,1-.35-.143c.148-.034.295-.076.444-.1a.859.859,0,0,1,.334-.017c.382.1.815-.174,1.167.111a.613.613,0,0,0,.085-.161c.062-.313-.109-.127-.245-.086s-.344.074-.388.026c-.094-.1.01-.3-.23-.028-.13.144-.7.119-1.009.028-.545-.159-.763.426-1.272.3a3.016,3.016,0,0,0-.636.044q-1.013,0-2.024-.029a.345.345,0,0,1-.231-.143.758.758,0,0,1-.055-.272c-.006.089-.006.179-.018.266a.455.455,0,0,1-.058.121c-.018-.02-.049-.038-.054-.06-.027-.123-.048-.246-.072-.37-.245.065-.232.21-.181.377.009.028-.065.076-.109.11-.012.008-.048,0-.074-.005a1.221,1.221,0,0,1,.045-.115c.125-.23-.058-.316-.261-.4a1.574,1.574,0,0,1-.246-.166,1.571,1.571,0,0,0,.144-.073c.021-.015.029-.045.041-.067a.8.8,0,0,0-.239-.012.16.16,0,0,0-.088.137c.015.17.063.338.074.508.015.228-.049.249-.4.138a1.334,1.334,0,0,1-.209-.108c-.276.485-.656.037-.96.034-.583-.006-1.178-.266-1.655.233-.009.01-.088-.021-.128-.041-.119-.059-.244-.182-.35-.171-.317.032-.621.137-.938.176a11.9,11.9,0,0,1-1.276.089c-.087,0-.18-.143-.269-.22.017-.306-.059-.519-.514-.365l-.151-.168c-.336-.009-.672-.03-1.007-.023a4.244,4.244,0,0,1-2.021-.281c-.321-.149-.861-.133-1.283-.3-.088-.034-.309.161-.47.251.21-.01.06.49.452.219.187.232.632-.088.765.246a1.164,1.164,0,0,1,.046.271,1.925,1.925,0,0,0-.578-.18,5.889,5.889,0,0,0-1.169.143c-.309.072-.382-.01-.372-.234,0-.021,0-.042,0-.061-.08.268-.265.095-.414.07.017-.073.063-.154.037-.214a.334.334,0,0,0-.2-.163c-.363-.108-.41.179-.569.328l-.657-.01.19-.188-.278-.17-.038-.048-.143-.059-.062.012c-.44.309-.786.271-1.022-.188-.01-.02-.054-.026-.083-.039.195.453-.32.367-.549.5.176.144.2.267-.094.3-.388.041-.78.062-1.17.087a.357.357,0,0,1-.1-.023c.026-.023.055-.044.078-.069a1.173,1.173,0,0,0,.16-.2c.006-.01-.1-.063-.152-.1a1.41,1.41,0,0,1-.057.155,2.118,2.118,0,0,0-.669-.112c-.423.092-.147-.255-.211-.23a2.1,2.1,0,0,0-.383.283.336.336,0,0,1-.2.058c-.047,0-.088-.066-.131-.1a.56.56,0,0,0,.191.006.705.705,0,0,0,.2-.127c.012-.01-.008-.068-.014-.068-.171,0-.341,0-.512.005-.206-.024-.491-.129-.6-.054-.292.192.071.282.191.313.1.027.264-.1.4-.154.169.349-.486.191-.423.474-.137-.2-.509.293-.573-.133,0-.017-.031-.032-.048-.048a1.112,1.112,0,0,0-.228.18c-.041.057-.021.143-.031.216s-.025.139-.036.209l-.253-.084a1.275,1.275,0,0,0,.169-.021.067.067,0,0,0,.029-.065c-.052-.113-.11-.224-.166-.335l-.222.111c.057.017.137.021.164.054s.035.129.006.145c-.168.095-.348.174-.523.259.031-.051.067-.1.092-.153.1-.2-.029-.309-.239-.364-.172-.046-.191-.12-.049-.19a1.413,1.413,0,0,1,.366-.07,2.414,2.414,0,0,1-.251-.1c-.463-.255-.207.144-.3.224-.389.327-.685-.208-1.057-.085h0c-.141-.09-.245-.366-.458-.026a.243.243,0,0,1-.4-.048c-.308.178-.616.356-.927.532a.111.111,0,0,1-.075-.006c-.056-.166-.108-.334-.159-.5.111.014.254-.005.326.046.3.212.317-.2.531-.153a1.984,1.984,0,0,1-.309-.175c-.525-.42-.037.222-.239.158-.053-.016-.139.054-.2.043-.632-.11-.558.434-.86.626a1.551,1.551,0,0,1-.425.115c-.019-.053-.07-.118-.05-.159.23-.459-.434-.4-.58-.668a.921.921,0,0,0-.913-.524c-.1.01-.22-.049-.324-.037-.064.007-.115.09-.171.139.542-.115.542.652,1.126.479a.612.612,0,0,1,.223.028,5.32,5.32,0,0,1-.513.32c-.023.011-.155-.123-.229-.2-.015-.014,0-.051.006-.076a1.085,1.085,0,0,0-.221.113c-.1.087-.167.223-.287.272-.064.026-.211-.086-.319-.135a1.8,1.8,0,0,0,.352-.078c.039-.016.237-.184-.028-.159a3.332,3.332,0,0,0-.635.218c-.037.012-.143-.068-.15-.059-.234.235-.429,0-.5-.088-.212-.271-.219-.547.26-.638.054-.011.148.117.223.18,0-.06.021-.168,0-.174-.177-.052-.461-.163-.523-.107-.266.238-.483.452-.826.089,0,.022-.022.059-.012.065.161.1.322.271.492.28.227.012.208.023.074.128-.046.037-.128.041-.172.078-.109.089.485-.051.07.144-.038.017-.037.359-.195.037a.471.471,0,0,0-.352-.011c-.159.149-.631-.346-.57.2,0,.023-.116.068-.185.085-.4.1-.764.334-1.219.206a1.45,1.45,0,0,1-.164-.047c-.021-.01-.048-.053-.039-.063.42-.505-.154-.322-.379-.381h0c.113-.006.256.022.329-.025.251-.164-.171-.144-.121-.263l-.608.058.021-.012-.014-.006.175-.463c-.321.09-.52-.426-.848-.144-.2.171.389.524-.159.676a.463.463,0,0,1,.138.061c.325.319.417-.272.694-.129l-.007.019h0l-.17.1.57.126h0c-.438.191-.032.252.083.359a.348.348,0,0,1,.038.056c-.048.01-.1.022-.144.028-.5.062-1.034-.112-1.5.17a.178.178,0,0,1-.143-.039.488.488,0,0,1-.07-.224c0-.048.046-.1.072-.147l-.666-.12a1.409,1.409,0,0,1,0,.19c-.005.038-.028.1-.052.1-.4.044-.8.068-1.2.125s-.818-.226-1.21.034a.086.086,0,0,1-.047-.022c.021-.07.021-.165.076-.2a1.505,1.505,0,0,1,.329-.134c-.343.073.069-.487-.386-.318a1.055,1.055,0,0,0-.1.054.75.75,0,0,1,.071.064c.055.069.109.139.156.212.005.006-.031.031-.048.047-.044-.284-.272.089-.365-.072a.493.493,0,0,0-.222-.228.325.325,0,0,0-.269.112.8.8,0,0,0,0,.351c0,.021.039.039.059.059-.031.016-.065.049-.091.046a2.633,2.633,0,0,1-.523-.1c-.147-.053-.307-.251-.388-.225-.363.113.218.047.055.158a2,2,0,0,1-1.333.125,4.447,4.447,0,0,1-1.52-.462c-.276-.132-.381.1-.573.053l.072.291c.163-.038.328-.069.487-.117a.946.946,0,0,0,.2-.12c-.01.067.005.144-.033.2-.08.11-.232.3-.276.291a8.173,8.173,0,0,0-2.26-.058c-.192-.006-.381-.117-.573-.122a2.127,2.127,0,0,0-.425.128c-.042.009-.16-.1-.156-.1.081-.1.175-.195.266-.289a2.876,2.876,0,0,0-.394.119,2.02,2.02,0,0,0-.319.217c-.047.033-.121.107-.123.106-.621-.448-1.284.16-1.911-.053l-.147-.049c.013-.017.022-.042.041-.048.175-.062.573-.155.476-.192a3.252,3.252,0,0,0-1.173-.137c-.139,0-.279.187-.405.3-.038.034-.035.149-.044.149-.4-.022-.791-.053-1.188-.083.1-.031.193-.058.287-.093.011,0,0-.046,0-.069l-.595.006c.007.025,0,.058.022.073a1.8,1.8,0,0,0,.153.107,1.705,1.705,0,0,1-.233.03c-.674-.012-1.35,0-2.018-.058-.208-.017-.394-.213-.594-.323a.192.192,0,0,0-.126-.027c-.043.011-.1.048-.11.081-.111.54-.362-.071-.535.038a1.573,1.573,0,0,1-.228-.176l-.111-.084a.4.4,0,0,0-.055.121c0,.022.047.047.07.072s.046.053.068.079c-.036.018-.081.058-.106.049a3.51,3.51,0,0,1-.872-.3c-.357-.242.478-.07.208-.336-.041-.041-.064-.115-.112-.127-.177-.043-.358-.076-.54-.111V927.3a1.857,1.857,0,0,0,.633-.079c.073-.023.8-.249.932.254.366-.272.69.233,1.065.041.064-.033.2.026.3.042l-.067.288c-.006.023-.01.047-.015.07a.348.348,0,0,0,.125-.021.546.546,0,0,0,.116-.121c-.174-.134-.117-.2.091-.184.048.005.279-.184.2.078a1.985,1.985,0,0,0,.288-.04c.02,0-.011-.112.017-.129a3.49,3.49,0,0,1,2.674-.039c.314.07.8-.206,1.027-.086.344.182.52-.132.8-.038a3.081,3.081,0,0,0,.764.055c.551.032,1.058-.236,1.686-.005a1.508,1.508,0,0,0,1.442-.158c.144-.124.663.027,1,.086.485.085.964.2,1.447.3.123-.558.643-.283,1.018-.365.448-.1.959.264,1.343-.145.011-.011.056,0,.084,0-.025.212-.048.425-.079.637,0,.026-.047.048-.072.073.034.01.09.036.1.027.22-.2.434-.4.648-.607a.758.758,0,0,1,.134-.125c.026-.015.084.007.127.012-.038.031-.1.058-.111.095a.42.42,0,0,0,.005.177,1.859,1.859,0,0,0,.491-.015c.179-.046.33-.191.507-.208a4.978,4.978,0,0,1,2,.064c.448.135.9-.285,1.339-.009.11.069.149.216.22.327l-.01.009h.006c-.079.187-.194.027-.217-.012-.217-.367-.112.049-.136.143l-.047-.006a.6.6,0,0,1-.051-.072l-.048.058.1.014c.027.032.042.03.047.006.191.027.382.054.574.071.022,0,.057-.1.085-.15l-.307-.052,0-.007h0c.1-.08.248-.232.3-.213.272.1.684-.045.823.335.032.085.35.1.54.139.007,0,.064-.08.052-.111-.044-.122-.032-.328-.313-.182-.031.015-.1-.023-.153-.037.149-.078.295-.214.448-.222.681-.032,1.364-.028,2.045-.033.125,0,.248.017.372.026l-.253.037c.033.026.073.078.1.073a2.99,2.99,0,0,1,.484-.091c.962.021,1.925.059,2.886.09,1.006.031,2.011.084,3.017.08.523,0,1.045-.137,1.57-.154.828-.027,1.658.01,2.487-.019.19-.006.516.1.582-.206.69.34,1.472-.165,2.146.148.4.186.631-.154.954-.139a14.854,14.854,0,0,1,3,.122c.4.1.9-.2,1.328.1.022.016.265-.288.568-.256.563.06,1.126-.155,1.715.106a1.6,1.6,0,0,0,1.045-.144c.442-.2-.05.541.4.239.016-.012.1.044.117.033.076-.06.127-.165.214-.19.055-.016.156.081.239.122.256.123.532.364.768.34a4.082,4.082,0,0,0,1.534-.4c.362-.207.179.093.219.116.322.185.747-.363,1,.106.067-.282.6.191.585-.245,0-.038.153-.078.235-.117l.055.2c.267-.119.637-.439.728.067.1.535.166-.1.25.015a.62.62,0,0,0,.262.138c.017.007.1-.078.1-.075.083.064.159.133.237.2-.087.018-.176.032-.261.058-.034.01-.057.047-.085.071.05.016.1.029.147.049.072.031.141.065.211.1-.409-.383.9.282.237-.267a.248.248,0,0,1-.022-.213,2.2,2.2,0,0,1,.45-.059.669.669,0,0,1,.2.068c-.072-.078-.141-.159-.216-.234a1.585,1.585,0,0,0-.148-.118.441.441,0,0,1,.147.008,3.664,3.664,0,0,1,.417.211c.026.016,0,.1-.009.148.123-.016.308-.081.36-.038.193.163.345.072.519,0,.01,0,.059.06.09.093.1-.072.2-.136.291-.213.049-.043.063-.144.108-.151a.245.245,0,0,1,.191.081c.029.043-.01.118-.019.18l-.015.091c.065-.027.182-.05.186-.083.014-.132.445.117.239-.187a.451.451,0,0,1-.043-.128l.649.2c.151-.483.525.526.671-.068a1.544,1.544,0,0,1,.232,0c-.325.118.545.061.044.208-.028.007-.043.047-.063.072a.246.246,0,0,0,.065.028c.167.027.411.122.489.064a1.668,1.668,0,0,1,.991-.313c.058.021-.039.256.026.35.174.25.111.076.122-.049s.115-.314.154-.311c.755.075,1.54-.241,2.275.11.029.013.1-.019.142-.043.021-.014.018-.062.01-.091a1.9,1.9,0,0,0-.07-.186l.239-.012a.451.451,0,0,0-.1.083c-.01.016.019.067.045.078a5.428,5.428,0,0,0,.618.255,2.468,2.468,0,0,0,.371.006c.028,0,.071.144.049.158a1.784,1.784,0,0,1-.3.125l.148.2,0,0h.005l0,0-.528.237c.167.007.332.02.5.021a1.264,1.264,0,0,0,.345-.022c.031-.19-.131-.233-.319-.239l0,0c.217-.217.423-.441.663-.638.036-.03.228.1.355.12.547.1.576-.54,1.074-.526.12,0,.256-.092.356-.067s.175.148.26.228c-.159,0-.321,0-.479.017-.014,0-.02.083-.03.126.131-.058.22.053.28.062a6.963,6.963,0,0,0,1.013.012h.2a.614.614,0,0,0-.1.117c-.014.025.006.087.02.09.131.017.263.025.395.035-.031-.028-.078-.052-.091-.085a2.5,2.5,0,0,1-.08-.248c.149-.017.3-.044.45-.053.538-.031,1.078-.076,1.618-.078s1.1.064,1.652.065c.313,0,.633-.117.938-.09a2.877,2.877,0,0,1,1.1.261c.568.315,1.177.116,1.758.186.114.014.274-.225.411-.349.06.312.4.311.65.426.144.068.233.218.344.334v.01h0l-.377.245.5.168c-.042-.138-.085-.275-.127-.413l.005,0-.006-.006c-.047-.833.578-.108.828-.24a1.8,1.8,0,0,0,.294-.241c.069.074.1.271.245.025.048-.08.25-.1.381-.142-.073.1-.087.14.242.338a.781.781,0,0,1-.078.229l.392-.049.313.175a.379.379,0,0,0,.3.006,1.552,1.552,0,0,0,.239-.349c-.149.038-.3.087-.447.112-.133.021-.267.039-.4.055-.133-.074-.232-.13-.314-.18.015-.128-.033-.244-.219-.336.553.012,1.068.376,1.651.126-.216.3.156.355.305.5.022.022.081.02.123.027-.094-.871.657-.126.936-.334.371-.276.808.43,1.209-.016.126.434.518.271.849.271a6.4,6.4,0,0,1,.646.067.4.4,0,0,0,.049-.01q.128.246.251.5c-.042-.155-.147-.32-.111-.462.043-.171.188-.446.318-.46a14.528,14.528,0,0,0,1.689-.067c.436-.1.532.381.728.25.533-.354.589.4.961.244.435-.183-.354-.121-.116-.31.015-.012-.352-.322-.067-.345.4-.033.88-.211,1.251.094a1.776,1.776,0,0,1,.275.378c.022-.154.489-.063.28-.346a2.257,2.257,0,0,0,.414-.079c.474-.189.856.163,1.3.139-.146.328.241.177.232.154-.274-.683.441-.269.53-.265a2.652,2.652,0,0,1,1.083.225c.295.153-.318.028-.17.219-.112.021-.351.025-.167.156a.734.734,0,0,0,.575-.08,2.128,2.128,0,0,1,1.488-.264,4.457,4.457,0,0,0,1.342-.184.708.708,0,0,1,.759.269c.046.054.428-.13.542-.064.44.245.757-.6,1.185-.069.4-.625.283.387.569.126.018-.017.06-.043.057-.047-.087-.112-.481-.254-.2-.32a2.121,2.121,0,0,1,1.386-.017,1.534,1.534,0,0,0,.8.065,2.831,2.831,0,0,1,.731.055,6.613,6.613,0,0,1,1.136-.032c.065.013.164-.084.248-.13-.127.245.547.3.207.621-.05.047-.431.1-.129.288a1.415,1.415,0,0,0,.267-.309c.128-.286.975-.343,1.337-.086a.5.5,0,0,0,.266.089c.261-.259.4-.33.308.107,0,.01.078.043.079.042.126-.15.223-.338.515-.248-.067-.266.182-.18.277-.138.425.192.3-.419.659-.3v-.118l.149.117c.109-.135.345-.384.423-.187.2.5.606.245.9.23.253-.012.522-.269.759-.032a.584.584,0,0,1,.049.738.338.338,0,0,0,.095.325c.049.051.226.012.345.014-.079-.054-.219-.1-.224-.163a.719.719,0,0,1,.075-.453c.084-.124.249-.122.285.072.032-.068.043-.177.1-.2a1,1,0,0,1,.866.134,2.35,2.35,0,0,0,.421.127,1.2,1.2,0,0,1-.012-.254c.006-.046.064-.086.1-.129.064.373.458.046.622.2a.86.86,0,0,1,.15.18c.06.1.107.2.16.307.209-.107-.027-.191-.017-.276.022-.216.1-.421.446-.412-.1.371.818-.3.476.322.251-.032.506-.047.75-.1.3-.066.75-.3.845-.227.392.324.5-.235.764-.115.046.021.063.087.094.132-.285-.063.206.375-.211.226a1.262,1.262,0,0,0-.015.325C1675.2,928.243,1675.29,928.334,1675.4,928.369Zm-106.205-.283-.7-.266a1.417,1.417,0,0,0-.043.288,4.963,4.963,0,0,0,.559.075Zm1.588.859c-.159-.043-.171-.1-.429.076l.03-.027.012-.011.025-.024h0l-.025.024-.012.011-.091.085c.2.041.43.158.579.106C1571.1,929.1,1570.952,928.99,1570.78,928.944Zm.732-.429-.515-.269-.156.312c.06.041.125.116.164.107C1571.179,928.629,1571.344,928.569,1571.512,928.515Zm.8-.264c-.248-.059-.426-.156-.561-.124-.243.059.308.249-.042.344a1.46,1.46,0,0,0,.322-.01C1572.109,928.442,1572.162,928.369,1572.314,928.252Zm1.952.461a2.212,2.212,0,0,0-.5-.314c-.085-.03.141.429-.431.137l.041.456Zm4.553.034a1.822,1.822,0,0,0-1.018-.2c-.765.166.211.265.167.3.124-.286.272.027.439.18C1578.326,928.705,1578.91,928.789,1578.819,928.747Zm1.49-.418c-.066-.294-.275-.435-.833-.356l-.417.161c.173.028.347.056.521.085a.11.11,0,0,1,.06.038c.136.155.27.312.4.468.267-.221-.291-.179-.165-.357a.237.237,0,0,0,.021-.1.737.737,0,0,0,.219.132A.285.285,0,0,0,1580.309,928.329Zm6.15-.773a.184.184,0,0,0-.137-.073,1.637,1.637,0,0,0-.538.046,2.215,2.215,0,0,0-.5.344c-.02.015-.012.08.011.1s.111.055.125.044c.249-.2.5-.354.841-.106h.12c-.03-.032-.076-.063-.086-.1a1.47,1.47,0,0,1-.02-.224c.028,0,.065,0,.082.014a1.132,1.132,0,0,1,.1.107C1586.457,927.659,1586.481,927.6,1586.458,927.557Zm7.916,1.019c-.244-.186-.592.2-.837-.091-.028.059-.1.129-.081.175.175.444.483.025.726.075C1594.407,928.814,1594.412,928.605,1594.374,928.576Zm8.594-.3-.086.075-.239-.3c-.161.1-.382.32-.291-.1a1.5,1.5,0,0,0,0-.336c-.026,0-.069,0-.075.012-.126.243-.236.256-.334-.012-.043.017-.108.026-.126.053a.165.165,0,0,0-.01.144,4,4,0,0,1,.216.383.285.285,0,0,1,.013.143l-.006-.005c0,.025,0,.018.006.005.55.35.123-.258.405-.03.125.1.09.329.164.489a.656.656,0,0,0,.328-.037A2.066,2.066,0,0,0,1602.968,928.279Zm3.53-.144c-.044-.423-.228-.041-.353-.028s-.246.085-.35-.085c-.294.7.254.373.43.388C1606.31,928.416,1606.508,928.225,1606.5,928.135Zm1.5,0a7.568,7.568,0,0,0-1.23-.047c-.069,0-.206.13-.191.164.263.574.7-.031.763,0C1607.876,928.416,1608.037,928.138,1607.995,928.131Zm9.877-.493c.058.3.379.159.579.229v.006a1.335,1.335,0,0,0-.23.081c-.068.038-.149.091-.166.15-.081.287.284.3.43.453.015.016.122-.031.186-.049a1.893,1.893,0,0,1-.159-.154c-.051-.065-.089-.138-.133-.208a.7.7,0,0,0,.088,0,1.252,1.252,0,0,0,.23-.038c.027-.009.053-.09.044-.095-.092-.051-.191-.093-.288-.137v0l.011,0-.012,0c-.05-.179-.089-.373-.394-.347C1617.987,927.526,1617.864,927.606,1617.872,927.638Zm1.078,1.178-.906-.351-.2.052c.2.381.762.1,1.019.376Zm13.72-.479c-.244,0-.043-.1.183-.246l-.635.048c.272.232.431.745.814.635C1633.3,928.7,1633.152,928.341,1632.67,928.337Zm8.737.364a7.962,7.962,0,0,0-.9-.223c-.08-.011-.2.16-.3.247l.987.135Zm1.366-.079-.224-.16c-.247.414-.554.084-.917.068-.289.221.09.449.209.43A4.444,4.444,0,0,0,1642.774,928.622Zm4.493.67c-.132-.027-.253-.055-.377-.077-.153-.026-.308-.044-.462-.067.121-.4-.232-.118-.353-.167a.475.475,0,0,0-.16.006.728.728,0,0,0,.062.239c.259.37.631.133.957.107C1647.041,929.325,1647.122,929.6,1647.266,929.292Zm.023-.657c-.32-.585-.891-.234-1.354-.277-.015,0-.032.025-.047.037.441.1.881.2,1.324.291C1647.237,928.69,1647.276,928.645,1647.29,928.635Zm.2-.624c-.251-.084-.46-.165-.678-.216-.052-.012-.138.076-.208.12.216.087.428.183.651.255C1647.292,928.183,1647.377,928.09,1647.491,928.012Zm2.478.891a1.223,1.223,0,0,1-.362-.1c-.331-.237-.546.224-.85.085-.011.049-.052.112-.029.145.161.239.273,0,.413-.032a1.306,1.306,0,0,1,.261-.006c0,.1-.365.229-.027.267C1649.541,929.284,1649.752,929.043,1649.969,928.9Zm1.057-.1-.446-.163c-.075.179.357.275.115.49-.033.03.021.127.036.193C1650.814,929.172,1650.9,929.026,1651.026,928.8Zm8.789-.719c-.148-.094-.295-.189-.449-.276a.534.534,0,0,0-.058.06c-.1.384.261.212.358.327Zm5.948-.02c-.259-.33-.5.378-.761.006-.143.154-.049.2.2.227l.058.208C1665.393,928.325,1665.429,928.074,1665.763,928.058Z" transform="translate(-1558.648 -926.761)" fill="#ffb806"/>
        </g>
        <g id="Group_86" data-name="Group 86" transform="translate(171.359 0.203)">
          <path id="Path_10152" data-name="Path 10152" d="M1702.285,976.243v-1.048c.155.044.348.038.335-.281.073.028.169.032.222.089.2.221.3.164.366-.091.044-.17.212-.159.413-.016.011.01.076-.1.112-.151.1.116.07.034.1-.022.06-.083.148-.194.262-.187.207,0,.026.118.042.116.146-.018.343-.045.393-.135.172-.448.753-.607.854-1.04a.065.065,0,0,0,0-.016c.377-.305.062-.7.405-1.1.246-.439-.026-1.127-.262-1.647-.176-.386.149-.548.233-.814.032-.1-.046-.215-.039-.323a8.436,8.436,0,0,1,.1-1.268c.044-.218.3-.4.37-.624.026-.085-.189-.285-.337-.321-.535-.13.109-.478-.214-.628.2-.245.23-.621.758-.608a1.59,1.59,0,0,1-.456-.162c-.357-.286-.053-.554.034-.847a.539.539,0,0,0-.216-.689c-.015.056-.027.114-.047.168a.473.473,0,0,1-.092-.007,1.775,1.775,0,0,1,.083-.319c.021-.044.108-.078.175-.093.027-.007.092.04.112.073a.581.581,0,0,1,.048.157c.038-.025.113-.058.107-.075-.034-.1-.074-.278-.135-.284-.41-.044.043-.342-.212-.414.324-.477.315-.526.092-1.022-.067-.146.037-.354-.057-.476-.226-.3.129-.248.26-.34.057-.042.073-.119.107-.18a1.645,1.645,0,0,1-.195.1.371.371,0,0,1-.132,0c.029-.215.278-.357-.058-.661-.256-.234.086-.828-.016-1.234a.587.587,0,0,1,.316-.792.727.727,0,0,1-.5-.783c-.024-.388,0-.78-.053-1.165-.042-.3.554-.016.324-.156a.553.553,0,0,1-.293-.624c.037-.291-.195-.657.26-.869l.133.158.133-.339h.017l.022-.047-.064-.005c-.5-.181.01-.5-.158-.751a1.365,1.365,0,0,1-.1-.751c0-.148-.229-.4.223-.416.029,0,.091-.1.077-.138-.032-.091-.079-.227-.16-.248a.5.5,0,0,1-.349-.58,2.5,2.5,0,0,1,.081-.98c.253-.474-.022-.962.214-1.464.113-.238.123-.515.389-.758.156-.142-.277.122-.283-.159-.014-.554.933-.051.867-.544-.025-.192.415-.511-.206-.57.015.031.051.072.037.094-.033.062-.095.114-.133.174-.134.217-.345.159-.557.1.08-.155.134-.427.244-.441.3-.04.094-.223.206-.294-.064.019-.127.042-.193.057-.009,0-.046-.029-.046-.045l.012-.809.266.176c-.028-.245-.195-.59-.053-.712.257-.221-.318-.549.206-.654-.058-.113-.35-.213-.034-.35-.356-.123.3-.492-.218-.594a2.035,2.035,0,0,1,.058-.379l.222-1.3c.338.282.349-.269.627-.157.034.013.1-.029.159-.046l-.163-.035.005,0h0c.628-.4-.1-.517-.26-.753v0l0-.005c.207-.081.4-.173.339-.393-.01-.034-.1-.053-.16-.08-.053.159-.437.244-.179.473h0l.006.008c-.1.237-.182.5-.632.33-.06-.022-.14-.256-.218-.009-.013.041.046.138.054.137a2.016,2.016,0,0,1,1.056.3h0c-.179.03-.419.136-.527.08-.54-.277-.865-.583-.652-1.205a4.657,4.657,0,0,0-.039-1.65c0-.146-.175-.369.227-.36a1.242,1.242,0,0,1-.2-.111c.345-.585-.195-1.278.36-1.834.011-.012-.016-.054-.036-.076l-.165-.183a.534.534,0,0,1-.005.134c0,.017-.046.028-.07.043a1.039,1.039,0,0,1-.153-.333c-.027-.45-.036-.9-.026-1.354,0-.091.109-.181.168-.271.041.113.09.227.119.343a.436.436,0,0,1,.021.258c-.119.3.2.631-.13.9a.968.968,0,0,0,.19.066c.368.047.15-.085.1-.191s-.089-.266-.032-.3c.118-.072.352.008.034-.179-.17-.1-.141-.54-.034-.781.187-.421-.5-.59-.352-.984.054-.147-.053-.328-.052-.493q0-.783.034-1.568c0-.063.091-.146.167-.177a1.261,1.261,0,0,1,.32-.044c-.1,0-.209,0-.313-.015a.644.644,0,0,1-.142-.045c.023-.015.044-.038.07-.042l.436-.056c-.076-.193-.254-.163-.446-.135-.032,0-.092-.039-.133-.064-.012-.007,0-.028,0-.043.046.007.093.012.137.022a.356.356,0,0,0,.463-.188,2.393,2.393,0,0,1,.17-.186,1.351,1.351,0,0,0,.1.094.089.089,0,1,0,.063-.153.224.224,0,0,0-.17-.043c-.2.035-.384.09-.582.119-.267.037-.286.007-.213-.213a.864.864,0,0,1,.081-.147c-.6-.031-.189-.354-.3-.536-.177-.305-.268-.782-.944-.668-.012,0-.032-.046-.038-.075-.017-.083.007-.219-.062-.256a4.532,4.532,0,0,0-.7-.177c-.308-.067-.6-.141-.9-.187-.062-.009-.085-.154-.137-.234.09-.269.063-.47-.35-.374l-.117-.157c-.283-.026-.641-.038-.971-.034a4.628,4.628,0,0,1-2.021-.256c-.32-.136-.861-.121-1.283-.275-.087-.031-.309.147-.469.229.209-.009.06.447.452.2.187.211.632-.08.765.224a.981.981,0,0,1,.046.247,2.064,2.064,0,0,0-.578-.164,6.417,6.417,0,0,0-1.169.13c-.309.065-.382-.009-.372-.213v-.056c-.08.245-.265.086-.414.064.017-.066.063-.141.037-.2a.33.33,0,0,0-.2-.148c-.363-.1-.41.163-.568.3l-.658-.009.19-.172-.279-.155-.038-.044-.143-.054-.06.011c-.441.282-.787.247-1.023-.172-.01-.018-.054-.024-.083-.036.195.413-.32.334-.55.455.176.131.2.244-.092.272-.389.037-.781.056-1.172.08a.386.386,0,0,1-.1-.021c.026-.021.055-.04.078-.063a1.1,1.1,0,0,0,.16-.183.863.863,0,0,0-.152-.088,1.266,1.266,0,0,1-.057.141,2.306,2.306,0,0,0-.669-.1c-.423.084-.147-.232-.211-.21a2.093,2.093,0,0,0-.383.258.358.358,0,0,1-.2.053c-.047,0-.087-.06-.131-.092a.616.616,0,0,0,.191.005.711.711,0,0,0,.2-.116c.012-.009-.014-.062-.014-.062l-.513,0c-.206-.021-.49-.118-.6-.049-.292.175.071.257.191.285.1.025.263-.089.4-.14.169.318-.486.174-.423.432-.137-.183-.509.267-.573-.121,0-.016-.031-.029-.048-.044a1.087,1.087,0,0,0-.228.164c-.041.052-.021.13-.031.2l-.036.191-.253-.076a1.383,1.383,0,0,0,.169-.019.059.059,0,0,0,.03-.06l-.166-.305-.222.1c.057.016.137.019.164.049s.034.118.006.132c-.167.087-.347.158-.523.236a1.665,1.665,0,0,0,.092-.139c.1-.184-.028-.282-.239-.331-.172-.042-.191-.109-.049-.173a1.546,1.546,0,0,1,.366-.064,2.374,2.374,0,0,1-.25-.1c-.465-.232-.207.131-.3.2-.388.3-.685-.19-1.056-.077h0c-.142-.082-.246-.333-.461-.024a.254.254,0,0,1-.4-.044l-.927.485a.121.121,0,0,1-.075-.005l-.159-.456a.944.944,0,0,1,.327.042c.3.193.317-.181.531-.139a2.075,2.075,0,0,1-.309-.159c-.525-.383-.037.2-.239.144-.053-.015-.139.049-.2.039-.632-.1-.558.4-.86.57a1.65,1.65,0,0,1-.425.1c-.019-.048-.069-.108-.049-.145.23-.419-.432-.361-.58-.608a.936.936,0,0,0-.913-.477c-.1.009-.221-.045-.324-.034-.064.007-.115.082-.171.127.542-.1.542.594,1.126.437a.669.669,0,0,1,.223.026,5.479,5.479,0,0,1-.513.292c-.023.01-.155-.112-.229-.178-.015-.012,0-.046.007-.07a1.106,1.106,0,0,0-.222.1c-.1.08-.168.2-.287.248-.064.023-.211-.079-.319-.124a1.94,1.94,0,0,0,.352-.071c.039-.015.237-.167-.028-.145a3.543,3.543,0,0,0-.635.2c-.037.011-.143-.062-.15-.054a.323.323,0,0,1-.5-.08c-.212-.247-.219-.5.26-.581.054-.01.148.107.223.164,0-.055.021-.153,0-.158-.175-.047-.461-.148-.522-.1-.266.217-.483.412-.826.081,0,.02-.022.054-.012.059.161.093.322.247.492.255.227.011.208.021.074.117-.046.034-.128.037-.172.071-.108.081.485-.046.07.131-.038.016-.037.327-.2.034a.51.51,0,0,0-.351-.01c-.159.136-.631-.315-.571.179,0,.021-.116.062-.185.078a2.444,2.444,0,0,1-1.218.187,1.409,1.409,0,0,1-.164-.043c-.022-.009-.049-.048-.041-.057.42-.46-.154-.293-.378-.347h0a.915.915,0,0,0,.329-.023c.251-.149-.171-.131-.121-.24l-.608.053.021-.011-.014-.006.175-.422c-.322.082-.52-.388-.848-.131-.2.156.389.477-.159.616a.484.484,0,0,1,.138.055c.325.291.417-.248.694-.118l-.007.017h0l-.17.094.57.115h0c-.439.174-.032.23.083.327a.247.247,0,0,1,.038.05c-.048.009-.095.02-.144.026-.5.056-1.034-.1-1.5.155a.19.19,0,0,1-.143-.036.42.42,0,0,1-.07-.2c0-.044.047-.089.072-.133l-.666-.109a1.135,1.135,0,0,1,0,.173c-.005.035-.028.093-.052.1-.4.04-.8.062-1.2.113s-.818-.205-1.21.031c0,0-.047-.02-.047-.02.021-.064.021-.15.077-.186a1.6,1.6,0,0,1,.329-.122c-.343.066.07-.443-.386-.29-.036.013-.069.032-.1.049a.706.706,0,0,1,.072.058l.156.193c.005.006-.031.028-.048.043-.044-.258-.272.081-.363-.065a.479.479,0,0,0-.223-.208.338.338,0,0,0-.267.1.653.653,0,0,0,0,.32c0,.019.038.036.059.054-.031.015-.065.045-.091.041a2.878,2.878,0,0,1-.523-.089c-.146-.048-.307-.229-.389-.205-.361.1.219.042.058.144a2.186,2.186,0,0,1-1.335.114,4.77,4.77,0,0,1-1.521-.421c-.276-.12-.381.091-.573.048l.071.265c.163-.035.328-.063.487-.107a.976.976,0,0,0,.2-.109c-.01.061.005.131-.033.18-.08.1-.23.277-.276.265a8.962,8.962,0,0,0-2.26-.053c-.192-.005-.381-.107-.573-.111a2.289,2.289,0,0,0-.425.117c-.042.008-.16-.089-.156-.093.081-.092.175-.177.266-.264a3.093,3.093,0,0,0-.394.109,2.041,2.041,0,0,0-.319.2l-.123.1c-.621-.408-1.284.146-1.911-.048l-.147-.045c.014-.016.022-.038.041-.044.175-.056.573-.141.476-.175a3.556,3.556,0,0,0-1.173-.125c-.138,0-.279.171-.405.273-.038.031-.035.136-.044.136l-1.187-.075.286-.084c.011,0,0-.042,0-.063l-.594.005c.006.022,0,.053.021.066a1.768,1.768,0,0,0,.153.1,1.844,1.844,0,0,1-.233.027c-.674-.011-1.349,0-2.019-.053-.208-.016-.394-.194-.594-.294a.208.208,0,0,0-.126-.025c-.043.01-.1.044-.11.074-.111.492-.362-.065-.535.035a1.608,1.608,0,0,1-.228-.161l-.111-.076a.357.357,0,0,0-.055.11c0,.02.047.043.07.065l.068.072c-.036.017-.082.053-.106.045a3.732,3.732,0,0,1-.872-.276c-.357-.22.478-.064.209-.306-.042-.037-.065-.1-.113-.115-.177-.039-.359-.07-.54-.1v-.964a2.035,2.035,0,0,0,.633-.072c.073-.021.8-.227.931.231.366-.248.69.212,1.065.037.065-.031.2.023.3.038l-.067.263-.015.064a.379.379,0,0,0,.124-.019.513.513,0,0,0,.116-.11c-.174-.122-.116-.183.091-.167.048,0,.279-.167.2.071a2.189,2.189,0,0,0,.288-.036c.02,0-.011-.1.017-.118a3.807,3.807,0,0,1,2.674-.036c.314.064.8-.187,1.028-.078.345.166.52-.12.8-.035a3.376,3.376,0,0,0,.764.051c.551.029,1.058-.216,1.686,0a1.636,1.636,0,0,0,1.442-.144c.144-.114.664.025,1,.079.487.077.966.184,1.448.277.123-.509.643-.258,1.018-.332.448-.089.958.24,1.343-.132.011-.01.055,0,.083,0l-.079.58c0,.023-.047.044-.071.066.034.009.09.033.1.025l.648-.553a.734.734,0,0,1,.134-.113c.026-.013.084.007.127.011-.038.028-.1.053-.111.086a.465.465,0,0,0,.005.162,2.041,2.041,0,0,0,.491-.013c.178-.042.33-.174.507-.19a5.452,5.452,0,0,1,2,.058c.447.124.9-.259,1.338-.008.11.063.149.2.22.3l-.01.008h.007c-.08.171-.195.025-.218-.011-.217-.334-.112.045-.136.13l-.047-.006a.515.515,0,0,1-.051-.065l-.048.053.1.012c.027.029.042.027.047.006.191.025.382.049.574.065.022,0,.057-.089.085-.137l-.305-.047,0-.007h0c.1-.073.248-.211.3-.194.272.092.684-.04.823.305.032.077.35.09.54.127.007,0,.064-.073.053-.1-.046-.111-.033-.3-.314-.166-.031.013-.1-.021-.153-.034a1.347,1.347,0,0,1,.448-.2c.682-.029,1.364-.026,2.046-.03.124,0,.248.016.372.023l-.253.034c.033.024.073.071.1.066a3.241,3.241,0,0,1,.484-.083l2.886.082c1.005.028,2.011.076,3.016.073.524,0,1.045-.125,1.57-.14l2.486-.017c.19-.006.516.092.582-.187.69.31,1.472-.15,2.146.135.4.17.631-.14.954-.127a16.268,16.268,0,0,1,3,.111c.4.091.9-.183,1.328.089.022.015.266-.263.568-.234a5.46,5.46,0,0,1,1.715.1,1.738,1.738,0,0,0,1.045-.131c.442-.18-.049.493.4.218.016-.011.1.04.117.03.076-.055.128-.15.214-.173.055-.015.151.073.265.116a4.4,4.4,0,0,0,.9.377c.628.033,1.321.116,1.933.121.527.006.145.161.177.2.217.285,1.048.137.934.635.3-.15.37.512.724.239.032-.024.2.066.307.107l-.135.157c.318.127.914.3.453.617-.486.322.209.091.139.218a.506.506,0,0,0-.005.279c0,.018.136.061.136.061a1.415,1.415,0,0,1-.115.275,1.222,1.222,0,0,0-.177-.2.364.364,0,0,0-.119-.043,1.084,1.084,0,0,1,.019.136,1.588,1.588,0,0,1-.022.205c.28-.46.007.832.389.118.026-.054.217-.1.229-.08a1.339,1.339,0,0,1,.217.4.366.366,0,0,1-.025.2,2.077,2.077,0,0,0,.212-.249,1.248,1.248,0,0,0,.087-.17c.014.049.046.1.039.146a1.469,1.469,0,0,1-.143.444c-.013.027-.113.008-.174.011.043.113.15.284.1.337-.18.184-.057.346.022.474.005.008-.069.046-.107.07a3.285,3.285,0,0,0,.25.226c.051.038.17.048.179.083a.174.174,0,0,1-.1.148c-.052.022-.139-.008-.211-.015l-.107-.01c.032.049.059.14.1.143.155.011-.137.345.219.185a.794.794,0,0,1,.152-.032l-.235.5c.567.117-.62.406.079.519.014,0,0,.117,0,.179-.139-.251-.07.422-.244.035-.01-.022-.055-.034-.085-.049a.183.183,0,0,0-.032.05c-.032.13-.144.319-.075.379.157.141.466.593.367.768-.025.044-.3-.031-.411.019-.293.136-.09.086.058.1a.743.743,0,0,1,.366.119c-.089.585.284,1.192-.129,1.761-.016.023.021.08.05.11a.164.164,0,0,0,.107.008c.074-.014.147-.036.219-.055l.014.186a.4.4,0,0,0-.1-.081.12.12,0,0,0-.091.034,3.6,3.6,0,0,0-.3.479c-.04.085.011.194-.008.288a.31.31,0,0,1-.186.037,1.267,1.267,0,0,1-.146-.234l-.235.115h0v0l-.005,0-.278-.407-.025.385c0,.093,0,.264.026.267.224.025.275-.1.282-.247l0,0c.255.168.52.328.752.514.033.027-.113.175-.142.274-.118.424.636.446.62.833,0,.092.109.2.078.276s-.174.135-.268.2c-.005-.123-.006-.248-.021-.37,0-.012-.1-.016-.148-.024.068.1-.063.171-.073.215a3.646,3.646,0,0,0-.015.786v.155a.829.829,0,0,0-.138-.08.165.165,0,0,0-.1.016l-.042.305a.383.383,0,0,1,.1-.071c.095-.027.193-.041.291-.062.021.116.052.231.063.348.036.418.09.836.091,1.254s-.075.853-.078,1.279c0,.243.138.491.107.726a1.646,1.646,0,0,1-.308.849c-.371.44-.136.911-.218,1.362-.016.089.265.211.409.318-.366.048-.365.313-.5.505a1.443,1.443,0,0,1-.392.266h-.012l-.288-.291-.2.39.486-.1,0,0,.008,0c.978-.036.128.448.283.641a1.645,1.645,0,0,0,.283.229c-.088.053-.319.076-.03.19.094.037.113.193.167.294-.123-.056-.165-.067-.4.186a1.162,1.162,0,0,1-.27-.059l.056.3-.206.242c-.047.056-.056.193-.007.229a2.082,2.082,0,0,0,.41.185,3.149,3.149,0,0,1-.132-.347l-.066-.31.213-.245a.412.412,0,0,0,.394-.169c-.013.429-.442.828-.148,1.279-.351-.167-.417.121-.589.236-.026.018-.022.064-.032.1,1.025-.073.149.508.393.725.325.286-.5.625.02.936-.51.1-.319.4-.319.656a3.363,3.363,0,0,1-.078.5.082.082,0,0,0,.011.037l-.582.2a1.793,1.793,0,0,1,.542-.086c.2.034.525.145.541.247a7.482,7.482,0,0,0,.078,1.307c.118.338-.447.412-.293.564.416.413-.47.456-.287.743.215.338.142-.273.365-.089.015.011.378-.273.406-.052.04.309.248.681-.111.969a2.327,2.327,0,0,1-.446.213c.182.017.075.378.408.215a1.286,1.286,0,0,0,.094.321c.221.367-.191.663-.164,1.005-.386-.112-.209.188-.181.18.8-.211.315.341.312.41a1.489,1.489,0,0,1-.265.84c-.181.228-.034-.246-.259-.131-.024-.088-.03-.273-.185-.13-.081.076-.016.342.1.445a1.2,1.2,0,0,1,.309,1.153,2.364,2.364,0,0,0,.216,1.039c.082.211,0,.415-.317.587-.063.036.153.331.076.421-.288.34.7.586.081.917.735.311-.455.22-.148.441.02.015.055.045.055.045.131-.067.3-.373.376-.155a1.117,1.117,0,0,1,.021,1.073.81.81,0,0,0-.076.619c.057.217-.054.394-.065.566-.018.278.131.575.037.88-.016.05.1.127.153.192-.288-.1-.358.423-.732.16-.054-.038-.115-.334-.339-.1a1.677,1.677,0,0,0,.364.208c.338.1.4.754.1,1.035-.061.056-.128.191-.1.207.306.2.388.312-.126.238-.012,0-.049.062-.049.062.178.1.4.172.292.4.312-.053.211.14.161.213-.225.33.493.234.351.511h.139l-.138.116c.159.084.452.267.22.328-.589.139-.292.557-.346.831-.02.237.176.557-.167.722a.821.821,0,0,1-.847-.159.579.579,0,0,0-.4-.021c-.073.021-.09.159-.133.246.085-.037.191-.126.256-.111a.957.957,0,0,1,.472.205c.107.112.026.252-.2.205.058.052.169.1.163.157-.028.313-.329.487-.641.607a4.1,4.1,0,0,0-.408.219,1.571,1.571,0,0,1,.239.14c.036.031.027.1.037.145-.376-.18-.4.283-.684.274a1.171,1.171,0,0,1-.265-.036,3.382,3.382,0,0,1-.362-.134c-.1.18.16.125.217.189.138.162.217.359-.13.536-.121-.325-.669.617-.668-.031-.236.123-.488.233-.733.347-.283.15-.758.456-.892.393-.505-.232-.561.269-.908.173-.057-.017-.079-.076-.115-.116.335.046-.242-.333.24-.214a.916.916,0,0,0,0-.3C1702.478,976.351,1702.391,976.27,1702.285,976.243Zm-38.343-48.3-.7-.242a1.183,1.183,0,0,0-.043.263,5.408,5.408,0,0,0,.559.068Zm1.589.782c-.159-.039-.172-.093-.429.07l.03-.025.012-.01.025-.021h0l-.025.021-.012.01-.091.078c.2.037.43.144.579.1C1665.85,928.876,1665.7,928.771,1665.53,928.73Zm.732-.391-.515-.245-.155.284c.059.037.125.105.164.1C1665.929,928.442,1666.094,928.387,1666.262,928.339Zm.8-.24a1.808,1.808,0,0,0-.561-.113c-.242.054.308.227-.042.313a1.59,1.59,0,0,0,.322-.009C1666.859,928.272,1666.912,928.205,1667.064,928.1Zm1.952.42a2.26,2.26,0,0,0-.5-.286c-.085-.027.142.391-.431.125l.041.415Zm4.553.031a1.973,1.973,0,0,0-1.018-.179c-.765.151.211.241.168.269.123-.26.271.025.437.164C1673.076,928.512,1673.66,928.588,1673.569,928.55Zm1.49-.38c-.066-.268-.275-.4-.833-.324l-.417.147.521.077a.11.11,0,0,1,.061.035l.4.426c.267-.2-.291-.163-.165-.326.02-.025.015-.059.021-.089a.753.753,0,0,0,.219.12A.3.3,0,0,0,1675.059,928.169Zm6.15-.7a.19.19,0,0,0-.137-.066,1.783,1.783,0,0,0-.538.042,2.242,2.242,0,0,0-.5.313c-.02.014-.012.073.011.092a.2.2,0,0,0,.125.04.649.649,0,0,1,.842-.1h.12c-.03-.029-.076-.057-.086-.09a1.247,1.247,0,0,1-.02-.2.219.219,0,0,1,.082.012,1.019,1.019,0,0,1,.1.1C1681.207,927.559,1681.23,927.505,1681.208,927.466Zm7.915.928c-.244-.169-.591.182-.835-.083-.03.054-.1.118-.083.159.175.4.485.023.726.068C1689.157,928.611,1689.163,928.421,1689.124,928.394Zm8.594-.271-.086.068-.239-.275c-.161.088-.382.292-.291-.092a1.339,1.339,0,0,0,0-.306c-.027,0-.07,0-.076.011-.126.221-.237.234-.334-.011-.043.016-.108.023-.126.048a.138.138,0,0,0-.01.131,3.528,3.528,0,0,1,.215.349.234.234,0,0,1,.014.13l-.006,0c0,.022,0,.017.006,0,.55.319.125-.235.405-.027.125.091.09.3.164.445a.711.711,0,0,0,.328-.034A1.723,1.723,0,0,0,1697.718,928.123Zm3.53-.131c-.044-.385-.228-.037-.352-.026s-.246.078-.35-.078c-.295.64.254.34.43.354C1701.06,928.248,1701.258,928.074,1701.249,927.992Zm1.517.016a6.267,6.267,0,0,0-1.251-.062c-.069,0-.206.119-.191.149.262.523.7-.028.764,0C1702.62,928.254,1702.8,928.019,1702.765,928.008Zm5.376,5.944c-.35.045-.186.294-.269.449h-.009a.81.81,0,0,0-.095-.18.362.362,0,0,0-.176-.128c-.339-.063-.357.219-.535.332-.017.012.037.094.058.145a1.6,1.6,0,0,1,.182-.122c.077-.041.163-.07.244-.1a.3.3,0,0,0,0,.067.673.673,0,0,0,.043.178.186.186,0,0,0,.112.034,2.612,2.612,0,0,0,.161-.222h0l0,.008,0-.009c.211-.039.439-.07.408-.305C1708.273,934.042,1708.18,933.946,1708.141,933.952Zm-1.386.835.414-.7-.06-.151c-.449.157-.116.589-.444.789Zm.566,10.625c0-.188.117-.034.29.143-.028-.249-.043-.372-.057-.493-.274.211-.877.335-.747.631C1706.9,945.9,1707.316,945.785,1707.321,945.412Zm-.428,6.767a4.554,4.554,0,0,0,.261-.7c.012-.062-.187-.152-.29-.23-.051.245-.1.488-.159.765Zm.092,1.058.189-.174c-.487-.192-.1-.43-.08-.71a.309.309,0,0,0-.506.163A2.8,2.8,0,0,0,1706.985,953.238Zm-.788,3.478.09-.291.078-.359c.466.094.139-.178.2-.273.02-.033,0-.082-.007-.124a1.093,1.093,0,0,0-.28.048c-.436.2-.157.487-.127.741C1706.157,956.541,1705.839,956.6,1706.2,956.716Zm.771.018c.69-.247.276-.689.328-1.048,0-.011-.03-.025-.044-.036l-.343,1.025C1706.9,956.693,1706.957,956.724,1706.968,956.734Zm.734.156a4.864,4.864,0,0,0,.254-.524c.015-.04-.09-.108-.141-.161-.1.166-.216.331-.3.5C1707.5,956.736,1707.609,956.8,1707.7,956.89Zm-1.047,1.919c.04-.105.043-.216.114-.281.278-.256-.263-.422-.1-.659-.057-.008-.13-.04-.17-.022-.282.125,0,.212.037.319a.664.664,0,0,1,.008.2c-.116,0-.269-.282-.314-.021C1706.205,958.478,1706.49,958.641,1706.655,958.809Zm.123.819.191-.346c-.211-.058-.323.276-.577.088-.034-.026-.15.017-.229.028Zm.845,6.806c.107-.116.214-.23.324-.347l-.07-.046c-.451-.075-.249.2-.385.277Zm.025,4.6c.388-.2-.446-.39-.009-.589-.18-.111-.233-.037-.266.157l-.245.044C1707.334,970.755,1707.629,970.782,1707.648,971.04Z" transform="translate(-1653.398 -926.926)" fill="#ffb806"/>
        </g>
      </g>
    </g>
    <text id="START_again" data-name="START again" transform="translate(1012.215 715.279)" fill="#4c1400" font-size="23" font-family="Archer-Bold, Archer" font-weight="700"><tspan x="-73" y="0">START AGAIN</tspan></text>
  </g>
</svg>
