<svg xmlns="http://www.w3.org/2000/svg" xmlns:xlink="http://www.w3.org/1999/xlink" width="46.667" height="37.672" viewBox="0 0 46.667 37.672">
  <defs>
    <clipPath id="clip-path">
      <rect id="Rectangle_627" data-name="Rectangle 627" width="46.667" height="37.672" fill="#4c1400"/>
    </clipPath>
  </defs>
  <g id="Group_431" data-name="Group 431" transform="translate(46.667 37.672) rotate(180)">
    <g id="Group_429" data-name="Group 429" clip-path="url(#clip-path)">
      <path id="Path_10300" data-name="Path 10300" d="M38.622,21.174H34.383l-12.6,0-12.687,0c-2.246,0-4.492.008-6.737-.008a2.323,2.323,0,1,1-.013-4.645Q9.171,16.5,16,16.512H28.639q4.7,0,9.406-.006c.153,0,.307-.013.585-.027-.22-.237-.358-.4-.506-.543Q32.585,10.4,27.045,4.866c-.258-.258-.514-.517-.773-.774a2.327,2.327,0,0,1-.09-3.4,2.318,2.318,0,0,1,3.365.06Q34.8,5.99,40.036,11.239q2.923,2.924,5.842,5.851a2.353,2.353,0,0,1-.017,3.53q-8.134,8.138-16.272,16.273a2.336,2.336,0,0,1-4.019-.976,2.246,2.246,0,0,1,.633-2.25q3.508-3.514,7.022-7.022,2.552-2.552,5.1-5.108c.077-.077.139-.169.3-.363" transform="translate(0 0)" fill="#4c1400"/>
    </g>
  </g>
</svg>
