<svg xmlns="http://www.w3.org/2000/svg" width="124" height="33.763" viewBox="0 0 124 33.763">
  <g id="Group_92" data-name="Group 92" transform="translate(-1066 -104.217)">
    <g id="Group_76" data-name="Group 76" transform="translate(1066 104.217)" style="mix-blend-mode: multiply;isolation: isolate">
      <path id="Path_10138" data-name="Path 10138" d="M1193.771,150.549H1079.293c-1.924,0-3.483-1.158-3.483-2.585v-26.7c0-1.427,1.558-2.585,3.483-2.585h114.478c1.923,0,3.483,1.158,3.483,2.585v26.7C1197.254,149.391,1195.694,150.549,1193.771,150.549Z" transform="translate(-1074.532 -117.734)" fill="#ffce00"/>
      <g id="Group_75" data-name="Group 75">
        <g id="Group_71" data-name="Group 71" transform="translate(38.548 31.867)">
          <path id="Path_10139" data-name="Path 10139" d="M1117.278,154.01v-.694c.148.034.319.034.352-.178.072.024.171.035.212.076.155.156.238.138.39-.019a.283.283,0,0,1,.4.058,1.832,1.832,0,0,0,.182-.066c.031.092.044.035.111.009a.638.638,0,0,1,.359-.04c.176.057-.062.075-.046.077a1.048,1.048,0,0,0,.415.044,8.529,8.529,0,0,1,1.594-.077c.005,0,.012-.007.016-.006.484.1.951-.126,1.495.05a3.069,3.069,0,0,0,1.469-.135c.344-.09.489.076.726.12a2.166,2.166,0,0,0,.288-.021c.378.011.76.008,1.132.052.194.023.361.156.557.19a.4.4,0,0,0,.287-.173c.116-.274.427.056.561-.11.219.1.554.119.543.388.046-.079.066-.178.144-.234.255-.183.5-.027.757.018a.707.707,0,0,0,.615-.111c-.05-.007-.1-.013-.15-.023,0,0,0-.031.006-.048a2.446,2.446,0,0,1,.285.043.147.147,0,0,1,.083.089c.006.013-.036.048-.066.058a.861.861,0,0,1-.14.025c.023.019.053.058.068.055.091-.018.248-.038.254-.07.039-.21.3.022.369-.108a1.045,1.045,0,0,0,.913.047c.13-.034.315.019.424-.029.265-.116.221.067.3.133a.549.549,0,0,0,.16.055.822.822,0,0,1-.088-.1c-.012-.018,0-.045,0-.067.192.015.318.143.59-.03.208-.131.739.044,1.1-.008a.713.713,0,0,1,.707.162c.134-.226.415-.247.7-.257.347-.012.7,0,1.04-.027.271-.022.014.284.139.166a.676.676,0,0,1,.556-.15c.261.019.586-.1.776.133,0,0-.093.045-.142.068l.3.068v.009l.041.012.005-.033c.161-.256.443.005.67-.081a2.026,2.026,0,0,1,.67-.051c.132,0,.359-.118.37.113,0,.016.089.048.124.04.081-.016.2-.04.222-.082.056-.121.232-.191.517-.179a3.76,3.76,0,0,1,.875.041c.422.129.857-.012,1.3.11a2.232,2.232,0,0,1,.677.2c.128.08-.109-.143.142-.146.5-.007.045.478.486.445.172-.013.456.213.509-.105-.029.007-.064.025-.084.019-.055-.018-.1-.049-.156-.069-.192-.068-.142-.176-.091-.286.138.041.381.069.394.126.036.153.2.049.263.105a.9.9,0,0,1-.052-.1s.027-.023.041-.023c.241,0,.482,0,.723.006l-.158.137c.218-.014.527-.1.635-.028.2.133.49-.163.584.106.1-.03.19-.179.312-.018.111-.182.438.156.53-.111a3.127,3.127,0,0,1,.339.03l1.16.113c-.252.173.239.179.139.323-.012.017.026.054.041.081.01-.028.021-.056.031-.083l0,0h0c.361.323.462-.053.672-.133h0l0,0a.318.318,0,0,0,.352.174c.031-.005.048-.054.071-.083-.142-.027-.217-.224-.422-.092h0l-.006,0c-.211-.054-.445-.094-.295-.325.021-.031.228-.072.009-.111a.258.258,0,0,0-.123.028c.057.219-.155.368-.263.542h0c-.028-.093-.121-.216-.071-.271a1,1,0,0,1,1.076-.334,7.229,7.229,0,0,0,1.472-.02c.13,0,.33-.09.322.116.034-.035.09-.1.1-.1.521.177,1.141-.1,1.638.185.01.005.048-.009.068-.019.055-.027.109-.056.163-.084a.874.874,0,0,1-.12,0c-.015,0-.025-.023-.038-.036a1.329,1.329,0,0,1,.3-.079q.6-.019,1.209-.013a.79.79,0,0,1,.242.086c-.1.021-.2.046-.307.061a.652.652,0,0,1-.231.011c-.264-.062-.563.105-.806-.067a.351.351,0,0,0-.058.1c-.043.189.075.076.17.052s.236-.045.268-.016c.065.06-.007.181.159.017a1.127,1.127,0,0,1,.7-.017c.377.1.528-.257.878-.182a2.33,2.33,0,0,0,.439-.026q.7,0,1.4.018a.243.243,0,0,1,.158.085.406.406,0,0,1,.04.164c0-.053,0-.107.013-.161a.261.261,0,0,1,.04-.073c.013.013.034.023.038.037.019.074.033.149.05.224.169-.04.16-.128.125-.228-.006-.017.045-.046.075-.066.009-.006.034,0,.051,0a.659.659,0,0,1-.031.069c-.085.138.041.191.181.244a1.081,1.081,0,0,1,.17.1.9.9,0,0,0-.1.044c-.014.008-.02.026-.029.04a.583.583,0,0,0,.166.007.1.1,0,0,0,.059-.082c-.01-.1-.043-.2-.05-.306-.011-.138.034-.15.273-.083a.909.909,0,0,1,.145.065c.19-.293.453-.022.663-.021.4,0,.814.16,1.143-.141a.248.248,0,0,1,.09.025c.082.035.167.11.241.1.219-.02.43-.083.648-.106.292-.031.588-.05.883-.054.061,0,.124.086.186.133-.012.184.041.313.354.22l.105.1c.232,0,.464.017.7.013a3.332,3.332,0,0,1,1.4.169c.221.091.595.081.886.182.06.022.214-.1.324-.152-.144.006-.041-.295-.312-.132-.129-.139-.437.054-.529-.148a.659.659,0,0,1-.031-.164,1.466,1.466,0,0,0,.4.108,4.548,4.548,0,0,0,.808-.086c.214-.043.264.006.257.142,0,.013,0,.025,0,.038.055-.163.182-.058.286-.043-.012.044-.043.093-.026.129a.231.231,0,0,0,.136.1c.252.065.284-.109.393-.2l.455.006-.132.113.193.1.026.029.1.035.041-.007c.3-.186.544-.164.707.114.007.012.038.016.057.023-.135-.274.221-.222.379-.3-.121-.087-.139-.162.065-.181.269-.024.539-.037.809-.053a.339.339,0,0,1,.072.014c-.018.014-.038.026-.054.041a.812.812,0,0,0-.11.121c0,.006.068.038.105.058a.713.713,0,0,1,.039-.093,1.653,1.653,0,0,0,.463.067c.292-.055.1.155.146.139a1.4,1.4,0,0,0,.264-.171.262.262,0,0,1,.136-.035c.032,0,.06.04.091.061a.44.44,0,0,0-.132,0,.49.49,0,0,0-.136.076c-.008.005.005.041.009.041.119,0,.236,0,.355,0,.142.014.339.078.416.033.2-.116-.049-.171-.132-.189s-.182.058-.275.093c-.117-.21.335-.115.292-.286.1.12.352-.177.4.08,0,.011.023.019.034.029a.7.7,0,0,0,.157-.109c.028-.034.014-.085.021-.129s.016-.084.024-.127l.174.05a.815.815,0,0,0-.117.013c-.012,0-.025.029-.02.039.035.068.076.136.114.2l.154-.068c-.039-.01-.094-.012-.112-.031s-.024-.079-.005-.088c.116-.058.24-.105.361-.156-.022.031-.046.06-.064.092-.07.122.02.187.165.22.12.027.132.072.034.114a1.1,1.1,0,0,1-.254.042,1.656,1.656,0,0,1,.173.064c.321.154.143-.087.209-.136.269-.2.474.126.73.051h0c.1.054.17.22.318.016a.18.18,0,0,1,.279.029l.641-.322a.084.084,0,0,1,.051,0c.039.1.075.2.11.3a.668.668,0,0,1-.225-.028c-.207-.129-.219.12-.367.092a1.64,1.64,0,0,1,.214.106c.362.253.025-.134.164-.1.036.01.1-.032.138-.026.437.066.385-.262.594-.378a1.157,1.157,0,0,1,.294-.069c.012.032.048.071.034.1-.16.278.3.24.4.4a.655.655,0,0,0,.631.316c.073-.006.152.03.224.022.044,0,.079-.054.119-.084-.375.069-.375-.394-.778-.289a.507.507,0,0,1-.155-.017,3.751,3.751,0,0,1,.355-.193c.015-.006.107.075.158.118.01.008,0,.031,0,.047a.844.844,0,0,0,.152-.068c.071-.053.116-.135.2-.164.044-.016.145.051.22.082a1.378,1.378,0,0,0-.244.047c-.027.01-.164.111.02.1a2.493,2.493,0,0,0,.438-.132c.026-.007.1.041.105.036a.227.227,0,0,1,.345.053c.146.164.152.33-.18.385-.038.006-.1-.07-.154-.109,0,.037-.015.1,0,.105.121.031.318.1.36.065.184-.144.334-.272.571-.053,0-.014.016-.036.009-.04-.112-.061-.222-.164-.341-.168-.156-.007-.143-.014-.051-.078.032-.022.09-.024.12-.046.075-.054-.336.031-.049-.087.026-.011.026-.217.136-.022a.369.369,0,0,0,.243.006c.11-.089.436.209.395-.119,0-.014.08-.041.128-.051a1.752,1.752,0,0,1,.841-.125c.039.01.078.016.114.029.014.006.033.032.028.038-.291.306.106.2.261.23h0a.642.642,0,0,0-.227.015c-.173.1.119.086.083.159l.42-.035-.013.007.009,0-.121.28c.223-.056.359.256.586.086.138-.1-.27-.316.11-.408a.359.359,0,0,1-.1-.037c-.225-.192-.287.164-.479.078l0-.011h0l.118-.062-.395-.076h0c.3-.115.022-.152-.057-.217a.166.166,0,0,1-.027-.033c.033-.006.067-.013.1-.017a2.693,2.693,0,0,0,1.036-.1.135.135,0,0,1,.1.023.262.262,0,0,1,.049.136c0,.029-.031.058-.049.088l.46.073a.805.805,0,0,1,0-.115c0-.022.02-.061.036-.063.276-.027.555-.04.83-.076s.565.137.836-.021a.063.063,0,0,1,.032.013c-.014.042-.014.1-.052.124a1.147,1.147,0,0,1-.227.081c.236-.044-.049.293.266.191.025-.009.048-.022.072-.032a.363.363,0,0,1-.05-.04c-.038-.041-.075-.084-.109-.128,0,0,.022-.018.034-.028.03.171.187-.054.251.043a.326.326,0,0,0,.154.138.243.243,0,0,0,.186-.067.425.425,0,0,0,0-.212c0-.013-.027-.024-.041-.036.022-.01.046-.03.064-.027a2.12,2.12,0,0,1,.361.058c.1.032.212.152.268.137.251-.068-.151-.029-.039-.1a1.568,1.568,0,0,1,.922-.076,3.388,3.388,0,0,1,1.051.279c.191.079.262-.06.4-.032l-.049-.175c-.112.023-.227.042-.337.071a.729.729,0,0,0-.139.072c.006-.04,0-.087.023-.119.055-.067.159-.184.19-.176a6.492,6.492,0,0,0,1.562.036c.132,0,.262.07.4.074a1.663,1.663,0,0,0,.294-.078c.029-.005.11.059.109.062-.057.061-.121.117-.184.174a2.152,2.152,0,0,0,.272-.072,1.466,1.466,0,0,0,.221-.13c.031-.021.083-.065.084-.065.43.271.887-.1,1.32.032l.1.03c-.01.01-.016.025-.029.029-.121.037-.4.093-.328.116a2.537,2.537,0,0,0,.81.083c.1,0,.193-.113.28-.181.026-.021.024-.09.031-.09.274.013.547.032.821.05-.067.018-.133.034-.2.056-.007,0,0,.027,0,.041l.411,0c0-.015,0-.035-.014-.045-.032-.023-.07-.042-.106-.064a1.237,1.237,0,0,1,.162-.018c.465.007.932,0,1.394.035a1.3,1.3,0,0,1,.411.2.15.15,0,0,0,.086.016c.031-.007.072-.03.076-.049.076-.325.25.043.369-.022a1.061,1.061,0,0,1,.158.106l.076.05c.014-.024.036-.048.038-.073s-.031-.029-.048-.043-.031-.031-.047-.048c.025-.011.057-.034.073-.03a2.658,2.658,0,0,1,.6.183c.246.146-.331.042-.145.2.029.024.045.068.078.076.122.026.248.047.373.067v.638a1.518,1.518,0,0,0-.439.048c-.049.014-.549.151-.643-.152-.253.164-.476-.141-.735-.025-.045.02-.137-.016-.208-.026.015-.058.031-.115.047-.173,0-.013.006-.028.01-.042a.264.264,0,0,0-.085.013.319.319,0,0,0-.08.073c.12.082.08.121-.063.111-.034,0-.194.111-.139-.046a1.427,1.427,0,0,0-.2.023c-.014,0,.008.067-.012.077a2.737,2.737,0,0,1-1.849.025c-.217-.043-.553.123-.709.051-.239-.11-.36.08-.555.023a2.4,2.4,0,0,0-.529-.034,3.767,3.767,0,0,1-1.165,0,1.178,1.178,0,0,0-1,.094c-.1.076-.458-.015-.693-.051-.336-.051-.667-.122-1-.184-.086.337-.446.172-.7.221-.31.058-.663-.16-.929.087-.008.006-.039,0-.058,0,.018-.128.034-.256.055-.385,0-.015.032-.029.049-.043-.023-.006-.062-.022-.068-.016-.152.12-.3.243-.448.366a.5.5,0,0,1-.093.075c-.019.01-.058,0-.088-.006.026-.019.069-.036.076-.058a.228.228,0,0,0,0-.107,1.52,1.52,0,0,0-.34.01,3.423,3.423,0,0,1-.35.126,3.952,3.952,0,0,1-1.38-.039c-.309-.082-.621.172-.925,0-.076-.041-.1-.129-.153-.2l.006-.005h0c.055-.113.134-.016.15.007.15.222.077-.03.094-.086l.032,0a.324.324,0,0,1,.035.044l.033-.035-.068-.009c-.019-.019-.029-.017-.032,0-.132-.016-.264-.032-.4-.043-.015,0-.04.059-.059.091l.212.031,0,0h0c-.072.049-.171.139-.206.129-.189-.061-.473.027-.569-.2-.022-.051-.243-.06-.373-.084,0,0-.044.048-.036.067.031.074.022.2.217.111.022-.01.07.013.106.022a.955.955,0,0,1-.311.134c-.47.019-.942.017-1.414.02-.085,0-.171-.01-.256-.015l.174-.022c-.023-.016-.05-.048-.069-.045a2.346,2.346,0,0,1-.335.056c-.665-.013-1.329-.036-1.994-.055-.695-.019-1.39-.05-2.084-.049-.362,0-.723.083-1.085.093-.573.016-1.147-.006-1.719.011-.13,0-.356-.061-.4.125-.476-.206-1.017.1-1.484-.09-.278-.112-.436.093-.658.084a11.772,11.772,0,0,1-2.073-.074c-.279-.061-.619.12-.918-.059-.015-.009-.184.174-.393.155a3.9,3.9,0,0,1-1.185-.064,1.248,1.248,0,0,0-.722.087c-.306.12.033-.326-.275-.144-.012.007-.071-.027-.081-.021-.053.037-.088.1-.148.114-.039.01-.107-.049-.165-.073-.177-.075-.368-.22-.53-.2a3.13,3.13,0,0,0-1.061.242c-.25.124-.123-.057-.151-.071-.222-.111-.517.219-.693-.064-.046.171-.412-.115-.4.148,0,.022-.105.047-.162.07l-.039-.119c-.185.073-.44.265-.5-.04-.067-.323-.116.059-.173-.009a.454.454,0,0,0-.182-.083c-.012,0-.069.047-.071.045-.057-.039-.11-.08-.164-.121.06-.011.122-.02.18-.035a.173.173,0,0,0,.059-.043c-.034-.01-.068-.018-.1-.03-.049-.019-.1-.04-.145-.059.282.231-.623-.171-.164.161a.132.132,0,0,1,.014.129,1.69,1.69,0,0,1-.311.036.5.5,0,0,1-.14-.041c.049.048.1.1.149.142a1.224,1.224,0,0,0,.1.071.333.333,0,0,1-.1,0,2.556,2.556,0,0,1-.289-.127c-.018-.01,0-.058.006-.09-.086.01-.214.049-.25.023-.133-.1-.238-.043-.358,0-.007,0-.041-.036-.063-.055-.067.042-.139.081-.2.129-.034.025-.043.086-.075.091a.183.183,0,0,1-.132-.049c-.021-.026.006-.071.013-.108l.01-.055c-.045.016-.126.031-.128.049-.009.079-.307-.07-.164.112a.278.278,0,0,1,.029.078l-.448-.121c-.1.291-.363-.317-.464.04a1.065,1.065,0,0,1-.16,0c.225-.072-.377-.037-.031-.126.019,0,.029-.028.043-.043a.194.194,0,0,0-.045-.017c-.116-.016-.284-.074-.338-.039a1.261,1.261,0,0,1-.685.189c-.04-.013.027-.155-.018-.211-.12-.15-.077-.046-.084.031s-.079.189-.106.187a4.98,4.98,0,0,1-1.572-.066.161.161,0,0,0-.1.025c-.013.008-.013.038-.006.055a.868.868,0,0,0,.048.112l-.165.007a.315.315,0,0,0,.072-.049c.006-.01-.013-.04-.031-.047a3.782,3.782,0,0,0-.428-.154,2.018,2.018,0,0,0-.257,0c-.019,0-.048-.087-.034-.1a1.452,1.452,0,0,1,.21-.075l-.1-.121,0,0h0l0,0,.364-.143c-.115,0-.229-.012-.343-.013a1,1,0,0,0-.239.013c-.022.115.091.141.22.145l0,0c-.15.13-.292.267-.458.386-.024.017-.156-.058-.245-.073-.378-.06-.4.326-.742.318-.082,0-.177.056-.246.04s-.12-.089-.18-.137c.111,0,.221,0,.332-.011.01,0,.014-.049.02-.076-.09.035-.152-.031-.192-.037a5.685,5.685,0,0,0-.7-.007h-.137a.4.4,0,0,0,.07-.071c.009-.014,0-.053-.014-.054-.091-.01-.182-.014-.272-.021.021.017.053.031.063.051a1.214,1.214,0,0,1,.055.149c-.1.011-.206.027-.31.032-.373.019-.746.046-1.119.047s-.761-.039-1.141-.04c-.217,0-.438.07-.649.055a2.226,2.226,0,0,1-.758-.158,3.369,3.369,0,0,0-1.215-.112c-.079-.008-.189.137-.284.21-.042-.188-.279-.187-.45-.257a.877.877,0,0,1-.237-.2v-.006h0l.26-.147-.349-.1.089.249,0,0,0,0c.032.5-.4.066-.573.146a1.219,1.219,0,0,0-.2.145c-.048-.045-.068-.164-.17-.015-.032.049-.173.058-.263.086.05-.063.061-.085-.166-.2a.411.411,0,0,1,.053-.138l-.271.029-.217-.105a.291.291,0,0,0-.2,0,.9.9,0,0,0-.165.21c.1-.023.2-.053.309-.067s.184-.024.277-.034c.092.045.16.079.218.11-.011.076.023.146.152.2-.383-.007-.739-.226-1.141-.076.149-.181-.109-.214-.211-.3-.015-.013-.057-.012-.085-.017.065.527-.454.076-.647.2-.256.166-.559-.26-.836.01-.086-.262-.358-.164-.586-.164-.149,0-.3-.026-.447-.04a.2.2,0,0,0-.034.006c-.059-.1-.116-.2-.173-.3.029.093.1.193.076.279-.031.1-.129.27-.22.278a11.544,11.544,0,0,0-1.167.04c-.3.06-.369-.229-.5-.151-.368.214-.407-.241-.663-.146-.3.111.244.073.08.187-.011.007.243.194.046.209-.277.02-.609.128-.865-.057a1.123,1.123,0,0,1-.191-.228c-.015.093-.338.038-.192.209a1.678,1.678,0,0,0-.286.049c-.328.113-.592-.1-.9-.084.1-.2-.166-.107-.16-.093.189.413-.3.163-.366.16a2.039,2.039,0,0,1-.749-.136c-.2-.093.219-.017.117-.132.078-.013.244-.015.116-.1a.569.569,0,0,0-.4.049,1.662,1.662,0,0,1-1.029.159,3.444,3.444,0,0,0-.927.111.53.53,0,0,1-.525-.163c-.031-.032-.3.078-.375.04-.3-.148-.523.36-.819.041-.278.377-.2-.234-.394-.076-.013.011-.041.026-.04.029.059.067.333.153.138.193a1.674,1.674,0,0,1-.958.011,1.2,1.2,0,0,0-.554-.04,2.317,2.317,0,0,1-.5-.033,5.368,5.368,0,0,1-.785.019c-.046-.008-.114.05-.172.078.087-.148-.378-.183-.144-.375.034-.029.3-.06.09-.174-.063.062-.15.117-.185.187-.088.173-.673.207-.924.052a.384.384,0,0,0-.184-.054c-.18.156-.278.2-.212-.065,0-.006-.054-.026-.055-.025-.086.091-.154.2-.356.15.047.16-.126.108-.191.083-.294-.116-.208.253-.456.181v.07l-.1-.07c-.076.082-.239.232-.293.113-.137-.3-.419-.148-.619-.139-.175.007-.361.163-.525.02a.32.32,0,0,1-.034-.446c.031-.051-.011-.148-.066-.2-.034-.03-.156-.007-.238-.008.054.033.152.064.155.1a.391.391,0,0,1-.051.274.107.107,0,0,1-.2-.044c-.021.041-.029.107-.069.12a.788.788,0,0,1-.6-.081,1.683,1.683,0,0,0-.291-.077.587.587,0,0,1,.009.153c0,.028-.044.052-.068.078-.045-.226-.318-.027-.432-.122a.564.564,0,0,1-.1-.109c-.041-.06-.074-.123-.11-.185-.145.065.018.116.012.167-.015.129-.071.253-.308.247.067-.223-.566.182-.33-.193-.173.019-.35.028-.518.061-.206.04-.52.183-.585.136-.271-.2-.342.143-.528.069-.031-.013-.044-.052-.065-.079.2.039-.143-.226.146-.136a.662.662,0,0,0,.01-.2A.236.236,0,0,0,1117.278,154.01Zm73.4.171.486.161a.785.785,0,0,0,.03-.173,3.7,3.7,0,0,0-.386-.046Zm-1.1-.518c.11.025.118.062.3-.047l-.021.017-.008.006-.017.014h0l.017-.014.008-.006.064-.051a1.083,1.083,0,0,0-.4-.064C1189.363,153.567,1189.466,153.635,1189.584,153.663Zm-.507.259.357.162.107-.189c-.041-.024-.086-.069-.114-.064C1189.308,153.852,1189.194,153.889,1189.078,153.922Zm-.554.159a1.272,1.272,0,0,0,.387.075c.167-.035-.213-.15.029-.207a1.077,1.077,0,0,0-.223.005C1188.666,153.966,1188.628,154.01,1188.524,154.081Zm-1.35-.278a1.6,1.6,0,0,0,.344.189c.058.018-.1-.258.3-.083-.013-.121-.021-.2-.028-.274Zm-3.146-.022a1.408,1.408,0,0,0,.7.12c.529-.1-.146-.16-.115-.179-.085.173-.188-.017-.3-.108C1184.369,153.806,1183.964,153.756,1184.028,153.781Zm-1.03.253c.045.178.19.262.576.215l.288-.1-.36-.051a.081.081,0,0,1-.042-.022l-.279-.283c-.185.133.2.108.113.217-.013.015-.01.039-.013.058a.524.524,0,0,0-.152-.08A.212.212,0,0,0,1183,154.034Zm-4.25.466a.129.129,0,0,0,.094.044,1.284,1.284,0,0,0,.372-.027,1.572,1.572,0,0,0,.345-.208c.014-.009.008-.049-.007-.061a.15.15,0,0,0-.086-.027.463.463,0,0,1-.582.064h-.083c.021.02.054.038.059.06a.67.67,0,0,1,.014.135c-.02,0-.045,0-.057-.008a.574.574,0,0,1-.067-.065C1178.748,154.438,1178.733,154.473,1178.748,154.5Zm-5.471-.614c.168.111.409-.121.578.054.02-.035.068-.077.056-.105-.12-.268-.333-.015-.5-.045C1173.254,153.742,1173.25,153.867,1173.277,153.886Zm-5.94.179.059-.046.165.182c.111-.058.263-.192.2.061a.821.821,0,0,0,0,.2c.018,0,.049,0,.052-.007.087-.147.164-.155.231.007.03-.011.075-.016.086-.032a.089.089,0,0,0,.007-.087,2.406,2.406,0,0,1-.149-.231.149.149,0,0,1-.009-.086l0,0c0-.014,0-.012,0,0-.38-.211-.085.155-.28.018-.086-.06-.062-.2-.112-.3a.532.532,0,0,0-.227.022A1.124,1.124,0,0,0,1167.337,154.064Zm-2.44.086c.031.255.157.024.244.017s.171-.051.242.051c.2-.423-.175-.225-.3-.234C1165.028,153.981,1164.891,154.1,1164.9,154.151Zm-1.034,0a6.073,6.073,0,0,0,.85.029c.047,0,.142-.08.132-.1-.182-.348-.484.018-.528,0C1163.945,153.982,1163.833,154.149,1163.864,154.153Zm-6.826.3c-.04-.18-.262-.1-.4-.138v0a1.029,1.029,0,0,0,.159-.049c.047-.022.1-.055.115-.091.057-.173-.2-.183-.3-.273-.01-.01-.084.019-.129.03a1.115,1.115,0,0,1,.11.093,1.376,1.376,0,0,1,.093.126.462.462,0,0,0-.061,0,.9.9,0,0,0-.159.022c-.019.005-.036.054-.03.057.063.031.131.057.2.084v0l-.008,0,.009,0c.035.108.061.226.272.209C1156.957,154.518,1157.042,154.47,1157.037,154.451Zm-.746-.711.625.212.136-.031c-.14-.23-.526-.059-.7-.227Zm-9.482.289c.168,0,.03.06-.128.148l.439-.029c-.188-.14-.3-.449-.563-.383C1146.375,153.812,1146.476,154.027,1146.81,154.029Zm-6.04-.219a5.9,5.9,0,0,0,.626.134c.056.007.136-.1.2-.148l-.682-.082Zm-.945.048.155.1c.172-.25.385-.05.635-.04.2-.133-.063-.271-.145-.26A3.372,3.372,0,0,0,1139.825,153.858Zm-3.1-.4c.091.016.174.033.26.046.106.015.213.027.32.04-.084.238.16.071.244.1a.357.357,0,0,0,.11,0,.371.371,0,0,0-.043-.144c-.178-.224-.435-.081-.661-.065C1136.876,153.433,1136.821,153.269,1136.721,153.453Zm-.016.4c.221.354.616.141.936.168.01,0,.022-.015.032-.022-.3-.059-.609-.12-.915-.176C1136.742,153.815,1136.714,153.843,1136.7,153.849Zm-.139.377c.173.05.317.1.468.13.036.007.1-.047.145-.072-.149-.053-.3-.111-.449-.155C1136.7,154.122,1136.645,154.178,1136.565,154.225Zm-1.712-.537a.948.948,0,0,1,.25.058c.229.143.377-.135.588-.051.008-.03.036-.067.021-.087-.111-.145-.19,0-.285.019a1.009,1.009,0,0,1-.181,0c0-.06.253-.138.02-.162C1135.149,153.458,1135,153.6,1134.853,153.688Zm-.732.063.309.1c.051-.108-.247-.166-.079-.3.023-.017-.015-.076-.025-.117Zm-6.074.434c.1.057.2.114.309.166a.3.3,0,0,0,.041-.036c.067-.232-.181-.128-.248-.2Zm-4.11.013c.178.2.347-.229.526,0,.1-.093.033-.119-.14-.137l-.04-.125C1124.192,154.037,1124.168,154.188,1123.938,154.2Z" transform="translate(-1117.278 -153.083)" fill="#ffce00"/>
        </g>
        <g id="Group_72" data-name="Group 72" transform="translate(0 0.356)">
          <path id="Path_10140" data-name="Path 10140" d="M1079.149,118.637v.694c-.107-.029-.24-.025-.232.186-.05-.018-.117-.021-.153-.058-.141-.146-.21-.109-.253.06-.031.112-.146.106-.285.011-.008-.006-.053.065-.077.1-.073-.076-.049-.022-.073.015-.041.055-.1.129-.182.124-.143,0-.018-.078-.029-.076-.1.012-.237.03-.271.089-.119.3-.52.4-.59.689l0,.011c-.262.2-.043.463-.28.729-.17.29.018.746.182,1.091.121.255-.1.363-.162.539-.021.066.032.143.028.214a5.226,5.226,0,0,1-.07.839c-.03.145-.209.269-.255.414-.018.056.13.189.233.212.369.086-.075.317.147.417-.137.162-.159.411-.523.4a1.124,1.124,0,0,1,.316.107c.246.19.036.368-.024.562a.349.349,0,0,0,.149.457,1,1,0,0,1,.032-.112l.064,0a1.1,1.1,0,0,1-.057.212c-.014.029-.075.051-.12.062-.019,0-.064-.027-.078-.049a.38.38,0,0,1-.032-.1c-.026.017-.078.04-.075.05.024.067.051.184.094.189.284.029-.03.226.146.274-.224.316-.218.348-.063.678.045.1-.026.234.039.315.156.2-.089.164-.18.226-.04.027-.05.078-.074.119a1.155,1.155,0,0,1,.134-.066.315.315,0,0,1,.092,0c-.021.142-.192.236.04.438.177.155-.059.549.012.818a.383.383,0,0,1-.218.525.481.481,0,0,1,.346.519c.016.257,0,.517.037.772.029.2-.384.01-.225.1a.361.361,0,0,1,.2.413c-.026.193.134.435-.18.576l-.092-.105-.092.225h-.013l-.015.031.045,0c.344.12-.007.329.11.5a.878.878,0,0,1,.069.5c0,.1.158.267-.154.276a.1.1,0,0,0-.054.092c.021.06.054.15.11.164a.327.327,0,0,1,.241.384c-.017.218.048.461-.057.65-.174.314.015.637-.147.969-.078.158-.085.342-.27.5-.108.094.191-.081.2.105.01.368-.644.033-.6.361.018.127-.287.338.142.377-.01-.021-.034-.048-.025-.063.023-.04.066-.075.092-.115.093-.143.239-.106.385-.067-.056.1-.094.282-.169.292-.206.026-.065.148-.142.2.044-.013.088-.028.133-.038.007,0,.031.019.031.03l-.007.536-.184-.117c.019.163.134.392.037.472-.179.146.218.363-.143.433.04.076.242.141.023.232.246.083-.21.325.151.394a1.3,1.3,0,0,1-.041.252l-.153.861c-.234-.187-.241.178-.434.1-.023-.009-.072.02-.109.031l.111.023,0,0h0c-.434.268.071.342.18.5v0l0,0c-.144.053-.278.114-.234.26.007.023.073.036.111.053.037-.105.3-.161.124-.313h0l0-.005c.072-.156.126-.33.437-.218.042.015.1.17.151.006.009-.028-.032-.092-.038-.091a1.442,1.442,0,0,1-.73-.2h0c.124-.021.289-.09.365-.053.373.183.6.386.449.8a2.975,2.975,0,0,0,.028,1.093c0,.1.12.244-.156.239a.792.792,0,0,1,.135.074c-.238.386.135.847-.248,1.215-.008.007.011.035.024.05l.114.121a.373.373,0,0,1,0-.089c0-.011.032-.019.049-.028a.679.679,0,0,1,.106.22c.018.3.024.6.018.9,0,.06-.075.12-.116.18-.029-.075-.063-.151-.084-.227a.279.279,0,0,1-.014-.172c.084-.2-.141-.417.091-.6a.644.644,0,0,0-.131-.043c-.254-.031-.1.056-.071.126s.061.176.022.2c-.082.049-.245,0-.024.119.118.066.1.358.023.518-.128.28.346.391.245.652-.038.1.036.217.036.326q0,.52-.024,1.039c0,.042-.063.1-.116.118a.9.9,0,0,1-.221.03c.072,0,.145,0,.217.009a.559.559,0,0,1,.1.03.151.151,0,0,1-.049.028l-.3.037c.053.129.175.108.308.09.022,0,.065.026.093.042.008,0,0,.019,0,.029-.031-.005-.065-.009-.094-.016a.248.248,0,0,0-.32.126c-.032.043-.08.081-.119.123a.82.82,0,0,0-.072-.062.193.193,0,0,0-.056-.016.2.2,0,0,0,.012.117.165.165,0,0,0,.119.029c.135-.024.265-.06.4-.079.185-.024.2,0,.148.141a.582.582,0,0,1-.057.1c.413.022.13.235.209.355.123.2.185.518.652.442.009,0,.022.031.026.05.012.055-.005.145.043.169a3.239,3.239,0,0,0,.488.118c.212.045.414.093.622.124.042.006.059.1.094.156-.062.178-.043.312.243.248l.08.1c.2.016.443.024.671.022a3.331,3.331,0,0,1,1.4.169c.222.091.6.081.887.182.06.022.213-.1.323-.152-.145.006-.041-.295-.312-.132-.129-.139-.438.054-.529-.148a.67.67,0,0,1-.031-.164,1.449,1.449,0,0,0,.4.108,4.557,4.557,0,0,0,.808-.086c.213-.043.263.006.257.142v.038c.056-.163.183-.058.286-.043-.012.044-.043.093-.025.129a.228.228,0,0,0,.135.1c.252.065.284-.109.394-.2l.454.006-.131.113.193.1.026.029.1.035.042-.007c.3-.186.543-.164.707.114.006.012.038.016.057.023-.134-.274.221-.222.38-.3-.121-.087-.139-.162.064-.181.269-.024.54-.037.81-.053a.351.351,0,0,1,.072.014.675.675,0,0,0-.054.041.862.862,0,0,0-.111.121.655.655,0,0,0,.106.058.718.718,0,0,1,.039-.093,1.649,1.649,0,0,0,.463.067c.292-.055.1.155.146.139a1.421,1.421,0,0,0,.264-.171.259.259,0,0,1,.136-.035c.032,0,.06.04.09.061a.435.435,0,0,0-.131,0,.508.508,0,0,0-.137.076c-.008.005.01.041.01.041l.354,0c.143.014.34.078.417.033.2-.116-.049-.171-.132-.189s-.182.058-.275.093c-.118-.21.335-.115.292-.286.094.12.351-.177.4.08,0,.011.022.019.033.029a.677.677,0,0,0,.157-.109c.028-.034.014-.085.021-.129l.025-.127.174.05a.817.817,0,0,0-.117.013c-.012,0-.026.029-.021.039l.115.2.154-.068c-.039-.01-.094-.012-.113-.031s-.024-.079,0-.088c.116-.058.24-.105.361-.156-.021.031-.046.06-.064.092-.07.122.02.187.164.22.12.027.133.072.034.114a1.08,1.08,0,0,1-.253.042,1.719,1.719,0,0,1,.173.064c.32.154.143-.087.209-.136.268-.2.474.126.73.051h0c.1.054.17.22.317.016a.18.18,0,0,1,.279.029l.641-.322a.087.087,0,0,1,.052,0l.11.3a.668.668,0,0,1-.225-.028c-.208-.129-.22.12-.368.092a1.581,1.581,0,0,1,.214.106c.362.253.026-.134.165-.1.036.01.1-.032.137-.026.437.066.386-.262.594-.378a1.176,1.176,0,0,1,.294-.069c.013.032.048.071.034.1-.159.278.3.24.4.4a.654.654,0,0,0,.631.316c.073-.006.152.03.224.022.044,0,.079-.054.118-.084-.374.069-.374-.394-.777-.289a.507.507,0,0,1-.155-.017,3.634,3.634,0,0,1,.355-.193c.015-.006.106.075.157.118.01.008,0,.031,0,.047a.825.825,0,0,0,.153-.068c.071-.053.116-.135.2-.164.045-.016.146.051.221.082a1.357,1.357,0,0,0-.244.047c-.028.01-.164.111.019.1a2.473,2.473,0,0,0,.439-.132c.026-.007.1.041.1.036a.227.227,0,0,1,.345.053c.147.164.152.33-.179.385-.038.006-.1-.07-.155-.109,0,.037-.014.1,0,.105.12.031.317.1.359.065.185-.144.334-.272.572-.053,0-.014.015-.036.009-.04-.112-.061-.223-.164-.341-.168-.156-.007-.144-.014-.051-.078.031-.022.089-.024.12-.046.075-.054-.336.031-.049-.087.026-.011.026-.217.135-.022a.369.369,0,0,0,.243.006c.111-.089.436.209.395-.119,0-.014.081-.041.129-.051a1.749,1.749,0,0,1,.841-.125c.038.01.078.016.113.029.015.006.033.032.028.038-.29.306.107.2.261.23h0a.641.641,0,0,0-.227.015c-.173.1.118.086.083.159l.421-.035-.014.007.009,0-.12.28c.222-.056.359.256.585.086.138-.1-.269-.316.111-.408a.363.363,0,0,1-.1-.037c-.224-.192-.288.164-.479.078l.005-.011h0l.118-.062-.395-.076h0c.3-.115.023-.152-.057-.217a.2.2,0,0,1-.026-.033c.033-.006.066-.013.1-.017a2.691,2.691,0,0,0,1.036-.1.136.136,0,0,1,.1.023.278.278,0,0,1,.049.136c0,.029-.032.058-.049.088l.46.073a.711.711,0,0,1,0-.115c0-.022.02-.061.035-.063.277-.027.555-.04.83-.076s.564.137.836-.021c0,0,.032.013.032.013-.014.042-.014.1-.053.124a1.154,1.154,0,0,1-.226.081c.236-.044-.048.293.265.191a.749.749,0,0,0,.072-.032.352.352,0,0,1-.048-.04l-.109-.128s.022-.018.033-.028c.031.171.188-.054.252.043a.323.323,0,0,0,.154.138.242.242,0,0,0,.185-.067.423.423,0,0,0,0-.212c0-.013-.027-.024-.041-.036.021-.01.045-.03.064-.027a2.1,2.1,0,0,1,.36.058c.1.032.212.152.269.137.251-.068-.151-.029-.04-.1a1.569,1.569,0,0,1,.922-.076,3.383,3.383,0,0,1,1.051.279c.19.079.263-.06.4-.032l-.049-.175c-.112.023-.227.042-.336.071a.737.737,0,0,0-.14.072c.007-.04,0-.087.023-.119.055-.067.16-.184.191-.176a6.491,6.491,0,0,0,1.562.036c.133,0,.263.07.4.074a1.67,1.67,0,0,0,.295-.078c.029-.005.11.059.108.062-.056.061-.121.117-.184.174a2.135,2.135,0,0,0,.273-.072,1.5,1.5,0,0,0,.22-.13l.084-.065c.43.271.888-.1,1.321.032l.1.03c-.009.01-.015.025-.028.029-.121.037-.4.093-.329.116a2.545,2.545,0,0,0,.811.083c.1,0,.192-.113.28-.181.027-.021.025-.09.031-.09l.821.05-.2.056c-.008,0,0,.027,0,.041l.412,0c0-.015,0-.035-.015-.045-.031-.023-.07-.042-.106-.064a1.235,1.235,0,0,1,.162-.018c.466.007.933,0,1.395.035a1.319,1.319,0,0,1,.411.2.147.147,0,0,0,.086.016c.031-.007.072-.03.076-.049.076-.325.25.043.37-.022a1.069,1.069,0,0,1,.157.106l.076.05c.014-.024.037-.048.039-.073s-.032-.029-.048-.043l-.047-.048c.024-.011.056-.034.073-.03a2.649,2.649,0,0,1,.6.183c.247.146-.331.042-.144.2.028.024.044.068.077.076.123.026.248.047.373.067v.638a1.514,1.514,0,0,0-.438.048c-.05.014-.55.151-.644-.152-.253.164-.477-.141-.735-.025-.045.02-.137-.016-.208-.026l.047-.173.009-.042a.267.267,0,0,0-.085.013.35.35,0,0,0-.08.073c.119.082.08.121-.063.111-.033,0-.194.111-.138-.046a1.414,1.414,0,0,0-.2.023c-.014,0,.007.067-.013.077a2.734,2.734,0,0,1-1.848.025c-.217-.043-.553.123-.71.051-.238-.11-.36.08-.555.023a2.4,2.4,0,0,0-.528-.034,3.773,3.773,0,0,1-1.166,0,1.179,1.179,0,0,0-1,.094c-.1.076-.458-.015-.692-.051-.336-.051-.667-.122-1-.184-.085.337-.445.172-.7.221-.309.058-.662-.16-.928.087-.007.006-.038,0-.058,0l.055-.385c0-.015.032-.029.049-.043-.024-.006-.062-.022-.069-.016l-.448.366a.489.489,0,0,1-.092.075c-.019.01-.058,0-.089-.006.027-.019.069-.036.077-.058a.284.284,0,0,0,0-.107,1.521,1.521,0,0,0-.34.01,3.3,3.3,0,0,1-.351.126,3.954,3.954,0,0,1-1.38-.039c-.308-.082-.621.172-.924,0-.077-.041-.1-.129-.153-.2l.006-.005h0c.055-.113.135-.016.151.007.149.222.077-.03.094-.086l.032,0a.464.464,0,0,1,.035.044l.033-.035-.068-.009c-.019-.019-.029-.017-.032,0-.132-.016-.264-.032-.4-.043-.014,0-.039.059-.058.091l.211.031,0,0h0c-.073.049-.171.139-.207.129-.188-.061-.472.027-.569-.2-.022-.051-.242-.06-.372-.084-.005,0-.044.048-.037.067.031.074.022.2.217.111.021-.01.069.013.105.022a.962.962,0,0,1-.31.134c-.47.019-.943.017-1.414.02-.085,0-.172-.01-.257-.015l.174-.022c-.023-.016-.05-.048-.068-.045a2.349,2.349,0,0,1-.335.056l-1.994-.055c-.7-.019-1.39-.05-2.085-.049-.361,0-.722.083-1.085.093l-1.719.011c-.13,0-.357-.061-.4.125-.477-.206-1.017.1-1.484-.09-.279-.112-.436.093-.659.084a11.766,11.766,0,0,1-2.073-.074c-.279-.061-.619.12-.919-.059-.015-.009-.183.174-.392.155a3.9,3.9,0,0,1-1.185-.064,1.252,1.252,0,0,0-.723.087c-.307.12.033-.326-.274-.144-.012.007-.072-.027-.081-.021-.053.037-.088.1-.148.114-.038.01-.1-.048-.183-.075a3.054,3.054,0,0,0-.618-.25c-.435-.022-.914-.077-1.337-.081-.365,0-.1-.106-.123-.13-.15-.189-.724-.091-.645-.421-.208.1-.255-.339-.5-.158-.021.015-.138-.044-.212-.071l.093-.1c-.219-.084-.632-.2-.314-.409.336-.213-.145-.059-.1-.144a.321.321,0,0,0,0-.185c0-.012-.094-.04-.094-.04a.954.954,0,0,1,.079-.182.842.842,0,0,0,.122.133.271.271,0,0,0,.083.029.828.828,0,0,1-.013-.091,1.16,1.16,0,0,1,.015-.137c-.193.306-.005-.55-.27-.077-.017.035-.149.063-.158.053a.879.879,0,0,1-.149-.266.238.238,0,0,1,.016-.135,1.468,1.468,0,0,0-.146.165.819.819,0,0,0-.061.113.281.281,0,0,1-.026-.1.945.945,0,0,1,.1-.294c.01-.018.079-.005.12-.007-.03-.076-.1-.188-.067-.224.124-.121.039-.229-.016-.314a.464.464,0,0,1,.075-.046,2,2,0,0,0-.173-.149c-.034-.025-.117-.032-.122-.056s.029-.082.067-.1.1.005.146.01l.074.007c-.022-.033-.041-.093-.067-.1-.107-.007.094-.228-.152-.122a.626.626,0,0,1-.105.022l.163-.333c-.392-.078.428-.27-.055-.344-.009,0,0-.077,0-.119.1.166.049-.28.169-.023.006.014.039.022.058.032a.132.132,0,0,0,.023-.033c.021-.086.1-.211.051-.251-.109-.093-.322-.393-.253-.509.017-.03.208.021.284-.013.2-.09.062-.058-.04-.063a.532.532,0,0,1-.252-.079c.06-.387-.2-.79.088-1.167.012-.015-.013-.053-.034-.074a.121.121,0,0,0-.074,0c-.052.009-.1.023-.152.036l-.01-.123a.3.3,0,0,0,.068.054.089.089,0,0,0,.063-.022,2.313,2.313,0,0,0,.208-.318c.027-.056-.008-.128,0-.191a.224.224,0,0,1,.129-.025.8.8,0,0,1,.1.156l.163-.076h0v0l0,0,.192.27.017-.254c0-.062,0-.175-.018-.177-.155-.016-.19.067-.195.164h0c-.176-.111-.359-.217-.52-.341-.023-.018.079-.116.1-.182.082-.28-.44-.295-.428-.551,0-.061-.076-.132-.054-.183s.12-.09.185-.133c0,.082,0,.164.014.245,0,.008.067.011.1.015-.047-.067.043-.112.05-.143a2.285,2.285,0,0,0,.01-.52v-.1a.524.524,0,0,0,.1.053.11.11,0,0,0,.072-.011l.029-.2a.239.239,0,0,1-.07.047c-.065.018-.133.028-.2.041-.014-.077-.036-.154-.043-.231-.025-.277-.063-.554-.063-.83s.051-.564.053-.848c0-.16-.1-.324-.074-.481a1.063,1.063,0,0,1,.213-.563c.256-.291.094-.6.15-.9.012-.058-.182-.139-.282-.21.253-.031.252-.208.346-.334a.978.978,0,0,1,.271-.176h.008l.2.193.137-.258-.336.065,0,0-.005,0c-.677.023-.088-.3-.2-.425a1.123,1.123,0,0,0-.2-.151c.061-.036.22-.05.021-.126-.065-.024-.078-.128-.116-.2.085.037.115.045.274-.124a.858.858,0,0,1,.187.04l-.04-.2.142-.161c.032-.038.039-.129,0-.152a1.451,1.451,0,0,0-.283-.123,1.747,1.747,0,0,1,.091.23l.046.206-.147.161a.291.291,0,0,0-.272.112c.009-.284.306-.548.1-.847.244.111.289-.081.407-.157.018-.011.015-.041.022-.063-.709.049-.1-.337-.272-.481-.224-.19.349-.414-.013-.62.352-.065.22-.265.22-.435a2.127,2.127,0,0,1,.054-.332.067.067,0,0,0-.008-.025l.4-.129a1.29,1.29,0,0,1-.375.058c-.139-.022-.363-.1-.374-.164a4.84,4.84,0,0,0-.054-.866c-.082-.224.309-.273.2-.374-.288-.273.324-.3.2-.493-.148-.224-.1.181-.253.059-.01-.008-.261.181-.28.034-.027-.2-.172-.451.076-.642a1.547,1.547,0,0,1,.308-.141c-.126-.012-.051-.251-.282-.143a.786.786,0,0,0-.065-.213c-.153-.243.133-.44.114-.666.266.074.144-.124.125-.12-.554.14-.218-.226-.216-.271a.958.958,0,0,1,.183-.555c.125-.152.023.163.179.087.017.058.02.181.128.085.057-.05.012-.226-.066-.295a.768.768,0,0,1-.215-.763,1.507,1.507,0,0,0-.149-.689c-.057-.139,0-.275.219-.389.043-.023-.105-.219-.053-.279.2-.226-.486-.388-.056-.608-.508-.206.314-.146.1-.292l-.038-.03c-.091.045-.206.247-.261.1a.718.718,0,0,1-.014-.712.512.512,0,0,0,.054-.41c-.04-.144.037-.262.045-.375.013-.184-.091-.381-.026-.582.011-.034-.067-.084-.105-.128.2.065.246-.28.505-.106.038.025.08.221.235.066a1.2,1.2,0,0,0-.252-.137c-.233-.066-.279-.5-.07-.686.041-.037.088-.127.072-.137-.21-.134-.268-.207.087-.158.008,0,.034-.04.034-.04-.122-.065-.275-.114-.2-.264-.215.034-.146-.093-.111-.142.156-.218-.341-.155-.243-.338h-.1l.1-.076c-.11-.056-.313-.177-.154-.218.408-.092.2-.368.24-.55.014-.157-.122-.368.116-.478a.586.586,0,0,1,.585.106.416.416,0,0,0,.275.013c.049-.013.062-.105.092-.163-.058.025-.132.084-.177.074a.682.682,0,0,1-.326-.136c-.074-.075-.018-.167.14-.137-.04-.033-.117-.067-.112-.1.02-.208.227-.324.443-.4a2.87,2.87,0,0,0,.281-.146,1.079,1.079,0,0,1-.165-.093c-.025-.021-.018-.063-.025-.1.26.12.279-.187.473-.181a.837.837,0,0,1,.182.023,2.434,2.434,0,0,1,.251.089c.068-.12-.111-.083-.15-.125-.1-.108-.149-.239.09-.356.084.216.463-.409.462.021.163-.082.338-.155.507-.229.2-.1.524-.3.617-.261.349.154.387-.178.627-.114.039.011.055.05.08.076-.232-.031.166.22-.166.142a.573.573,0,0,0,0,.2A.249.249,0,0,0,1079.149,118.637Zm26.5,31.994.487.161a.842.842,0,0,0,.03-.173,3.728,3.728,0,0,0-.386-.046Zm-1.1-.518c.11.025.119.062.3-.047l-.021.017-.009.006-.017.014h0l.017-.014.009-.006.063-.051a1.077,1.077,0,0,0-.4-.064C1104.329,150.017,1104.433,150.085,1104.551,150.113Zm-.506.259.356.162.108-.189c-.041-.024-.086-.069-.114-.064C1104.275,150.3,1104.161,150.34,1104.045,150.372Zm-.554.159a1.267,1.267,0,0,0,.386.075c.168-.035-.212-.15.029-.207a1.069,1.069,0,0,0-.222.005C1103.634,150.416,1103.6,150.46,1103.492,150.531Zm-1.35-.278a1.594,1.594,0,0,0,.343.189c.059.018-.1-.258.3-.083l-.028-.274Zm-3.147-.022a1.41,1.41,0,0,0,.7.12c.529-.1-.145-.16-.115-.179-.085.173-.188-.017-.3-.108C1099.336,150.257,1098.932,150.207,1099,150.232Zm-1.029.253c.044.178.19.262.575.215l.289-.1-.36-.051a.077.077,0,0,1-.042-.022l-.28-.283c-.185.133.2.108.114.217-.013.015-.01.039-.014.058a.521.521,0,0,0-.151-.08A.21.21,0,0,0,1097.966,150.485Zm-4.251.466a.131.131,0,0,0,.094.044,1.278,1.278,0,0,0,.372-.027,1.6,1.6,0,0,0,.346-.208c.014-.009.008-.049-.008-.061a.147.147,0,0,0-.086-.027.462.462,0,0,1-.582.064h-.083c.021.02.053.038.059.06a.66.66,0,0,1,.014.135c-.019,0-.045,0-.056-.008a.53.53,0,0,1-.067-.065C1093.716,150.889,1093.7,150.924,1093.715,150.95Zm-5.47-.614c.168.111.408-.121.577.054.021-.035.069-.077.057-.105-.12-.268-.334-.015-.5-.045C1088.222,150.192,1088.218,150.317,1088.245,150.336Zm-5.941.179.06-.046.166.182c.111-.058.263-.192.2.061a.809.809,0,0,0,0,.2c.018,0,.048,0,.052-.007.087-.147.164-.155.23.007.031-.011.076-.016.087-.032a.09.09,0,0,0,.007-.087,2.252,2.252,0,0,1-.149-.231.15.15,0,0,1-.01-.086l.005,0c0-.014,0-.012-.005,0-.379-.211-.085.155-.28.018-.086-.06-.063-.2-.113-.3a.527.527,0,0,0-.227.022A1.124,1.124,0,0,0,1082.3,150.515Zm-2.44.086c.031.255.158.024.245.017s.17-.051.242.051c.2-.423-.175-.225-.3-.234C1079.994,150.432,1079.858,150.547,1079.864,150.6Zm-1.048-.01a4.537,4.537,0,0,0,.865.041c.048,0,.143-.08.132-.1-.182-.348-.484.018-.527,0C1078.917,150.429,1078.789,150.584,1078.816,150.591Zm-3.715-3.937c.242-.031.128-.2.186-.3h.005a.511.511,0,0,0,.067.119.236.236,0,0,0,.121.084c.234.042.247-.145.369-.22.013-.007-.026-.062-.041-.1a1.2,1.2,0,0,1-.126.081c-.053.027-.112.046-.169.068a.184.184,0,0,0,0-.045.447.447,0,0,0-.031-.118c-.007-.014-.074-.027-.077-.022-.041.047-.075.1-.111.147h0l0-.005,0,.006c-.146.025-.3.046-.282.2C1075.01,146.594,1075.075,146.657,1075.1,146.654Zm.958-.554-.286.465.041.1c.31-.1.08-.39.307-.522Zm-.39-7.039c0,.125-.082.022-.2-.094l.039.326c.189-.139.606-.221.517-.418C1075.961,138.739,1075.671,138.814,1075.669,139.061Zm.295-4.483a2.947,2.947,0,0,0-.181.465c-.009.041.129.1.2.152l.11-.506Zm-.064-.7-.13.115c.337.127.068.285.055.471a.216.216,0,0,0,.351-.108A1.881,1.881,0,0,0,1075.9,133.877Zm.545-2.3-.061.193-.055.237c-.322-.062-.1.119-.136.181-.013.022,0,.055,0,.082a.81.81,0,0,0,.194-.031c.3-.132.109-.324.087-.491C1076.471,131.689,1076.692,131.646,1076.444,131.573Zm-.533-.012c-.476.164-.191.457-.226.695,0,.007.02.016.03.023l.237-.679C1075.956,131.588,1075.919,131.567,1075.911,131.561Zm-.508-.1a3.167,3.167,0,0,0-.175.348c-.01.026.063.071.1.107a3.748,3.748,0,0,0,.208-.334C1075.543,131.559,1075.468,131.516,1075.4,131.458Zm.724-1.272c-.028.07-.03.143-.079.186-.191.17.182.28.069.436.04.006.091.027.118.015.2-.083,0-.14-.025-.211a.416.416,0,0,1-.005-.134c.08,0,.186.187.217.013C1076.439,130.406,1076.242,130.3,1076.128,130.186Zm-.085-.542-.132.228c.146.039.224-.182.4-.058.023.017.1-.011.157-.018Zm-.584-4.509-.225.23.05.03c.312.05.172-.134.266-.183Zm-.017-3.051c-.268.132.309.258.006.391.124.073.161.024.184-.1l.169-.03C1075.659,122.273,1075.456,122.254,1075.441,122.084Z" transform="translate(-1074.388 -118.023)" fill="#ffce00"/>
        </g>
        <g id="Group_73" data-name="Group 73" transform="translate(4.761)">
          <path id="Path_10141" data-name="Path 10141" d="M1160.375,118.6v.694c-.147-.034-.318-.034-.351.178-.073-.025-.172-.035-.212-.076-.156-.156-.239-.138-.39.019a.283.283,0,0,1-.4-.058,1.591,1.591,0,0,0-.183.066c-.031-.092-.044-.035-.11-.009a.633.633,0,0,1-.36.04c-.175-.056.063-.074.047-.076a1.049,1.049,0,0,0-.415-.044,8.529,8.529,0,0,1-1.594.077c-.006,0-.013.007-.016.006-.484-.1-.951.126-1.5-.05a3.07,3.07,0,0,0-1.469.135c-.344.09-.489-.076-.726-.12a2.169,2.169,0,0,0-.289.021c-.377-.011-.759-.009-1.131-.052-.194-.023-.361-.156-.556-.19a.392.392,0,0,0-.287.173c-.116.274-.428-.056-.562.11-.218-.1-.553-.119-.542-.389-.047.08-.067.179-.145.235-.255.183-.5.027-.757-.018a.707.707,0,0,0-.615.111c.05.007.1.013.151.023,0,0,0,.031-.006.048a2.411,2.411,0,0,1-.285-.043.149.149,0,0,1-.084-.089c-.005-.014.037-.048.067-.058a.828.828,0,0,1,.14-.025c-.023-.019-.053-.058-.068-.055-.09.018-.248.038-.253.069-.039.211-.3-.022-.369.109a1.043,1.043,0,0,0-.912-.047c-.131.034-.316-.019-.424.029-.265.116-.222-.067-.3-.133a.53.53,0,0,0-.16-.055.7.7,0,0,1,.088.1c.012.018,0,.045,0,.067-.192-.015-.319-.143-.59.03-.208.131-.74-.044-1.1.008a.711.711,0,0,1-.706-.162c-.135.226-.416.247-.7.257-.347.012-.7,0-1.041.027-.271.022-.013-.284-.138-.166a.678.678,0,0,1-.557.15c-.26-.019-.586.1-.776-.133,0,0,.092-.045.141-.068l-.3-.068v-.009l-.042-.012-.005.033c-.161.256-.442-.005-.67.081a2.051,2.051,0,0,1-.67.051c-.132,0-.36.118-.371-.113,0-.016-.089-.048-.124-.04-.081.016-.2.04-.221.082-.056.121-.232.191-.517.179a3.807,3.807,0,0,1-.875-.041c-.422-.129-.858.012-1.306-.11a2.232,2.232,0,0,1-.677-.2c-.127-.08.109.142-.141.146-.5.007-.045-.478-.487-.445-.171.013-.455-.213-.509.105.029-.007.065-.025.085-.019.055.018.1.049.155.068.193.069.143.177.091.287-.138-.041-.38-.069-.394-.126-.035-.153-.2-.049-.262-.105a.857.857,0,0,1,.051.1s-.026.023-.041.023c-.241,0-.481,0-.722-.006l.157-.137c-.218.014-.528.1-.635.028-.2-.133-.489.163-.583-.106-.1.03-.191.179-.313.017-.111.183-.439-.155-.53.112a3.4,3.4,0,0,1-.339-.03l-1.159-.114c.252-.173-.24-.179-.14-.322.013-.017-.026-.054-.041-.081-.01.028-.02.056-.031.083l0,0h0c-.361-.323-.462.053-.672.133h0l-.005,0a.317.317,0,0,0-.35-.173c-.031.005-.048.054-.071.083.142.027.217.224.421.091v0l.007,0c.21.054.445.094.294.324-.02.031-.228.073-.008.112a.27.27,0,0,0,.122-.028c-.057-.219.155-.368.264-.542h0c.028.093.121.216.072.271a1,1,0,0,1-1.076.334,7.232,7.232,0,0,0-1.472.02c-.13,0-.33.09-.322-.116-.034.035-.09.1-.1.1-.521-.177-1.14.1-1.636-.185-.011-.005-.049.009-.068.019-.056.026-.109.056-.163.084a.88.88,0,0,1,.12,0c.014,0,.025.023.037.036a1.312,1.312,0,0,1-.3.078q-.6.02-1.209.013a.778.778,0,0,1-.241-.086c.1-.021.2-.046.306-.061a.647.647,0,0,1,.23-.011c.264.062.563-.105.807.067a.4.4,0,0,0,.058-.1c.042-.189-.075-.076-.17-.052s-.237.045-.268.016c-.065-.061.006-.181-.16-.018a1.116,1.116,0,0,1-.7.018c-.377-.1-.528.256-.879.182a2.332,2.332,0,0,0-.44.026q-.7,0-1.4-.018a.245.245,0,0,1-.159-.085.39.39,0,0,1-.039-.164,1.6,1.6,0,0,1-.013.16.257.257,0,0,1-.04.074c-.013-.013-.033-.023-.037-.037-.019-.075-.033-.149-.05-.224-.169.04-.161.128-.125.228.006.017-.046.046-.075.066-.008.006-.033,0-.05,0a.548.548,0,0,1,.031-.069c.086-.138-.039-.191-.18-.244a1.084,1.084,0,0,1-.171-.1.991.991,0,0,0,.1-.044c.015-.008.02-.026.029-.04a.612.612,0,0,0-.165-.008.1.1,0,0,0-.06.083c.01.1.044.2.051.306.01.138-.034.15-.273.083a.914.914,0,0,1-.145-.065c-.191.293-.454.022-.663.021-.4,0-.814-.161-1.144.141a.26.26,0,0,1-.089-.025c-.082-.035-.168-.11-.242-.1-.218.02-.429.083-.647.106-.292.031-.589.05-.883.054-.061,0-.124-.086-.186-.133.012-.184-.041-.313-.355-.22l-.1-.1c-.232,0-.464-.017-.7-.013a3.316,3.316,0,0,1-1.4-.17c-.222-.09-.6-.08-.887-.182-.06-.021-.213.1-.323.153.145-.006.041.295.313.132.129.139.437-.054.528.148a.664.664,0,0,1,.031.164,1.447,1.447,0,0,0-.4-.108,4.649,4.649,0,0,0-.808.085c-.213.043-.263-.005-.257-.141,0-.013,0-.025,0-.038-.056.163-.183.058-.286.043.012-.044.043-.093.025-.129a.229.229,0,0,0-.135-.1c-.252-.066-.284.109-.394.2l-.454-.006.131-.113-.193-.1-.025-.029-.1-.035-.042.007c-.3.186-.543.163-.706-.114-.006-.012-.037-.016-.057-.023.134.273-.221.221-.38.3.122.087.139.162-.064.181-.269.024-.539.037-.81.053a.35.35,0,0,1-.072-.014c.018-.014.039-.027.054-.041a.826.826,0,0,0,.111-.121.559.559,0,0,0-.106-.058.6.6,0,0,1-.039.093,1.685,1.685,0,0,0-.463-.067c-.291.056-.1-.154-.145-.138a1.433,1.433,0,0,0-.265.171.258.258,0,0,1-.135.035c-.033,0-.061-.04-.091-.061a.44.44,0,0,0,.132,0,.507.507,0,0,0,.136-.076c.008-.006-.005-.041-.01-.041-.118,0-.236,0-.354,0-.143-.013-.339-.077-.417-.032-.2.116.049.171.132.189s.182-.058.275-.093c.118.21-.335.115-.291.286-.1-.12-.352.177-.4-.08,0-.011-.022-.019-.033-.029a.674.674,0,0,0-.157.109c-.028.034-.014.085-.022.129s-.017.084-.025.127l-.173-.05a.818.818,0,0,0,.116-.013c.011,0,.026-.029.021-.039-.036-.068-.076-.136-.115-.2l-.153.068c.039.01.094.012.112.031s.024.079,0,.088c-.115.058-.24.105-.361.156.021-.031.046-.06.064-.092.07-.122-.02-.187-.164-.22-.12-.027-.133-.072-.034-.114a1.089,1.089,0,0,1,.252-.042,1.8,1.8,0,0,1-.173-.064c-.32-.154-.143.087-.209.136-.269.2-.474-.126-.731-.051h0c-.1-.054-.17-.22-.317-.016a.181.181,0,0,1-.279-.029c-.214.108-.427.215-.641.321a.081.081,0,0,1-.052,0c-.039-.1-.074-.2-.11-.3a.668.668,0,0,1,.225.028c.208.129.22-.12.368-.092a1.584,1.584,0,0,1-.214-.106c-.362-.253-.025.134-.165.1-.036-.01-.1.032-.137.026-.437-.067-.386.262-.594.377a1.174,1.174,0,0,1-.294.069c-.013-.032-.048-.071-.034-.1.159-.277-.3-.239-.4-.4a.654.654,0,0,0-.631-.316c-.072.006-.152-.03-.224-.022-.044.005-.079.055-.118.084.374-.069.374.394.777.289a.479.479,0,0,1,.155.017,3.72,3.72,0,0,1-.354.193c-.016.006-.107-.075-.158-.118-.01-.009,0-.031,0-.047a.85.85,0,0,0-.153.068c-.071.053-.116.135-.2.164-.044.016-.146-.051-.221-.082a1.387,1.387,0,0,0,.245-.047c.027-.01.163-.111-.02-.1a2.469,2.469,0,0,0-.439.132c-.025.007-.1-.041-.1-.036a.228.228,0,0,1-.345-.053c-.147-.164-.152-.33.179-.385.039-.006.1.07.155.109,0-.037.015-.1,0-.105-.121-.031-.318-.1-.36-.065-.185.144-.334.272-.571.053,0,.014-.016.036-.009.04.111.061.222.164.34.168.156.007.144.014.051.078-.031.022-.089.023-.12.046-.075.054.336-.031.049.087-.027.011-.027.217-.136.022a.369.369,0,0,0-.243-.006c-.111.089-.436-.209-.395.119,0,.014-.081.041-.129.051a1.748,1.748,0,0,1-.841.124,1.1,1.1,0,0,1-.113-.028c-.015-.006-.033-.032-.028-.038.29-.306-.107-.2-.261-.23h0a.647.647,0,0,0,.228-.015c.173-.1-.119-.086-.083-.159l-.421.035.014-.007-.009,0,.121-.28c-.223.055-.359-.257-.586-.086-.137.1.269.316-.111.408a.333.333,0,0,1,.1.037c.225.192.288-.164.479-.078l-.005.011h0l-.118.062.4.076h0c-.3.115-.023.152.057.217a.162.162,0,0,1,.026.033c-.033.005-.066.013-.1.017a2.691,2.691,0,0,0-1.036.1.138.138,0,0,1-.1-.023.278.278,0,0,1-.049-.136c0-.029.032-.059.049-.089l-.459-.072a.822.822,0,0,1,0,.115c0,.022-.019.061-.035.063-.277.027-.556.04-.83.075s-.565-.137-.836.021a.062.062,0,0,1-.033-.013c.014-.043.014-.1.053-.124a1.148,1.148,0,0,1,.227-.081c-.237.044.048-.293-.266-.191a.769.769,0,0,0-.072.032.443.443,0,0,1,.049.039c.039.042.075.084.109.129,0,0-.022.018-.033.028-.031-.171-.188.053-.252-.043a.323.323,0,0,0-.154-.138.242.242,0,0,0-.185.067.435.435,0,0,0,0,.212c0,.013.027.024.041.036-.022.01-.045.03-.064.027a2.093,2.093,0,0,1-.36-.058c-.1-.032-.212-.152-.269-.137-.25.068.152.029.04.1a1.576,1.576,0,0,1-.922.075,3.389,3.389,0,0,1-1.051-.279c-.19-.079-.263.06-.4.032l.049.175c.112-.023.227-.042.336-.071a.742.742,0,0,0,.14-.072c-.007.04,0,.087-.023.119-.055.067-.16.184-.191.175a6.537,6.537,0,0,0-1.562-.035c-.133,0-.262-.07-.4-.074a1.669,1.669,0,0,0-.295.078c-.029,0-.111-.059-.108-.062.056-.061.121-.118.184-.174a2.089,2.089,0,0,0-.272.072,1.463,1.463,0,0,0-.221.13c-.032.021-.084.065-.084.065-.43-.271-.888.1-1.321-.032l-.1-.03c.009-.01.015-.025.029-.03.12-.036.4-.093.328-.115a2.542,2.542,0,0,0-.811-.083c-.1,0-.192.113-.28.181-.027.021-.024.09-.031.09-.273-.013-.547-.032-.821-.05.067-.018.134-.034.2-.056.008,0,0-.027,0-.041l-.412,0c0,.015,0,.035.015.044a1.12,1.12,0,0,0,.106.065,1.229,1.229,0,0,1-.162.018c-.466-.007-.933,0-1.395-.035a1.3,1.3,0,0,1-.41-.2.152.152,0,0,0-.087-.016c-.031.007-.072.03-.076.049-.076.325-.25-.043-.369.022a1.143,1.143,0,0,1-.157-.106l-.077-.05a.216.216,0,0,0-.039.073c0,.013.032.028.049.043s.031.031.047.048c-.024.011-.056.034-.073.03a2.65,2.65,0,0,1-.6-.183c-.247-.146.331-.042.144-.2-.028-.024-.044-.068-.077-.075-.123-.027-.248-.047-.373-.067v-.638a1.515,1.515,0,0,0,.438-.048c.05-.014.55-.151.643.152.254-.164.477.141.735.025.046-.02.137.015.208.025-.015.058-.031.116-.046.173a.392.392,0,0,0-.01.043.243.243,0,0,0,.085-.013.336.336,0,0,0,.08-.072c-.119-.082-.08-.121.063-.111.033,0,.194-.111.138.046a1.442,1.442,0,0,0,.2-.023c.014,0-.008-.067.012-.078a2.74,2.74,0,0,1,1.848-.024c.218.043.553-.123.71-.051.238.11.36-.08.554-.023a2.452,2.452,0,0,0,.528.034,3.775,3.775,0,0,1,1.166,0,1.176,1.176,0,0,0,1-.1c.1-.075.458.016.692.052.336.051.667.122,1,.184.085-.337.445-.172.7-.221.309-.058.662.16.928-.087.007-.006.038,0,.058,0-.017.128-.033.256-.055.385,0,.015-.032.029-.049.043.024.006.062.022.069.016.152-.12.3-.244.448-.366a.51.51,0,0,1,.093-.075c.018-.009.058,0,.088.007-.027.019-.069.036-.077.058a.235.235,0,0,0,0,.107,1.522,1.522,0,0,0,.34-.01,3.291,3.291,0,0,1,.35-.126,3.954,3.954,0,0,1,1.38.039c.308.082.621-.172.925-.005.076.042.1.13.152.2l-.006,0h0c-.055.113-.135.016-.151-.007-.149-.222-.077.03-.093.086l-.032,0a.308.308,0,0,1-.036-.044l-.033.035.069.009c.019.019.028.017.032,0,.131.016.263.032.4.043.015,0,.039-.059.059-.091l-.212-.031,0,0h0c.073-.049.171-.139.207-.129.188.061.472-.027.569.2.022.051.242.06.372.084.005,0,.045-.048.037-.067-.031-.074-.023-.2-.218-.111-.021.01-.069-.013-.1-.022a.961.961,0,0,1,.31-.134c.471-.02.943-.017,1.414-.02.085,0,.172.01.257.015l-.174.022c.023.016.05.048.069.045a2.317,2.317,0,0,1,.334-.056c.665.013,1.33.036,2,.055.695.019,1.39.05,2.084.048.361,0,.722-.082,1.085-.093.573-.016,1.147.006,1.719-.011.131,0,.357.061.4-.125.476.206,1.017-.1,1.483.09.279.112.436-.093.659-.084a11.765,11.765,0,0,1,2.073.074c.279.061.619-.12.918.059.015.009.183-.174.393-.155a3.9,3.9,0,0,1,1.185.064,1.249,1.249,0,0,0,.722-.087c.307-.12-.033.326.274.144.012-.007.072.027.081.021.053-.037.088-.1.148-.114.039-.01.108.049.165.073.177.075.368.22.53.2a3.148,3.148,0,0,0,1.061-.242c.251-.124.124.057.152.071.222.111.516-.219.692.064.047-.171.413.115.4-.148,0-.022.106-.047.163-.07l.039.119c.185-.073.44-.265.5.04.066.323.115-.059.173.008a.44.44,0,0,0,.181.084c.012,0,.069-.047.072-.045.057.038.11.08.163.121-.06.011-.121.02-.18.035-.023.006-.04.028-.059.043.034.01.069.018.1.03.049.019.1.04.146.059-.283-.231.623.171.164-.161a.133.133,0,0,1-.015-.129,1.7,1.7,0,0,1,.311-.036.5.5,0,0,1,.14.041c-.049-.048-.1-.1-.149-.142-.03-.026-.068-.048-.1-.072a.363.363,0,0,1,.1.005,2.389,2.389,0,0,1,.288.127c.018.01,0,.058-.006.09.085-.01.213-.049.249-.023.133.1.238.043.359,0,.006,0,.04.036.062.055.067-.042.14-.082.2-.129.033-.025.043-.086.074-.091a.185.185,0,0,1,.133.049c.02.026-.007.071-.013.108l-.01.055c.045-.016.127-.031.129-.049.009-.079.307.07.165-.112a.272.272,0,0,1-.03-.078l.448.121c.1-.291.363.317.463-.04a1.071,1.071,0,0,1,.16,0c-.224.072.376.037.031.126-.02,0-.03.028-.044.043a.283.283,0,0,0,.046.017c.116.016.284.074.338.039a1.258,1.258,0,0,1,.685-.189c.04.013-.028.155.017.21.121.151.077.047.085-.03s.079-.189.106-.187a4.979,4.979,0,0,1,1.572.066.159.159,0,0,0,.1-.025c.014-.008.013-.038.007-.055-.013-.039-.032-.076-.049-.112l.165-.007a.3.3,0,0,0-.072.049c-.007.009.013.04.03.047a3.914,3.914,0,0,0,.428.154,2.021,2.021,0,0,0,.257,0c.02,0,.049.087.034.094a1.312,1.312,0,0,1-.21.075l.1.121h0l0,0-.364.143c.114,0,.229.012.343.013a1.041,1.041,0,0,0,.238-.013c.022-.115-.09-.141-.22-.145v0a5.943,5.943,0,0,1,.457-.386c.024-.017.157.058.245.073.377.06.4-.326.742-.318.083,0,.178-.056.246-.04s.121.089.18.137c-.111,0-.221,0-.331.011-.01,0-.013.049-.021.075.09-.034.152.032.192.038a5.692,5.692,0,0,0,.7.007h.138a.406.406,0,0,0-.071.071c-.009.014.005.053.014.054.09.01.181.014.272.021-.021-.017-.054-.031-.064-.051a1.575,1.575,0,0,1-.055-.149c.1-.011.207-.027.311-.032.372-.019.745-.047,1.119-.047s.76.039,1.142.04c.217,0,.438-.071.648-.055a2.225,2.225,0,0,1,.758.158,3.351,3.351,0,0,0,1.215.111c.079.009.189-.136.285-.209.041.188.279.187.449.257a.878.878,0,0,1,.238.2v.006h0l-.26.147.348.1-.088-.249,0,0,0,0c-.032-.5.4-.066.573-.146a1.266,1.266,0,0,0,.2-.145c.048.044.068.163.169.014.033-.048.173-.058.263-.085-.05.063-.06.085.166.2a.421.421,0,0,1-.053.138l.27-.029.217.105a.293.293,0,0,0,.2,0,.956.956,0,0,0,.166-.21c-.1.023-.2.053-.309.067s-.185.024-.278.034c-.092-.045-.16-.079-.217-.11.011-.076-.022-.146-.151-.2.383.007.739.226,1.141.075-.149.181.108.214.21.3.016.013.057.012.086.017-.066-.527.454-.076.647-.2.256-.166.558.259.836-.01.086.262.357.164.586.164.148,0,.3.026.447.04a.215.215,0,0,0,.034-.006l.173.3c-.03-.093-.1-.193-.076-.279.03-.1.129-.27.219-.278a11.564,11.564,0,0,0,1.168-.04c.3-.06.368.229.5.151.369-.214.407.241.664.146.3-.111-.245-.073-.08-.187.011-.008-.244-.194-.046-.209.276-.021.608-.128.864.057a1.1,1.1,0,0,1,.19.228c.015-.093.338-.038.193-.209a1.7,1.7,0,0,0,.286-.049c.328-.113.592.1.9.084-.1.2.167.107.16.093-.189-.413.3-.163.366-.16a2.044,2.044,0,0,1,.75.136c.2.093-.22.017-.118.132-.077.013-.244.015-.116.1a.572.572,0,0,0,.4-.049,1.659,1.659,0,0,1,1.029-.159,3.452,3.452,0,0,0,.927-.111.529.529,0,0,1,.524.163c.031.032.3-.078.376-.04.3.148.523-.36.819-.041.278-.377.2.234.394.075.013-.01.041-.025.039-.028-.06-.067-.333-.153-.138-.193a1.674,1.674,0,0,1,.958-.011,1.2,1.2,0,0,0,.553.04,2.325,2.325,0,0,1,.505.033,5.241,5.241,0,0,1,.785-.019c.046.008.114-.05.172-.078-.087.148.378.183.143.375-.034.029-.3.059-.089.174a.956.956,0,0,0,.185-.187c.087-.173.673-.207.923-.052a.388.388,0,0,0,.184.054c.181-.156.279-.2.212.065,0,.006.055.026.055.025.087-.091.154-.2.357-.15-.047-.16.126-.108.191-.083.294.116.208-.253.456-.181v-.071l.1.071c.075-.082.238-.232.293-.113.137.3.419.147.619.139.174-.008.36-.163.525-.02a.319.319,0,0,1,.033.446c-.031.051.012.148.067.2.034.03.156.007.238.008-.055-.033-.152-.064-.156-.1a.394.394,0,0,1,.052-.274.106.106,0,0,1,.2.044c.022-.041.03-.107.069-.12a.787.787,0,0,1,.6.081,1.681,1.681,0,0,0,.291.077.633.633,0,0,1-.009-.153c0-.028.045-.052.069-.078.045.226.317.027.431.122a.557.557,0,0,1,.1.109c.042.06.075.123.111.185.146-.065-.018-.116-.012-.167.015-.129.071-.253.308-.247-.067.223.566-.182.329.193.173-.02.35-.028.519-.061.2-.04.519-.183.584-.137.271.2.342-.142.528-.069.032.013.044.053.066.08-.2-.039.142.226-.147.136a.658.658,0,0,0-.01.2A.237.237,0,0,0,1160.375,118.6Zm-73.4-.171-.487-.161a.852.852,0,0,0-.03.173,3.713,3.713,0,0,0,.387.046Zm1.1.518c-.11-.025-.119-.062-.3.047l.021-.017.009-.007.017-.013h0l-.017.013-.009.007-.063.051a1.079,1.079,0,0,0,.4.064C1088.292,119.04,1088.188,118.972,1088.07,118.944Zm.506-.259-.356-.162-.107.188c.04.025.085.07.113.065C1088.345,118.754,1088.46,118.717,1088.576,118.685Zm.555-.159a1.276,1.276,0,0,0-.387-.075c-.167.035.213.15-.029.207a1.135,1.135,0,0,0,.222-.005C1088.987,118.641,1089.025,118.6,1089.13,118.526Zm1.349.278a1.59,1.59,0,0,0-.343-.189c-.059-.018.1.258-.3.082l.028.275Zm3.147.021a1.419,1.419,0,0,0-.7-.119c-.529.1.145.16.115.179.085-.173.188.017.3.108C1093.285,118.8,1093.689,118.849,1093.626,118.824Zm1.029-.252c-.044-.178-.19-.262-.575-.215l-.289.1.361.051a.078.078,0,0,1,.041.022c.094.094.187.189.28.283.185-.133-.2-.109-.114-.217.013-.015.01-.039.014-.058a.518.518,0,0,0,.151.08A.209.209,0,0,0,1094.655,118.572Zm4.251-.466a.131.131,0,0,0-.094-.044,1.281,1.281,0,0,0-.372.027,1.576,1.576,0,0,0-.345.208c-.014.009-.009.049.007.061a.138.138,0,0,0,.086.026.462.462,0,0,1,.582-.063h.083c-.021-.02-.053-.038-.059-.06a.667.667,0,0,1-.013-.135c.019,0,.045,0,.057.008a.688.688,0,0,1,.067.065C1098.905,118.168,1098.921,118.133,1098.906,118.107Zm5.471.614c-.169-.111-.409.121-.578-.054-.021.035-.069.077-.057.105.12.267.334.015.5.045C1104.4,118.865,1104.4,118.739,1104.377,118.721Zm5.94-.179-.06.046-.164-.182c-.111.058-.264.193-.2-.06a.815.815,0,0,0,0-.2c-.018,0-.048,0-.052.007-.087.146-.164.155-.23-.007-.031.011-.075.015-.087.032a.09.09,0,0,0-.007.087,2.251,2.251,0,0,1,.149.231.151.151,0,0,1,.01.086l0,0c0,.014,0,.011,0,0,.379.211.085-.155.28-.018.086.06.063.2.113.3a.527.527,0,0,0,.226-.022A1.124,1.124,0,0,0,1110.317,118.542Zm2.44-.087c-.031-.254-.158-.023-.245-.016s-.17.051-.242-.051c-.2.423.175.225.3.234C1112.626,118.626,1112.763,118.51,1112.757,118.455Zm1.033,0a6.078,6.078,0,0,0-.85-.029c-.048,0-.142.08-.132.1.182.347.484-.018.528,0C1113.708,118.625,1113.82,118.457,1113.79,118.453Zm6.826-.3c.041.18.262.1.4.138v0a.95.95,0,0,0-.16.049c-.046.022-.1.055-.114.091-.057.173.2.183.3.273.011.01.084-.019.128-.03a1.243,1.243,0,0,1-.11-.093,1.541,1.541,0,0,1-.092-.126.447.447,0,0,0,.06,0,.907.907,0,0,0,.159-.022c.019-.005.037-.054.031-.058-.064-.031-.132-.056-.2-.083v0l.007,0-.008,0c-.035-.108-.062-.226-.272-.209C1120.7,118.088,1120.612,118.137,1120.616,118.155Zm.745.711-.625-.212-.135.031c.139.23.525.059.7.227Zm9.483-.289c-.168,0-.03-.06.128-.148l-.44.029c.188.14.3.449.562.383C1131.279,118.794,1131.178,118.58,1130.844,118.577Zm6.04.219a6.018,6.018,0,0,0-.626-.134c-.056-.007-.137.1-.206.148l.683.082Zm.944-.048-.155-.1c-.171.25-.384.05-.634.04-.2.133.062.271.145.26A3.364,3.364,0,0,0,1137.828,118.749Zm3.1.4c-.091-.016-.174-.033-.26-.046-.106-.015-.213-.027-.32-.04.084-.238-.159-.071-.244-.1a.359.359,0,0,0-.111,0,.373.373,0,0,0,.043.144c.178.224.436.081.662.065C1140.777,119.173,1140.833,119.337,1140.932,119.153Zm.017-.4c-.221-.354-.616-.142-.937-.168-.01,0-.021.014-.032.022.3.059.609.12.915.176C1140.912,118.791,1140.939,118.763,1140.949,118.758Zm.138-.377c-.173-.05-.317-.1-.468-.13-.036-.007-.1.047-.144.072.148.053.3.111.449.155C1140.95,118.484,1141.009,118.429,1141.088,118.381Zm1.713.537a.956.956,0,0,1-.251-.058c-.228-.143-.377.135-.587.051-.008.03-.037.067-.021.087.112.145.189,0,.285-.019a1,1,0,0,1,.181,0c0,.059-.252.138-.019.162C1142.505,119.149,1142.651,119,1142.8,118.919Zm.731-.064-.308-.1c-.052.108.246.166.079.3-.023.018.014.077.024.118Zm6.074-.433c-.1-.057-.2-.114-.309-.167a.4.4,0,0,0-.04.037c-.068.232.181.128.247.2Zm4.111-.013c-.179-.2-.348.229-.527,0-.1.092-.033.119.14.137l.039.125C1153.461,118.57,1153.486,118.419,1153.716,118.409Z" transform="translate(-1079.685 -117.627)" fill="#ffce00"/>
        </g>
        <g id="Group_74" data-name="Group 74" transform="translate(85.451 0.122)">
          <path id="Path_10142" data-name="Path 10142" d="M1203.252,150.434v-.694c.107.029.24.025.231-.186.05.018.117.021.154.058.14.146.21.109.253-.06.031-.112.147-.106.285-.011.008.006.054-.065.078-.1.072.076.048.022.073-.015.041-.055.1-.129.181-.124.144,0,.019.078.029.076.1-.012.238-.03.272-.089.119-.3.52-.4.59-.689l0-.011c.26-.2.042-.463.279-.729.171-.29-.017-.747-.182-1.091-.121-.255.1-.363.162-.539.022-.066-.031-.143-.028-.214a5.375,5.375,0,0,1,.07-.84c.031-.144.21-.268.256-.413.017-.056-.13-.189-.233-.212-.37-.086.075-.317-.148-.417.138-.163.159-.411.524-.4a1.122,1.122,0,0,1-.315-.107c-.246-.19-.037-.368.024-.562a.35.35,0,0,0-.15-.457c-.01.038-.018.076-.031.112l-.064,0a1.023,1.023,0,0,1,.057-.212c.013-.029.075-.051.12-.062.019,0,.064.027.078.049a.351.351,0,0,1,.033.1c.026-.017.078-.04.074-.05-.023-.067-.05-.184-.094-.189-.284-.029.03-.226-.146-.274.224-.316.218-.348.064-.678-.046-.1.026-.234-.039-.315-.156-.2.089-.164.18-.226.039-.027.049-.078.074-.119a1.221,1.221,0,0,1-.135.066.318.318,0,0,1-.092,0c.022-.143.193-.236-.039-.438-.178-.155.058-.549-.012-.818a.384.384,0,0,1,.218-.525.482.482,0,0,1-.346-.519c-.016-.257,0-.517-.036-.772-.029-.2.383-.01.224-.1a.36.36,0,0,1-.2-.413c.025-.193-.134-.435.179-.576,0,0,.061.068.093.105l.093-.225h.012l.015-.031-.044,0c-.345-.119.006-.328-.11-.5a.874.874,0,0,1-.069-.5c0-.1-.158-.266.154-.275a.1.1,0,0,0,.053-.092c-.022-.06-.054-.15-.11-.164a.327.327,0,0,1-.242-.384c.017-.218-.049-.461.057-.65.174-.314-.015-.637.148-.969.078-.158.084-.342.269-.5.109-.094-.192.081-.2-.105-.009-.368.644-.033.6-.361-.017-.127.287-.338-.141-.377.009.021.034.048.025.063-.023.04-.066.075-.092.115-.094.143-.238.106-.385.067.055-.1.093-.282.169-.292.2-.027.065-.148.142-.2-.045.013-.088.028-.134.038-.006,0-.031-.019-.031-.03l.008-.537.184.118c-.02-.163-.135-.392-.037-.472.178-.146-.219-.363.143-.433-.04-.075-.242-.141-.024-.232-.246-.083.21-.326-.151-.394a1.425,1.425,0,0,1,.04-.252l.153-.861c.234.187.241-.178.434-.1.023.009.072-.02.11-.031l-.112-.023,0,0h0c.435-.268-.071-.342-.179-.5v0l0,0c.143-.053.277-.114.234-.26-.006-.023-.072-.036-.11-.053-.037.105-.3.161-.123.313h0l0,.005c-.073.156-.127.33-.438.218-.041-.015-.1-.17-.151-.006-.009.027.032.092.039.091a1.438,1.438,0,0,1,.729.2h0c-.124.021-.29.09-.365.053-.373-.183-.6-.386-.45-.8a2.975,2.975,0,0,0-.027-1.093c0-.1-.121-.244.156-.239a.832.832,0,0,1-.135-.074c.238-.386-.135-.847.249-1.215.008-.007-.012-.036-.024-.05l-.115-.121a.361.361,0,0,1,0,.089c0,.011-.031.019-.048.028a.662.662,0,0,1-.106-.22c-.018-.3-.024-.6-.018-.9,0-.06.075-.12.116-.18.028.075.062.151.083.227a.279.279,0,0,1,.014.172c-.083.2.142.417-.09.6a.688.688,0,0,0,.13.043c.255.031.1-.056.071-.126s-.061-.176-.022-.2c.082-.049.244,0,.023-.119-.118-.066-.1-.359-.023-.518.13-.28-.346-.391-.244-.653.038-.1-.036-.217-.036-.326,0-.346.008-.692.024-1.038,0-.042.063-.1.116-.118a.861.861,0,0,1,.222-.03c-.073,0-.146,0-.217-.009a.531.531,0,0,1-.1-.03.147.147,0,0,1,.048-.028l.3-.037c-.052-.129-.175-.108-.307-.09-.022,0-.065-.026-.093-.042-.008,0,0-.019,0-.029.031.005.064.008.094.016a.25.25,0,0,0,.32-.126c.032-.043.08-.081.118-.123a.7.7,0,0,0,.073.062.193.193,0,0,0,.056.016.205.205,0,0,0-.012-.117.165.165,0,0,0-.118-.029c-.135.023-.266.06-.4.079-.185.024-.2,0-.147-.141a.521.521,0,0,1,.057-.1c-.412-.022-.13-.235-.21-.355-.122-.2-.185-.519-.652-.442-.008,0-.022-.031-.025-.05-.013-.055,0-.145-.044-.169a3.121,3.121,0,0,0-.487-.118c-.212-.045-.414-.093-.623-.124-.042-.006-.058-.1-.094-.155.061-.178.043-.312-.243-.248l-.081-.1c-.2-.016-.443-.024-.671-.022a3.318,3.318,0,0,1-1.4-.17c-.221-.09-.595-.08-.886-.182-.06-.021-.214.1-.325.153.145-.006.042.295.313.132.129.139.437-.054.528.148a.627.627,0,0,1,.031.164,1.45,1.45,0,0,0-.4-.108,4.63,4.63,0,0,0-.808.085c-.214.043-.264-.005-.258-.141v-.038c-.055.163-.182.058-.286.043.012-.044.043-.093.026-.129a.23.23,0,0,0-.136-.1c-.252-.066-.284.109-.393.2l-.455-.006.131-.113-.192-.1-.026-.029-.1-.035-.041.007c-.3.186-.544.163-.706-.114-.007-.012-.038-.016-.058-.023.135.273-.221.221-.379.3.121.087.139.162-.065.181-.269.024-.539.037-.809.053a.34.34,0,0,1-.072-.014c.018-.014.038-.027.053-.041a.78.78,0,0,0,.111-.121c0-.006-.068-.039-.105-.058a.579.579,0,0,1-.04.093,1.679,1.679,0,0,0-.462-.067c-.292.056-.1-.154-.146-.138a1.4,1.4,0,0,0-.264.171.261.261,0,0,1-.136.035c-.032,0-.06-.04-.091-.061a.44.44,0,0,0,.132,0,.49.49,0,0,0,.136-.076c.008-.006-.009-.041-.009-.041l-.355,0c-.142-.013-.339-.077-.416-.032-.2.116.049.171.132.189s.181-.058.275-.093c.117.21-.335.115-.292.286-.1-.12-.352.177-.4-.08,0-.011-.022-.019-.034-.029a.676.676,0,0,0-.157.109c-.028.034-.014.085-.022.129l-.025.127-.173-.05a.847.847,0,0,0,.117-.013c.012,0,.025-.029.02-.039l-.114-.2-.154.068c.039.01.094.012.112.031s.024.079.005.088c-.116.058-.24.105-.361.156.021-.031.046-.06.064-.092.07-.122-.02-.187-.165-.22-.12-.027-.132-.072-.034-.114a1.1,1.1,0,0,1,.252-.042,1.7,1.7,0,0,1-.172-.064c-.321-.154-.144.087-.209.136-.269.2-.474-.126-.73-.051h0c-.1-.054-.17-.22-.318-.016a.181.181,0,0,1-.279-.029l-.641.321a.082.082,0,0,1-.052,0l-.11-.3a.673.673,0,0,1,.226.028c.207.129.219-.12.367-.092a1.577,1.577,0,0,1-.214-.106c-.362-.253-.025.134-.164.1-.036-.01-.1.032-.138.026-.437-.067-.386.262-.594.377a1.164,1.164,0,0,1-.294.069c-.012-.032-.048-.071-.034-.1.159-.277-.3-.239-.4-.4a.655.655,0,0,0-.631-.316c-.073.006-.153-.03-.224-.022-.044.005-.079.055-.119.084.375-.069.374.394.778.289a.472.472,0,0,1,.154.017,3.622,3.622,0,0,1-.354.193c-.015.006-.107-.075-.158-.118-.01-.009,0-.031,0-.047a.849.849,0,0,0-.153.068c-.071.053-.116.135-.2.164-.044.016-.145-.051-.22-.082a1.374,1.374,0,0,0,.244-.047c.027-.01.163-.111-.02-.1a2.491,2.491,0,0,0-.438.132c-.026.007-.1-.041-.105-.036a.228.228,0,0,1-.345-.053c-.146-.164-.152-.33.18-.385.038-.006.1.07.154.109,0-.037.015-.1,0-.105-.121-.031-.318-.1-.36-.065-.184.144-.334.272-.571.053,0,.014-.016.036-.009.04.111.061.222.164.341.168.156.007.143.014.051.078-.032.022-.09.023-.12.046-.075.054.336-.031.049.087-.026.011-.026.217-.136.022a.369.369,0,0,0-.243-.006c-.11.089-.436-.209-.395.119,0,.014-.08.041-.128.051a1.754,1.754,0,0,1-.842.124,1.151,1.151,0,0,1-.113-.028c-.014-.006-.033-.032-.028-.038.29-.306-.106-.2-.261-.23h0a.642.642,0,0,0,.227-.015c.173-.1-.119-.086-.084-.159l-.42.035.013-.007-.009,0,.121-.28c-.223.055-.36-.257-.586-.086-.137.1.27.316-.111.408a.326.326,0,0,1,.1.037c.225.192.287-.164.479-.078l0,.011h0l-.118.062.395.076h0c-.3.115-.022.152.057.217a.135.135,0,0,1,.026.033c-.032.005-.066.013-.1.017a2.694,2.694,0,0,0-1.036.1.139.139,0,0,1-.1-.023.27.27,0,0,1-.048-.136c0-.029.031-.059.049-.089l-.46-.072a.823.823,0,0,1,0,.115c0,.022-.02.061-.036.063-.276.027-.556.04-.83.075s-.565-.137-.836.021c0,0-.032-.013-.032-.013.014-.043.014-.1.052-.124a1.147,1.147,0,0,1,.227-.081c-.236.044.049-.293-.266-.191-.025.009-.048.022-.072.032a.468.468,0,0,1,.049.039l.109.129s-.022.018-.034.028c-.03-.171-.187.053-.251-.043a.325.325,0,0,0-.155-.138.242.242,0,0,0-.185.067.424.424,0,0,0,0,.212c0,.013.027.024.041.036-.021.01-.045.03-.063.027a2.1,2.1,0,0,1-.361-.058c-.1-.032-.212-.152-.269-.137-.25.068.152.029.04.1a1.576,1.576,0,0,1-.922.075,3.388,3.388,0,0,1-1.051-.279c-.191-.079-.262.06-.4.032l.049.175c.112-.023.227-.042.336-.071a.71.71,0,0,0,.14-.072c-.006.04,0,.087-.023.119-.055.067-.159.184-.191.175a6.539,6.539,0,0,0-1.562-.035c-.133,0-.262-.07-.4-.074a1.663,1.663,0,0,0-.294.078c-.029,0-.111-.059-.109-.062.057-.061.121-.118.184-.174a2.158,2.158,0,0,0-.272.072,1.451,1.451,0,0,0-.221.13l-.084.065c-.43-.271-.887.1-1.321-.032l-.1-.03c.01-.01.016-.025.029-.03.121-.036.4-.093.328-.115a2.538,2.538,0,0,0-.81-.083c-.1,0-.193.113-.281.181-.026.021-.024.09-.031.09l-.821-.05.2-.056c.007,0,0-.027,0-.041l-.411,0c0,.015,0,.035.014.044.032.024.07.043.106.065a1.24,1.24,0,0,1-.162.018c-.465-.007-.932,0-1.394-.035a1.3,1.3,0,0,1-.411-.2.15.15,0,0,0-.086-.016c-.031.007-.072.03-.076.049-.076.325-.251-.043-.37.022a1.2,1.2,0,0,1-.157-.106l-.076-.05c-.014.024-.036.048-.038.073s.031.028.049.043l.047.048c-.025.011-.057.034-.074.03a2.662,2.662,0,0,1-.6-.183c-.247-.146.331-.042.145-.2-.029-.024-.045-.068-.078-.075-.122-.027-.248-.047-.373-.067v-.638a1.509,1.509,0,0,0,.438-.048c.05-.014.55-.151.643.152.253-.164.477.141.736.025.045-.02.138.015.208.025l-.047.173-.01.043a.244.244,0,0,0,.085-.013.318.318,0,0,0,.08-.072c-.12-.082-.08-.121.063-.111.034,0,.194-.111.139.046a1.432,1.432,0,0,0,.2-.023c.013,0-.008-.067.012-.078a2.742,2.742,0,0,1,1.849-.024c.217.043.553-.123.709-.051.239.11.36-.08.555-.023a2.456,2.456,0,0,0,.529.034,3.769,3.769,0,0,1,1.165,0,1.176,1.176,0,0,0,1-.1c.1-.075.458.016.693.052.336.051.667.122,1,.184.086-.337.446-.172.7-.221.31-.058.663.16.928-.087.008-.006.039,0,.058,0l-.055.385c0,.015-.032.029-.049.043.023.006.062.022.068.016l.448-.366a.541.541,0,0,1,.093-.075c.018-.009.059,0,.088.007-.027.019-.069.036-.076.058a.286.286,0,0,0,0,.107,1.52,1.52,0,0,0,.34-.01,3.35,3.35,0,0,1,.35-.126,3.952,3.952,0,0,1,1.38.039c.309.082.621-.172.925-.005.075.042.1.13.153.2l-.007,0h0c-.055.113-.134.016-.15-.007-.15-.222-.077.03-.094.086l-.032,0a.335.335,0,0,1-.035-.044l-.033.035.068.009c.019.019.029.017.032,0,.132.016.263.032.4.043.015,0,.04-.059.059-.091l-.212-.031,0,0h0c.072-.049.171-.139.206-.129.188.061.473-.027.569.2.022.051.242.06.372.084.005,0,.045-.048.037-.067-.031-.074-.022-.2-.217-.111-.022.01-.07-.013-.106-.022a.957.957,0,0,1,.311-.134c.47-.02.942-.017,1.414-.02.085,0,.171.01.256.015l-.175.022c.023.016.05.048.069.045a2.327,2.327,0,0,1,.335-.056l1.994.055c.695.019,1.39.05,2.084.048.362,0,.723-.082,1.085-.093l1.719-.011c.13,0,.356.061.4-.125.476.206,1.017-.1,1.483.09.279.112.436-.093.659-.084a11.772,11.772,0,0,1,2.073.074c.279.061.618-.12.918.059.015.009.184-.174.393-.155a3.9,3.9,0,0,1,1.186.064,1.248,1.248,0,0,0,.722-.087c.306-.12-.033.326.274.144.012-.007.072.027.081.021.053-.037.089-.1.148-.114.039-.01.1.048.184.075a3.047,3.047,0,0,0,.618.25c.434.022.913.077,1.336.081.364,0,.1.106.122.13.15.189.725.091.646.421.207-.1.254.339.5.158.022-.015.138.044.212.071l-.094.1c.22.084.632.2.314.408-.335.214.145.06.1.145a.315.315,0,0,0,0,.185c0,.012.093.04.093.04a.98.98,0,0,1-.078.182.848.848,0,0,0-.123-.132.265.265,0,0,0-.082-.029.829.829,0,0,1,.013.091,1.149,1.149,0,0,1-.016.136c.194-.3.005.551.27.078.018-.035.149-.063.158-.053a.881.881,0,0,1,.15.266.239.239,0,0,1-.017.135,1.465,1.465,0,0,0,.146-.165.885.885,0,0,0,.06-.113c.01.032.031.068.026.1a.92.92,0,0,1-.1.294c-.01.018-.078.005-.12.007.03.075.1.188.067.223-.125.122-.04.229.015.315,0,0-.049.03-.075.046a2.276,2.276,0,0,0,.173.149c.035.025.117.032.123.055s-.03.083-.067.1a.4.4,0,0,1-.146-.01l-.075-.007c.022.033.041.093.067.1.107.007-.1.228.152.122a.608.608,0,0,1,.1-.022l-.163.333c.392.077-.428.27.055.344.009,0,0,.077,0,.119-.1-.166-.049.28-.169.023-.006-.014-.038-.022-.058-.033a.125.125,0,0,0-.022.034c-.022.086-.1.211-.052.251.11.093.323.393.254.509-.018.03-.208-.021-.284.013-.2.09-.063.058.04.063a.541.541,0,0,1,.253.079c-.061.387.2.79-.089,1.167-.012.015.014.053.035.074a.121.121,0,0,0,.074,0c.051-.009.1-.023.152-.036l.009.123a.271.271,0,0,0-.066-.054.093.093,0,0,0-.064.022,2.414,2.414,0,0,0-.207.318c-.027.056.007.128-.005.191a.222.222,0,0,1-.128.025.8.8,0,0,1-.1-.156l-.164.076h0v0l0,0-.192-.27-.018.254c0,.062,0,.175.019.177.155.016.19-.067.2-.164h0c.176.111.359.217.519.34.023.018-.078.117-.1.182-.082.28.439.295.429.551,0,.061.075.132.054.183s-.12.09-.185.133c0-.082,0-.164-.014-.245,0-.008-.066-.011-.1-.015.048.067-.043.112-.049.143a2.278,2.278,0,0,0-.011.52v.1a.546.546,0,0,0-.1-.053.113.113,0,0,0-.073.011l-.028.2a.235.235,0,0,1,.069-.047c.065-.018.134-.028.2-.041a2.132,2.132,0,0,1,.043.231c.026.276.063.554.064.83s-.052.564-.053.848c0,.16.094.324.073.481a1.053,1.053,0,0,1-.212.563c-.257.291-.094.6-.151.9-.011.059.183.14.283.211-.254.031-.253.208-.347.334a.982.982,0,0,1-.27.176h-.008l-.2-.193-.137.258.336-.065,0,0,.005,0c.676-.023.088.3.195.425a1.17,1.17,0,0,0,.2.151c-.06.035-.22.05-.021.126.066.024.079.128.116.2-.085-.037-.114-.045-.274.124a.922.922,0,0,1-.186-.04l.039.2-.141.161c-.033.038-.039.129-.005.152a1.476,1.476,0,0,0,.283.123,2.1,2.1,0,0,1-.091-.23l-.046-.206.147-.161a.293.293,0,0,0,.273-.112c-.01.284-.306.548-.1.847-.243-.111-.288.081-.407.156-.018.012-.015.042-.022.064.708-.049.1.337.271.481.225.19-.349.414.013.62-.352.065-.22.265-.221.435a2.111,2.111,0,0,1-.053.332c0,.008.008.025.008.025l-.4.129a1.285,1.285,0,0,1,.375-.058c.139.022.363.1.374.164a4.666,4.666,0,0,0,.054.866c.081.224-.309.273-.2.374.288.273-.325.3-.2.493.149.224.1-.181.252-.059.01.008.261-.181.28-.034.028.2.172.451-.076.642a1.555,1.555,0,0,1-.307.141c.126.012.051.251.281.143a.8.8,0,0,0,.065.213c.153.243-.132.439-.113.666-.267-.074-.145.124-.126.12.556-.14.219.226.216.271a.951.951,0,0,1-.183.555c-.124.152-.023-.163-.178-.087-.017-.058-.021-.181-.128-.085-.057.05-.012.226.066.295a.768.768,0,0,1,.215.763,1.515,1.515,0,0,0,.148.689c.058.139,0,.275-.218.389-.044.023.105.219.053.279-.2.225.485.388.056.608.507.206-.315.145-.1.292l.039.029c.09-.044.206-.246.26-.1a.719.719,0,0,1,.014.712.511.511,0,0,0-.053.41c.039.144-.037.262-.045.375-.013.184.091.381.025.582-.011.034.068.085.105.128-.2-.065-.246.28-.505.106-.038-.025-.079-.221-.234-.067a1.136,1.136,0,0,0,.251.138c.233.066.279.5.071.686-.042.037-.089.127-.073.137.211.134.269.207-.086.158-.009,0-.035.04-.035.04.123.065.275.114.2.264.216-.034.146.093.112.142-.156.218.341.155.244.338h.1l-.1.076c.111.056.313.177.153.217-.407.092-.2.368-.24.55-.013.157.122.368-.115.478a.588.588,0,0,1-.586-.106.413.413,0,0,0-.274-.013c-.05.013-.063.105-.093.163.059-.025.132-.084.178-.074a.678.678,0,0,1,.325.136c.075.075.018.167-.139.137.04.033.117.067.112.1-.02.208-.227.323-.443.4a2.676,2.676,0,0,0-.281.146,1.032,1.032,0,0,1,.165.093c.025.021.019.063.026.1-.26-.12-.279.187-.473.181a.854.854,0,0,1-.183-.023,2.361,2.361,0,0,1-.25-.089c-.069.12.111.083.15.125.1.108.149.239-.091.356-.083-.216-.463.409-.462-.021-.163.081-.337.155-.506.229-.2.1-.524.3-.617.261-.349-.154-.387.178-.626.114-.041-.011-.055-.05-.08-.076.231.031-.167-.22.166-.142a.575.575,0,0,0,0-.2A.248.248,0,0,0,1203.252,150.434Zm-26.5-31.994-.486-.161a.775.775,0,0,0-.03.173,3.7,3.7,0,0,0,.386.046Zm1.1.518c-.11-.025-.118-.062-.3.047l.021-.017.008-.007.017-.013h0l-.017.013-.008.007-.064.051a1.083,1.083,0,0,0,.4.064C1178.071,119.054,1177.967,118.985,1177.849,118.957Zm.507-.259-.357-.162-.107.188c.041.025.086.07.113.065C1178.124,118.768,1178.239,118.731,1178.355,118.7Zm.554-.159a1.271,1.271,0,0,0-.387-.075c-.167.035.213.15-.029.207a1.146,1.146,0,0,0,.223-.005C1178.767,118.655,1178.8,118.611,1178.909,118.54Zm1.35.278a1.623,1.623,0,0,0-.344-.189c-.059-.018.1.258-.3.082l.028.275Zm3.146.021a1.418,1.418,0,0,0-.7-.119c-.529.1.146.16.115.179.085-.173.188.017.3.108C1183.064,118.814,1183.469,118.863,1183.4,118.838Zm1.03-.252c-.045-.178-.19-.262-.576-.215l-.287.1.36.051a.081.081,0,0,1,.042.022l.279.283c.185-.133-.2-.109-.113-.217.013-.015.009-.039.013-.058a.526.526,0,0,0,.152.08A.212.212,0,0,0,1184.435,118.586Zm4.25-.466a.131.131,0,0,0-.094-.044,1.282,1.282,0,0,0-.372.027,1.57,1.57,0,0,0-.345.208c-.014.009-.008.049.007.061a.142.142,0,0,0,.086.026.463.463,0,0,1,.582-.063h.084c-.021-.02-.054-.038-.06-.06a.756.756,0,0,1-.013-.135c.02,0,.045,0,.057.008a.651.651,0,0,1,.068.065C1188.685,118.182,1188.7,118.147,1188.685,118.121Zm5.471.614c-.168-.111-.409.121-.578-.054-.02.035-.068.077-.056.105.12.267.333.015.5.045C1194.179,118.878,1194.183,118.753,1194.156,118.735Zm5.94-.179-.059.046-.165-.182c-.111.058-.263.193-.2-.06a.821.821,0,0,0,0-.2c-.018,0-.048,0-.052.007-.087.146-.164.155-.231-.007-.03.011-.076.015-.086.032a.09.09,0,0,0-.007.087,2.4,2.4,0,0,1,.149.231.155.155,0,0,1,.009.086l0,0c0,.014,0,.011,0,0,.38.211.086-.155.281-.018.086.06.062.2.112.3a.532.532,0,0,0,.227-.022A1.124,1.124,0,0,0,1200.1,118.556Zm2.44-.087c-.031-.254-.157-.023-.244-.016s-.171.051-.242-.051c-.2.423.175.225.3.234C1202.405,118.639,1202.542,118.523,1202.536,118.469Zm1.048.011a4.539,4.539,0,0,0-.865-.041c-.047,0-.142.08-.132.1.182.347.484-.018.528,0C1203.483,118.642,1203.612,118.487,1203.584,118.479Zm3.716,3.937c-.243.031-.13.2-.187.3h0a.549.549,0,0,0-.066-.119.244.244,0,0,0-.121-.084c-.235-.042-.247.145-.369.22-.013.007.025.062.039.1a1.427,1.427,0,0,1,.126-.081c.053-.027.112-.046.169-.068a.263.263,0,0,0,0,.045.411.411,0,0,0,.03.118.135.135,0,0,0,.077.022c.041-.047.076-.1.112-.147h0l0,.005,0-.006c.146-.026.3-.046.282-.2C1207.391,122.477,1207.326,122.414,1207.3,122.417Zm-.958.554.286-.465-.042-.1c-.31.1-.08.391-.306.523Zm.39,7.039c0-.125.082-.022.2.094-.02-.165-.03-.245-.04-.326-.189.139-.606.221-.516.418C1206.44,130.332,1206.729,130.257,1206.732,130.01Zm-.3,4.483a2.78,2.78,0,0,0,.181-.465c.009-.041-.13-.1-.2-.152l-.11.506Zm.065.7.13-.115c-.336-.127-.068-.285-.055-.471a.217.217,0,0,0-.35.108A1.856,1.856,0,0,0,1206.5,135.194Zm-.546,2.3.062-.193.054-.237c.322.062.1-.119.136-.181.015-.022,0-.055,0-.083a.868.868,0,0,0-.194.032c-.3.132-.108.324-.086.491C1205.929,137.382,1205.708,137.423,1205.956,137.5Zm.534.012c.476-.164.19-.457.226-.695,0-.007-.02-.016-.031-.024l-.236.679C1206.444,137.483,1206.481,137.5,1206.49,137.51Zm.507.1a3.145,3.145,0,0,0,.175-.348c.01-.026-.062-.071-.1-.107-.071.111-.149.219-.208.333C1206.857,137.512,1206.932,137.555,1207,137.613Zm-.724,1.272c.028-.07.031-.143.079-.186.192-.17-.182-.28-.069-.436-.039-.006-.091-.027-.118-.015-.194.083,0,.14.025.211a.392.392,0,0,1,.006.134c-.08,0-.187-.187-.218-.013C1205.962,138.665,1206.159,138.773,1206.272,138.885Zm.085.542.132-.228c-.145-.039-.223.182-.4.058-.024-.017-.1.011-.158.018Zm.584,4.509.225-.23-.049-.03c-.311-.05-.171.134-.265.183Zm.017,3.051c.269-.133-.308-.258-.005-.391-.125-.073-.161-.024-.184.1l-.169.03C1206.742,146.8,1206.945,146.816,1206.959,146.987Z" transform="translate(-1169.464 -117.763)" fill="#ffce00"/>
        </g>
      </g>
    </g>
    
  </g>
</svg>
