<svg xmlns="http://www.w3.org/2000/svg" width="124.038" height="35.285" viewBox="0 0 124.038 35.285">
  <g id="Group_88" data-name="Group 88" style="mix-blend-mode: multiply;isolation: isolate">
    <path id="Path_10148" data-name="Path 10148" d="M1672.555,961.148H1558.042c-1.924,0-3.484-1.2-3.484-2.686V930.723c0-1.483,1.56-2.686,3.484-2.686h114.513c1.924,0,3.484,1.2,3.484,2.686v27.739C1676.039,959.945,1674.48,961.148,1672.555,961.148Z" transform="translate(-1553.28 -926.95)" fill="#4c1400"/>
    <g id="Group_87" data-name="Group 87">
      <g id="Group_83" data-name="Group 83" transform="translate(38.56 33.111)">
        <path id="Path_10149" data-name="Path 10149" d="M1598.323,970.681v-.8c.148.04.319.04.352-.2.073.028.171.04.212.087.155.179.239.158.39-.021.106-.125.289-.072.4.066a1.5,1.5,0,0,0,.183-.076c.031.107.043.041.11.011a.566.566,0,0,1,.359-.046c.176.065-.062.084-.046.088a.909.909,0,0,0,.416.05c.523-.2,1.069,0,1.594-.088.006,0,.012-.008.016-.008.484.112.952-.144,1.5.057a2.681,2.681,0,0,0,1.469-.154c.344-.1.489.089.727.138a2.012,2.012,0,0,0,.288-.024c.378.013.761.009,1.132.06.194.026.361.179.557.217a.392.392,0,0,0,.287-.2c.116-.314.427.064.561-.126.218.117.554.135.543.446.046-.091.066-.2.144-.268.255-.21.495-.031.757.02a.635.635,0,0,0,.615-.127c-.051-.008-.1-.015-.151-.027,0,0,0-.036.006-.055a2.392,2.392,0,0,1,.285.049.164.164,0,0,1,.083.1c.006.015-.036.054-.066.066a.681.681,0,0,1-.141.028c.023.022.053.067.068.063.09-.02.248-.042.254-.079.038-.242.305.026.369-.124a.927.927,0,0,0,.913.054c.13-.038.315.022.424-.032.265-.134.221.075.3.152a.514.514,0,0,0,.16.062.866.866,0,0,1-.088-.114c-.012-.021,0-.051,0-.078.193.018.319.163.591-.033.208-.151.74.05,1.1-.01a.65.65,0,0,1,.707.186c.135-.259.416-.284.7-.295.347-.014.7,0,1.041-.031.271-.025.014.325.139.191a.615.615,0,0,1,.557-.172c.26.021.586-.115.776.152,0,0-.092.052-.141.079l.3.078v.01l.042.013.005-.037c.161-.293.443.005.67-.093a1.806,1.806,0,0,1,.67-.06c.132,0,.359-.135.371.13,0,.018.089.055.124.046.081-.019.2-.046.222-.094.056-.139.233-.219.517-.205a3.342,3.342,0,0,1,.876.049c.422.148.859-.014,1.306.126a2.016,2.016,0,0,1,.677.228c.127.092-.109-.163.141-.167.5-.008.045.549.486.51.171-.015.456.244.509-.121-.029.009-.065.029-.085.022-.054-.02-.1-.056-.155-.078-.193-.079-.142-.2-.091-.328.138.047.381.079.394.144.035.175.2.055.262.121-.018-.038-.037-.075-.051-.113,0-.006.026-.027.04-.027.241,0,.481,0,.722.007l-.158.157c.218-.016.527-.114.635-.031.2.152.489-.187.584.122.1-.034.19-.206.312-.021.111-.209.439.179.531-.129a2.963,2.963,0,0,1,.339.034l1.16.13c-.252.2.239.2.14.369-.012.021.026.061.041.093.01-.032.02-.064.031-.095l0,0h0c.361.37.462-.06.672-.152h0l.005,0c.072.121.154.235.35.2.031-.006.048-.061.072-.094-.142-.031-.217-.257-.422-.1l0,0-.007,0c-.21-.061-.445-.107-.294-.371.02-.036.228-.083.009-.129a.238.238,0,0,0-.123.032c.057.25-.155.421-.264.62h0c-.028-.106-.122-.247-.072-.311a.928.928,0,0,1,1.076-.382,6.3,6.3,0,0,0,1.473-.023c.13,0,.33-.1.321.133.034-.04.09-.118.1-.115.521.2,1.141-.114,1.637.211.01.007.048-.009.068-.02.056-.031.109-.065.164-.1a.936.936,0,0,1-.12,0c-.015,0-.025-.027-.037-.042a1.17,1.17,0,0,1,.3-.09c.4-.015.806-.021,1.209-.015a.765.765,0,0,1,.242.1c-.1.024-.2.053-.307.071a.581.581,0,0,1-.231.012c-.264-.071-.563.12-.807-.077a.429.429,0,0,0-.059.112c-.043.216.075.088.169.061s.238-.052.268-.019c.065.069-.007.207.159.02.089-.1.483-.083.7-.02.377.11.527-.294.879-.208a2.082,2.082,0,0,0,.44-.031c.467,0,.934.007,1.4.02a.238.238,0,0,1,.159.1.523.523,0,0,1,.038.188c0-.061,0-.124.013-.184a.315.315,0,0,1,.04-.083c.013.014.034.026.038.042.019.085.033.17.049.256.17-.046.16-.146.125-.262-.006-.019.045-.053.075-.076.009-.006.033,0,.051,0a.8.8,0,0,1-.032.079c-.086.159.04.218.181.279a1.024,1.024,0,0,1,.17.116,1,1,0,0,0-.1.049c-.014.01-.02.031-.028.046a.551.551,0,0,0,.165.009.111.111,0,0,0,.061-.095c-.01-.118-.043-.233-.051-.351-.01-.158.034-.172.273-.095a.866.866,0,0,1,.145.074c.191-.336.453-.026.664-.023.4,0,.814.183,1.144-.162.006-.007.06.015.089.028.083.041.169.126.242.118.219-.022.429-.095.648-.122a8.248,8.248,0,0,1,.883-.061c.06,0,.124.1.186.152-.012.211.041.359.355.252l.1.116c.233.006.464.02.7.016a2.933,2.933,0,0,1,1.4.194c.221.1.6.092.887.209.061.025.214-.112.325-.174-.145.007-.042-.339-.313-.152-.129-.16-.437.061-.529-.17a.8.8,0,0,1-.031-.187,1.348,1.348,0,0,0,.4.124,4.063,4.063,0,0,0,.808-.1c.214-.049.264.007.257.162,0,.015,0,.029,0,.043.055-.186.183-.066.286-.049-.012.05-.043.106-.026.148a.231.231,0,0,0,.135.112c.251.076.284-.123.394-.227l.454.007-.131.13.192.118.026.033.1.041.042-.009c.3-.214.544-.187.707.13.007.014.038.018.057.027-.135-.313.222-.254.38-.344-.122-.1-.14-.186.065-.207.268-.028.539-.042.809-.06a.279.279,0,0,1,.072.016c-.018.016-.038.031-.054.048a.81.81,0,0,0-.111.139c0,.007.068.043.1.067a1.012,1.012,0,0,1,.039-.107,1.469,1.469,0,0,0,.464.078c.291-.064.1.176.145.159a1.448,1.448,0,0,0,.265-.2.231.231,0,0,1,.135-.04c.032,0,.061.045.09.07a.387.387,0,0,0-.132,0,.482.482,0,0,0-.135.088c-.009.007.005.047.009.047.118,0,.236,0,.354,0,.142.016.339.089.417.037.2-.133-.049-.2-.132-.216s-.182.067-.275.106c-.117-.241.336-.132.292-.328.095.139.352-.2.4.092,0,.012.021.022.033.033a.764.764,0,0,0,.158-.124c.028-.039.014-.1.021-.149s.017-.1.025-.145l.175.058a.854.854,0,0,0-.117.014.046.046,0,0,0-.02.045c.036.078.076.155.115.232l.153-.077c-.039-.012-.095-.014-.113-.037s-.024-.09,0-.1c.116-.066.24-.12.361-.178-.021.035-.046.068-.064.1-.07.14.02.214.165.251.119.032.132.083.034.131a.97.97,0,0,1-.253.048,1.669,1.669,0,0,1,.174.073c.32.176.143-.1.209-.155.269-.226.474.144.731.059h0c.1.062.17.253.317.018a.168.168,0,0,1,.279.033c.213-.123.426-.246.641-.368a.077.077,0,0,1,.052,0c.038.115.074.231.11.346-.077-.009-.176,0-.226-.032-.207-.146-.219.137-.367.106a1.432,1.432,0,0,1,.214.121c.363.29.026-.153.165-.109.037.011.1-.037.138-.03.437.076.386-.3.595-.433a1.1,1.1,0,0,1,.294-.079c.013.037.049.082.034.11-.159.318.3.274.4.462a.639.639,0,0,0,.631.363c.073-.007.153.033.224.025.044-.005.079-.062.118-.1-.375.079-.375-.451-.779-.331a.425.425,0,0,1-.154-.02,3.69,3.69,0,0,1,.354-.221c.016-.008.107.085.158.135.01.009,0,.035,0,.053a.759.759,0,0,0,.152-.078c.071-.061.116-.154.2-.188.044-.018.146.06.221.094a1.3,1.3,0,0,0-.244.054c-.027.012-.164.127.02.11a2.305,2.305,0,0,0,.439-.151c.026-.009.1.047.1.041.162-.163.3,0,.346.06.146.188.152.378-.18.441-.038.008-.1-.081-.154-.124,0,.042-.014.116,0,.12.122.036.319.112.36.074.185-.164.335-.313.572-.061,0-.015.015-.041.009-.045-.112-.07-.222-.187-.34-.193-.157-.008-.144-.016-.051-.089.031-.026.089-.028.119-.054.075-.061-.336.035-.049-.1.026-.012.026-.248.135-.026a.324.324,0,0,0,.243.008c.11-.1.436.239.394-.136,0-.016.08-.047.128-.059.276-.067.528-.231.842-.142a1,1,0,0,1,.114.032c.015.007.033.037.027.043-.29.349.106.222.261.263h0c-.078,0-.177-.015-.227.018-.174.112.118.1.083.181l.42-.04-.015.009.009,0-.121.32c.222-.062.359.295.586.1.137-.118-.269-.362.11-.468a.316.316,0,0,1-.1-.042c-.225-.221-.288.188-.48.089l.005-.013h0l.118-.072-.4-.087h0c.3-.132.022-.175-.057-.248a.24.24,0,0,1-.026-.038c.033-.007.066-.015.1-.02.344-.043.715.078,1.036-.118a.123.123,0,0,1,.1.027.341.341,0,0,1,.049.155c0,.033-.031.067-.049.1l.46.083a.961.961,0,0,1,0-.131c0-.026.02-.07.036-.072.276-.031.555-.047.83-.086s.566.156.837-.024a.062.062,0,0,1,.032.015c-.015.049-.015.114-.053.141a1.058,1.058,0,0,1-.227.093c.237-.05-.048.336.267.22a.7.7,0,0,0,.072-.037.493.493,0,0,1-.049-.044c-.038-.048-.075-.1-.108-.146,0,0,.021-.021.034-.032.03.2.187-.061.251.049a.339.339,0,0,0,.153.158.225.225,0,0,0,.186-.078.552.552,0,0,0,0-.242c0-.015-.026-.028-.041-.042.021-.011.045-.034.063-.032a1.9,1.9,0,0,1,.361.067c.1.037.212.174.268.156.25-.078-.151-.032-.038-.109a1.377,1.377,0,0,1,.922-.085,3.052,3.052,0,0,1,1.051.318c.191.091.263-.069.4-.037l-.049-.2c-.112.026-.227.048-.337.081a.682.682,0,0,0-.14.083c.007-.046,0-.1.023-.136.055-.076.16-.21.191-.2a5.653,5.653,0,0,0,1.562.04c.133,0,.263.081.4.084.1,0,.193-.067.294-.089.029-.006.111.067.108.071-.056.07-.121.135-.184.2a1.981,1.981,0,0,0,.273-.083,1.4,1.4,0,0,0,.22-.15c.032-.023.084-.074.085-.073.429.311.888-.111,1.321.037l.1.034c-.009.012-.015.029-.028.033-.121.043-.4.107-.329.133a2.249,2.249,0,0,0,.811.095c.1,0,.193-.13.28-.207.026-.023.024-.1.031-.1.273.015.547.037.821.058-.066.02-.134.039-.2.063-.008,0,0,.032,0,.048l.411,0c-.005-.017,0-.04-.015-.05a1.071,1.071,0,0,0-.106-.073,1.053,1.053,0,0,1,.161-.021c.466.009.934,0,1.4.04.144.012.272.147.411.223a.14.14,0,0,0,.087.02c.03-.009.072-.034.076-.057.077-.373.25.049.37-.026a1.1,1.1,0,0,1,.158.122l.077.058a.282.282,0,0,0,.038-.083c0-.015-.032-.032-.049-.049s-.031-.037-.047-.055c.025-.012.056-.039.073-.034a2.454,2.454,0,0,1,.6.209c.247.168-.331.049-.144.233.028.028.044.079.078.088.123.03.248.053.373.077v.732a1.307,1.307,0,0,0-.438.055c-.05.016-.55.172-.644-.175-.253.187-.477-.162-.736-.029-.044.023-.137-.018-.207-.029l.046-.2c0-.016.007-.032.01-.049a.239.239,0,0,0-.086.015.377.377,0,0,0-.08.083c.12.093.081.139-.063.127-.033,0-.193.127-.138-.054a1.38,1.38,0,0,0-.2.027c-.014,0,.008.078-.012.089a2.417,2.417,0,0,1-1.849.028c-.217-.049-.554.141-.71.059-.238-.126-.359.091-.555.026a2.124,2.124,0,0,0-.528-.038c-.381-.022-.732.163-1.165,0a1.045,1.045,0,0,0-1,.109c-.1.086-.458-.019-.693-.06-.336-.059-.667-.14-1-.21-.085.386-.445.2-.7.252-.31.067-.663-.182-.929.1-.008.008-.038,0-.058,0,.017-.147.033-.295.055-.441,0-.018.032-.033.049-.05-.024-.007-.062-.025-.069-.019-.152.139-.3.279-.448.42a.525.525,0,0,1-.093.086c-.018.01-.058,0-.088-.009.026-.021.069-.04.077-.066a.278.278,0,0,0,0-.123,1.286,1.286,0,0,0-.34.01c-.124.031-.228.132-.35.144a3.44,3.44,0,0,1-1.38-.044c-.309-.094-.622.2-.925.006-.076-.048-.1-.149-.153-.226l.007-.005h0c.055-.13.134-.019.15.009.15.254.077-.034.094-.1l.032,0a.36.36,0,0,1,.035.049l.033-.04-.068-.009c-.019-.021-.029-.021-.032,0-.132-.019-.264-.037-.4-.049-.015,0-.039.067-.059.1l.212.036,0,.005h0c-.072.055-.171.16-.206.147-.188-.07-.473.031-.569-.232-.022-.059-.242-.068-.373-.1-.005,0-.044.055-.036.077.031.084.022.227.216.126.021-.01.07.016.106.026-.1.054-.2.148-.31.153-.471.022-.943.02-1.414.023-.086,0-.171-.012-.257-.018l.175-.026c-.023-.018-.05-.054-.069-.05a2.052,2.052,0,0,1-.335.063c-.665-.015-1.331-.041-2-.062-.7-.021-1.39-.058-2.085-.055-.362,0-.722.095-1.085.106-.572.019-1.147-.007-1.719.013-.131,0-.357-.07-.4.142-.477-.235-1.018.114-1.484-.1-.279-.129-.436.106-.659.1a10.251,10.251,0,0,1-2.073-.084c-.279-.069-.619.139-.918-.067-.015-.011-.183.2-.393.177-.389-.042-.779.107-1.186-.073a1.1,1.1,0,0,0-.722.1c-.306.136.034-.374-.274-.165-.011.009-.072-.031-.081-.023-.053.042-.088.114-.148.131-.038.011-.107-.056-.165-.084-.177-.085-.368-.251-.531-.235a2.821,2.821,0,0,0-1.061.277c-.25.143-.124-.064-.152-.08-.222-.128-.516.251-.693-.073-.046.195-.412-.132-.4.169,0,.026-.106.054-.163.081l-.038-.136c-.185.083-.44.3-.5-.046-.066-.37-.115.067-.173-.01a.428.428,0,0,0-.181-.1c-.012-.005-.069.054-.072.052-.057-.044-.11-.092-.164-.14.06-.013.122-.022.181-.04.023-.007.039-.032.059-.048-.034-.012-.069-.021-.1-.035-.049-.021-.1-.045-.146-.068.283.265-.623-.2-.164.185a.171.171,0,0,1,.015.147,1.514,1.514,0,0,1-.311.041.453.453,0,0,1-.141-.047c.049.054.1.11.149.162a1.072,1.072,0,0,0,.1.082.3.3,0,0,1-.1-.005,2.533,2.533,0,0,1-.288-.146c-.018-.011,0-.067.006-.1-.085.011-.213.056-.249.026-.134-.112-.238-.049-.359,0-.007,0-.041-.041-.062-.063-.068.049-.14.093-.2.147-.034.03-.043.1-.075.1a.169.169,0,0,1-.132-.056c-.021-.03.007-.082.013-.125l.01-.063c-.045.019-.126.035-.129.057-.009.091-.308-.081-.165.129a.307.307,0,0,1,.03.089l-.449-.139c-.1.334-.363-.364-.463.047a1.051,1.051,0,0,1-.16,0c.225-.082-.376-.042-.031-.144.02-.005.03-.032.043-.049a.176.176,0,0,0-.045-.02c-.116-.019-.285-.084-.338-.044a1.147,1.147,0,0,1-.685.216c-.04-.015.027-.177-.018-.242-.12-.173-.077-.053-.084.034s-.079.217-.106.215c-.522-.051-1.065.167-1.573-.075-.02-.01-.072.012-.1.029s-.013.043-.007.063a1.237,1.237,0,0,0,.048.129l-.165.009a.305.305,0,0,0,.072-.057c.007-.011-.013-.046-.031-.054a3.758,3.758,0,0,0-.428-.176,1.8,1.8,0,0,0-.256,0c-.02,0-.049-.1-.034-.109a1.237,1.237,0,0,1,.209-.086l-.1-.139,0,0h0l0,0,.365-.163c-.115-.005-.229-.014-.344-.015a.882.882,0,0,0-.238.015c-.021.131.09.161.221.166l0,0c-.15.15-.292.3-.458.441-.025.021-.158-.066-.245-.083-.378-.07-.4.373-.743.364-.083,0-.178.065-.246.046s-.121-.1-.18-.158c.11,0,.222,0,.331-.012.01,0,.014-.057.021-.087-.09.04-.152-.037-.193-.043a4.794,4.794,0,0,0-.7-.008c-.047,0-.093,0-.139,0a.414.414,0,0,0,.071-.081c.009-.017,0-.061-.014-.062-.09-.012-.182-.017-.273-.024.021.02.054.036.063.059a1.748,1.748,0,0,1,.055.171c-.1.013-.206.031-.311.037-.372.021-.745.054-1.119.054s-.761-.044-1.141-.045c-.216,0-.438.081-.648.062a1.987,1.987,0,0,1-.758-.181c-.393-.218-.814-.08-1.216-.129-.079-.009-.189.156-.285.241-.042-.215-.279-.215-.45-.295-.1-.047-.161-.151-.238-.231v-.007h0l.261-.169-.348-.116c.029.1.059.19.088.285l0,0,0,0c.032.576-.4.075-.572.167a1.181,1.181,0,0,0-.2.166c-.048-.051-.068-.187-.17-.017-.033.055-.173.067-.263.1.05-.072.061-.1-.167-.233a.525.525,0,0,1,.054-.158l-.271.033-.216-.121a.261.261,0,0,0-.205,0,1.1,1.1,0,0,0-.165.241c.1-.026.2-.06.309-.078s.185-.027.278-.038c.092.051.16.09.217.125-.01.088.023.168.152.232-.382-.008-.739-.26-1.141-.087.149-.207-.108-.245-.211-.346-.015-.015-.056-.014-.085-.019.065.6-.454.087-.647.231-.256.191-.559-.3-.836.011-.087-.3-.358-.187-.587-.187-.149,0-.3-.03-.446-.045-.012,0-.033.008-.034.006q-.088-.17-.174-.342c.029.107.1.221.077.319-.03.118-.13.308-.22.318a10.049,10.049,0,0,0-1.168.046c-.3.069-.368-.263-.5-.173-.369.245-.407-.276-.665-.169-.3.127.245.083.08.215-.01.009.244.222.046.239-.276.023-.608.146-.865-.065a1.229,1.229,0,0,1-.19-.261c-.015.106-.338.043-.193.239a1.541,1.541,0,0,0-.286.054c-.328.13-.592-.112-.9-.1.1-.227-.167-.123-.16-.106.189.472-.305.186-.366.183a1.836,1.836,0,0,1-.749-.156c-.2-.106.22-.02.118-.152.078-.015.243-.017.116-.108a.507.507,0,0,0-.4.055,1.477,1.477,0,0,1-1.029.183,3.05,3.05,0,0,0-.928.126.49.49,0,0,1-.525-.186c-.031-.037-.3.089-.375.044-.3-.17-.524.413-.819.048-.278.432-.2-.267-.394-.087-.013.012-.042.03-.039.032.06.078.332.176.138.221a1.468,1.468,0,0,1-.958.012,1.06,1.06,0,0,0-.553-.045,1.958,1.958,0,0,1-.505-.037,4.671,4.671,0,0,1-.785.021c-.045-.009-.113.058-.171.089.088-.169-.378-.209-.143-.429.034-.032.3-.068.089-.2a.994.994,0,0,0-.185.214c-.089.2-.674.237-.924.06a.349.349,0,0,0-.184-.061c-.181.179-.279.228-.213-.074,0-.007-.054-.03-.054-.029-.087.1-.154.233-.356.171.046.184-.126.124-.192.1-.294-.132-.208.29-.456.206v.082l-.1-.081c-.075.094-.239.266-.292.129-.137-.343-.419-.169-.62-.159-.175.009-.361.186-.525.022a.4.4,0,0,1-.034-.51.233.233,0,0,0-.066-.225c-.034-.035-.156-.009-.239-.009.055.037.152.072.155.112a.5.5,0,0,1-.052.314c-.058.086-.172.084-.2-.049-.022.047-.03.123-.07.138a.7.7,0,0,1-.6-.094,1.624,1.624,0,0,0-.291-.088.807.807,0,0,1,.009.176c0,.031-.044.06-.069.089-.044-.258-.317-.031-.43-.14a.627.627,0,0,1-.1-.125c-.042-.068-.074-.141-.111-.212-.145.074.019.132.012.192-.015.148-.071.29-.308.284.068-.256-.566.208-.329-.222-.174.022-.35.032-.519.07-.205.046-.519.211-.584.157-.271-.224-.342.163-.528.079-.032-.014-.043-.06-.065-.091.2.044-.142-.259.146-.156a.876.876,0,0,0,.01-.225C1598.456,970.768,1598.4,970.705,1598.323,970.681Zm73.425.2.486.184a.984.984,0,0,0,.03-.2,3.4,3.4,0,0,0-.387-.052Zm-1.1-.594c.11.03.118.071.3-.053l-.02.019-.009.008-.017.016h0l.017-.016.009-.008.063-.059c-.135-.028-.3-.109-.4-.073C1670.429,970.173,1670.532,970.252,1670.651,970.283Zm-.506.3.356.186.107-.216c-.041-.028-.086-.08-.113-.074C1670.374,970.5,1670.26,970.543,1670.145,970.58Zm-.555.182c.171.042.295.108.388.086.168-.041-.213-.172.029-.238a1.007,1.007,0,0,0-.222.007C1669.732,970.631,1669.695,970.681,1669.59,970.762Zm-1.349-.319a1.533,1.533,0,0,0,.343.217c.059.021-.1-.3.3-.094-.013-.139-.021-.227-.028-.314Zm-3.148-.024a1.251,1.251,0,0,0,.7.136c.529-.115-.146-.183-.115-.2-.086.2-.188-.019-.3-.124C1665.434,970.449,1665.03,970.391,1665.093,970.42Zm-1.03.289c.045.2.19.3.576.246l.288-.112-.36-.059a.076.076,0,0,1-.042-.026c-.094-.107-.187-.216-.279-.324-.185.152.2.124.114.248-.014.018-.01.044-.015.066a.507.507,0,0,0-.152-.091A.2.2,0,0,0,1664.063,970.708Zm-4.252.534a.127.127,0,0,0,.094.05,1.152,1.152,0,0,0,.372-.031,1.57,1.57,0,0,0,.345-.239c.014-.01.008-.055-.007-.07s-.077-.038-.087-.031c-.172.141-.347.245-.582.073h-.083c.02.022.053.043.06.068a1.021,1.021,0,0,1,.014.155c-.02,0-.045,0-.057-.009a.784.784,0,0,1-.067-.074C1659.812,971.172,1659.8,971.213,1659.811,971.243Zm-5.473-.7c.169.129.409-.138.578.063.02-.041.068-.089.056-.121-.121-.307-.334-.017-.5-.052C1654.316,970.374,1654.312,970.518,1654.339,970.538Zm-5.942.205.06-.052.165.209c.112-.066.264-.221.2.07a1.058,1.058,0,0,0,0,.233c.018,0,.048,0,.052-.009.087-.168.164-.177.231.009.03-.012.075-.018.087-.037a.114.114,0,0,0,.007-.1,2.713,2.713,0,0,1-.149-.265.2.2,0,0,1-.009-.1l0,0c0-.016,0-.013,0,0-.38-.242-.085.178-.28.021-.086-.069-.062-.227-.113-.338a.454.454,0,0,0-.227.026A1.456,1.456,0,0,0,1648.4,970.743Zm-2.441.1c.031.292.157.028.244.02s.17-.059.242.059c.2-.486-.175-.258-.3-.268C1646.087,970.649,1645.95,970.781,1645.956,970.843Zm-1.034,0a5.322,5.322,0,0,0,.85.033c.048,0,.143-.091.132-.114-.182-.4-.484.021-.527,0C1645,970.649,1644.892,970.841,1644.922,970.846Zm-6.828.341c-.041-.206-.263-.11-.4-.158v0a.926.926,0,0,0,.159-.056c.047-.026.1-.063.115-.1.056-.2-.2-.21-.3-.313-.01-.011-.084.021-.129.034a1.316,1.316,0,0,1,.11.107c.035.045.061.1.092.144a.477.477,0,0,0-.061,0,.816.816,0,0,0-.159.026c-.019.006-.037.062-.031.066.064.035.132.064.2.094v0l-.008,0,.008,0c.035.124.061.258.273.24C1638.014,971.264,1638.1,971.208,1638.094,971.186Zm-.746-.814.626.243.135-.036c-.141-.263-.526-.068-.7-.26Zm-9.486.331c.169,0,.03.07-.127.17l.439-.033c-.188-.16-.3-.515-.563-.439C1627.428,970.455,1627.53,970.7,1627.863,970.7Zm-6.041-.251a5.5,5.5,0,0,0,.625.154c.055.008.136-.111.205-.17l-.682-.094Zm-.945.055.155.11c.17-.286.383-.058.634-.047.2-.153-.062-.31-.145-.3A3.029,3.029,0,0,0,1620.877,970.507Zm-3.106-.464c.091.019.175.038.26.053.106.018.214.031.32.046-.083.274.16.082.244.116a.332.332,0,0,0,.111,0,.5.5,0,0,0-.043-.165c-.179-.256-.436-.092-.662-.073C1617.927,970.02,1617.871,969.833,1617.771,970.043Zm-.016.454c.222.405.616.162.936.192.01,0,.022-.016.032-.026-.305-.068-.609-.136-.915-.2C1617.792,970.459,1617.765,970.49,1617.755,970.5Zm-.139.431c.174.058.318.114.469.149.036.009.1-.053.144-.083-.149-.06-.3-.127-.45-.176C1617.753,970.81,1617.695,970.874,1617.616,970.928Zm-1.713-.616a.846.846,0,0,1,.251.067c.229.163.377-.155.588-.059.008-.034.036-.078.021-.1-.112-.165-.189,0-.285.022a.9.9,0,0,1-.181,0c0-.067.252-.158.019-.185C1616.2,970.048,1616.053,970.215,1615.9,970.312Zm-.731.072.308.113c.052-.124-.247-.19-.079-.339.023-.02-.014-.088-.025-.134Zm-6.076.5c.1.065.2.13.31.191a.36.36,0,0,0,.04-.042c.068-.266-.181-.146-.248-.226Zm-4.112.015c.179.227.348-.262.526-.005.1-.106.034-.137-.14-.157l-.04-.144C1605.239,970.712,1605.215,970.885,1604.984,970.9Z" transform="translate(-1598.323 -969.619)" fill="#4c1400"/>
      </g>
      <g id="Group_84" data-name="Group 84" transform="translate(0 0.408)">
        <path id="Path_10150" data-name="Path 10150" d="M1557.82,927.881v.725c-.107-.03-.24-.026-.232.194-.05-.02-.117-.022-.153-.061-.141-.154-.21-.114-.253.062-.031.117-.146.11-.285.011-.008-.006-.053.068-.078.1-.073-.08-.049-.023-.073.016-.042.057-.1.134-.181.13-.143,0-.018-.082-.029-.08-.1.012-.237.031-.272.093-.119.31-.52.42-.59.719a.046.046,0,0,0,0,.011c-.261.212-.043.484-.28.761-.17.3.018.779.181,1.138.122.267-.1.379-.161.563-.021.068.031.149.027.223a5.8,5.8,0,0,1-.07.877c-.031.151-.209.28-.255.432-.018.059.13.2.233.222.37.09-.075.331.148.435-.137.17-.159.429-.524.421a1.1,1.1,0,0,1,.315.112c.247.2.037.383-.024.586a.373.373,0,0,0,.149.477c.01-.039.019-.078.032-.116a.336.336,0,0,1,.064,0,1.217,1.217,0,0,1-.057.22c-.015.03-.075.054-.121.064-.019,0-.064-.028-.078-.05a.4.4,0,0,1-.033-.109c-.026.017-.078.04-.074.052.024.07.051.193.094.2.284.03-.03.237.146.286-.224.33-.218.364-.064.707.046.1-.025.245.039.329.156.2-.089.172-.18.236-.039.028-.05.082-.074.123a1.122,1.122,0,0,1,.135-.068.281.281,0,0,1,.091,0c-.02.149-.192.247.04.457.177.161-.06.573.011.854a.405.405,0,0,1-.218.547.5.5,0,0,1,.346.542c.017.268,0,.539.037.805.029.209-.383.011-.224.108a.383.383,0,0,1,.2.431c-.026.2.135.454-.18.6l-.092-.109-.092.234h-.012l-.015.033.044,0c.345.125-.007.343.109.519a.945.945,0,0,1,.07.519c0,.1.158.279-.154.288-.02,0-.063.068-.054.1.022.062.054.156.111.172a.341.341,0,0,1,.241.4,1.73,1.73,0,0,1-.056.677c-.175.328.015.665-.148,1.012a1.263,1.263,0,0,1-.269.525c-.108.1.192-.085.2.109.009.383-.645.035-.6.376.017.133-.287.353.142.395-.01-.022-.034-.05-.026-.066.023-.043.066-.078.092-.12.093-.15.239-.11.385-.071-.055.107-.093.295-.169.3-.205.028-.065.155-.142.2.044-.013.088-.029.134-.04.006,0,.032.02.032.032l-.009.559-.184-.122c.02.169.135.408.036.492-.178.153.22.379-.142.452.04.078.242.147.024.242.246.086-.21.34.151.411a1.442,1.442,0,0,1-.04.263l-.153.9c-.233-.2-.241.185-.434.108-.024-.009-.072.02-.11.032l.112.024,0,0h0c-.434.279.072.358.18.521v0l0,0c-.143.056-.278.12-.234.272.007.023.073.036.111.055.037-.11.3-.168.124-.327h0l0-.005c.072-.164.126-.344.437-.228.042.016.1.177.151.007a.141.141,0,0,0-.037-.1,1.393,1.393,0,0,1-.73-.2h0c.124-.021.29-.094.365-.055.373.192.6.4.451.833a3.23,3.23,0,0,0,.027,1.141c0,.1.121.255-.157.249a.858.858,0,0,1,.135.077c-.239.4.135.884-.249,1.269-.008.008.011.036.025.053l.114.126a.369.369,0,0,1,0-.092c0-.012.031-.019.048-.029a.7.7,0,0,1,.106.23c.019.311.025.624.018.936,0,.063-.075.125-.116.187-.028-.078-.062-.157-.083-.237a.305.305,0,0,1-.014-.179c.083-.2-.141-.436.09-.625a.663.663,0,0,0-.131-.046c-.255-.033-.1.059-.071.132s.061.184.022.208c-.082.05-.244-.005-.024.123.118.068.1.373.024.54-.129.292.346.408.244.681-.037.1.037.227.036.341q0,.541-.024,1.084c0,.043-.063.1-.116.123a.866.866,0,0,1-.221.03c.072,0,.145,0,.216.01a.449.449,0,0,1,.1.031c-.016.01-.031.026-.049.029l-.3.039c.053.133.176.113.308.094.022,0,.064.027.092.043.009,0,0,.019,0,.03-.031,0-.064-.008-.095-.016a.246.246,0,0,0-.32.13,1.684,1.684,0,0,1-.118.129.937.937,0,0,0-.072-.065.213.213,0,0,0-.055-.016.218.218,0,0,0,.012.122.155.155,0,0,0,.118.03c.135-.024.266-.062.4-.082.185-.026.2,0,.147.147a.617.617,0,0,1-.056.1c.412.022.13.244.21.37.123.211.186.541.652.462.009,0,.022.032.026.052.012.057-.005.151.044.177a3.128,3.128,0,0,0,.487.123c.213.047.415.1.623.13.043.007.059.106.095.162-.062.186-.043.325.242.258l.081.109c.2.017.443.026.671.022a3.2,3.2,0,0,1,1.4.177c.221.094.6.084.887.19.061.022.214-.1.325-.158-.145.006-.042-.309-.313-.138-.129-.146-.437.056-.529-.155a.668.668,0,0,1-.031-.17,1.443,1.443,0,0,0,.4.113,4.451,4.451,0,0,0,.808-.09c.214-.045.264.006.257.147v.039c.055-.169.183-.06.286-.044-.012.046-.043.1-.026.135a.227.227,0,0,0,.135.1c.251.069.284-.112.394-.206l.454.006-.131.119.192.107.026.03.1.037.042-.008c.3-.195.544-.171.707.119.007.012.038.016.057.025-.135-.286.222-.231.38-.313-.122-.092-.14-.169.064-.189.269-.026.54-.038.81-.055a.309.309,0,0,1,.072.015c-.018.015-.038.028-.054.043a.753.753,0,0,0-.111.126c0,.006.068.04.1.061a.87.87,0,0,1,.039-.1,1.6,1.6,0,0,0,.463.071c.292-.058.1.161.146.145a1.455,1.455,0,0,0,.265-.179.248.248,0,0,1,.135-.036c.032,0,.061.041.09.064a.427.427,0,0,0-.132,0,.491.491,0,0,0-.135.08c-.009.006.009.043.009.043l.354,0c.142.015.339.081.417.034.2-.121-.049-.178-.132-.2s-.182.061-.275.1c-.117-.219.336-.12.292-.3.095.126.352-.185.4.084,0,.011.021.02.033.03a.756.756,0,0,0,.158-.113c.028-.036.014-.09.021-.136l.025-.132.175.053a.94.94,0,0,0-.117.013.041.041,0,0,0-.02.041l.115.211.153-.07c-.039-.011-.095-.013-.113-.033s-.024-.082,0-.092c.116-.06.24-.109.361-.162-.021.032-.046.062-.064.1-.07.127.02.195.165.229.119.029.132.075.034.119a1.053,1.053,0,0,1-.253.044,1.649,1.649,0,0,1,.173.066c.321.161.143-.091.21-.141.268-.206.474.131.73.054h0c.1.057.17.23.319.016a.176.176,0,0,1,.279.03l.641-.335a.085.085,0,0,1,.052,0l.11.315a.62.62,0,0,1-.226-.029c-.207-.134-.219.125-.367.1a1.489,1.489,0,0,1,.214.11c.363.265.026-.14.165-.1.037.01.1-.034.138-.027.437.069.386-.273.595-.394a1.187,1.187,0,0,1,.294-.072c.013.034.048.074.034.1-.159.289.3.25.4.421a.648.648,0,0,0,.631.331c.073-.006.153.03.224.023.044,0,.079-.057.118-.088-.375.072-.375-.41-.779-.3a.465.465,0,0,1-.154-.018,3.781,3.781,0,0,1,.354-.2c.016-.007.107.078.158.123.01.009,0,.032-.005.048a.771.771,0,0,0,.153-.071c.071-.055.116-.14.2-.171.044-.016.146.054.221.085a1.412,1.412,0,0,0-.244.049c-.027.011-.164.116.02.1a2.466,2.466,0,0,0,.439-.137c.026-.008.1.043.1.037a.223.223,0,0,1,.346.055c.146.171.152.344-.18.4-.038.007-.1-.074-.154-.113,0,.038-.015.106,0,.109.121.033.319.1.361.068.184-.15.334-.285.571-.056,0-.014.015-.037.009-.041-.112-.064-.222-.171-.34-.176-.157-.007-.144-.015-.051-.081.031-.023.089-.026.119-.049.075-.056-.336.032-.049-.091.026-.011.026-.226.135-.023a.355.355,0,0,0,.244.007c.11-.094.436.218.394-.124,0-.015.08-.043.128-.053a1.691,1.691,0,0,1,.842-.13.985.985,0,0,1,.113.03c.015.006.034.033.028.04-.29.318.106.2.261.24h0c-.078,0-.177-.014-.227.016-.174.1.118.09.083.165l.42-.036-.015.008.009,0-.121.292c.222-.057.359.269.586.091.137-.108-.269-.33.11-.426a.334.334,0,0,1-.1-.038c-.225-.2-.288.171-.48.081l.005-.012h0l.118-.065-.394-.079h0c.3-.12.022-.159-.057-.226a.17.17,0,0,1-.026-.035c.033-.006.066-.014.1-.018.344-.039.715.071,1.036-.107a.132.132,0,0,1,.1.025.292.292,0,0,1,.049.141c0,.03-.032.061-.049.092l.46.075a.8.8,0,0,1,0-.12c0-.023.02-.064.036-.066.276-.028.555-.043.83-.078s.566.142.837-.022c0,0,.032.014.032.014-.015.044-.015.1-.053.129a1.115,1.115,0,0,1-.227.084c.237-.046-.049.307.267.2a.756.756,0,0,0,.072-.034.477.477,0,0,1-.049-.04l-.108-.133s.021-.019.033-.03c.031.179.187-.056.251.045a.33.33,0,0,0,.154.144.234.234,0,0,0,.185-.071.449.449,0,0,0,0-.22c0-.014-.026-.026-.041-.038.021-.01.045-.031.063-.029a2.054,2.054,0,0,1,.361.061c.1.033.212.158.269.142.25-.071-.152-.029-.04-.1a1.5,1.5,0,0,1,.923-.078,3.276,3.276,0,0,1,1.051.29c.191.083.263-.063.4-.033l-.049-.183c-.112.024-.227.043-.337.074a.67.67,0,0,0-.14.075c.007-.042,0-.091.023-.124.055-.069.159-.192.191-.183a6.2,6.2,0,0,0,1.562.036c.133,0,.263.074.4.077a1.525,1.525,0,0,0,.294-.081c.029-.005.111.061.108.064-.056.063-.121.123-.184.182a2.133,2.133,0,0,0,.273-.075,1.411,1.411,0,0,0,.22-.137l.085-.067c.429.283.888-.1,1.321.033l.1.031c-.009.011-.015.026-.028.03-.121.039-.4.1-.329.121a2.453,2.453,0,0,0,.811.086c.1,0,.193-.118.28-.189.026-.021.024-.094.031-.094l.82.053-.2.057c-.008,0,0,.029,0,.043l.411,0c0-.016,0-.036-.014-.046a1.048,1.048,0,0,0-.106-.067,1.13,1.13,0,0,1,.161-.019c.466.008.934,0,1.4.036.144.011.272.134.411.2a.153.153,0,0,0,.087.018c.03-.008.072-.031.076-.052.077-.34.25.045.37-.024a1.1,1.1,0,0,1,.158.111l.077.053a.248.248,0,0,0,.038-.076c0-.014-.032-.029-.049-.045l-.047-.05c.025-.011.056-.036.073-.031a2.617,2.617,0,0,1,.6.191c.247.153-.331.044-.145.212.029.026.045.072.078.08.123.027.248.048.373.07v.667a1.429,1.429,0,0,0-.438.05c-.05.015-.55.157-.644-.159-.253.171-.477-.147-.736-.026-.045.021-.137-.016-.207-.026l.046-.182.01-.044a.261.261,0,0,0-.086.013.36.36,0,0,0-.08.076c.12.085.08.126-.063.116-.033,0-.193.116-.138-.049a1.492,1.492,0,0,0-.2.025c-.014,0,.008.071-.012.082a2.636,2.636,0,0,1-1.849.026c-.217-.045-.554.129-.71.054-.239-.115-.359.083-.555.024a2.333,2.333,0,0,0-.528-.035c-.381-.02-.732.149-1.165,0a1.134,1.134,0,0,0-1,.1c-.1.078-.459-.017-.693-.054-.336-.053-.667-.127-1-.192-.085.352-.445.178-.7.23-.31.061-.663-.166-.929.092-.008.007-.038,0-.058,0l.055-.4c0-.016.032-.03.049-.046-.024-.006-.062-.022-.069-.017l-.448.382a.507.507,0,0,1-.093.078c-.018.009-.058,0-.088-.008.026-.019.069-.036.077-.06a.323.323,0,0,0,0-.112,1.411,1.411,0,0,0-.34.009c-.123.029-.228.12-.35.131a3.766,3.766,0,0,1-1.38-.04c-.309-.085-.622.179-.925.005-.076-.043-.1-.136-.153-.206l.006,0h0c.055-.118.135-.017.151.008.15.231.077-.031.094-.09l.032,0a.325.325,0,0,1,.035.045l.033-.036-.068-.009c-.019-.019-.029-.019-.032,0-.132-.017-.264-.034-.4-.045-.015,0-.039.061-.059.095l.211.032,0,0h0c-.072.05-.171.146-.206.134-.188-.063-.473.028-.569-.211-.022-.054-.242-.062-.373-.088-.005,0-.044.051-.037.07.031.077.023.206.217.115.021-.009.07.015.106.023a.931.931,0,0,1-.31.14c-.471.02-.943.018-1.414.021-.086,0-.171-.011-.257-.016l.175-.023c-.023-.016-.05-.049-.069-.046a2.244,2.244,0,0,1-.335.057l-2-.057c-.7-.019-1.39-.053-2.085-.05-.362,0-.722.086-1.085.1l-1.719.012c-.131,0-.357-.064-.4.13-.477-.214-1.018.1-1.484-.093-.279-.117-.436.1-.659.088a11.258,11.258,0,0,1-2.073-.077c-.279-.063-.619.126-.918-.061-.015-.01-.184.182-.393.161a3.777,3.777,0,0,1-1.186-.067,1.2,1.2,0,0,0-.722.091c-.306.124.034-.341-.274-.151-.011.008-.072-.028-.081-.021-.053.038-.089.1-.148.12-.038.01-.1-.05-.183-.08a3.037,3.037,0,0,0-.619-.261c-.434-.023-.913-.08-1.337-.084-.365,0-.1-.111-.123-.136-.15-.2-.725-.095-.646-.439-.207.1-.256-.354-.5-.165-.022.016-.139-.046-.212-.074l.094-.109c-.22-.088-.632-.208-.313-.427.336-.223-.145-.062-.1-.151a.352.352,0,0,0,0-.193c0-.012-.094-.042-.094-.042a.988.988,0,0,1,.079-.19.852.852,0,0,0,.123.138.254.254,0,0,0,.083.03.921.921,0,0,1-.014-.094,1.328,1.328,0,0,1,.016-.142c-.193.318-.005-.575-.269-.081-.018.037-.15.066-.159.055a.923.923,0,0,1-.15-.278.253.253,0,0,1,.017-.14,1.421,1.421,0,0,0-.147.172.884.884,0,0,0-.06.118c-.009-.034-.031-.071-.026-.1a1.02,1.02,0,0,1,.1-.307c.009-.019.078-.005.12-.008-.03-.078-.1-.2-.067-.233.124-.127.039-.239-.015-.327,0-.005.048-.032.074-.048a2.287,2.287,0,0,0-.173-.156c-.035-.026-.118-.033-.124-.057a.119.119,0,0,1,.066-.1c.036-.016.1.005.146.01l.074.008c-.022-.035-.041-.1-.066-.1-.107-.008.095-.238-.152-.128a.542.542,0,0,1-.1.023l.163-.348c-.392-.081.429-.281-.054-.359-.009,0,0-.081,0-.124.1.174.049-.292.169-.024.007.016.038.023.059.034a.124.124,0,0,0,.022-.035c.022-.09.1-.22.052-.262-.109-.1-.322-.41-.254-.531.017-.03.209.022.285-.013.2-.093.062-.06-.04-.066a.513.513,0,0,1-.253-.082c.061-.4-.2-.824.089-1.217.011-.016-.015-.055-.035-.076a.114.114,0,0,0-.074-.005c-.051.009-.1.025-.152.038l-.009-.129a.274.274,0,0,0,.067.056.082.082,0,0,0,.063-.023,2.467,2.467,0,0,0,.207-.331c.027-.059-.008-.133.005-.2a.213.213,0,0,1,.129-.026.86.86,0,0,1,.1.162l.163-.079,0,0v0h0l.193.282.017-.266c0-.063,0-.182-.018-.185-.155-.017-.19.07-.2.171l0,0c-.176-.116-.359-.227-.52-.355-.023-.019.078-.121.1-.189.082-.293-.44-.308-.429-.576,0-.064-.075-.137-.054-.191s.12-.093.185-.139c0,.085,0,.172.015.257a.447.447,0,0,0,.1.015c-.047-.07.043-.118.05-.149a2.529,2.529,0,0,0,.01-.543v-.107a.517.517,0,0,0,.1.055.114.114,0,0,0,.073-.011l.029-.211a.242.242,0,0,1-.07.049c-.066.019-.134.029-.2.043-.014-.08-.036-.16-.043-.241-.025-.289-.062-.578-.063-.867s.052-.59.054-.885c0-.168-.1-.339-.074-.5a1.138,1.138,0,0,1,.213-.587c.256-.3.095-.63.151-.941.011-.061-.183-.146-.283-.22.253-.033.252-.217.347-.349a1,1,0,0,1,.271-.184h.009l.2.2.136-.269-.336.068,0,0-.005,0c-.676.025-.089-.31-.2-.443a1.187,1.187,0,0,0-.2-.158c.06-.036.221-.052.02-.131-.065-.025-.078-.133-.115-.2.085.039.114.047.274-.129a.843.843,0,0,1,.187.041l-.039-.21.142-.168c.032-.039.038-.133.005-.158a1.437,1.437,0,0,0-.284-.128,2.189,2.189,0,0,1,.091.24l.045.214-.147.169a.285.285,0,0,0-.273.117c.009-.3.306-.573.1-.885.243.116.288-.084.407-.163.018-.012.015-.044.022-.067-.709.05-.1-.352-.272-.5-.225-.2.348-.432-.014-.647.353-.067.221-.277.221-.454a2.294,2.294,0,0,1,.054-.346.057.057,0,0,0-.008-.026l.4-.135a1.238,1.238,0,0,1-.375.06c-.139-.023-.363-.1-.374-.171a5.191,5.191,0,0,0-.054-.9c-.082-.234.309-.285.2-.39-.288-.286.325-.315.2-.514-.149-.233-.1.189-.252.061-.01-.008-.261.189-.281.036-.027-.213-.171-.47.077-.669a1.562,1.562,0,0,1,.308-.148c-.126-.012-.052-.261-.282-.149a.9.9,0,0,0-.065-.222c-.153-.254.132-.458.113-.7.267.078.145-.13.125-.124-.555.146-.218-.236-.215-.283a1.031,1.031,0,0,1,.183-.58c.125-.157.024.17.179.091.017.06.021.188.128.09.056-.053.011-.237-.067-.307a.829.829,0,0,1-.214-.8,1.635,1.635,0,0,0-.149-.719c-.057-.145,0-.287.219-.406.043-.025-.106-.229-.053-.291.2-.235-.486-.405-.056-.634-.508-.215.314-.152.1-.3l-.038-.031c-.09.047-.206.258-.261.108a.777.777,0,0,1-.014-.743.56.56,0,0,0,.053-.428c-.039-.15.037-.272.045-.391.013-.192-.09-.4-.026-.608.011-.036-.068-.088-.106-.133.2.068.247-.292.506-.111.038.026.079.231.234.07a1.16,1.16,0,0,0-.251-.144c-.233-.068-.279-.521-.071-.715.042-.039.089-.132.072-.143-.211-.14-.268-.216.087-.165.009,0,.034-.043.034-.043-.123-.067-.275-.119-.2-.276-.216.036-.146-.1-.112-.147.156-.228-.341-.161-.243-.353h-.1l.1-.08c-.11-.058-.313-.185-.153-.227.407-.1.2-.385.239-.574.014-.164-.122-.385.116-.5a.566.566,0,0,1,.585.111.4.4,0,0,0,.275.014c.05-.015.062-.11.092-.17-.059.026-.132.087-.177.077a.661.661,0,0,1-.326-.142c-.074-.078-.018-.175.14-.142-.04-.035-.117-.07-.112-.109.02-.216.227-.337.443-.42a2.823,2.823,0,0,0,.282-.151,1.078,1.078,0,0,1-.165-.1c-.025-.022-.019-.066-.026-.1.26.125.279-.2.473-.189a.81.81,0,0,1,.183.025,2.175,2.175,0,0,1,.25.093c.068-.125-.111-.087-.15-.131-.1-.112-.15-.248.09-.371.083.225.463-.427.462.022.163-.085.337-.161.507-.24.2-.1.524-.315.617-.272.349.161.388-.186.628-.12.039.012.055.053.079.08-.232-.032.167.23-.166.148a.637.637,0,0,0,0,.2C1557.686,927.806,1557.747,927.862,1557.82,927.881Zm26.509,33.389.486.168a.822.822,0,0,0,.03-.182,3.721,3.721,0,0,0-.387-.047Zm-1.1-.541c.11.027.118.064.3-.048l-.02.017-.009.007-.017.015h0l.017-.015.009-.007.063-.053c-.135-.026-.3-.1-.4-.067C1583.009,960.629,1583.112,960.7,1583.23,960.729Zm-.506.27.356.169.107-.2c-.041-.026-.086-.073-.113-.068C1582.954,960.928,1582.84,960.966,1582.724,961Zm-.555.166a1.231,1.231,0,0,0,.388.078c.167-.037-.213-.157.029-.216a1.106,1.106,0,0,0-.222.006C1582.312,961.046,1582.275,961.092,1582.17,961.166Zm-1.349-.29a1.563,1.563,0,0,0,.343.2c.059.019-.1-.27.3-.086l-.028-.286Zm-3.148-.022a1.356,1.356,0,0,0,.7.124c.529-.1-.146-.167-.116-.186-.085.18-.187-.017-.3-.113C1578.014,960.88,1577.61,960.827,1577.673,960.854Zm-1.03.263c.045.186.19.274.576.224l.288-.1-.36-.054a.077.077,0,0,1-.042-.024l-.279-.295c-.185.139.2.113.114.226-.014.016-.01.04-.015.061a.522.522,0,0,0-.152-.083A.206.206,0,0,0,1576.643,961.117Zm-4.252.487a.131.131,0,0,0,.095.046,1.263,1.263,0,0,0,.372-.028,1.583,1.583,0,0,0,.345-.217c.014-.009.008-.05-.008-.064a.138.138,0,0,0-.086-.028.449.449,0,0,1-.582.067h-.083c.02.02.053.04.06.062a.849.849,0,0,1,.014.141.152.152,0,0,1-.057-.009.745.745,0,0,1-.067-.067C1572.392,961.539,1572.376,961.576,1572.391,961.6Zm-5.473-.642c.169.117.409-.126.578.057.021-.037.069-.081.057-.11-.121-.279-.335-.016-.5-.047C1566.9,960.812,1566.891,960.943,1566.919,960.961Zm-5.942.187.06-.047.165.19c.112-.06.264-.2.2.064a.923.923,0,0,0,0,.212c.019,0,.049,0,.053-.008.087-.153.164-.161.231.008.03-.011.075-.016.087-.033a.1.1,0,0,0,.007-.091,2.437,2.437,0,0,1-.149-.241.163.163,0,0,1-.009-.09l0,0c0-.015,0-.012,0,0-.38-.22-.086.162-.28.019-.086-.063-.062-.207-.113-.308a.5.5,0,0,0-.227.023A1.211,1.211,0,0,0,1560.977,961.148Zm-2.441.091c.031.266.157.026.244.018s.17-.054.242.054c.2-.442-.175-.235-.3-.245C1558.667,961.062,1558.53,961.183,1558.536,961.239Zm-1.049-.011a4.346,4.346,0,0,0,.865.043c.048,0,.142-.083.132-.1-.182-.362-.484.019-.528,0C1557.588,961.058,1557.46,961.221,1557.488,961.228Zm-3.717-4.109c.242-.031.129-.2.186-.31h.006a.575.575,0,0,0,.066.124.252.252,0,0,0,.122.089c.234.044.247-.151.37-.23.012-.009-.026-.065-.04-.1a1.125,1.125,0,0,1-.126.085c-.053.028-.112.048-.169.071a.213.213,0,0,0,0-.047.46.46,0,0,0-.03-.123c-.008-.015-.074-.028-.078-.023-.042.049-.076.1-.112.154h0l0-.005,0,.006c-.146.027-.3.048-.282.211C1553.68,957.057,1553.745,957.123,1553.771,957.119Zm.958-.577-.286.485.042.1c.31-.109.08-.407.307-.546Zm-.391-7.346c0,.13-.081.023-.2-.1.02.172.03.257.039.341.189-.146.607-.231.516-.436C1554.631,948.859,1554.342,948.938,1554.338,949.2Zm.3-4.678a3.14,3.14,0,0,0-.181.485c-.009.043.129.106.2.159.035-.169.07-.338.11-.529Zm-.064-.732-.13.12c.336.133.068.3.055.491a.214.214,0,0,0,.35-.113A1.984,1.984,0,0,0,1554.57,943.786Zm.545-2.4-.062.2-.054.248c-.322-.065-.1.123-.136.188-.014.022,0,.057.005.085a.786.786,0,0,0,.193-.033c.3-.138.109-.338.088-.513C1555.142,941.5,1555.363,941.459,1555.115,941.381Zm-.533-.012c-.477.171-.191.476-.227.725,0,.008.02.017.031.025l.237-.708C1554.627,941.4,1554.59,941.375,1554.582,941.369Zm-.508-.108a3.354,3.354,0,0,0-.175.362c-.01.028.062.075.1.113.072-.116.149-.229.208-.348C1554.213,941.367,1554.139,941.321,1554.074,941.261Zm.724-1.327c-.027.073-.03.149-.078.194-.193.178.182.292.069.455.039.006.091.028.118.016.2-.086,0-.147-.026-.22a.455.455,0,0,1-.005-.14c.08,0,.186.195.217.015C1555.109,940.163,1554.912,940.05,1554.8,939.934Zm-.085-.566-.132.238c.146.04.223-.191.4-.06.024.018.1-.012.158-.02Zm-.584-4.705-.224.239.049.032c.312.052.172-.14.266-.192Zm-.017-3.184c-.268.138.308.269.006.407.124.077.161.026.184-.109l.17-.03C1554.329,931.675,1554.125,931.657,1554.112,931.478Z" transform="translate(-1553.058 -927.24)" fill="#4c1400"/>
      </g>
      <g id="Group_85" data-name="Group 85" transform="translate(4.762)">
        <path id="Path_10151" data-name="Path 10151" d="M1639.363,927.873v.8c-.148-.04-.318-.04-.352.2-.072-.027-.171-.039-.212-.086-.155-.18-.239-.159-.39.02-.106.125-.289.072-.4-.066a1.5,1.5,0,0,0-.183.076c-.031-.107-.043-.041-.11-.011a.566.566,0,0,1-.359.046c-.176-.065.062-.084.046-.088a.908.908,0,0,0-.416-.05c-.523.2-1.069,0-1.594.088-.006,0-.012.008-.016.008-.484-.112-.952.144-1.5-.057a2.68,2.68,0,0,0-1.469.154c-.344.1-.489-.089-.727-.138a2.019,2.019,0,0,0-.288.024,11.078,11.078,0,0,1-1.132-.06c-.194-.026-.361-.178-.557-.217a.392.392,0,0,0-.287.2c-.116.314-.427-.064-.561.126-.218-.117-.554-.135-.543-.445-.046.091-.066.2-.144.268-.256.21-.495.031-.757-.021a.635.635,0,0,0-.615.127c.051.008.1.015.151.027,0,0,0,.036-.006.054a2.219,2.219,0,0,1-.285-.048.164.164,0,0,1-.083-.1c-.006-.015.036-.054.066-.066a.741.741,0,0,1,.141-.028c-.023-.022-.053-.066-.068-.063-.09.02-.248.043-.254.079-.038.242-.305-.026-.369.124a.927.927,0,0,0-.913-.054c-.13.038-.315-.022-.424.033-.265.133-.221-.076-.3-.153a.534.534,0,0,0-.16-.062.836.836,0,0,1,.088.114c.012.021,0,.051,0,.078-.193-.018-.319-.164-.591.033-.208.151-.739-.05-1.1.01a.648.648,0,0,1-.707-.186c-.135.259-.416.284-.7.295-.347.014-.7,0-1.041.031-.271.025-.014-.325-.139-.191a.615.615,0,0,1-.557.172c-.26-.021-.586.115-.776-.152,0,0,.092-.052.141-.079l-.3-.078v-.01l-.042-.013-.005.038c-.161.293-.443-.006-.67.093a1.825,1.825,0,0,1-.67.059c-.132,0-.359.135-.371-.13,0-.018-.089-.055-.124-.046-.081.019-.2.046-.221.094-.056.139-.233.219-.517.205a3.339,3.339,0,0,1-.876-.048c-.423-.148-.859.014-1.306-.125a2.036,2.036,0,0,1-.677-.229c-.127-.092.109.163-.141.167-.5.008-.045-.549-.486-.51-.171.015-.456-.244-.509.121.029-.009.065-.029.085-.022.054.02.1.056.155.078.193.079.142.2.091.328-.138-.047-.381-.079-.394-.144-.035-.175-.2-.055-.262-.12a1.149,1.149,0,0,1,.051.113c0,.005-.026.026-.04.026-.241,0-.481,0-.722-.007l.157-.157c-.218.017-.527.114-.635.032-.2-.152-.489.187-.584-.122-.1.034-.19.206-.312.02-.111.21-.439-.179-.531.129a2.942,2.942,0,0,1-.339-.034l-1.16-.13c.252-.2-.239-.2-.14-.369.012-.02-.026-.061-.041-.093-.01.031-.021.064-.031.1l0,0h0c-.361-.37-.462.06-.672.152h0l-.005,0c-.072-.121-.154-.235-.35-.2-.031.006-.048.061-.072.094.142.031.217.257.422.1l0,0,.007,0c.21.061.445.107.294.371-.02.036-.228.083-.008.129a.237.237,0,0,0,.123-.032c-.057-.25.155-.421.264-.62h0c.028.106.122.247.072.311a.928.928,0,0,1-1.076.382,6.3,6.3,0,0,0-1.473.023c-.13,0-.33.1-.321-.133-.034.04-.09.119-.1.115-.521-.2-1.141.114-1.637-.211-.01-.007-.049.009-.068.02-.056.031-.109.065-.164.1a.936.936,0,0,1,.12,0c.015,0,.025.027.038.042a1.174,1.174,0,0,1-.3.09c-.4.015-.806.02-1.209.015a.724.724,0,0,1-.242-.1c.1-.024.2-.053.307-.071a.6.6,0,0,1,.231-.012c.264.071.563-.12.807.077a.426.426,0,0,0,.059-.112c.043-.216-.075-.088-.169-.06s-.238.051-.268.018c-.065-.069.007-.207-.159-.02-.09.1-.483.083-.7.02-.377-.11-.527.295-.879.208a2.082,2.082,0,0,0-.44.031c-.467,0-.934-.007-1.4-.02a.238.238,0,0,1-.159-.1.524.524,0,0,1-.038-.188c0,.061,0,.124-.013.184a.314.314,0,0,1-.04.083c-.013-.014-.034-.026-.037-.042-.019-.085-.033-.17-.049-.256-.17.045-.16.145-.125.261.006.02-.045.053-.075.076-.008.006-.033,0-.051,0a.841.841,0,0,1,.031-.079c.086-.159-.04-.218-.181-.279a1.078,1.078,0,0,1-.17-.115,1.069,1.069,0,0,0,.1-.05c.015-.01.02-.031.028-.046a.551.551,0,0,0-.165-.009.11.11,0,0,0-.061.095c.01.118.043.233.051.351.01.158-.034.172-.273.1a.93.93,0,0,1-.145-.075c-.191.336-.453.026-.664.024-.4,0-.814-.184-1.144.161-.006.007-.061-.015-.089-.028-.083-.041-.169-.126-.242-.118-.219.022-.429.094-.648.122a8.232,8.232,0,0,1-.883.061c-.06,0-.124-.1-.186-.152.012-.211-.041-.359-.355-.252l-.1-.116c-.233-.006-.464-.02-.7-.016a2.933,2.933,0,0,1-1.4-.194c-.221-.1-.6-.092-.887-.209-.06-.024-.214.112-.325.174.145-.007.042.339.313.152.13.16.437-.06.529.17a.811.811,0,0,1,.031.187,1.327,1.327,0,0,0-.4-.124,4.061,4.061,0,0,0-.808.1c-.214.049-.264-.007-.257-.162,0-.014,0-.029,0-.043-.055.186-.183.066-.286.049.012-.05.043-.106.026-.148a.232.232,0,0,0-.135-.112c-.251-.075-.284.124-.394.227l-.454-.007.131-.13-.193-.118-.026-.033-.1-.041-.043.009c-.3.214-.543.187-.706-.13-.007-.014-.037-.018-.057-.027.135.314-.221.254-.38.345.122.1.14.185-.065.206-.268.028-.539.043-.809.06a.248.248,0,0,1-.072-.016c.018-.016.038-.031.054-.048a.815.815,0,0,0,.111-.139c0-.007-.068-.043-.1-.066a1.018,1.018,0,0,1-.039.107,1.465,1.465,0,0,0-.463-.078c-.292.064-.1-.176-.146-.159a1.453,1.453,0,0,0-.265.2.231.231,0,0,1-.135.04c-.032,0-.06-.045-.09-.07a.388.388,0,0,0,.132,0,.487.487,0,0,0,.135-.088c.009-.007-.005-.047-.009-.047-.118,0-.236,0-.354,0-.142-.016-.339-.089-.417-.037-.2.133.049.2.132.216s.182-.067.275-.107c.117.241-.336.132-.292.328-.095-.139-.352.2-.4-.092,0-.012-.021-.022-.033-.033a.758.758,0,0,0-.157.124c-.028.039-.015.1-.021.149s-.017.1-.025.145l-.175-.058a.864.864,0,0,0,.117-.014.047.047,0,0,0,.021-.045c-.036-.078-.076-.155-.115-.232l-.153.077c.039.012.095.014.113.037s.024.089,0,.1c-.116.066-.24.12-.361.179.021-.035.046-.069.064-.106.07-.14-.02-.214-.165-.251-.119-.032-.132-.083-.034-.131a.973.973,0,0,1,.253-.048,1.664,1.664,0,0,1-.174-.072c-.32-.176-.143.1-.209.155-.269.226-.474-.144-.731-.059h0c-.1-.062-.17-.253-.317-.018a.168.168,0,0,1-.279-.033c-.213.123-.426.246-.641.368a.077.077,0,0,1-.052,0c-.038-.115-.074-.231-.11-.346.077.009.175,0,.226.032.207.147.219-.137.367-.106a1.366,1.366,0,0,1-.214-.121c-.363-.29-.026.153-.165.109-.037-.011-.1.037-.138.03-.437-.076-.386.3-.595.433a1.07,1.07,0,0,1-.294.079c-.013-.037-.049-.082-.034-.11.159-.318-.3-.274-.4-.462a.637.637,0,0,0-.631-.362c-.072.007-.152-.034-.224-.026-.044.005-.079.062-.118.1.375-.079.375.451.779.331a.422.422,0,0,1,.154.02,3.687,3.687,0,0,1-.354.221c-.016.008-.107-.085-.158-.135-.01-.009,0-.035,0-.053a.75.75,0,0,0-.152.078c-.071.06-.116.154-.2.188-.044.018-.146-.06-.221-.094a1.242,1.242,0,0,0,.244-.054c.027-.011.164-.127-.02-.11a2.306,2.306,0,0,0-.439.151c-.026.008-.1-.047-.1-.041-.162.163-.3,0-.346-.061-.146-.187-.152-.378.18-.441.037-.008.1.081.154.124,0-.042.015-.116,0-.12-.122-.036-.319-.112-.361-.074-.184.164-.334.313-.571.061,0,.015-.015.041-.009.045.112.071.222.187.34.193.157.009.144.016.051.089-.031.026-.089.028-.119.054-.075.061.336-.035.049.1-.026.012-.026.248-.135.026a.326.326,0,0,0-.244-.008c-.11.1-.436-.239-.394.136,0,.016-.08.047-.128.059-.276.066-.528.231-.843.142a1.006,1.006,0,0,1-.113-.032c-.014-.007-.033-.037-.027-.043.29-.349-.106-.222-.262-.263h0c.078,0,.177.015.228-.017.174-.113-.118-.1-.083-.182l-.42.04.015-.009-.009,0,.121-.32c-.222.062-.359-.295-.586-.1-.137.118.269.362-.11.468a.318.318,0,0,1,.1.042c.225.221.288-.188.48-.089l-.005.013h0l-.117.072.394.087h0c-.3.132-.022.175.057.248a.243.243,0,0,1,.026.038c-.033.007-.066.015-.1.02-.344.043-.715-.078-1.036.118a.123.123,0,0,1-.1-.027.338.338,0,0,1-.049-.155c0-.033.031-.067.049-.1l-.46-.083a.961.961,0,0,1,0,.131c0,.026-.02.071-.036.072-.276.031-.555.047-.83.086s-.566-.156-.837.024a.062.062,0,0,1-.032-.015c.015-.049.015-.114.053-.141a1.046,1.046,0,0,1,.228-.093c-.237.05.048-.336-.267-.22a.712.712,0,0,0-.072.038.492.492,0,0,1,.049.044c.038.048.075.1.108.147,0,0-.021.021-.033.032-.031-.2-.188.061-.252-.049a.34.34,0,0,0-.153-.158.225.225,0,0,0-.186.078.557.557,0,0,0,0,.243c0,.014.026.027.041.041-.021.011-.045.034-.063.031a1.831,1.831,0,0,1-.361-.067c-.1-.037-.212-.174-.268-.156-.251.078.151.032.038.109a1.383,1.383,0,0,1-.922.086,3.074,3.074,0,0,1-1.051-.319c-.191-.091-.263.069-.4.037l.049.2c.112-.026.227-.048.336-.081a.661.661,0,0,0,.14-.083c-.007.046,0,.1-.023.136-.055.076-.16.21-.191.2a5.65,5.65,0,0,0-1.562-.04c-.133,0-.263-.081-.4-.084a1.468,1.468,0,0,0-.294.089c-.029.006-.111-.067-.108-.071.056-.07.121-.135.184-.2a1.988,1.988,0,0,0-.273.083,1.4,1.4,0,0,0-.221.15c-.032.023-.083.074-.085.073-.429-.31-.888.111-1.321-.037l-.1-.034c.009-.012.015-.029.028-.033.121-.043.4-.107.329-.133a2.248,2.248,0,0,0-.811-.095c-.1,0-.193.13-.28.207-.026.024-.024.1-.031.1-.273-.015-.547-.037-.821-.057.066-.021.134-.04.2-.064.008,0,0-.032,0-.048l-.411,0c.005.017,0,.04.015.05a1.252,1.252,0,0,0,.106.074,1.16,1.16,0,0,1-.161.02c-.466-.009-.934,0-1.4-.04-.144-.012-.272-.147-.411-.223a.133.133,0,0,0-.087-.019c-.03.008-.072.033-.076.056-.077.373-.25-.049-.37.026a1.1,1.1,0,0,1-.158-.122l-.077-.058a.283.283,0,0,0-.038.083c0,.015.032.032.049.049s.032.037.047.055c-.025.013-.056.04-.073.034a2.423,2.423,0,0,1-.6-.21c-.247-.167.331-.049.144-.233-.028-.028-.044-.079-.077-.088-.123-.03-.248-.053-.373-.077v-.732a1.286,1.286,0,0,0,.438-.055c.05-.016.55-.172.644.175.253-.188.477.161.736.028.044-.023.137.018.207.029l-.046.2c0,.016-.007.032-.01.049a.24.24,0,0,0,.086-.015.377.377,0,0,0,.08-.083c-.12-.093-.081-.139.063-.127.033,0,.193-.127.138.054a1.366,1.366,0,0,0,.2-.027c.014,0-.008-.078.012-.089a2.413,2.413,0,0,1,1.849-.027c.217.049.554-.142.71-.06.238.126.359-.091.555-.026a2.13,2.13,0,0,0,.528.038c.381.022.732-.164,1.165,0a1.043,1.043,0,0,0,1-.109c.1-.086.458.019.693.06.336.059.667.14,1,.21.085-.386.445-.2.7-.252.31-.067.663.182.929-.1.008-.008.038,0,.058,0-.017.146-.033.294-.054.44,0,.018-.032.033-.049.05.024.007.062.025.069.019.152-.139.3-.279.448-.42a.523.523,0,0,1,.093-.086c.018-.01.058.005.088.008-.026.021-.069.04-.077.066a.288.288,0,0,0,0,.123,1.289,1.289,0,0,0,.34-.01c.124-.031.228-.132.35-.144a3.44,3.44,0,0,1,1.38.044c.309.094.622-.2.925-.006.076.048.1.149.152.226l-.007.006h0c-.055.129-.134.019-.15-.009-.15-.254-.078.034-.094.1l-.032,0a.385.385,0,0,1-.035-.049l-.033.04.068.009c.019.022.029.02.032,0,.132.019.264.037.4.049.015,0,.039-.067.059-.1l-.212-.036,0-.005h0c.072-.055.171-.16.206-.147.188.07.473-.031.569.232.022.059.242.068.373.1.005,0,.044-.055.036-.077-.031-.084-.022-.227-.216-.126-.021.01-.07-.016-.106-.026.1-.054.2-.148.31-.153.471-.022.943-.02,1.414-.023.086,0,.171.012.257.018l-.175.026c.023.018.05.054.069.05a2.053,2.053,0,0,1,.335-.063c.665.014,1.331.041,1.995.062.7.021,1.39.058,2.085.055.362,0,.722-.095,1.085-.107.572-.019,1.146.007,1.719-.013.131,0,.357.07.4-.142.477.235,1.018-.114,1.484.1.279.129.436-.107.659-.1a10.258,10.258,0,0,1,2.073.084c.279.069.619-.139.918.067.015.011.183-.2.393-.177.389.042.779-.107,1.186.073a1.1,1.1,0,0,0,.722-.1c.306-.136-.034.374.274.165.011-.008.072.031.081.023.053-.042.088-.114.148-.131.038-.011.107.056.165.084.177.085.368.251.531.235a2.822,2.822,0,0,0,1.061-.277c.25-.143.124.064.152.08.222.128.516-.251.693.073.046-.2.412.132.4-.169,0-.026.106-.054.163-.081l.038.136c.185-.083.44-.3.5.046.066.37.115-.067.173.01a.428.428,0,0,0,.181.1c.012.005.069-.054.072-.052.057.044.11.092.164.14-.06.013-.122.022-.18.04-.023.007-.039.032-.059.049.034.011.069.02.1.034.049.021.1.045.146.068-.283-.265.623.2.164-.185a.172.172,0,0,1-.015-.147,1.523,1.523,0,0,1,.311-.041.462.462,0,0,1,.141.047c-.049-.054-.1-.11-.149-.162a1.08,1.08,0,0,0-.1-.082.3.3,0,0,1,.1.005,2.513,2.513,0,0,1,.288.146c.018.011,0,.067-.006.1.085-.011.213-.056.249-.026.134.112.239.049.359,0,.007,0,.041.042.062.064.068-.049.14-.094.2-.147.034-.03.043-.1.075-.1a.169.169,0,0,1,.132.056c.02.03-.007.082-.013.124l-.01.063c.045-.019.126-.035.129-.057.009-.091.307.081.165-.129a.31.31,0,0,1-.03-.089l.449.139c.1-.334.363.364.464-.047a1.052,1.052,0,0,1,.16,0c-.225.082.376.042.031.144-.02.005-.03.032-.043.049a.174.174,0,0,0,.045.02c.116.019.284.084.338.044a1.153,1.153,0,0,1,.685-.216c.04.014-.027.177.018.242.12.173.077.053.084-.034s.079-.217.106-.215c.522.052,1.065-.167,1.573.076.021.009.072-.013.1-.03s.013-.043.007-.063a1.242,1.242,0,0,0-.049-.129l.165-.009a.312.312,0,0,0-.072.057c-.007.011.013.046.031.054a3.766,3.766,0,0,0,.428.176,1.7,1.7,0,0,0,.256,0c.02,0,.049.1.034.109a1.243,1.243,0,0,1-.21.086l.1.139,0,0h0l0,0-.365.164c.115.005.229.014.344.015a.88.88,0,0,0,.239-.015c.021-.131-.09-.161-.221-.165l0,0c.15-.15.292-.3.458-.441.025-.02.157.066.245.083.378.07.4-.373.743-.364.083,0,.177-.064.246-.046s.121.1.18.158c-.11,0-.222,0-.331.012-.009,0-.014.057-.021.087.09-.04.152.037.193.043a4.8,4.8,0,0,0,.7.008h.139a.42.42,0,0,0-.071.081c-.009.017,0,.06.014.062.09.012.182.017.273.024-.021-.02-.054-.036-.063-.059a1.738,1.738,0,0,1-.055-.171c.1-.012.206-.031.311-.037.372-.021.745-.053,1.119-.054s.762.044,1.142.045c.216,0,.438-.081.648-.062a1.989,1.989,0,0,1,.758.181c.393.218.813.08,1.216.129.079.009.189-.156.285-.241.042.216.279.215.45.295.1.047.161.151.238.231v.007h0l-.261.169.348.116c-.029-.1-.059-.19-.088-.285l0,0,0,0c-.032-.576.4-.075.572-.166a1.237,1.237,0,0,0,.2-.167c.048.051.068.187.17.017.033-.055.173-.066.263-.1-.05.072-.061.1.167.233a.543.543,0,0,1-.054.158l.271-.034.216.121a.262.262,0,0,0,.205,0,1.079,1.079,0,0,0,.165-.241c-.1.026-.2.06-.309.078s-.185.027-.278.038c-.092-.051-.16-.09-.217-.124.01-.089-.023-.169-.152-.233.382.009.739.26,1.141.087-.149.207.108.245.211.346.015.015.056.014.085.019-.065-.6.454-.087.647-.231.256-.191.559.3.836-.011.087.3.358.187.587.187a4.426,4.426,0,0,1,.446.046.285.285,0,0,0,.034-.007q.088.17.174.342c-.029-.107-.1-.221-.077-.319.03-.118.13-.308.22-.318a10.088,10.088,0,0,0,1.168-.046c.3-.069.368.263.5.173.369-.245.407.276.664.169.3-.127-.245-.083-.08-.215.01-.009-.244-.222-.046-.239.276-.023.608-.146.865.065a1.229,1.229,0,0,1,.19.262c.015-.107.338-.043.193-.239a1.548,1.548,0,0,0,.286-.055c.328-.13.592.112.9.1-.1.227.167.123.16.107-.189-.472.3-.186.366-.183a1.834,1.834,0,0,1,.749.156c.2.106-.22.02-.118.152-.078.015-.243.017-.116.108a.508.508,0,0,0,.4-.055,1.471,1.471,0,0,1,1.029-.182,3.082,3.082,0,0,0,.928-.127.49.49,0,0,1,.525.186c.032.037.3-.089.375-.044.3.17.524-.413.819-.048.278-.432.2.267.394.087.013-.012.042-.03.039-.032-.06-.078-.332-.175-.138-.221a1.467,1.467,0,0,1,.958-.012,1.059,1.059,0,0,0,.553.045,1.955,1.955,0,0,1,.505.038,4.574,4.574,0,0,1,.785-.022c.045.009.113-.058.171-.089-.088.169.378.21.143.429-.034.032-.3.068-.089.2a.976.976,0,0,0,.185-.214c.089-.2.674-.237.924-.06a.349.349,0,0,0,.184.061c.181-.179.279-.228.213.074,0,.007.054.03.054.029.087-.1.154-.233.356-.171-.046-.184.126-.124.192-.1.294.133.208-.29.456-.206v-.082l.1.081c.075-.094.239-.266.292-.129.137.343.419.169.62.159.175-.008.361-.186.525-.022a.4.4,0,0,1,.034.51.233.233,0,0,0,.065.225c.034.035.156.009.239.009-.055-.037-.152-.072-.155-.112a.5.5,0,0,1,.052-.314c.058-.086.172-.084.2.049.022-.047.03-.123.07-.137a.694.694,0,0,1,.6.093,1.627,1.627,0,0,0,.291.088.814.814,0,0,1-.008-.175c0-.031.044-.06.069-.089.044.258.317.031.43.141a.6.6,0,0,1,.1.124c.042.069.074.141.111.212.145-.074-.019-.132-.012-.191.015-.149.071-.291.308-.285-.068.256.566-.208.329.222.174-.022.35-.032.519-.07.205-.046.519-.21.584-.157.271.224.342-.163.528-.079.031.014.043.06.065.091-.2-.043.142.259-.146.156a.87.87,0,0,0-.01.225C1639.23,927.786,1639.289,927.849,1639.363,927.873Zm-73.425-.2-.486-.184a.979.979,0,0,0-.03.2,3.408,3.408,0,0,0,.387.052Zm1.1.594c-.11-.03-.119-.071-.3.053l.021-.019.009-.008.017-.016h0l-.017.016-.009.008-.063.059c.135.028.3.109.4.073C1567.257,928.381,1567.154,928.3,1567.036,928.271Zm.506-.3-.356-.186-.107.216c.041.028.086.08.113.074C1567.312,928.052,1567.426,928.011,1567.542,927.974Zm.555-.182c-.171-.041-.295-.108-.388-.086-.168.041.213.172-.029.238a1.006,1.006,0,0,0,.222-.007C1567.954,927.923,1567.991,927.873,1568.1,927.792Zm1.349.319a1.531,1.531,0,0,0-.343-.217c-.059-.02.1.3-.3.095l.028.315Zm3.148.024a1.258,1.258,0,0,0-.7-.136c-.529.115.146.183.115.2.086-.2.188.019.3.124C1572.252,928.105,1572.656,928.163,1572.593,928.134Zm1.03-.289c-.045-.2-.19-.3-.576-.246l-.288.112.36.059a.076.076,0,0,1,.042.026q.14.161.279.324c.185-.153-.2-.124-.114-.247a.161.161,0,0,0,.015-.067.51.51,0,0,0,.152.091A.2.2,0,0,0,1573.623,927.845Zm4.252-.534a.127.127,0,0,0-.095-.05,1.129,1.129,0,0,0-.372.031,1.534,1.534,0,0,0-.345.238c-.014.01-.009.055.008.07s.077.038.086.031c.172-.141.347-.245.582-.073h.083c-.021-.022-.053-.043-.06-.068a1.037,1.037,0,0,1-.014-.155c.02,0,.045,0,.057.009a.769.769,0,0,1,.067.074C1577.874,927.382,1577.89,927.341,1577.875,927.311Zm5.472.7c-.169-.129-.409.138-.578-.063-.02.041-.068.089-.056.121.121.307.334.017.5.052C1583.37,928.18,1583.374,928.036,1583.347,928.016Zm5.942-.205-.06.052-.165-.209c-.112.066-.264.221-.2-.07a1.05,1.05,0,0,0,0-.233c-.018,0-.048,0-.052.009-.087.168-.164.177-.231-.009-.03.012-.075.018-.087.037a.114.114,0,0,0-.007.1,2.713,2.713,0,0,1,.149.265.2.2,0,0,1,.009.1l0,0c0,.017,0,.013,0,0,.38.242.085-.178.28-.02.086.069.062.227.113.338a.453.453,0,0,0,.227-.026A1.438,1.438,0,0,0,1589.289,927.811Zm2.441-.1c-.031-.292-.158-.028-.244-.02s-.17.059-.242-.059c-.2.486.176.258.3.268C1591.6,927.905,1591.736,927.773,1591.73,927.711Zm1.034,0a5.227,5.227,0,0,0-.85-.032c-.048,0-.142.09-.132.113.182.4.484-.021.527,0C1592.682,927.905,1592.794,927.713,1592.764,927.708Zm6.829-.341c.04.206.262.11.4.158v0a.926.926,0,0,0-.159.056c-.047.026-.1.063-.115.1-.056.2.2.21.3.313.01.011.084-.021.129-.034a1.3,1.3,0,0,1-.11-.107c-.035-.045-.061-.1-.092-.144a.478.478,0,0,0,.06,0,.879.879,0,0,0,.159-.026c.019-.006.037-.062.031-.066-.064-.035-.132-.064-.2-.095v0l.008,0-.009,0c-.035-.124-.061-.258-.272-.24C1599.673,927.29,1599.587,927.345,1599.593,927.368Zm.745.814-.626-.243-.135.036c.141.263.526.068.7.26Zm9.486-.331c-.169,0-.03-.07.127-.17l-.439.033c.188.16.3.515.563.439C1610.258,928.1,1610.157,927.853,1609.823,927.851Zm6.041.251a5.486,5.486,0,0,0-.625-.154c-.055-.008-.136.111-.205.17l.682.094Zm.945-.055-.155-.111c-.17.286-.383.058-.634.047-.2.153.062.31.145.3A3.075,3.075,0,0,0,1616.809,928.047Zm3.106.463c-.091-.019-.175-.038-.261-.053-.106-.018-.213-.031-.319-.046.083-.273-.16-.082-.244-.116a.33.33,0,0,0-.111,0,.5.5,0,0,0,.043.165c.179.256.436.092.662.074C1619.759,928.534,1619.815,928.721,1619.915,928.511Zm.016-.454c-.221-.4-.616-.162-.936-.192-.01,0-.022.017-.032.026.305.068.609.137.915.2C1619.894,928.1,1619.922,928.064,1619.931,928.057Zm.139-.431c-.174-.058-.318-.114-.469-.149-.036-.009-.1.053-.144.083.149.06.3.127.45.176C1619.933,927.744,1619.991,927.68,1620.07,927.626Zm1.713.616a.843.843,0,0,1-.25-.067c-.229-.164-.377.155-.588.059-.008.034-.036.078-.02.1.112.165.189,0,.285-.022a.9.9,0,0,1,.181,0c0,.068-.252.158-.019.185C1621.487,928.506,1621.633,928.339,1621.783,928.242Zm.731-.072-.308-.112c-.052.124.247.19.079.339-.023.02.014.088.025.134Zm6.076-.5c-.1-.065-.2-.13-.31-.191a.378.378,0,0,0-.04.042c-.068.266.181.146.248.226Zm4.112-.014c-.179-.228-.348.261-.526,0-.1.107-.034.137.14.157l.04.144C1632.447,927.842,1632.471,927.669,1632.7,927.658Z" transform="translate(-1558.648 -926.761)" fill="#4c1400"/>
      </g>
      <g id="Group_86" data-name="Group 86" transform="translate(85.477 0.141)">
        <path id="Path_10152" data-name="Path 10152" d="M1687.2,961.022V960.3c.107.03.24.026.232-.194.05.019.117.022.153.061.141.153.21.113.253-.063.031-.117.146-.11.285-.011.008.007.053-.068.078-.1.072.08.048.023.072-.015.042-.057.1-.134.181-.13.143,0,.018.081.029.08.1-.012.237-.031.272-.093.119-.31.52-.42.59-.719a.045.045,0,0,0,0-.011c.261-.211.042-.483.28-.761.17-.3-.018-.779-.181-1.138-.122-.267.1-.379.161-.563.022-.068-.032-.149-.027-.223a5.83,5.83,0,0,1,.07-.877c.031-.151.209-.279.256-.432.018-.059-.13-.2-.233-.222-.37-.09.075-.331-.148-.435.137-.169.159-.429.524-.421a1.1,1.1,0,0,1-.315-.112c-.247-.2-.037-.383.024-.586a.373.373,0,0,0-.149-.477c-.01.039-.019.078-.032.116a.333.333,0,0,1-.064,0,1.229,1.229,0,0,1,.057-.22c.015-.03.075-.054.121-.064.019,0,.064.028.078.05a.4.4,0,0,1,.033.109c.026-.017.078-.04.074-.052-.024-.07-.051-.192-.094-.2-.284-.03.03-.237-.146-.286.224-.33.218-.364.064-.707-.046-.1.026-.244-.039-.329-.156-.2.089-.172.18-.235.039-.029.05-.082.074-.124a1.132,1.132,0,0,1-.135.068.257.257,0,0,1-.091,0c.02-.149.193-.247-.04-.457-.177-.161.06-.573-.011-.853a.406.406,0,0,1,.218-.548.5.5,0,0,1-.346-.542c-.017-.268,0-.539-.037-.805-.029-.209.383-.011.224-.108a.383.383,0,0,1-.2-.431c.026-.2-.135-.454.18-.6l.092.109.092-.234h.012l.015-.033-.044,0c-.345-.125.007-.343-.109-.519a.944.944,0,0,1-.07-.519c0-.1-.158-.279.154-.288.02,0,.063-.068.054-.1-.022-.063-.054-.157-.111-.172a.342.342,0,0,1-.241-.4,1.727,1.727,0,0,1,.056-.677c.175-.327-.015-.665.148-1.012.078-.165.085-.356.269-.524.108-.1-.192.085-.2-.11-.009-.383.645-.035.6-.376-.017-.133.287-.353-.142-.394.01.022.035.05.026.065-.023.043-.066.078-.092.12-.093.15-.239.11-.385.071.055-.107.093-.295.169-.3.205-.028.065-.154.142-.2-.044.013-.088.029-.134.04-.006,0-.031-.02-.031-.031l.008-.559.184.122c-.02-.169-.135-.408-.036-.492.178-.153-.22-.379.142-.452-.04-.078-.242-.147-.024-.242-.246-.085.21-.34-.151-.411a1.407,1.407,0,0,1,.04-.262l.153-.9c.234.195.241-.186.434-.109.024.009.072-.02.11-.032l-.113-.024,0,0h0c.434-.279-.072-.358-.18-.521v0l0,0c.143-.056.278-.12.234-.272-.007-.023-.072-.036-.111-.055-.037.11-.3.168-.124.327h0l0,.005c-.072.164-.126.345-.437.228-.042-.016-.1-.177-.151-.006-.009.028.032.1.038.095a1.392,1.392,0,0,1,.73.2h0c-.124.021-.29.094-.365.055-.373-.192-.6-.4-.451-.833a3.221,3.221,0,0,0-.027-1.141c0-.1-.121-.255.157-.249a.867.867,0,0,1-.135-.077c.239-.4-.135-.884.249-1.268.008-.009-.011-.037-.025-.053l-.114-.127a.369.369,0,0,1,0,.092c0,.012-.031.019-.048.03a.718.718,0,0,1-.106-.231c-.019-.311-.025-.624-.018-.936,0-.063.075-.125.116-.187.028.078.062.157.083.237a.3.3,0,0,1,.014.179c-.083.2.141.436-.09.625a.669.669,0,0,0,.131.046c.255.033.1-.059.071-.132s-.061-.184-.022-.208c.082-.05.244.005.024-.123-.118-.068-.1-.373-.024-.54.129-.291-.346-.408-.244-.681.037-.1-.037-.227-.036-.341q0-.541.024-1.084c0-.043.063-.1.116-.123a.866.866,0,0,1,.221-.03c-.072,0-.145,0-.216-.01a.442.442,0,0,1-.1-.031c.016-.01.031-.026.049-.029l.3-.039c-.053-.133-.176-.112-.308-.093-.022,0-.064-.027-.092-.044-.009,0,0-.019,0-.03.031,0,.064.009.095.016a.246.246,0,0,0,.32-.13,1.657,1.657,0,0,1,.118-.129.948.948,0,0,0,.072.065.215.215,0,0,0,.055.016.218.218,0,0,0-.012-.122.155.155,0,0,0-.118-.03c-.135.024-.266.062-.4.082-.185.026-.2,0-.147-.147a.6.6,0,0,1,.056-.1c-.412-.022-.13-.244-.21-.37-.123-.211-.186-.541-.652-.462-.009,0-.022-.032-.026-.052-.012-.057.005-.151-.043-.177a3.116,3.116,0,0,0-.487-.123c-.213-.047-.415-.1-.623-.13-.043-.006-.059-.106-.095-.162.062-.186.043-.325-.242-.258l-.081-.109c-.2-.018-.443-.026-.671-.023a3.2,3.2,0,0,1-1.4-.177c-.221-.094-.6-.084-.887-.19-.06-.022-.214.1-.325.158.145-.006.042.309.313.138.13.146.437-.055.529.155a.679.679,0,0,1,.031.171,1.425,1.425,0,0,0-.4-.113,4.443,4.443,0,0,0-.808.09c-.214.045-.264-.006-.257-.147V928.1c-.055.169-.183.06-.286.044.012-.046.043-.1.026-.135a.228.228,0,0,0-.135-.1c-.251-.068-.284.113-.393.206l-.455-.006.131-.119-.193-.107-.026-.03-.1-.037-.042.008c-.3.195-.544.171-.707-.119-.007-.012-.037-.016-.057-.025.135.286-.221.231-.38.314.122.091.14.168-.064.188-.269.026-.54.039-.81.055a.269.269,0,0,1-.072-.015c.018-.015.038-.028.054-.044a.757.757,0,0,0,.111-.126c0-.006-.068-.04-.1-.06a.877.877,0,0,1-.039.1,1.6,1.6,0,0,0-.463-.071c-.292.058-.1-.161-.146-.145a1.451,1.451,0,0,0-.265.178.247.247,0,0,1-.135.036c-.032,0-.06-.041-.09-.064a.424.424,0,0,0,.132,0,.492.492,0,0,0,.135-.08c.009-.006-.009-.043-.009-.043l-.354,0c-.142-.015-.339-.081-.417-.034-.2.121.049.178.132.2s.182-.061.275-.1c.117.22-.336.12-.292.3-.095-.126-.352.185-.4-.084,0-.011-.021-.02-.033-.03a.753.753,0,0,0-.157.113c-.028.036-.015.09-.021.136l-.025.132-.175-.053a.94.94,0,0,0,.117-.013.041.041,0,0,0,.021-.041l-.115-.211-.153.07c.039.011.095.013.113.034s.024.081,0,.092c-.116.06-.24.109-.361.163.021-.032.046-.063.064-.1.07-.127-.02-.195-.165-.229-.119-.029-.132-.075-.034-.12a1.065,1.065,0,0,1,.253-.044,1.656,1.656,0,0,1-.173-.066c-.321-.161-.143.091-.21.141-.268.206-.474-.131-.73-.054h0c-.1-.057-.17-.23-.319-.016a.176.176,0,0,1-.278-.03l-.641.335a.084.084,0,0,1-.052,0l-.11-.315a.653.653,0,0,1,.226.029c.207.133.219-.125.367-.1a1.419,1.419,0,0,1-.214-.11c-.363-.265-.026.14-.165.1-.037-.01-.1.034-.138.027-.437-.069-.386.273-.595.394a1.149,1.149,0,0,1-.294.072c-.013-.033-.048-.074-.034-.1.159-.289-.3-.25-.4-.421a.647.647,0,0,0-.631-.33c-.072.006-.152-.031-.224-.023-.044,0-.079.057-.118.088.375-.072.375.411.779.3a.462.462,0,0,1,.154.018,3.766,3.766,0,0,1-.354.2c-.016.007-.107-.078-.158-.123-.01-.009,0-.032.005-.048a.765.765,0,0,0-.153.071c-.071.055-.116.14-.2.171-.044.016-.146-.054-.221-.085a1.35,1.35,0,0,0,.244-.049c.027-.01.164-.116-.02-.1a2.461,2.461,0,0,0-.439.137c-.026.008-.1-.043-.1-.037a.223.223,0,0,1-.346-.055c-.146-.171-.152-.345.18-.4.037-.007.1.074.154.113,0-.038.015-.106,0-.109-.121-.033-.319-.1-.361-.068-.184.15-.334.285-.571.056,0,.014-.015.037-.009.041.112.064.222.171.34.176.157.008.144.015.051.081-.031.023-.089.026-.119.049-.075.056.336-.032.049.091-.026.011-.026.226-.135.023a.352.352,0,0,0-.243-.007c-.11.094-.436-.218-.394.124,0,.015-.08.043-.128.054a1.691,1.691,0,0,1-.842.13.985.985,0,0,1-.113-.029c-.015-.006-.034-.033-.028-.04.29-.318-.106-.2-.262-.24h0a.632.632,0,0,0,.228-.016c.174-.1-.118-.091-.083-.166l-.42.036.015-.008-.009,0,.121-.292c-.222.057-.359-.268-.586-.091-.137.108.269.33-.11.426a.335.335,0,0,1,.1.038c.225.2.288-.172.48-.081l-.005.012h0l-.117.065.394.079h0c-.3.12-.022.159.057.226a.169.169,0,0,1,.026.035c-.033.006-.066.014-.1.018-.344.039-.715-.071-1.036.107a.131.131,0,0,1-.1-.025.289.289,0,0,1-.049-.141c0-.03.032-.061.049-.092l-.46-.075a.8.8,0,0,1,0,.12c0,.024-.02.064-.036.066-.276.028-.555.043-.83.078s-.566-.142-.837.022c0,0-.032-.014-.032-.014.015-.044.015-.1.053-.129a1.108,1.108,0,0,1,.228-.085c-.237.046.049-.307-.267-.2-.025.009-.048.022-.072.034a.485.485,0,0,1,.049.04l.108.133s-.021.019-.033.029c-.031-.178-.188.056-.251-.045a.331.331,0,0,0-.154-.144.234.234,0,0,0-.185.071.452.452,0,0,0,0,.221c0,.013.026.025.041.037-.021.01-.045.031-.063.029a1.994,1.994,0,0,1-.361-.061c-.1-.033-.212-.158-.269-.142-.25.071.152.029.04.1a1.511,1.511,0,0,1-.923.078,3.3,3.3,0,0,1-1.051-.291c-.191-.083-.263.063-.4.033l.049.183c.112-.024.227-.044.336-.074a.676.676,0,0,0,.14-.075c-.007.042,0,.091-.023.124-.055.069-.159.192-.191.183a6.2,6.2,0,0,0-1.562-.036c-.133,0-.263-.074-.4-.077a1.582,1.582,0,0,0-.294.081c-.029.005-.111-.061-.108-.064.056-.064.121-.123.184-.182a2.131,2.131,0,0,0-.273.075,1.4,1.4,0,0,0-.221.137l-.085.067c-.429-.282-.888.1-1.321-.033l-.1-.031c.009-.011.015-.026.028-.03.121-.039.4-.1.329-.121a2.457,2.457,0,0,0-.811-.086c-.1,0-.193.118-.28.189-.026.022-.024.094-.031.094l-.82-.052.2-.058c.008,0,0-.029,0-.043l-.411,0c0,.016,0,.037.015.046a1.235,1.235,0,0,0,.106.068,1.255,1.255,0,0,1-.161.019c-.466-.008-.933,0-1.4-.036-.144-.011-.272-.134-.411-.2a.145.145,0,0,0-.087-.017c-.03.007-.072.03-.076.051-.077.34-.25-.045-.37.024a1.1,1.1,0,0,1-.158-.111l-.077-.053a.248.248,0,0,0-.038.076c0,.014.032.029.049.045l.047.05c-.025.012-.056.036-.073.031a2.582,2.582,0,0,1-.6-.191c-.247-.152.331-.044.145-.212-.029-.026-.045-.072-.078-.08-.123-.027-.248-.048-.373-.07v-.667a1.407,1.407,0,0,0,.438-.05c.05-.015.55-.157.644.16.253-.172.477.147.736.026.045-.021.137.016.207.026l-.046.182-.01.044a.261.261,0,0,0,.086-.013.357.357,0,0,0,.08-.076c-.12-.085-.08-.126.063-.116.033,0,.193-.116.138.049a1.5,1.5,0,0,0,.2-.025c.014,0-.008-.071.012-.081a2.632,2.632,0,0,1,1.849-.025c.217.044.554-.13.71-.054.239.115.359-.083.555-.024a2.333,2.333,0,0,0,.528.035c.381.02.732-.149,1.165,0a1.131,1.131,0,0,0,1-.1c.1-.078.459.017.693.054.337.054.668.127,1,.192.085-.352.445-.178.7-.23.31-.061.663.166.929-.092.008-.007.038,0,.058,0l-.054.4c0,.016-.032.03-.049.046.024.006.062.023.069.017l.448-.383a.509.509,0,0,1,.093-.078c.018-.009.058,0,.088.008-.026.019-.069.036-.077.06a.321.321,0,0,0,0,.112,1.409,1.409,0,0,0,.34-.009c.123-.029.228-.12.35-.131a3.767,3.767,0,0,1,1.38.04c.309.085.622-.179.925-.005.076.044.1.136.152.206l-.007.005h.005c-.055.118-.135.017-.151-.008-.15-.231-.078.031-.094.09l-.032,0a.356.356,0,0,1-.035-.045l-.033.036.068.009c.019.02.029.019.032,0,.132.017.264.034.4.045.015,0,.039-.061.059-.095l-.211-.033,0,0h0c.072-.05.171-.146.206-.134.188.064.473-.028.569.211.022.054.242.062.373.088.005,0,.044-.05.037-.07-.031-.077-.023-.206-.217-.115-.021.009-.07-.015-.106-.023a.931.931,0,0,1,.31-.14c.471-.02.943-.018,1.414-.021.086,0,.171.011.257.016l-.175.023c.023.016.05.049.069.046a2.245,2.245,0,0,1,.335-.057l1.995.057c.7.019,1.39.053,2.085.05.362,0,.722-.086,1.085-.1l1.719-.012c.131,0,.357.064.4-.13.477.214,1.018-.1,1.484.093.279.117.436-.1.659-.088a11.251,11.251,0,0,1,2.073.077c.279.063.619-.127.918.061.015.01.184-.182.393-.161a3.774,3.774,0,0,1,1.186.067,1.2,1.2,0,0,0,.722-.091c.306-.124-.034.341.274.151.011-.008.072.028.081.021.053-.038.089-.1.148-.12.038-.01.1.05.183.08a3.041,3.041,0,0,0,.619.261c.434.023.913.08,1.337.084.365,0,.1.111.123.136.15.2.725.095.646.439.207-.1.255.354.5.165.022-.016.139.046.212.074l-.094.109c.22.088.632.208.313.427-.336.223.145.063.1.151a.35.35,0,0,0,0,.193c0,.012.094.042.094.042a.984.984,0,0,1-.079.19.839.839,0,0,0-.123-.138.253.253,0,0,0-.083-.029.748.748,0,0,1,.013.094,1.114,1.114,0,0,1-.015.142c.193-.318.005.575.269.081.018-.037.15-.066.158-.055a.923.923,0,0,1,.15.278.253.253,0,0,1-.017.14,1.426,1.426,0,0,0,.146-.172.874.874,0,0,0,.06-.118c.009.034.031.071.026.1a1.017,1.017,0,0,1-.1.307c-.009.019-.078.005-.12.008.03.078.1.2.067.233-.124.127-.039.239.015.327,0,.005-.048.032-.074.048a2.251,2.251,0,0,0,.173.156c.035.026.118.033.124.057a.12.12,0,0,1-.066.1c-.036.016-.1-.005-.146-.01l-.074-.007c.022.034.041.1.066.1.107.008-.094.238.152.128a.55.55,0,0,1,.1-.023l-.163.348c.392.081-.428.281.054.359.01,0,0,.081,0,.124-.1-.174-.049.292-.169.024-.007-.016-.038-.023-.059-.034a.126.126,0,0,0-.022.035c-.022.09-.1.22-.052.262.109.1.322.41.254.531-.017.03-.209-.022-.285.013-.2.094-.062.06.04.066a.514.514,0,0,1,.253.082c-.061.4.2.824-.089,1.217-.011.016.014.055.035.076a.114.114,0,0,0,.074.005c.051-.009.1-.025.152-.038l.009.129a.277.277,0,0,0-.067-.056.082.082,0,0,0-.063.023,2.483,2.483,0,0,0-.207.331c-.027.059.008.134-.005.2a.214.214,0,0,1-.129.026.87.87,0,0,1-.1-.162l-.163.079h0v0l0,0-.193-.282-.017.266c0,.064,0,.182.018.185.155.017.19-.07.2-.171l0,0c.176.116.359.227.52.355.023.019-.078.121-.1.189-.082.293.44.308.428.576,0,.064.075.137.054.191s-.12.093-.185.139c0-.085,0-.172-.014-.256,0-.008-.066-.011-.1-.016.047.07-.043.118-.05.149a2.513,2.513,0,0,0-.01.543v.107a.571.571,0,0,0-.1-.055.115.115,0,0,0-.072.011l-.029.211a.264.264,0,0,1,.07-.049c.066-.019.134-.029.2-.043.015.08.036.16.043.241.025.289.062.578.063.867s-.052.59-.054.885c0,.168.1.339.074.5a1.138,1.138,0,0,1-.213.587c-.256.3-.094.63-.151.941-.011.061.183.146.283.22-.253.033-.252.216-.347.349a1,1,0,0,1-.271.184h-.009l-.2-.2-.136.269.336-.068,0,0,.005,0c.676-.025.089.31.2.443a1.141,1.141,0,0,0,.2.158c-.061.036-.221.053-.021.131.065.026.078.133.115.2-.085-.039-.114-.047-.273.129a.8.8,0,0,1-.187-.041l.039.21-.142.168c-.032.039-.038.133-.005.158a1.436,1.436,0,0,0,.284.128,2.163,2.163,0,0,1-.091-.24l-.045-.214.147-.169a.285.285,0,0,0,.273-.117c-.009.3-.306.573-.1.885-.243-.116-.288.084-.407.163-.018.012-.015.044-.022.067.709-.05.1.352.272.5.225.2-.348.432.014.647-.353.067-.221.277-.221.454a2.318,2.318,0,0,1-.054.347.056.056,0,0,0,.008.026l-.4.135a1.238,1.238,0,0,1,.375-.06c.139.023.363.1.374.171a5.179,5.179,0,0,0,.054.9c.082.234-.309.285-.2.39.288.286-.325.315-.2.514.149.234.1-.189.252-.061.01.008.261-.189.281-.036.027.213.171.471-.077.67a1.6,1.6,0,0,1-.308.147c.126.012.052.261.282.149a.891.891,0,0,0,.065.222c.153.254-.132.459-.113.7-.267-.078-.145.13-.125.124.555-.146.218.236.215.283a1.03,1.03,0,0,1-.183.58c-.125.157-.024-.17-.179-.091-.017-.061-.021-.189-.128-.09-.056.053-.011.237.067.308a.827.827,0,0,1,.214.8,1.637,1.637,0,0,0,.149.719c.057.146,0,.287-.219.406-.043.025.106.229.053.291-.2.235.486.405.056.634.508.215-.314.152-.1.3l.038.031c.09-.047.206-.258.26-.107a.772.772,0,0,1,.015.742.56.56,0,0,0-.053.428c.039.15-.038.272-.045.391-.013.192.09.4.026.608-.011.035.068.088.106.133-.2-.068-.247.292-.506.111-.037-.026-.079-.231-.234-.07a1.163,1.163,0,0,0,.251.144c.233.068.279.521.071.715-.042.039-.089.132-.072.143.211.14.268.216-.087.164-.009,0-.034.043-.034.043.123.067.275.119.2.276.215-.036.146.1.112.147-.156.228.341.161.243.353h.1l-.1.08c.11.058.313.185.152.227-.407.1-.2.385-.239.574-.014.164.122.385-.116.5a.567.567,0,0,1-.585-.11.4.4,0,0,0-.275-.015c-.05.015-.062.11-.092.17.059-.026.132-.087.177-.077a.661.661,0,0,1,.326.142c.074.078.018.175-.14.142.04.036.117.07.113.109-.02.216-.227.337-.443.42a2.848,2.848,0,0,0-.282.151,1.085,1.085,0,0,1,.165.1c.025.022.019.066.026.1-.26-.124-.278.2-.473.189a.809.809,0,0,1-.183-.025,2.335,2.335,0,0,1-.25-.092c-.068.124.111.086.15.13.1.112.15.248-.09.371-.083-.225-.463.427-.462-.022-.163.085-.337.161-.507.24-.2.1-.524.315-.617.272-.349-.161-.388.186-.628.12-.039-.012-.054-.053-.079-.08.232.032-.167-.23.166-.148a.633.633,0,0,0,0-.2C1687.33,961.1,1687.269,961.04,1687.2,961.022Zm-26.509-33.389-.486-.168a.817.817,0,0,0-.03.182,3.725,3.725,0,0,0,.387.047Zm1.1.541c-.11-.027-.119-.064-.3.048l.021-.017.009-.007.017-.015h0l-.017.015-.009.007-.063.054c.135.026.3.1.4.067C1662.007,928.274,1661.9,928.2,1661.786,928.173Zm.506-.27-.356-.169-.107.2c.041.026.086.073.113.068C1662.062,927.974,1662.176,927.936,1662.292,927.9Zm.555-.166a1.252,1.252,0,0,0-.388-.078c-.167.037.213.157-.029.216a1.1,1.1,0,0,0,.222-.006C1662.7,927.856,1662.741,927.811,1662.846,927.737Zm1.349.29a1.561,1.561,0,0,0-.343-.2c-.059-.019.1.27-.3.086l.028.287Zm3.148.022a1.364,1.364,0,0,0-.7-.124c-.529.1.146.167.116.186.085-.18.187.017.3.113C1667,928.023,1667.406,928.075,1667.343,928.049Zm1.03-.263c-.045-.185-.19-.274-.576-.224l-.288.1.36.054a.077.077,0,0,1,.042.024l.279.295c.185-.139-.2-.113-.114-.225.014-.017.01-.041.015-.061a.522.522,0,0,0,.152.083A.207.207,0,0,0,1668.373,927.786Zm4.252-.487a.131.131,0,0,0-.095-.046,1.235,1.235,0,0,0-.372.029,1.551,1.551,0,0,0-.345.216c-.014.009-.009.05.008.064a.137.137,0,0,0,.086.028.449.449,0,0,1,.582-.067h.083c-.021-.02-.053-.04-.06-.062a.862.862,0,0,1-.014-.141.152.152,0,0,1,.057.009.724.724,0,0,1,.067.068C1672.624,927.364,1672.64,927.326,1672.625,927.3Zm5.472.642c-.169-.117-.409.126-.578-.057-.021.037-.069.082-.057.11.121.279.335.016.5.047C1678.12,928.091,1678.125,927.96,1678.1,927.941Zm5.942-.187-.06.047-.165-.19c-.112.061-.264.2-.2-.064a.924.924,0,0,0,0-.212c-.019,0-.049,0-.053.008-.087.153-.164.161-.231-.008-.03.011-.075.016-.087.033a.1.1,0,0,0-.007.091,2.42,2.42,0,0,1,.149.241.163.163,0,0,1,.009.09l0,0c0,.016,0,.012,0,0,.38.22.086-.162.28-.019.086.063.062.207.113.308a.494.494,0,0,0,.227-.023A1.2,1.2,0,0,0,1684.039,927.754Zm2.441-.091c-.031-.266-.158-.026-.244-.018s-.17.054-.242-.054c-.2.442.176.235.3.244C1686.349,927.84,1686.486,927.72,1686.48,927.663Zm1.049.011a4.341,4.341,0,0,0-.865-.043c-.048,0-.142.082-.132.1.182.362.484-.019.528,0C1687.428,927.844,1687.556,927.682,1687.528,927.674Zm3.717,4.109c-.242.031-.129.2-.186.31h-.006a.563.563,0,0,0-.066-.124.251.251,0,0,0-.122-.089c-.234-.043-.247.151-.37.23-.012.008.026.065.04.1a1.1,1.1,0,0,1,.126-.085c.053-.028.113-.048.169-.071a.212.212,0,0,0,0,.047.465.465,0,0,0,.03.123c.008.015.074.028.078.023a1.8,1.8,0,0,0,.112-.154h0l0,.005,0-.006c.146-.027.3-.048.282-.211C1691.336,931.846,1691.271,931.78,1691.245,931.784Zm-.958.577.286-.485-.042-.1c-.31.109-.08.407-.307.546Zm.391,7.346c0-.13.081-.023.2.1-.02-.172-.03-.257-.039-.341-.189.146-.607.231-.516.436C1690.385,940.044,1690.674,939.964,1690.678,939.707Zm-.3,4.678a3.142,3.142,0,0,0,.181-.485c.009-.043-.13-.1-.2-.159-.035.169-.07.338-.11.529Zm.064.732.13-.12c-.336-.133-.068-.3-.055-.491a.214.214,0,0,0-.35.113A1.932,1.932,0,0,0,1690.446,945.117Zm-.545,2.4.062-.2.054-.248c.322.065.1-.123.136-.189.014-.023,0-.057-.005-.085a.758.758,0,0,0-.193.033c-.3.137-.108.337-.088.512C1689.874,947.4,1689.653,947.445,1689.9,947.522Zm.533.012c.477-.171.191-.476.227-.725,0-.008-.02-.017-.031-.025l-.237.708C1690.389,947.506,1690.426,947.527,1690.434,947.534Zm.508.108a3.375,3.375,0,0,0,.176-.362c.01-.028-.062-.074-.1-.112-.072.115-.149.229-.208.348C1690.8,947.535,1690.877,947.581,1690.942,947.642Zm-.724,1.327c.027-.073.03-.149.078-.194.192-.177-.182-.292-.069-.456-.039-.005-.09-.028-.118-.016-.2.086,0,.147.026.22a.457.457,0,0,1,.005.14c-.08,0-.186-.195-.217-.015C1689.907,948.74,1690.1,948.852,1690.218,948.969Zm.085.566.132-.239c-.146-.04-.223.191-.4.061-.024-.018-.1.012-.158.019Zm.584,4.705.224-.24-.048-.032c-.312-.052-.172.14-.266.192Zm.017,3.184c.268-.138-.308-.269-.006-.407-.124-.077-.161-.026-.184.109l-.17.03C1690.687,957.227,1690.891,957.246,1690.9,957.424Z" transform="translate(-1653.398 -926.926)" fill="#4c1400"/>
      </g>
    </g>
  </g>
</svg>
