<svg xmlns="http://www.w3.org/2000/svg" width="79.224" height="35.285" viewBox="0 0 79.224 35.285">
  <g id="Group_82" data-name="Group 82" style="mix-blend-mode: multiply;isolation: isolate">
    <path id="Path_10143" data-name="Path 10143" d="M1784.422,959.473h-72.949a2.487,2.487,0,0,1-2.22-2.686V929.048a2.487,2.487,0,0,1,2.22-2.686h72.949a2.486,2.486,0,0,1,2.219,2.686v27.739A2.486,2.486,0,0,1,1784.422,959.473Z" transform="translate(-1708.336 -925.275)" fill="#ffb806"/>
    <g id="Group_81" data-name="Group 81">
      <g id="Group_77" data-name="Group 77" transform="translate(17.806 33.111)">
        <path id="Path_10144" data-name="Path 10144" d="M1740.7,969.006v-.795c.106.039.229.039.253-.2.052.028.123.04.152.087.112.179.171.158.28-.021.076-.125.207-.072.288.066a.953.953,0,0,0,.131-.075c.022.106.032.04.079.01a.307.307,0,0,1,.259-.046c.126.065-.045.084-.033.088.1.027.221.092.3.051.376-.2.768,0,1.146-.089,0,0,.009-.009.012-.008.348.112.683-.144,1.074.058a1.437,1.437,0,0,0,1.056-.154c.247-.1.351.088.522.137.063.018.138-.027.207-.024a5.9,5.9,0,0,1,.814.06c.139.026.259.179.4.217.054.015.182-.111.205-.2.083-.314.307.064.4-.126.157.117.4.135.39.446a.884.884,0,0,1,.1-.268c.184-.21.356-.031.544.02a.363.363,0,0,0,.441-.127c-.036-.009-.072-.015-.108-.027l.005-.055a1.192,1.192,0,0,1,.2.049c.028.011.05.063.06.1,0,.015-.026.054-.047.066a.408.408,0,0,1-.1.027c.017.023.038.066.049.064.066-.021.179-.043.183-.08.027-.241.219.026.265-.124.307.19.337.185.656.054.094-.038.227.022.3-.032.191-.133.159.075.219.152.026.033.076.043.115.062a.827.827,0,0,1-.064-.114.246.246,0,0,1,0-.078c.138.018.228.164.424-.033.149-.151.531.05.792-.01a.391.391,0,0,1,.508.186c.1-.259.3-.283.5-.295.249-.014.5,0,.748-.031.194-.025.009.326.1.191a.367.367,0,0,1,.4-.172c.187.021.422-.114.558.152,0,0-.066.051-.1.078l.217.078v.01l.03.013,0-.037c.116-.293.318.005.481-.093a.954.954,0,0,1,.482-.06c.1,0,.258-.135.267.131,0,.018.064.054.089.045.058-.018.145-.046.159-.094.04-.138.167-.219.372-.2a1.719,1.719,0,0,1,.629.048c.3.148.617-.014.939.126a1.2,1.2,0,0,1,.486.228c.091.092-.079-.163.1-.167.356-.008.032.549.35.51.123-.015.327.244.365-.12-.021.008-.046.029-.061.021-.039-.02-.072-.056-.112-.078-.138-.079-.1-.2-.065-.328.1.047.273.079.283.144.026.175.143.055.189.121-.014-.037-.027-.075-.037-.113,0-.006.019-.027.029-.027.173,0,.346,0,.52.007l-.114.157c.158-.016.379-.114.457-.032.141.152.351-.187.419.122.073-.034.136-.206.225-.02.079-.21.315.179.381-.129a1.533,1.533,0,0,1,.244.034l.834.13c-.181.2.172.205.1.369-.009.02.019.061.029.093l.023-.094,0,0h0c.259.37.331-.06.483-.152h0l0,0c.052.122.112.235.252.2.022-.006.035-.061.051-.094-.1-.032-.156-.257-.3-.1v0l-.005,0c-.152-.061-.32-.107-.212-.371.015-.036.164-.083.007-.129a.137.137,0,0,0-.089.032c.041.25-.111.421-.189.62h0c-.02-.106-.087-.246-.051-.31.177-.318.374-.509.773-.383a3.259,3.259,0,0,0,1.058-.023c.094,0,.237-.1.231.133a.751.751,0,0,1,.072-.115c.375.2.82-.114,1.177.211.008.007.035-.009.049-.02.04-.031.078-.065.117-.1a.414.414,0,0,1-.086,0c-.01,0-.018-.027-.026-.042a.7.7,0,0,1,.213-.09q.435-.023.869-.015c.058,0,.116.065.174.1-.073.024-.146.053-.221.071a.3.3,0,0,1-.165.012c-.19-.071-.4.121-.58-.077a.506.506,0,0,0-.042.112c-.031.216.054.088.122.061s.17-.052.193-.019c.047.069-.005.207.114.02.064-.1.348-.083.5-.02.27.11.379-.294.631-.208.095.032.21-.031.316-.031.336,0,.67.007,1.006.02a.174.174,0,0,1,.114.1.73.73,0,0,1,.028.188c0-.061,0-.124.009-.184a.38.38,0,0,1,.029-.083c.009.014.024.026.026.042.014.085.025.17.036.256.122-.046.115-.146.089-.262,0-.019.033-.053.055-.076.006-.006.024,0,.037,0-.008.026-.013.055-.022.079-.062.159.028.219.129.279a.777.777,0,0,1,.122.116.588.588,0,0,0-.071.049.14.14,0,0,0-.021.046.29.29,0,0,0,.119.009c.022-.008.045-.063.043-.095-.007-.118-.031-.233-.037-.351-.008-.158.025-.172.2-.095a.6.6,0,0,1,.1.074c.137-.336.326-.026.477-.023.29,0,.585.183.821-.162.005-.006.044.014.065.028.059.041.12.126.173.118.158-.022.309-.095.466-.122a4.3,4.3,0,0,1,.635-.061c.043,0,.089.1.134.153-.009.21.029.358.255.251l.075.116c.167.006.333.02.5.016a1.573,1.573,0,0,1,1,.194c.159.1.428.092.637.209.043.025.153-.112.233-.174-.1.007-.031-.339-.225-.152-.093-.159-.314.061-.38-.17a1.211,1.211,0,0,1-.023-.187c.1.043.193.126.288.124a2.144,2.144,0,0,0,.58-.1c.153-.049.19.007.185.162,0,.015,0,.029,0,.043.04-.187.131-.066.205-.049a.389.389,0,0,0-.018.148.2.2,0,0,0,.1.113c.181.075.2-.124.283-.227l.326.007-.095.13.139.118.019.033.072.041.03-.009c.219-.214.39-.187.508.13.005.014.027.019.041.027-.1-.313.159-.254.273-.344-.088-.1-.1-.186.046-.207.193-.028.388-.042.582-.06.016,0,.034.011.051.016-.013.016-.027.031-.038.048a.852.852,0,0,0-.08.139c0,.007.049.043.076.066a1.007,1.007,0,0,1,.028-.107c.113.025.235.106.332.077.21-.064.073.176.1.159.073-.041.124-.132.19-.2a.137.137,0,0,1,.1-.04c.023,0,.043.045.065.07-.032,0-.068-.017-.094,0a.349.349,0,0,0-.1.088c-.006.007,0,.047.007.047.085,0,.169,0,.255,0,.1.016.244.089.3.037.144-.133-.036-.2-.1-.216s-.13.067-.2.107c-.084-.241.241-.132.21-.328.068.139.253-.2.285.092,0,.012.016.022.024.033a.582.582,0,0,0,.113-.124.458.458,0,0,0,.015-.148c.005-.049.012-.1.019-.146l.124.058a.393.393,0,0,0-.083.015c-.009,0-.019.032-.014.044.026.078.054.155.083.233l.11-.078c-.028-.012-.067-.014-.081-.037s-.017-.09,0-.1c.083-.066.172-.12.26-.178-.015.035-.033.068-.046.1a.174.174,0,0,0,.118.251c.086.031.1.083.025.131a.534.534,0,0,1-.182.049,1.155,1.155,0,0,1,.125.072c.23.176.1-.1.15-.155.193-.226.341.144.525.059h0c.07.062.122.253.228.018.031-.069.148-.1.2.033.153-.123.307-.246.461-.368a.042.042,0,0,1,.037,0c.027.115.053.231.078.347-.055-.009-.126,0-.162-.032-.148-.147-.158.137-.263.106a1.06,1.06,0,0,1,.153.121c.261.291.019-.153.118-.109.026.011.069-.037.1-.03.313.076.277-.3.427-.433a.627.627,0,0,1,.211-.079c.01.037.035.083.025.11-.115.318.215.274.288.462s.21.394.454.363c.052-.007.109.033.16.025.032-.005.057-.062.085-.1-.269.079-.268-.451-.559-.331-.032.013-.074-.012-.111-.02a2.684,2.684,0,0,1,.255-.221c.011-.008.077.086.113.135.008.009,0,.035,0,.054a.517.517,0,0,0,.11-.079c.051-.06.083-.154.143-.188.032-.018.1.06.159.094a.719.719,0,0,0-.176.054c-.019.012-.117.127.014.11a1.311,1.311,0,0,0,.315-.151c.018-.008.071.047.075.042.116-.164.212,0,.248.06.106.187.109.377-.129.44-.027.008-.074-.08-.111-.124,0,.042-.011.116,0,.12.087.036.228.112.259.074.133-.164.24-.313.41-.061,0-.015.012-.041.007-.045-.08-.07-.159-.187-.245-.193-.112-.008-.1-.016-.037-.089.022-.026.064-.028.086-.054.054-.061-.242.035-.036-.1.02-.013.02-.249.1-.026.01.028.147.042.174.008.08-.1.313.239.284-.136,0-.016.058-.047.092-.059.2-.066.38-.231.6-.142a.567.567,0,0,1,.082.032.061.061,0,0,1,.02.043c-.21.35.076.223.187.263h0c-.056,0-.128-.015-.164.018-.124.112.085.1.06.181l.3-.04-.01.009.007,0-.087.321c.159-.063.258.294.421.1.1-.118-.193-.362.079-.468-.024-.014-.054-.02-.069-.042-.161-.221-.207.188-.344.089l0-.013h0l.084-.071-.284-.088h0c.218-.132.016-.174-.041-.248a.184.184,0,0,1-.019-.038.669.669,0,0,1,.071-.02c.248-.043.515.078.745-.118.013-.01.063.009.072.027a.452.452,0,0,1,.035.155.307.307,0,0,1-.036.1l.331.083c0-.043,0-.088,0-.131,0-.026.015-.07.026-.072.2-.031.4-.047.6-.087s.406.156.6-.024l.023.015c-.01.049-.01.114-.037.141a.647.647,0,0,1-.164.093c.17-.05-.035.336.191.22a.376.376,0,0,0,.052-.038.335.335,0,0,1-.035-.044c-.028-.048-.055-.1-.078-.147,0,0,.016-.021.025-.032.021.2.135-.061.18.049a.315.315,0,0,0,.111.158c.032.015.121-.036.133-.078a.742.742,0,0,0,0-.242c0-.015-.019-.028-.029-.042.015-.011.032-.034.045-.032a1.035,1.035,0,0,1,.26.067c.072.037.153.174.193.157.181-.078-.108-.033-.028-.109.2-.192.454-.107.663-.086a1.776,1.776,0,0,1,.756.319c.137.091.189-.069.284-.037l-.035-.2c-.081.026-.164.048-.242.082a.427.427,0,0,0-.1.083.409.409,0,0,1,.016-.137c.04-.076.115-.21.137-.2a2.951,2.951,0,0,0,1.123.041c.1,0,.189.08.285.084.069,0,.138-.068.211-.089.021-.006.08.067.078.071-.04.07-.087.135-.132.2a1.135,1.135,0,0,0,.2-.083,1.087,1.087,0,0,0,.159-.149c.023-.024.06-.075.061-.074.308.311.638-.111.949.037l.073.034c-.007.012-.011.029-.02.033-.087.043-.285.107-.236.133a1.189,1.189,0,0,0,.583.095c.069,0,.138-.129.2-.207.019-.023.017-.1.022-.1.2.015.394.037.589.058-.048.02-.1.039-.142.063-.005,0,0,.031,0,.048l.3,0c0-.017,0-.04-.011-.05a.884.884,0,0,0-.076-.073.556.556,0,0,1,.116-.021c.335.008.67,0,1,.04.1.012.2.147.295.223a.079.079,0,0,0,.062.02c.022-.009.052-.034.054-.057.055-.373.18.049.266-.026.007-.006.074.079.113.122l.055.058a.353.353,0,0,0,.027-.083c0-.015-.023-.032-.035-.049s-.023-.037-.034-.055c.018-.012.041-.039.053-.034a1.447,1.447,0,0,1,.434.21c.177.167-.238.048-.1.232.021.028.032.079.056.088.089.03.178.053.268.077v.732a.7.7,0,0,0-.315.055c-.036.016-.4.172-.463-.175-.182.187-.342-.162-.528-.029-.032.023-.1-.018-.15-.029.012-.066.023-.133.034-.2,0-.016,0-.032.007-.049-.021,0-.047,0-.061.015a.343.343,0,0,0-.058.083c.086.094.058.139-.045.127-.024,0-.139.127-.1-.054a.745.745,0,0,0-.143.027c-.009,0,.006.078-.009.089-.438.348-.876.171-1.328.028-.156-.049-.4.141-.51.059-.171-.125-.259.091-.4.026a1.114,1.114,0,0,0-.379-.038c-.274-.022-.526.164-.837,0a.577.577,0,0,0-.716.109c-.072.086-.33-.019-.5-.06-.241-.059-.479-.139-.718-.21-.062.386-.32.2-.506.252-.222.068-.476-.182-.667.1-.006.008-.028,0-.042,0,.012-.147.024-.295.039-.441,0-.018.023-.033.036-.05-.017-.007-.045-.025-.05-.018-.108.138-.215.279-.322.419a.489.489,0,0,1-.067.086c-.013.01-.042,0-.063-.008.019-.022.049-.041.055-.066a.434.434,0,0,0,0-.123.688.688,0,0,0-.245.01c-.089.031-.165.132-.251.145a1.814,1.814,0,0,1-.992-.044c-.222-.095-.446.2-.665.006a.7.7,0,0,1-.109-.227l0-.005h0c.039-.13.1-.019.108.009.107.254.055-.034.066-.1l.023,0a.373.373,0,0,1,.026.049l.024-.04-.049-.009c-.013-.021-.02-.02-.023,0-.095-.019-.189-.037-.285-.049-.011,0-.028.067-.043.1l.152.036,0,.005h0c-.052.055-.123.16-.148.147-.135-.07-.34.031-.409-.232-.016-.059-.175-.068-.268-.1a.13.13,0,0,0-.026.076c.022.084.015.227.156.126.014-.01.05.016.076.026-.074.054-.146.148-.223.153-.338.022-.677.02-1.016.023a1.531,1.531,0,0,1-.185-.018l.126-.025c-.017-.019-.037-.055-.05-.051a1.114,1.114,0,0,1-.24.063c-.478-.015-.956-.041-1.434-.062-.5-.021-1-.058-1.5-.055-.26,0-.519.095-.779.107-.411.019-.825-.007-1.236.013-.094,0-.256-.07-.289.142-.342-.235-.731.114-1.066-.1-.2-.129-.313.107-.474.1a5.288,5.288,0,0,1-1.49-.084c-.2-.069-.445.139-.66-.067-.011-.011-.132.2-.282.177-.279-.042-.56.108-.852-.073-.125-.078-.368.006-.519.1-.221.136.024-.373-.2-.164-.009.008-.051-.031-.058-.024-.038.043-.063.114-.107.131-.028.011-.077-.056-.119-.084-.127-.085-.264-.251-.381-.235a1.593,1.593,0,0,0-.762.278c-.18.142-.089-.065-.109-.081-.159-.128-.37.251-.5-.073-.033.2-.3-.132-.291.17,0,.026-.076.053-.117.08l-.028-.136c-.133.083-.316.3-.361-.046-.048-.37-.083.067-.125-.01a.29.29,0,0,0-.13-.1c-.009-.005-.05.054-.052.052-.041-.044-.078-.092-.117-.14a1.125,1.125,0,0,0,.129-.04c.017-.007.029-.032.043-.049-.024-.012-.049-.021-.072-.035s-.07-.045-.1-.068c.2.265-.447-.2-.118.185a.229.229,0,0,1,.011.147.809.809,0,0,1-.224.041c-.033,0-.067-.031-.1-.047.036.055.07.11.107.162a.86.86,0,0,0,.073.083c-.025,0-.053.006-.072-.006a1.524,1.524,0,0,1-.207-.146c-.014-.011,0-.066,0-.1-.061.011-.153.056-.179.026-.1-.112-.172-.049-.258,0,0,0-.029-.041-.044-.063-.049.049-.1.093-.145.146-.024.03-.031.1-.054.1a.108.108,0,0,1-.094-.056c-.015-.03,0-.082.009-.124l.007-.062c-.032.019-.091.035-.092.056-.007.091-.222-.081-.119.129a.407.407,0,0,1,.021.089l-.322-.139c-.075.334-.262-.364-.333.047a.535.535,0,0,1-.115,0c.161-.082-.271-.042-.022-.143.014-.006.021-.033.031-.05a.135.135,0,0,0-.032-.02c-.083-.019-.2-.084-.244-.044-.089.094-.38.274-.492.216-.028-.015.02-.177-.012-.241-.087-.173-.055-.054-.061.033s-.057.217-.077.215c-.375-.051-.765.167-1.13-.075-.015-.01-.051.012-.071.03s-.009.042-.005.062c.009.043.023.086.036.129l-.119.008a.23.23,0,0,0,.051-.057.065.065,0,0,0-.021-.054,2.34,2.34,0,0,0-.307-.176c-.054-.023-.124.007-.185,0a.167.167,0,0,1-.024-.109.777.777,0,0,1,.151-.086l-.074-.139,0,0h0l0,0,.262-.164c-.082-.005-.164-.014-.247-.015-.06,0-.17,0-.171.015-.015.132.065.161.159.166v0c-.107.15-.21.306-.329.441-.018.021-.113-.066-.176-.083-.272-.07-.285.373-.534.365-.059,0-.127.064-.176.045s-.088-.1-.129-.158c.079,0,.159,0,.238-.012.008,0,.01-.056.015-.087-.065.04-.11-.037-.139-.043a2.551,2.551,0,0,0-.5-.009c-.033,0-.066,0-.1,0a.4.4,0,0,0,.051-.081.088.088,0,0,0-.01-.062c-.065-.011-.13-.017-.2-.024a.21.21,0,0,1,.046.059c.017.055.026.114.039.171-.074.013-.148.031-.223.037-.267.021-.536.054-.8.054s-.547-.044-.82-.045a4.312,4.312,0,0,1-.466.062,1.107,1.107,0,0,1-.545-.181c-.282-.218-.584-.08-.873-.128-.057-.01-.135.155-.2.24-.03-.216-.2-.215-.324-.295a.849.849,0,0,1-.17-.23v-.008h0l.187-.169-.25-.116.064.285,0,0,0,.005c.023.575-.287.075-.411.166a1.028,1.028,0,0,0-.146.166c-.034-.051-.049-.187-.121-.017-.024.055-.124.066-.189.1.036-.072.043-.1-.12-.233a.659.659,0,0,1,.038-.158l-.194.033-.156-.121c-.037-.028-.124-.032-.147,0a1.164,1.164,0,0,0-.118.241,1.947,1.947,0,0,1,.222-.078q.1-.022.2-.038c.066.051.115.09.156.125a.234.234,0,0,0,.109.232c-.275-.008-.531-.26-.82-.087.107-.207-.078-.244-.152-.346-.011-.015-.041-.013-.061-.019.047.6-.326.087-.465.231-.184.191-.4-.3-.6.011-.063-.3-.257-.187-.422-.187a2.314,2.314,0,0,1-.321-.045c-.009,0-.024.008-.025.006-.042-.113-.083-.227-.124-.342a.967.967,0,0,1,.055.319c-.021.118-.092.308-.158.318a5.234,5.234,0,0,0-.839.046c-.217.069-.264-.263-.362-.173-.265.245-.292-.276-.477-.169-.216.127.175.083.058.216-.008.008.175.221.032.238-.2.024-.436.146-.621-.065a1.288,1.288,0,0,1-.136-.261c-.011.107-.244.043-.139.239a.862.862,0,0,0-.205.055c-.236.13-.426-.112-.646-.1.072-.227-.12-.123-.115-.106.135.472-.219.186-.263.183a1.007,1.007,0,0,1-.538-.156c-.147-.106.157-.02.084-.152.056-.015.175-.017.083-.108-.049-.049-.219-.01-.286.055a.817.817,0,0,1-.739.183,1.627,1.627,0,0,0-.667.126c-.135.049-.266,0-.376-.186-.023-.037-.213.089-.27.045-.218-.17-.376.413-.589.047-.2.432-.141-.267-.283-.087-.009.012-.03.03-.028.032.043.078.239.175.1.221a.781.781,0,0,1-.689.013.561.561,0,0,0-.4-.046,1.018,1.018,0,0,1-.363-.037c-.179-.011-.369.077-.564.021-.033-.009-.083.058-.124.089.062-.169-.272-.21-.1-.429.025-.032.215-.068.064-.2a1,1,0,0,0-.133.214c-.063.2-.484.237-.663.06-.036-.035-.123-.075-.132-.061-.13.179-.2.228-.153-.074,0-.007-.038-.03-.039-.029-.062.1-.111.233-.256.172.034.183-.09.123-.137.095-.211-.132-.149.29-.327.207v.081l-.074-.081c-.054.094-.171.266-.21.13-.1-.344-.3-.169-.445-.16-.126.008-.26.186-.377.022a.53.53,0,0,1-.025-.51.3.3,0,0,0-.047-.225c-.025-.035-.112-.009-.171-.009.039.037.109.072.111.112a.671.671,0,0,1-.037.314c-.042.085-.124.083-.142-.05-.015.048-.02.123-.049.138-.158.083-.3.006-.431-.093a.9.9,0,0,0-.209-.089,1.2,1.2,0,0,1,.006.175c0,.031-.032.06-.049.089-.032-.258-.228-.031-.309-.14a.616.616,0,0,1-.075-.125c-.03-.068-.053-.141-.079-.212-.1.074.013.133.009.192-.011.148-.051.291-.222.284.049-.256-.407.208-.237-.222a3.064,3.064,0,0,0-.372.07c-.147.046-.373.211-.42.157-.194-.224-.246.163-.379.079-.023-.015-.031-.06-.047-.091.141.044-.1-.259.1-.156a1.171,1.171,0,0,0,.007-.225C1740.8,969.093,1740.754,969.03,1740.7,969.006Zm52.759.2.35.184a1.543,1.543,0,0,0,.021-.2,1.821,1.821,0,0,0-.278-.052Zm-.789-.594c.079.03.085.071.213-.053l-.014.019-.007.008-.012.015h0l.012-.015.007-.008.045-.059c-.1-.028-.214-.109-.288-.073C1792.512,968.5,1792.586,968.577,1792.671,968.609Zm-.364.3.256.186.077-.216c-.029-.028-.062-.08-.082-.074A2.185,2.185,0,0,0,1792.307,968.9Zm-.4.182c.123.042.211.108.278.086.121-.04-.152-.172.021-.238a.5.5,0,0,0-.16.008C1792.012,968.956,1791.985,969.006,1791.91,969.087Zm-.97-.318a1.139,1.139,0,0,0,.247.216c.043.02-.071-.3.214-.095-.008-.139-.014-.227-.02-.314Zm-2.262-.024a.693.693,0,0,0,.505.135c.381-.115-.1-.183-.083-.2-.061.2-.135-.019-.217-.124C1788.923,968.774,1788.633,968.717,1788.678,968.746Zm-.739.288c.031.2.136.3.413.246l.207-.112-.259-.059a.055.055,0,0,1-.03-.026c-.067-.107-.134-.216-.2-.324-.133.153.145.124.082.248a.231.231,0,0,0-.01.066c-.036-.032-.068-.079-.109-.091S1787.937,969.022,1787.938,969.034Zm-3.056.534a.089.089,0,0,0,.068.05.593.593,0,0,0,.267-.031,1.209,1.209,0,0,0,.248-.239.082.082,0,0,0-.005-.07c-.014-.019-.055-.038-.062-.03-.124.14-.25.244-.418.072h-.06a.219.219,0,0,1,.043.068,1.325,1.325,0,0,1,.009.155c-.014,0-.032,0-.041-.009a.609.609,0,0,1-.048-.074A.3.3,0,0,0,1784.882,969.568Zm-3.931-.7c.12.129.293-.139.415.062.015-.041.049-.089.04-.121-.086-.306-.239-.017-.36-.052C1780.934,968.7,1780.932,968.843,1780.951,968.864Zm-4.27.2.043-.052.118.209c.08-.066.19-.221.145.07a1.507,1.507,0,0,0,0,.232c.014,0,.035,0,.037-.008.063-.169.118-.178.166.009.022-.013.054-.018.062-.037a.155.155,0,0,0,.005-.1c-.032-.089-.083-.172-.107-.265a.28.28,0,0,1-.006-.1l0,0c0-.016,0-.013,0,0-.273-.242-.061.178-.2.02-.061-.069-.044-.227-.081-.338-.005-.014-.158,0-.163.026A1.969,1.969,0,0,0,1776.682,969.069Zm-1.754.1c.022.293.113.028.175.02s.123-.059.175.059c.146-.486-.126-.258-.214-.268C1775.021,968.974,1774.922,969.106,1774.928,969.168Zm-.743,0a2.754,2.754,0,0,0,.611.033c.034,0,.1-.091.094-.114-.13-.4-.348.021-.379,0C1774.244,968.974,1774.162,969.167,1774.185,969.171Zm-4.907.341c-.029-.206-.188-.11-.288-.158v0a.552.552,0,0,0,.115-.056.2.2,0,0,0,.082-.1c.041-.2-.14-.21-.213-.314-.008-.011-.061.021-.092.034a1.167,1.167,0,0,1,.078.107c.026.045.044.1.066.144a.254.254,0,0,0-.044,0,.436.436,0,0,0-.114.026c-.014.006-.026.062-.021.066.045.035.094.064.142.095v0l-.005,0,.006,0c.025.124.044.258.2.24C1769.22,969.589,1769.281,969.534,1769.278,969.512Zm-.536-.814.45.243.1-.035c-.1-.264-.377-.069-.506-.261Zm-6.816.331c.121,0,.022.07-.091.17l.316-.033c-.135-.16-.215-.515-.4-.439C1761.615,968.78,1761.687,969.026,1761.926,969.029Zm-4.34-.251a3.084,3.084,0,0,0,.449.154c.04.008.1-.11.148-.17l-.491-.094Zm-.679.055.112.11c.123-.286.275-.058.456-.046a.178.178,0,0,0-.1-.3A1.839,1.839,0,0,0,1756.907,968.833Zm-2.231-.464c.065.019.125.038.187.053s.153.031.23.046c-.06.273.114.082.175.116.021.011.053,0,.08,0a.635.635,0,0,0-.031-.165c-.128-.256-.313-.092-.475-.073C1754.788,968.346,1754.747,968.158,1754.676,968.368Zm-.012.454c.158.406.442.162.673.192.007,0,.015-.016.023-.026-.219-.068-.438-.136-.658-.2C1754.691,968.784,1754.671,968.815,1754.664,968.822Zm-.1.431a3.035,3.035,0,0,0,.337.149c.026.009.068-.053.1-.083-.106-.061-.212-.127-.323-.176C1754.662,969.135,1754.621,969.2,1754.564,969.253Zm-1.232-.616c.068.024.139.026.181.067.164.164.271-.154.422-.059.006-.034.026-.078.015-.1-.08-.165-.136,0-.205.022a.468.468,0,0,1-.13.005c0-.068.181-.159.014-.186C1753.546,968.373,1753.441,968.541,1753.333,968.638Zm-.525.072.222.112c.037-.123-.177-.189-.056-.338.016-.02-.011-.089-.019-.135Zm-4.366.5c.073.065.147.13.222.191a.346.346,0,0,0,.029-.042c.049-.265-.129-.146-.178-.226Zm-2.954.014c.128.227.25-.262.378-.005.071-.106.024-.137-.1-.157l-.028-.144C1745.671,969.037,1745.653,969.21,1745.488,969.222Z" transform="translate(-1740.701 -967.944)" fill="#ffb806"/>
      </g>
      <g id="Group_78" data-name="Group 78" transform="translate(0 0.408)">
        <path id="Path_10145" data-name="Path 10145" d="M1711.6,926.207v.724c-.077-.03-.172-.026-.166.194-.037-.019-.084-.022-.11-.061-.1-.154-.152-.114-.182.062-.022.118-.106.11-.205.011-.005-.006-.038.067-.055.1-.052-.08-.035-.023-.052.016-.031.057-.074.134-.13.13-.1,0-.014-.081-.021-.08-.072.012-.17.032-.2.093-.085.31-.374.42-.424.719a.055.055,0,0,0,0,.011c-.187.212-.031.484-.2.761a1.914,1.914,0,0,0,.13,1.138c.087.267-.075.379-.116.563-.016.067.022.148.02.223a8.082,8.082,0,0,1-.05.877c-.022.151-.151.28-.184.431-.013.059.094.2.167.222.266.09-.054.331.106.435-.1.169-.114.428-.377.42a.674.674,0,0,1,.228.112c.176.2.026.383-.018.587a.461.461,0,0,0,.107.476c.008-.039.014-.078.023-.116a.214.214,0,0,1,.046,0,1.584,1.584,0,0,1-.041.221.142.142,0,0,1-.087.064c-.014,0-.046-.029-.056-.051a.55.55,0,0,1-.023-.109c-.019.018-.056.041-.054.052.017.07.037.192.067.2.2.029-.021.236.106.286a.666.666,0,0,0-.046.707c.032.1-.019.244.028.329.112.2-.064.172-.13.236a.385.385,0,0,0-.053.123.765.765,0,0,1,.1-.068.15.15,0,0,1,.066,0c-.015.149-.139.247.028.457.127.161-.043.573.008.854.045.248.027.41-.158.547.22.1.239.323.249.542.012.269,0,.539.026.805.021.21-.275.011-.161.108a.452.452,0,0,1,.146.431c-.019.2.1.454-.129.6l-.066-.11-.066.234h-.009l-.011.033.031,0c.248.125,0,.343.079.519a1.294,1.294,0,0,1,.049.519c0,.1.114.279-.11.288-.015,0-.046.068-.039.1.016.062.039.157.079.172.118.043.186.179.174.4a2.348,2.348,0,0,1-.041.677c-.125.327.011.665-.107,1.012a1.464,1.464,0,0,1-.193.525c-.078.1.138-.085.141.109.007.383-.463.035-.431.377.012.132-.206.352.1.394-.007-.023-.024-.05-.018-.066.017-.043.048-.078.066-.12.067-.15.171-.11.277-.071-.04.107-.067.295-.122.3-.147.028-.047.155-.1.2.032-.014.064-.03.1-.04,0,0,.023.02.023.032l-.006.559-.132-.123c.014.169.1.409.026.492-.129.154.157.38-.1.452.029.079.174.147.017.242.177.086-.151.34.109.41a2.061,2.061,0,0,1-.029.263l-.11.9c-.168-.2-.174.185-.313.108-.017-.009-.052.02-.078.032l.081.024,0,0h0c-.312.28.051.358.13.521v0l0,0c-.1.056-.2.12-.168.272,0,.024.052.037.079.055.026-.11.217-.168.089-.327h0l0-.005c.052-.163.09-.344.314-.228.03.016.07.177.108.007a.174.174,0,0,0-.027-.1c-.212.044-.355-.12-.525-.2h0c.09-.022.208-.094.262-.056a.69.69,0,0,1,.323.833,4.552,4.552,0,0,0,.02,1.141c0,.1.088.255-.112.249a.641.641,0,0,1,.1.077c-.171.4.1.884-.179,1.269-.006.008.008.036.018.053l.082.126a.486.486,0,0,1,0-.092c0-.012.023-.019.035-.029a.884.884,0,0,1,.076.23c.013.311.018.624.013.936,0,.063-.054.125-.083.188-.02-.079-.044-.157-.06-.237a.432.432,0,0,1-.01-.179c.06-.2-.1-.435.066-.625a.381.381,0,0,0-.094-.045c-.183-.033-.074.058-.051.131s.044.184.016.208c-.059.05-.175-.005-.017.123.084.069.07.374.017.54-.093.292.248.408.176.68a1.48,1.48,0,0,0,.025.341q0,.542-.017,1.084a.184.184,0,0,1-.083.123.463.463,0,0,1-.159.03c.052,0,.1,0,.156.01a.26.26,0,0,1,.07.031c-.011.01-.022.026-.035.029l-.216.039c.037.134.126.113.221.094.015,0,.046.027.067.043.005,0,0,.019,0,.03-.022-.005-.046-.009-.068-.016-.137-.05-.182.029-.23.13-.023.046-.057.085-.084.129a.662.662,0,0,0-.052-.064c-.009-.01-.026-.012-.04-.017a.3.3,0,0,0,.009.122.09.09,0,0,0,.085.03c.1-.024.191-.062.288-.082.134-.026.142,0,.107.148a.716.716,0,0,1-.041.1c.3.022.094.244.151.37.089.211.133.541.469.462.006,0,.015.032.019.052.009.058,0,.151.031.177a1.821,1.821,0,0,0,.351.123c.153.047.3.1.447.129.03.007.043.106.067.162-.044.186-.031.325.175.258l.058.109a3.636,3.636,0,0,0,.482.023,1.708,1.708,0,0,1,1,.177c.159.095.428.084.637.19.043.022.153-.1.233-.158-.1.006-.03-.309-.225-.138-.093-.145-.313.056-.38-.155a.917.917,0,0,1-.022-.17.828.828,0,0,0,.287.113,2.352,2.352,0,0,0,.581-.09c.153-.045.189.006.185.147v.04c.039-.17.131-.061.205-.045-.008.046-.031.1-.019.135a.187.187,0,0,0,.1.1c.181.068.2-.113.283-.207l.326.006-.094.119.139.107.019.03.072.037.03-.008c.219-.195.391-.171.508.119.005.012.027.017.042.025-.1-.285.158-.231.273-.313-.088-.091-.1-.169.046-.188.193-.026.388-.038.582-.055a.168.168,0,0,1,.052.015c-.013.015-.028.028-.039.044a.774.774,0,0,0-.079.126c0,.006.049.04.076.061.009-.033.025-.1.027-.1.113.022.235.1.333.07.21-.058.073.161.1.145.074-.037.125-.12.191-.179a.141.141,0,0,1,.1-.036c.023,0,.043.041.065.064-.032,0-.068-.016-.095,0a.368.368,0,0,0-.1.08c-.006.006.007.043.007.043l.255,0c.1.015.243.081.3.034.145-.121-.036-.178-.1-.2s-.13.061-.2.1c-.083-.22.241-.12.21-.3.068.126.253-.185.285.084,0,.011.015.02.024.03a.589.589,0,0,0,.113-.113.4.4,0,0,0,.015-.135l.018-.133.125.053a.438.438,0,0,0-.084.014c-.009,0-.018.029-.015.04l.083.212.11-.071c-.028-.011-.067-.012-.081-.033s-.017-.082,0-.092c.083-.06.173-.109.26-.162-.015.032-.033.062-.046.1-.05.127.015.195.119.229.086.029.1.075.025.119a.566.566,0,0,1-.182.044,1.137,1.137,0,0,1,.124.066c.23.161.1-.09.151-.141.193-.206.34.131.525.053h0c.07.057.122.23.228.016a.108.108,0,0,1,.2.03l.46-.335c.009-.005.037,0,.037,0l.079.316c-.055-.009-.126,0-.162-.03-.149-.134-.158.125-.264.1a1.057,1.057,0,0,1,.154.11c.26.265.018-.14.118-.1.026.01.069-.033.1-.027.314.069.278-.273.427-.394a.673.673,0,0,1,.211-.072c.009.034.035.075.025.1-.114.289.216.25.289.421a.458.458,0,0,0,.453.33c.052-.006.109.03.161.022.031,0,.057-.057.085-.088-.269.072-.269-.41-.56-.3-.031.012-.073-.011-.111-.018a2.637,2.637,0,0,1,.255-.2c.011-.007.077.078.114.123.007.009,0,.032,0,.049a.537.537,0,0,0,.109-.072c.051-.055.083-.141.143-.172.032-.016.1.054.158.085a.759.759,0,0,0-.175.049c-.02.011-.117.116.014.1a1.366,1.366,0,0,0,.315-.137c.019-.007.071.043.075.038.116-.149.213,0,.249.055.1.17.108.344-.13.4-.027.007-.073-.073-.111-.113,0,.038-.011.106,0,.109.087.033.228.1.259.068.133-.15.24-.285.411-.056,0-.014.011-.037.006-.041-.08-.064-.159-.171-.244-.176-.113-.007-.1-.015-.037-.081.023-.023.064-.026.086-.049.054-.056-.241.032-.035-.09.019-.012.019-.227.1-.024a.188.188,0,0,0,.175.007c.079-.093.313.218.284-.124,0-.015.058-.043.092-.053.2-.061.379-.21.6-.13a.554.554,0,0,1,.081.03c.011.006.025.033.021.04-.209.319.077.2.187.24h0c-.056,0-.128-.014-.164.016-.124.1.085.09.061.165l.3-.036-.01.008.007,0-.087.292c.16-.057.258.268.421.09.1-.108-.193-.33.079-.426-.023-.012-.053-.019-.069-.038-.161-.2-.206.172-.344.082l0-.012h0l.085-.064-.284-.08h0c.218-.12.016-.158-.041-.226a.152.152,0,0,1-.019-.035c.024-.006.047-.014.072-.018.247-.039.514.071.745-.107a.076.076,0,0,1,.071.025.369.369,0,0,1,.035.141.262.262,0,0,1-.036.092l.331.075a1.113,1.113,0,0,1,0-.119c0-.023.014-.064.026-.065.2-.029.4-.043.6-.079s.406.142.6-.022l.024.014c-.011.044-.01.1-.038.129a.648.648,0,0,1-.164.085c.171-.046-.034.306.192.2a.407.407,0,0,0,.051-.034.329.329,0,0,1-.035-.04l-.078-.134s.016-.019.025-.03c.021.179.135-.056.181.045a.283.283,0,0,0,.111.144.147.147,0,0,0,.133-.071.661.661,0,0,0,0-.22c0-.013-.02-.026-.03-.038.015-.01.032-.031.046-.029a1.107,1.107,0,0,1,.259.061c.073.034.152.158.193.143.18-.071-.109-.03-.028-.1.2-.175.453-.1.663-.078a1.869,1.869,0,0,1,.755.29c.137.083.189-.063.285-.033l-.035-.183c-.081.024-.163.043-.242.074a.428.428,0,0,0-.1.075.344.344,0,0,1,.017-.125c.039-.069.114-.192.136-.183a3.235,3.235,0,0,0,1.123.037c.1,0,.189.073.284.077.069,0,.139-.062.211-.081.021-.005.08.061.078.064-.041.064-.088.123-.133.182a1.182,1.182,0,0,0,.2-.075,1.1,1.1,0,0,0,.159-.136l.061-.068c.308.283.638-.1.949.033l.073.031c-.007.011-.011.026-.02.03-.087.039-.285.1-.236.121a1.3,1.3,0,0,0,.583.086c.069,0,.139-.118.2-.189.02-.021.018-.094.022-.094l.59.053-.142.057c-.006,0,0,.029,0,.043l.3,0c0-.016,0-.036-.011-.046a.875.875,0,0,0-.076-.067.6.6,0,0,1,.116-.019c.335.008.67,0,1,.036.1.011.2.134.295.2a.086.086,0,0,0,.062.018c.022-.008.052-.031.055-.052.055-.34.18.045.266-.024.007-.005.073.072.112.111l.055.053a.279.279,0,0,0,.027-.076c0-.014-.023-.03-.035-.045l-.033-.05c.018-.011.04-.036.052-.031a1.507,1.507,0,0,1,.434.192c.178.152-.238.043-.1.211.02.026.031.072.055.08.089.027.179.048.268.07v.667a.752.752,0,0,0-.314.05c-.037.015-.4.157-.463-.159-.182.171-.343-.147-.529-.026-.032.021-.1-.016-.149-.026l.033-.182.007-.044c-.02,0-.047,0-.061.014a.287.287,0,0,0-.057.075c.086.085.057.126-.045.116-.025,0-.14.116-.1-.049a.794.794,0,0,0-.143.025c-.01,0,.005.072-.008.082a1.4,1.4,0,0,1-1.329.026c-.156-.045-.4.129-.51.053-.171-.114-.258.083-.4.024a1.221,1.221,0,0,0-.38-.035c-.274-.02-.526.149-.837,0a.619.619,0,0,0-.716.1c-.072.078-.33-.017-.5-.054-.242-.053-.48-.126-.719-.192-.061.352-.32.179-.506.23-.222.062-.476-.166-.667.092-.005.007-.027,0-.042,0l.039-.4c0-.016.023-.03.036-.046-.017-.006-.044-.022-.049-.016l-.322.382a.455.455,0,0,1-.066.078c-.014.009-.043,0-.064-.007.02-.02.05-.037.055-.061a.42.42,0,0,0,0-.112.75.75,0,0,0-.244.009c-.089.029-.164.12-.252.132a1.981,1.981,0,0,1-.992-.04c-.222-.086-.446.178-.664.005-.055-.043-.074-.137-.11-.206l.005,0h0c.039-.118.1-.017.108.008.107.231.055-.031.067-.09l.023,0a.425.425,0,0,1,.026.045l.024-.036-.049-.008c-.014-.019-.02-.019-.023,0-.1-.017-.19-.034-.285-.045-.011,0-.028.061-.043.095l.153.033,0,0h0c-.052.05-.123.146-.148.134-.135-.064-.34.028-.409-.211-.015-.054-.174-.062-.268-.087a.108.108,0,0,0-.026.069c.022.077.016.206.156.115.016-.009.05.015.076.023-.074.049-.146.135-.223.14-.338.02-.677.018-1.016.021a1.614,1.614,0,0,1-.184-.016l.125-.022c-.017-.017-.037-.05-.049-.047a1.211,1.211,0,0,1-.241.057l-1.434-.057c-.5-.019-1-.053-1.5-.05-.26,0-.519.086-.779.1l-1.235.012c-.094,0-.256-.064-.289.13-.342-.214-.731.1-1.066-.093-.2-.117-.314.1-.474.088a5.8,5.8,0,0,1-1.49-.077c-.2-.063-.445.126-.659-.061-.011-.01-.132.182-.282.161-.28-.038-.561.1-.853-.067a.644.644,0,0,0-.519.091c-.22.124.024-.34-.2-.15-.008.007-.052-.029-.058-.022-.038.039-.064.1-.107.12-.027.01-.074-.05-.131-.079-.162-.082-.308-.248-.445-.261-.313-.024-.657-.081-.961-.085-.261,0-.072-.111-.089-.136-.107-.2-.52-.095-.463-.439-.149.1-.183-.354-.36-.165-.016.016-.1-.046-.153-.074l.068-.109c-.159-.088-.454-.208-.226-.427s-.1-.062-.07-.15a.474.474,0,0,0,0-.194c0-.012-.067-.042-.067-.042a1.3,1.3,0,0,1,.056-.19.88.88,0,0,0,.089.138.147.147,0,0,0,.059.029.9.9,0,0,1-.008-.094c0-.048.007-.1.011-.142-.14.318,0-.575-.193-.082a.137.137,0,0,1-.114.055,1.075,1.075,0,0,1-.107-.278.33.33,0,0,1,.012-.14,1.346,1.346,0,0,0-.1.172,1.112,1.112,0,0,0-.044.118.386.386,0,0,1-.019-.1,1.322,1.322,0,0,1,.071-.307c.007-.019.056-.006.087-.008-.022-.078-.075-.2-.049-.234a.3.3,0,0,0-.011-.328c0-.005.035-.032.054-.048-.042-.052-.079-.109-.124-.156-.026-.026-.084-.033-.089-.057a.124.124,0,0,1,.048-.1c.026-.016.069.005.1.01l.053.008c-.015-.035-.029-.1-.048-.1-.077-.008.068-.238-.109-.128a.306.306,0,0,1-.075.022l.117-.347c-.282-.082.307-.282-.039-.359a.687.687,0,0,1,0-.124c.07.174.036-.291.122-.023,0,.015.027.022.042.033a.138.138,0,0,0,.017-.035c.015-.09.071-.22.037-.262-.078-.1-.232-.41-.182-.531.013-.03.15.022.2-.013.146-.093.044-.06-.029-.066s-.183-.061-.182-.082c.043-.4-.141-.824.064-1.218.009-.016-.01-.055-.025-.076s-.037-.01-.054-.005c-.037.009-.073.025-.109.038l-.007-.129a.238.238,0,0,0,.048.056c.009.005.038-.009.045-.023a2.611,2.611,0,0,0,.149-.331,1.174,1.174,0,0,0,0-.2c0-.016.085-.038.093-.026a.972.972,0,0,1,.072.162l.118-.079v0h0l.138.282.013-.265a.634.634,0,0,0-.014-.185c-.111-.016-.136.07-.14.171l0,0c-.127-.116-.258-.227-.374-.355-.016-.019.057-.122.071-.19.059-.292-.316-.308-.308-.576,0-.064-.054-.137-.039-.19s.087-.094.133-.14c0,.085,0,.171.011.257,0,.008.048.01.073.016-.034-.07.031-.118.036-.149a3.4,3.4,0,0,0,.007-.543v-.107a.375.375,0,0,0,.069.055c.015.007.051,0,.052-.011l.021-.211c-.016.017-.031.041-.05.049-.047.019-.1.029-.144.043-.011-.08-.026-.16-.031-.241-.018-.289-.045-.578-.045-.867s.037-.59.038-.885c0-.168-.068-.338-.053-.5a1.441,1.441,0,0,1,.153-.588c.184-.3.067-.629.108-.94.008-.062-.132-.147-.2-.22.182-.033.182-.216.249-.349.04-.077.128-.124.2-.184h.006l.143.2.1-.269-.241.068,0,0,0,0c-.486.025-.063-.31-.141-.443a.947.947,0,0,0-.141-.158c.043-.037.158-.053.015-.131-.047-.026-.056-.134-.083-.2.061.039.083.047.2-.129a.475.475,0,0,1,.134.041l-.028-.209.1-.168a.185.185,0,0,0,0-.158.937.937,0,0,0-.2-.128c.022.08.05.158.065.24l.033.215-.106.168a.184.184,0,0,0-.2.117c.006-.3.219-.573.073-.885.175.116.207-.084.292-.163.013-.012.011-.044.016-.067-.51.051-.074-.352-.2-.5-.161-.2.251-.432-.009-.647.253-.068.158-.277.158-.454a3.4,3.4,0,0,1,.038-.346.066.066,0,0,0-.005-.026l.289-.135c-.09.023-.187.078-.269.06-.1-.023-.261-.1-.268-.171a7.115,7.115,0,0,0-.039-.9c-.058-.234.222-.285.147-.39-.207-.286.233-.316.142-.515-.107-.234-.071.188-.182.061-.008-.008-.187.189-.2.036-.02-.214-.124-.471.055-.67a1.009,1.009,0,0,1,.221-.147c-.09-.012-.037-.262-.2-.15a1.081,1.081,0,0,0-.046-.221c-.11-.255.1-.459.082-.7.192.078.1-.129.09-.124-.4.147-.157-.236-.155-.283a1.319,1.319,0,0,1,.131-.58c.089-.158.017.17.129.091.012.06.014.189.091.09a.361.361,0,0,0-.047-.307,1.065,1.065,0,0,1-.154-.8,2.175,2.175,0,0,0-.107-.719.362.362,0,0,1,.158-.406c.031-.024-.076-.229-.038-.291.144-.235-.348-.405-.039-.634-.365-.215.226-.152.072-.305l-.027-.03c-.065.046-.147.257-.187.107a1.044,1.044,0,0,1-.01-.743.758.758,0,0,0,.038-.428,1.411,1.411,0,0,1,.031-.391,3.323,3.323,0,0,1-.018-.608c.008-.036-.049-.088-.076-.133.143.068.177-.292.363-.111.027.026.058.231.169.07a.82.82,0,0,0-.181-.143c-.167-.068-.2-.521-.05-.715.03-.039.063-.132.052-.143-.152-.14-.193-.216.062-.165.006,0,.025-.043.025-.043-.089-.067-.2-.119-.146-.276-.154.036-.1-.1-.08-.147.112-.228-.245-.161-.175-.353h-.068l.068-.08c-.079-.058-.225-.185-.11-.227.293-.1.146-.385.172-.574.009-.164-.088-.385.083-.5.16-.094.3-.015.421.111a.214.214,0,0,0,.2.014c.036-.015.044-.11.066-.17-.043.026-.094.087-.127.077a.432.432,0,0,1-.235-.141c-.053-.078-.013-.175.1-.143-.029-.035-.084-.07-.081-.109a.512.512,0,0,1,.318-.419,2.042,2.042,0,0,0,.2-.152.77.77,0,0,1-.118-.1c-.018-.022-.014-.065-.019-.1.187.125.2-.2.34-.189a.429.429,0,0,1,.131.025,1.324,1.324,0,0,1,.181.093c.048-.124-.08-.087-.108-.131a.243.243,0,0,1,.065-.371c.06.225.333-.427.332.022.117-.085.243-.161.364-.24.141-.1.377-.315.444-.272.25.161.278-.186.451-.12.028.012.039.053.057.08-.166-.032.12.23-.119.148a.87.87,0,0,0,0,.2C1711.5,926.131,1711.545,926.187,1711.6,926.207Zm19.048,33.389.349.168a1.148,1.148,0,0,0,.021-.182,1.97,1.97,0,0,0-.278-.047Zm-.789-.541c.078.027.084.064.212-.048l-.015.017-.006.008-.012.014h0l.012-.014.006-.008.046-.054c-.1-.026-.214-.1-.288-.067C1729.7,958.953,1729.771,959.026,1729.857,959.054Zm-.365.27.256.169.077-.2c-.029-.026-.061-.073-.082-.068A2.4,2.4,0,0,0,1729.492,959.324Zm-.4.166c.123.038.212.1.278.078.12-.036-.153-.157.021-.216a.545.545,0,0,0-.16.007C1729.2,959.371,1729.169,959.417,1729.095,959.49Zm-.97-.289a1.135,1.135,0,0,0,.247.2c.043.019-.071-.27.214-.086l-.02-.286Zm-2.261-.022a.741.741,0,0,0,.505.123c.38-.1-.1-.167-.083-.186-.061.181-.135-.017-.218-.113C1726.108,959.2,1725.817,959.153,1725.863,959.179Zm-.74.262c.032.186.136.274.414.224l.207-.1-.259-.053a.054.054,0,0,1-.031-.024l-.2-.295c-.133.139.145.113.083.226a.174.174,0,0,0-.01.061c-.036-.03-.069-.072-.109-.083A.128.128,0,0,0,1725.123,959.442Zm-3.056.486a.09.09,0,0,0,.068.046.646.646,0,0,0,.267-.028,1.172,1.172,0,0,0,.249-.217.071.071,0,0,0-.006-.064c-.014-.017-.055-.035-.062-.027-.124.127-.249.222-.417.066h-.06c.014.02.038.04.042.062a1.079,1.079,0,0,1,.009.141c-.014,0-.032,0-.04-.009a.692.692,0,0,1-.049-.068A.267.267,0,0,0,1722.068,959.928Zm-3.931-.641c.121.117.294-.126.415.057.014-.037.049-.082.041-.11-.087-.279-.24-.016-.36-.047C1718.119,959.137,1718.116,959.268,1718.136,959.287Zm-4.27.186.043-.047.119.19c.08-.061.189-.2.144.064a1.18,1.18,0,0,0,0,.212c.013,0,.034,0,.038-.007.062-.154.117-.162.165.008.022-.012.055-.016.063-.034a.133.133,0,0,0,.005-.091c-.032-.081-.083-.157-.107-.241a.222.222,0,0,1-.007-.09l0,0c0-.015,0-.012,0,0-.274-.22-.061.162-.2.019-.062-.063-.045-.207-.082-.308-.005-.013-.159,0-.163.023A1.625,1.625,0,0,0,1713.866,959.473Zm-1.754.091c.022.267.113.026.176.018s.123-.053.174.054c.146-.442-.126-.235-.214-.245C1712.206,959.387,1712.108,959.508,1712.112,959.564Zm-.753-.011a2.255,2.255,0,0,0,.621.043c.034,0,.1-.083.1-.1-.131-.362-.348.019-.38,0C1711.432,959.384,1711.34,959.546,1711.359,959.553Zm-2.672-4.109c.175-.031.093-.2.135-.31l0,0a.682.682,0,0,0,.048.124c.022.036.054.079.088.089.168.044.177-.151.265-.23.009-.009-.018-.065-.029-.1a.9.9,0,0,1-.09.085c-.037.027-.08.047-.121.071a.292.292,0,0,0,0-.047.587.587,0,0,0-.021-.123c-.005-.014-.053-.028-.056-.023-.029.049-.054.1-.08.154h0l0-.005,0,.007c-.1.026-.218.047-.2.21C1708.623,955.382,1708.67,955.448,1708.688,955.444Zm.689-.577-.205.485.03.1c.223-.109.058-.407.22-.546Zm-.28-7.346c0,.131-.059.023-.144-.1l.028.341c.135-.146.435-.231.371-.435C1709.306,947.185,1709.1,947.263,1709.1,947.521Zm.212-4.678a4.073,4.073,0,0,0-.13.485c-.006.043.094.105.144.159.026-.169.05-.338.079-.529Zm-.046-.731-.094.12c.242.133.049.3.039.491.13.155.262-.048.252-.112A2.247,2.247,0,0,0,1709.263,942.111Zm.392-2.406-.045.2-.038.248c-.232-.064-.07.123-.1.189a.23.23,0,0,0,0,.086.451.451,0,0,0,.14-.033c.216-.138.078-.338.062-.513C1709.673,939.827,1709.833,939.784,1709.655,939.706Zm-.383-.012c-.343.172-.137.477-.163.725,0,.008.014.017.022.026l.17-.709C1709.3,939.722,1709.277,939.7,1709.271,939.693Zm-.365-.108a3.83,3.83,0,0,0-.126.363c-.008.027.044.074.07.112.051-.116.106-.229.149-.348C1709.007,939.692,1708.953,939.646,1708.907,939.586Zm.521-1.327a.623.623,0,0,1-.057.194c-.138.178.13.293.049.455.029.006.066.028.085.016.14-.086,0-.147-.019-.22a.645.645,0,0,1,0-.141c.058,0,.135.2.157.015C1709.651,938.488,1709.509,938.375,1709.427,938.259Zm-.061-.566-.1.238c.1.04.16-.191.286-.061.018.018.075-.012.114-.019Zm-.42-4.705-.162.24.036.031c.224.053.123-.14.191-.192Zm-.013-3.184c-.193.138.222.269,0,.407.089.077.116.026.133-.109l.121-.03C1709.09,930,1708.943,929.982,1708.933,929.8Z" transform="translate(-1708.176 -925.565)" fill="#ffb806"/>
      </g>
      <g id="Group_79" data-name="Group 79" transform="translate(3.422)">
        <path id="Path_10146" data-name="Path 10146" d="M1770.19,926.2v.795c-.107-.039-.229-.04-.253.2-.052-.027-.124-.039-.153-.086-.112-.18-.171-.159-.28.021-.076.125-.208.073-.288-.066a.98.98,0,0,0-.132.076c-.022-.106-.032-.041-.079-.011a.3.3,0,0,1-.258.046c-.126-.065.044-.084.033-.088-.1-.027-.222-.092-.3-.05-.376.2-.768,0-1.145.089,0,0-.009.009-.012.007-.348-.112-.683.145-1.074-.057a1.433,1.433,0,0,0-1.056.154c-.247.1-.352-.089-.522-.137-.063-.019-.138.026-.207.023a5.743,5.743,0,0,1-.813-.06c-.14-.026-.26-.178-.4-.217-.055-.015-.182.111-.206.2-.083.314-.307-.064-.4.126-.157-.117-.4-.135-.39-.446a.887.887,0,0,1-.1.268c-.183.21-.355.032-.543-.02a.364.364,0,0,0-.442.127,1.112,1.112,0,0,1,.108.027l0,.054a1.2,1.2,0,0,1-.205-.049c-.027-.012-.049-.064-.06-.1,0-.016.026-.055.048-.066a.4.4,0,0,1,.1-.028c-.016-.022-.037-.066-.049-.063-.065.02-.178.043-.182.079-.028.242-.219-.026-.266.124-.306-.19-.337-.185-.656-.054-.094.038-.227-.022-.3.033-.19.133-.158-.076-.218-.153-.026-.034-.076-.043-.115-.063a.85.85,0,0,1,.063.114.216.216,0,0,1,0,.078c-.138-.018-.229-.164-.424.034-.15.15-.531-.051-.791.009a.391.391,0,0,1-.509-.186c-.1.26-.3.284-.5.295-.25.014-.5,0-.748.031-.194.025-.009-.325-.1-.191a.37.37,0,0,1-.4.173c-.187-.022-.421.114-.558-.152,0,0,.067-.052.1-.079l-.217-.078v-.01l-.03-.013,0,.038c-.116.293-.319-.006-.482.093a.958.958,0,0,1-.481.059c-.1,0-.258.135-.267-.13,0-.018-.064-.054-.089-.046-.058.019-.146.046-.159.094-.04.139-.166.219-.371.205a1.732,1.732,0,0,1-.629-.049c-.3-.148-.617.014-.939-.125a1.208,1.208,0,0,1-.486-.229c-.091-.092.078.163-.1.167-.356.008-.032-.549-.35-.51-.123.015-.327-.244-.365.121.02-.008.046-.029.06-.021.04.02.073.055.112.078.139.079.1.2.066.327-.1-.047-.273-.079-.283-.144-.026-.175-.144-.055-.189-.12.013.037.027.074.037.113,0,.005-.019.026-.029.026-.173,0-.346,0-.519-.007l.113-.157c-.157.017-.379.115-.457.031-.142-.152-.352.187-.42-.121-.072.034-.136.205-.224.02-.08.209-.315-.18-.381.128a1.525,1.525,0,0,1-.244-.034l-.834-.13c.182-.2-.172-.2-.1-.369.009-.02-.019-.061-.03-.093-.007.031-.015.064-.022.1l0,0h0c-.26-.37-.332.06-.483.152h0l0,0c-.051-.122-.111-.236-.252-.2-.021.006-.034.061-.051.095.1.031.156.256.3.1h0l.005,0c.152.061.319.107.211.372-.014.035-.164.082-.006.128a.137.137,0,0,0,.088-.032c-.041-.25.112-.42.19-.62h0c.021.106.088.247.052.311-.178.317-.374.508-.773.382a3.262,3.262,0,0,0-1.058.023c-.094,0-.237.1-.232-.133a.665.665,0,0,1-.071.115c-.375-.2-.82.114-1.177-.211-.007-.007-.034.009-.049.02-.04.031-.078.065-.118.1a.411.411,0,0,1,.086,0c.011,0,.018.026.027.041a.693.693,0,0,1-.213.09q-.435.023-.869.015c-.059,0-.116-.064-.174-.1.073-.024.146-.053.22-.071a.312.312,0,0,1,.166-.012c.19.071.4-.12.58.077a.491.491,0,0,0,.042-.112c.031-.216-.055-.088-.122-.06s-.17.051-.193.019c-.047-.07,0-.208-.115-.02-.064.1-.347.083-.5.02-.271-.11-.379.295-.631.208-.094-.032-.21.031-.316.031q-.5,0-1.006-.02a.175.175,0,0,1-.114-.1.7.7,0,0,1-.028-.188c0,.061,0,.124-.009.184a.381.381,0,0,1-.028.083c-.009-.014-.025-.026-.027-.042-.014-.084-.024-.17-.036-.256-.121.045-.115.145-.089.261,0,.02-.032.053-.054.076-.006.006-.025,0-.037,0,.008-.026.013-.054.022-.079.062-.159-.029-.218-.13-.279a.779.779,0,0,1-.123-.115.684.684,0,0,0,.072-.05.164.164,0,0,0,.021-.046.29.29,0,0,0-.119-.009.118.118,0,0,0-.043.095c.007.118.031.233.036.351.007.158-.025.172-.2.1a.609.609,0,0,1-.1-.075c-.137.336-.326.026-.477.024-.29,0-.585-.184-.822.161,0,.007-.043-.015-.064-.028-.059-.041-.121-.126-.174-.118-.157.022-.308.094-.465.122a4.425,4.425,0,0,1-.635.062c-.043,0-.089-.1-.134-.153.009-.21-.029-.359-.255-.252l-.075-.116c-.167-.006-.334-.021-.5-.015a1.582,1.582,0,0,1-1-.2c-.159-.1-.428-.092-.637-.209-.043-.024-.153.112-.233.174.1-.007.03.339.225.152.093.16.314-.06.38.17a1.1,1.1,0,0,1,.022.187c-.1-.044-.192-.127-.287-.124a2.12,2.12,0,0,0-.581.1c-.153.049-.189-.007-.185-.162a.35.35,0,0,0,0-.043c-.039.186-.131.066-.205.049a.372.372,0,0,0,.019-.148.2.2,0,0,0-.1-.112c-.181-.075-.2.124-.283.227l-.326-.007.095-.13-.139-.118-.019-.033-.072-.041-.03.009c-.219.213-.391.187-.508-.131-.005-.014-.027-.018-.042-.027.1.314-.158.255-.273.345.088.1.1.185-.046.206-.193.028-.388.043-.582.06a.136.136,0,0,1-.052-.016.55.55,0,0,0,.039-.048.819.819,0,0,0,.079-.139c0-.007-.048-.043-.076-.066a1.052,1.052,0,0,1-.027.107c-.112-.025-.235-.106-.333-.077-.209.063-.072-.177-.1-.16-.074.041-.125.132-.191.2a.134.134,0,0,1-.1.04c-.023,0-.043-.045-.065-.07.031,0,.068.017.095,0a.364.364,0,0,0,.1-.088.089.089,0,0,0-.007-.047c-.085,0-.17,0-.255,0-.1-.016-.243-.089-.3-.037-.145.133.036.2.1.216s.13-.067.2-.107c.084.241-.241.132-.21.328-.068-.139-.253.2-.284-.092,0-.012-.015-.022-.024-.033a.622.622,0,0,0-.113.124.482.482,0,0,0-.015.149c0,.049-.012.1-.018.145l-.125-.058a.473.473,0,0,0,.084-.014.056.056,0,0,0,.014-.045c-.026-.078-.054-.155-.083-.232l-.11.078c.028.011.067.014.081.037s.017.089,0,.1c-.083.066-.173.12-.26.179.015-.035.033-.069.046-.106a.175.175,0,0,0-.119-.251c-.086-.032-.1-.083-.025-.131a.549.549,0,0,1,.181-.049,1.022,1.022,0,0,1-.124-.072c-.23-.176-.1.1-.151.155-.193.226-.34-.144-.525-.059h0c-.07-.062-.122-.252-.228-.018-.032.069-.147.1-.2-.033-.153.123-.306.246-.46.368-.009.007-.037,0-.037,0-.028-.115-.053-.231-.079-.346.056.009.126,0,.162.032.149.147.157-.137.264-.106a.968.968,0,0,1-.153-.121c-.261-.29-.019.153-.119.109-.026-.011-.069.037-.1.03-.314-.076-.278.3-.427.433a.6.6,0,0,1-.211.079c-.009-.037-.035-.082-.025-.11.114-.318-.215-.274-.289-.462s-.209-.394-.453-.362c-.052.007-.109-.034-.161-.026-.031.005-.057.062-.085.1.269-.079.269.451.56.331.031-.013.073.012.111.02a2.579,2.579,0,0,1-.255.221c-.011.008-.077-.085-.114-.135-.007-.009,0-.035,0-.053a.5.5,0,0,0-.109.078c-.051.06-.083.154-.143.188-.032.018-.1-.059-.158-.094a.671.671,0,0,0,.175-.054c.02-.011.118-.127-.014-.11a1.362,1.362,0,0,0-.315.151c-.019.008-.071-.047-.075-.041-.116.163-.213,0-.248-.06-.105-.187-.109-.378.129-.441.027-.007.073.081.111.124,0-.042.011-.116,0-.12-.087-.036-.229-.112-.259-.074-.133.164-.24.313-.411.061,0,.015-.011.041-.006.045.08.071.159.187.244.193.112.009.1.016.037.089-.023.025-.064.027-.086.053-.054.061.241-.035.035.1-.019.012-.019.248-.1.026-.01-.028-.148-.042-.175-.008-.079.1-.313-.239-.284.136,0,.016-.058.047-.092.059-.2.066-.379.231-.6.143a.526.526,0,0,1-.081-.033.061.061,0,0,1-.02-.043c.209-.349-.077-.222-.187-.263h0c.056,0,.128.015.164-.017.124-.113-.085-.1-.061-.182l-.3.04.01-.009-.007,0,.087-.32c-.16.063-.258-.295-.421-.1-.1.118.193.362-.079.468.023.014.054.02.069.042.161.221.206-.188.344-.089l0,.013h0l-.085.072.285.087h0c-.218.132-.016.175.041.248a.192.192,0,0,1,.019.038.53.53,0,0,1-.072.02c-.247.043-.514-.078-.745.118-.013.01-.063-.009-.071-.027a.439.439,0,0,1-.035-.154.308.308,0,0,1,.036-.1l-.33-.083c0,.044,0,.089,0,.132,0,.026-.014.07-.026.072-.2.031-.4.047-.6.086s-.406-.156-.6.025l-.023-.016c.01-.049.009-.114.038-.141a.658.658,0,0,1,.163-.093c-.17.05.034-.336-.192-.219a.463.463,0,0,0-.052.037.3.3,0,0,1,.036.044c.027.048.054.1.078.146,0,0-.016.021-.025.032-.021-.2-.135.061-.181-.049a.308.308,0,0,0-.111-.158c-.031-.015-.121.036-.133.078a.8.8,0,0,0,0,.243c0,.015.02.027.03.041-.015.011-.032.034-.046.031a.994.994,0,0,1-.259-.067c-.072-.037-.152-.174-.193-.156-.18.078.109.032.028.109-.2.192-.453.107-.663.086a1.776,1.776,0,0,1-.755-.319c-.137-.091-.189.069-.285.037l.035.2c.081-.026.164-.048.242-.081a.474.474,0,0,0,.1-.083.386.386,0,0,1-.017.136c-.039.076-.114.21-.136.2a2.932,2.932,0,0,0-1.123-.04c-.1,0-.189-.081-.285-.084-.069,0-.139.067-.211.089-.021.006-.08-.067-.078-.071.041-.07.088-.135.133-.2a1.144,1.144,0,0,0-.2.083,1.05,1.05,0,0,0-.159.149c-.022.023-.06.074-.06.073-.308-.31-.638.111-.949-.037l-.073-.034c.007-.011.011-.029.021-.033.087-.043.285-.106.236-.133a1.193,1.193,0,0,0-.583-.095c-.069,0-.139.129-.2.207-.019.024-.018.1-.022.1-.2-.015-.393-.037-.59-.057.048-.021.1-.04.142-.064.006,0,0-.031,0-.048l-.3,0c0,.017,0,.04.011.051a1.035,1.035,0,0,0,.076.073.615.615,0,0,1-.116.02c-.335-.009-.67,0-1-.04-.1-.012-.2-.147-.295-.223a.076.076,0,0,0-.062-.019.1.1,0,0,0-.055.056c-.055.374-.18-.049-.266.026-.007.006-.073-.079-.112-.122l-.055-.057a.308.308,0,0,0-.027.083c0,.015.023.032.035.05s.022.036.033.054c-.017.013-.04.04-.052.034a1.42,1.42,0,0,1-.434-.21c-.178-.167.238-.049.1-.233-.021-.028-.031-.079-.055-.087-.089-.031-.179-.054-.268-.077v-.731a.708.708,0,0,0,.315-.055c.036-.016.4-.173.462.175.182-.188.343.161.529.028.032-.023.1.018.149.03-.011.066-.022.132-.033.2,0,.016-.005.032-.007.049.02,0,.047,0,.061-.015a.32.32,0,0,0,.057-.083c-.086-.093-.057-.139.045-.127.025,0,.14-.127.1.054a.716.716,0,0,0,.143-.027c.01,0-.005-.078.008-.089.439-.348.877-.17,1.329-.027.156.049.4-.142.51-.06.171.126.258-.091.4-.026a1.118,1.118,0,0,0,.38.038c.274.022.526-.164.837,0a.576.576,0,0,0,.717-.109c.072-.086.33.019.5.06.242.059.48.14.719.21.061-.386.32-.2.506-.252.222-.067.476.182.667-.1.005-.009.027,0,.042,0-.013.146-.024.294-.039.44,0,.018-.023.033-.036.05.017.007.044.025.049.019.109-.138.215-.279.323-.42a.446.446,0,0,1,.066-.086c.014-.01.043.005.064.009-.02.021-.05.04-.055.066a.4.4,0,0,0,0,.123.664.664,0,0,0,.244-.01c.089-.031.164-.131.252-.144a1.794,1.794,0,0,1,.992.044c.222.094.446-.2.664-.006.055.048.074.149.11.226l-.005.006h0c-.039.129-.1.019-.108-.009-.107-.254-.055.034-.067.1l-.023,0a.419.419,0,0,1-.026-.049l-.024.04.049.009c.014.022.021.021.023,0,.1.019.19.037.285.049.011,0,.028-.067.043-.1l-.153-.036,0-.005h0c.052-.055.123-.16.148-.147.135.07.34-.031.409.232.015.059.174.069.267.1a.135.135,0,0,0,.026-.077c-.022-.084-.016-.227-.156-.126-.015.01-.05-.016-.076-.026.074-.054.146-.148.223-.153.338-.022.677-.019,1.016-.023.061,0,.123.012.184.018l-.125.026c.017.018.037.054.049.05a1.121,1.121,0,0,1,.241-.063c.478.014.956.042,1.434.062.5.022,1,.058,1.5.055.26,0,.519-.095.78-.107.411-.019.824.007,1.235-.013.094,0,.256.07.289-.142.343.235.731-.114,1.067.1.2.129.313-.107.474-.1a5.318,5.318,0,0,1,1.49.084c.2.07.445-.138.659.067.011.011.132-.2.282-.177.28.043.561-.107.853.073.125.078.368-.006.519-.1.22-.136-.024.374.2.165.009-.008.052.031.059.023.037-.042.063-.113.106-.13.027-.012.077.055.119.083.128.085.265.252.382.235a1.6,1.6,0,0,0,.761-.277c.181-.142.09.064.109.08.16.128.371-.251.5.074.034-.2.3.131.291-.17,0-.026.076-.054.117-.08l.028.135c.132-.083.316-.3.361.046.048.37.083-.067.124.01a.293.293,0,0,0,.13.1c.008.005.049-.053.051-.052.042.044.079.092.117.14a1.113,1.113,0,0,0-.129.04c-.017.008-.028.032-.043.049a.7.7,0,0,1,.073.034c.036.021.07.045.1.068-.2-.265.447.2.117-.185a.233.233,0,0,1-.01-.147.8.8,0,0,1,.223-.04c.033,0,.067.03.1.046-.036-.054-.07-.11-.107-.162-.022-.03-.049-.055-.073-.082.025,0,.053-.007.072.005a1.652,1.652,0,0,1,.207.146c.013.011,0,.067,0,.1.061-.01.153-.056.179-.026.1.112.171.049.257,0,.005,0,.03.042.045.064.048-.048.1-.094.145-.147.024-.03.031-.1.053-.1a.111.111,0,0,1,.1.056c.014.031-.005.082-.01.124l-.007.063c.032-.019.09-.035.092-.057.007-.091.221.081.118-.129a.414.414,0,0,1-.02-.089l.322.139c.075-.334.261.364.333-.047a.544.544,0,0,1,.115,0c-.161.082.27.042.022.144-.014.005-.021.032-.031.049a.131.131,0,0,0,.032.02c.083.019.2.084.244.044.089-.093.38-.274.492-.216.029.015-.02.177.013.242.087.173.055.053.061-.034s.056-.217.076-.215c.376.052.765-.167,1.13.076.015.009.052-.013.071-.03s.009-.043.005-.063c-.009-.044-.023-.086-.035-.129l.119-.009a.249.249,0,0,0-.052.057.066.066,0,0,0,.022.054,2.354,2.354,0,0,0,.307.176c.055.023.124-.006.185,0,.014,0,.035.1.025.109a.783.783,0,0,1-.151.087l.073.138v0h0l0,0-.261.164c.082.005.164.014.246.015.06,0,.17,0,.171-.016.016-.131-.065-.161-.158-.165l0,0c.108-.149.21-.3.33-.441.017-.02.112.066.176.083.272.07.285-.373.533-.364.06,0,.128-.064.177-.046s.087.1.129.158c-.079,0-.159,0-.239.012a.38.38,0,0,0-.014.087c.065-.04.109.037.139.043a2.478,2.478,0,0,0,.5.009h.1a.45.45,0,0,0-.05.082.083.083,0,0,0,.01.061c.065.012.13.017.2.024-.015-.02-.038-.036-.045-.059-.017-.055-.027-.114-.039-.171.074-.012.148-.031.223-.037.268-.021.536-.053.8-.054s.547.044.82.045a4.261,4.261,0,0,1,.466-.062,1.118,1.118,0,0,1,.544.181c.283.219.585.08.873.129.057.009.136-.156.2-.241.031.216.2.215.324.295a.846.846,0,0,1,.171.231v.007h0l-.187.17.25.116-.063-.285,0,0,0,0c-.024-.576.287-.075.411-.166a1.02,1.02,0,0,0,.146-.167c.034.051.049.187.122.017.024-.055.124-.066.189-.1-.036.072-.043.1.119.233a.678.678,0,0,1-.037.158l.194-.033.156.12c.036.028.124.033.146,0a1.134,1.134,0,0,0,.119-.241,1.972,1.972,0,0,1-.222.078c-.066.015-.133.027-.2.039l-.157-.125a.235.235,0,0,0-.108-.233c.275.009.531.26.82.087-.107.207.078.245.152.346.011.015.04.014.061.02-.047-.6.326-.088.465-.232.184-.191.4.3.6-.011.062.3.257.187.422.187a2.347,2.347,0,0,1,.321.046c.008,0,.024-.008.024-.007.043.113.084.228.125.342a.952.952,0,0,1-.055-.319c.022-.118.093-.308.158-.318a5.128,5.128,0,0,0,.838-.046c.217-.069.265.263.362.173.265-.245.293.276.477.169.217-.127-.175-.083-.057-.215.008-.008-.175-.221-.033-.239.2-.023.437-.146.621.065a1.23,1.23,0,0,1,.137.262c.011-.107.243-.043.139-.24a.827.827,0,0,0,.205-.055c.236-.13.426.112.646.1-.072.227.12.123.115.107-.135-.472.219-.186.262-.183a1.015,1.015,0,0,1,.539.156c.146.106-.158.02-.084.152-.056.014-.175.017-.083.108.049.049.219.01.285-.055a.814.814,0,0,1,.739-.182,1.643,1.643,0,0,0,.667-.127c.135-.049.266,0,.377.186.022.037.212-.089.27-.044.218.17.376-.413.588-.048.2-.431.141.267.284.087.009-.012.03-.03.028-.032-.043-.078-.239-.176-.1-.221a.778.778,0,0,1,.689-.012.56.56,0,0,0,.4.045,1.021,1.021,0,0,1,.363.038c.178.011.369-.078.564-.022.033.009.082-.058.124-.089-.063.17.272.21.1.429-.025.032-.215.068-.065.2a.927.927,0,0,0,.133-.213c.063-.2.484-.238.665-.06.036.036.122.075.132.061.129-.179.2-.228.152.074,0,.007.039.03.04.029.062-.1.11-.233.255-.171-.033-.183.09-.124.137-.1.211.133.15-.29.328-.206v-.082l.073.081c.055-.094.172-.266.211-.129.1.343.3.169.445.159.126-.008.26-.186.377-.022a.528.528,0,0,1,.024.51.3.3,0,0,0,.048.226c.025.034.112.008.171.009-.039-.037-.109-.072-.112-.112a.677.677,0,0,1,.037-.313c.042-.086.124-.084.141.049.016-.047.021-.123.05-.137.158-.083.295-.007.43.093a.977.977,0,0,0,.21.089,1.118,1.118,0,0,1-.007-.175c0-.032.032-.06.05-.09.032.258.228.031.309.141a.6.6,0,0,1,.075.124c.03.069.053.141.079.212.1-.074-.014-.132-.009-.191.011-.149.051-.291.222-.285-.048.256.406-.208.237.222a3.052,3.052,0,0,0,.372-.07c.147-.046.373-.21.42-.157.194.225.246-.163.379-.079.023.014.031.06.047.091-.141-.043.1.259-.1.156a1.183,1.183,0,0,0-.008.225C1770.095,926.111,1770.137,926.174,1770.19,926.2Zm-52.76-.2-.349-.185a1.39,1.39,0,0,0-.021.2,1.715,1.715,0,0,0,.278.052Zm.789.593c-.078-.029-.084-.071-.212.053l.015-.019.006-.008.012-.016h0l-.012.016-.006.008-.045.059c.1.028.213.109.287.073C1718.379,926.706,1718.305,926.628,1718.219,926.6Zm.365-.3-.256-.186-.077.216c.029.028.061.08.082.074A2.127,2.127,0,0,0,1718.584,926.3Zm.4-.182c-.123-.041-.212-.108-.279-.086-.12.041.153.172-.02.238a.527.527,0,0,0,.16-.007C1718.879,926.248,1718.907,926.2,1718.982,926.117Zm.97.319a1.147,1.147,0,0,0-.247-.217c-.042-.02.071.3-.214.095l.02.315Zm2.261.024a.691.691,0,0,0-.505-.136c-.38.115.1.183.083.2.062-.2.135.02.218.124C1721.968,926.43,1722.259,926.488,1722.213,926.459Zm.74-.289c-.032-.2-.136-.3-.414-.246l-.207.112.26.059a.059.059,0,0,1,.03.026c.067.107.134.216.2.325.133-.153-.145-.124-.083-.248a.217.217,0,0,0,.01-.067c.036.032.069.079.109.091A.124.124,0,0,0,1722.953,926.17Zm3.056-.533a.09.09,0,0,0-.068-.051.591.591,0,0,0-.267.032,1.161,1.161,0,0,0-.248.238.081.081,0,0,0,.005.07c.014.019.055.038.062.031.123-.141.249-.245.417-.073h.06c-.014-.022-.038-.043-.043-.068a1.38,1.38,0,0,1-.009-.155c.014,0,.032,0,.04.01a.631.631,0,0,1,.049.073A.314.314,0,0,0,1726.009,925.637Zm3.931.7c-.121-.129-.294.138-.415-.063-.014.041-.049.09-.041.121.087.307.24.017.36.052C1729.957,926.505,1729.96,926.361,1729.94,926.341Zm4.27-.205-.042.052-.119-.208c-.08.066-.189.221-.144-.071a1.4,1.4,0,0,0,0-.233c-.013,0-.034,0-.037.009-.062.168-.118.178-.165-.009-.022.012-.055.018-.063.037a.157.157,0,0,0-.005.1,2.825,2.825,0,0,1,.107.265.264.264,0,0,1,.007.1l0,0c0,.016,0,.012,0,0,.274.242.061-.177.2-.02.062.069.045.227.082.338.005.015.158,0,.163-.026A2.043,2.043,0,0,0,1734.21,926.136Zm1.754-.1c-.022-.292-.113-.028-.176-.019s-.123.059-.174-.06c-.146.486.126.258.214.268C1735.87,926.231,1735.968,926.1,1735.964,926.036Zm.743,0a2.761,2.761,0,0,0-.611-.032c-.034,0-.1.09-.1.113.131.4.348-.021.38,0C1736.648,926.23,1736.728,926.038,1736.707,926.033Zm4.907-.341c.029.206.188.11.288.158v0a.552.552,0,0,0-.115.056.216.216,0,0,0-.083.1c-.041.2.141.21.214.313.007.011.06-.021.092-.034a1.074,1.074,0,0,1-.078-.107c-.026-.045-.044-.1-.066-.144a.183.183,0,0,0,.043,0,.424.424,0,0,0,.114-.026c.014-.006.026-.062.022-.066-.046-.035-.094-.064-.143-.095v0l.005,0-.006,0c-.026-.124-.044-.258-.2-.24C1741.67,925.615,1741.61,925.67,1741.613,925.693Zm.535.815-.449-.244-.1.036c.1.263.378.068.506.26Zm6.816-.332c-.121,0-.021-.069.092-.17l-.316.033c.135.161.215.515.4.439C1749.277,926.424,1749.2,926.178,1748.964,926.176Zm4.341.251a3.048,3.048,0,0,0-.45-.154c-.04-.007-.1.111-.147.17l.491.094Zm.679-.055-.112-.111c-.123.286-.276.058-.456.047a.178.178,0,0,0,.1.3A1.9,1.9,0,0,0,1753.984,926.372Zm2.231.463c-.066-.019-.125-.038-.187-.053-.077-.018-.153-.031-.23-.046.06-.273-.115-.082-.175-.115-.021-.012-.052,0-.079,0a.625.625,0,0,0,.031.165c.129.256.313.092.475.074C1756.1,926.859,1756.144,927.046,1756.215,926.836Zm.012-.453c-.159-.405-.443-.163-.673-.193-.007,0-.015.017-.023.026.219.068.438.137.658.2C1756.2,926.421,1756.22,926.389,1756.227,926.383Zm.1-.432a3.1,3.1,0,0,0-.336-.149c-.026-.009-.069.053-.1.083.107.06.213.127.324.176C1756.228,926.069,1756.271,926.005,1756.327,925.951Zm1.231.616c-.067-.024-.138-.026-.18-.067-.164-.164-.271.155-.422.059-.005.034-.026.078-.015.1.08.165.136,0,.2-.021a.442.442,0,0,1,.13-.005c0,.068-.181.158-.014.185C1757.346,926.831,1757.45,926.664,1757.558,926.567Zm.526-.072-.221-.112c-.037.124.177.19.056.339-.016.02.011.089.018.135Zm4.366-.5c-.073-.065-.146-.13-.222-.191a.5.5,0,0,0-.03.042c-.049.266.13.147.178.227Zm2.954-.014c-.129-.228-.25.262-.378,0-.071.107-.024.137.1.157l.029.144C1765.22,926.167,1765.238,925.994,1765.4,925.983Z" transform="translate(-1712.193 -925.086)" fill="#ffb806"/>
      </g>
      <g id="Group_80" data-name="Group 80" transform="translate(51.518 0.141)">
        <path id="Path_10147" data-name="Path 10147" d="M1804.56,959.346v-.724c.077.029.172.026.166-.195.036.019.084.022.11.061.1.153.152.113.182-.062.022-.118.1-.111.2-.012.006.007.038-.068.056-.1.052.08.035.023.052-.016.03-.057.073-.134.13-.13.1,0,.013.081.021.08.073-.012.171-.031.2-.092.085-.31.373-.421.424-.72a.032.032,0,0,0,0-.011c.188-.211.031-.483.2-.761a1.921,1.921,0,0,0-.13-1.138c-.087-.267.074-.379.116-.562.015-.068-.023-.149-.02-.224a7.876,7.876,0,0,1,.05-.877c.022-.15.151-.279.184-.431.013-.058-.094-.2-.168-.222-.266-.09.054-.331-.106-.435.1-.169.115-.429.376-.42a.683.683,0,0,1-.227-.112c-.177-.2-.026-.383.018-.586a.461.461,0,0,0-.108-.476c-.007.04-.013.078-.023.117a.245.245,0,0,1-.046-.005,1.592,1.592,0,0,1,.042-.22c.009-.03.054-.054.086-.064.014,0,.046.028.056.051a.555.555,0,0,1,.024.109c.019-.018.056-.041.054-.053-.017-.07-.037-.192-.067-.2-.2-.03.021-.237-.106-.286a.664.664,0,0,0,.045-.707c-.032-.1.019-.244-.027-.329-.113-.2.064-.172.128-.235a.37.37,0,0,0,.054-.124.715.715,0,0,1-.1.068c-.018.009-.043,0-.065,0,.015-.149.139-.247-.028-.458-.128-.161.042-.573-.009-.853-.045-.248-.027-.41.157-.548-.219-.1-.24-.322-.249-.541-.011-.269,0-.54-.026-.806-.021-.209.276-.011.162-.108a.449.449,0,0,1-.146-.431c.018-.2-.1-.454.129-.6l.066.109.066-.234h.009l.011-.033-.032,0c-.248-.125.005-.343-.078-.519a1.293,1.293,0,0,1-.05-.519c0-.1-.113-.279.111-.288.015,0,.045-.068.038-.1-.015-.063-.038-.157-.079-.172-.117-.043-.185-.18-.173-.4a2.375,2.375,0,0,1,.04-.677c.125-.327-.011-.665.106-1.012a1.491,1.491,0,0,1,.193-.524c.078-.1-.137.085-.141-.11-.007-.383.463-.035.431-.376-.013-.133.206-.353-.1-.394.007.022.025.05.019.065-.017.043-.048.078-.066.12-.067.15-.171.111-.277.071.04-.107.067-.295.122-.3.147-.027.046-.154.1-.2-.031.014-.063.029-.1.04-.005,0-.023-.02-.023-.031l.006-.559.132.122c-.014-.169-.1-.408-.026-.492.129-.153-.158-.379.1-.452-.029-.078-.174-.147-.018-.242-.176-.085.152-.34-.108-.41a2.023,2.023,0,0,1,.029-.262l.11-.9c.168.195.173-.186.312-.109.017.009.052-.02.079-.032l-.081-.024,0,0h0c.313-.279-.051-.358-.129-.521v0l0,0c.1-.055.2-.119.168-.272,0-.023-.052-.036-.079-.055-.026.11-.217.168-.089.327h0l0,.005c-.052.164-.091.345-.314.228-.03-.016-.07-.177-.108-.006a.168.168,0,0,0,.027.095c.211-.044.355.12.524.2h0c-.089.021-.209.094-.262.055a.692.692,0,0,1-.324-.833,4.461,4.461,0,0,0-.02-1.141c0-.1-.087-.255.113-.249-.034-.026-.1-.07-.1-.077.171-.4-.1-.884.179-1.268,0-.008-.009-.037-.018-.053l-.082-.127a.679.679,0,0,1,0,.092c0,.012-.023.019-.035.029a.892.892,0,0,1-.077-.23q-.019-.468-.013-.937c0-.063.055-.125.084-.187.02.079.045.157.06.237a.417.417,0,0,1,.01.178c-.06.2.1.436-.065.625a.4.4,0,0,0,.095.046c.182.033.074-.059.05-.132s-.043-.184-.015-.207c.059-.05.176,0,.017-.124-.084-.068-.07-.373-.017-.539.093-.292-.249-.409-.176-.681a1.484,1.484,0,0,0-.026-.341q0-.541.017-1.084a.181.181,0,0,1,.083-.123.463.463,0,0,1,.159-.03c-.052,0-.1,0-.156-.01a.279.279,0,0,1-.071-.031c.012-.009.022-.026.036-.029l.216-.038c-.038-.134-.126-.113-.221-.094-.016,0-.046-.027-.066-.044s0-.019,0-.03a.642.642,0,0,1,.067.016c.137.05.183-.03.23-.13.023-.045.058-.085.085-.129a.716.716,0,0,0,.052.065c.009.009.026.011.04.016a.3.3,0,0,0-.008-.121.09.09,0,0,0-.085-.03c-.1.024-.191.062-.289.082-.133.026-.141,0-.106-.147a.561.561,0,0,1,.04-.1c-.3-.022-.094-.245-.151-.371-.088-.21-.133-.541-.469-.462-.006,0-.015-.032-.019-.052-.009-.057,0-.151-.031-.177a1.734,1.734,0,0,0-.35-.123c-.152-.047-.3-.1-.447-.129-.031-.007-.042-.107-.068-.163.044-.185.032-.325-.174-.258l-.058-.109a3.43,3.43,0,0,0-.483-.023,1.711,1.711,0,0,1-1-.178c-.159-.094-.428-.084-.637-.19-.043-.022-.154.1-.233.158.1-.006.03.309.224.138.093.146.314-.055.381.155a1.02,1.02,0,0,1,.022.171.8.8,0,0,0-.287-.113,2.307,2.307,0,0,0-.581.089c-.153.045-.189-.006-.185-.147v-.039c-.04.169-.131.06-.205.044a.308.308,0,0,0,.018-.135.18.18,0,0,0-.1-.1c-.181-.068-.2.113-.282.206l-.327-.006.094-.119-.139-.107-.018-.03-.072-.037-.031.009c-.218.194-.39.17-.508-.12,0-.012-.026-.016-.041-.025.1.286-.158.232-.272.314.087.091.1.168-.047.188-.193.026-.388.039-.581.055a.147.147,0,0,1-.052-.015.489.489,0,0,0,.038-.043.738.738,0,0,0,.08-.127c0-.006-.049-.039-.076-.06a.76.76,0,0,1-.028.1c-.112-.022-.234-.1-.332-.07-.21.057-.073-.161-.1-.146-.073.037-.124.12-.19.178a.142.142,0,0,1-.1.036c-.024,0-.043-.041-.066-.064.032,0,.069.016.1,0a.347.347,0,0,0,.1-.08c.006-.005-.007-.043-.007-.043l-.255,0c-.1-.015-.244-.081-.3-.034-.145.121.036.178.094.2s.131-.061.2-.1c.084.22-.241.12-.209.3-.068-.126-.253.185-.285-.084,0-.011-.015-.02-.024-.03a.561.561,0,0,0-.113.113.382.382,0,0,0-.015.136l-.018.132-.125-.053a.492.492,0,0,0,.083-.013.048.048,0,0,0,.015-.041l-.083-.211-.111.071c.028.01.068.012.081.033s.018.081,0,.092c-.083.06-.172.109-.26.163.016-.032.033-.063.047-.1.051-.127-.014-.195-.119-.229-.086-.029-.1-.075-.025-.12a.6.6,0,0,1,.182-.044,1.026,1.026,0,0,1-.125-.066c-.231-.161-.1.091-.151.141-.193.206-.341-.131-.525-.054h0c-.07-.057-.122-.23-.228-.016a.108.108,0,0,1-.2-.03l-.461.335a.041.041,0,0,1-.037,0l-.079-.315c.054.008.126,0,.162.029.149.134.157-.125.264-.1a1,1,0,0,1-.154-.11c-.26-.265-.018.14-.118.1-.026-.01-.069.034-.1.027-.313-.069-.277.274-.427.394a.63.63,0,0,1-.211.072c-.009-.033-.034-.075-.025-.1.115-.289-.215-.25-.288-.421a.458.458,0,0,0-.454-.33c-.052.006-.109-.031-.16-.023-.031,0-.057.057-.085.088.269-.072.269.411.559.3.031-.012.074.011.112.018a2.543,2.543,0,0,1-.256.2c-.011.007-.077-.078-.113-.123-.007-.009,0-.032,0-.048a.507.507,0,0,0-.11.071c-.051.055-.083.14-.143.171-.031.016-.1-.054-.158-.085a.729.729,0,0,0,.176-.049c.02-.01.117-.116-.015-.1a1.417,1.417,0,0,0-.314.137c-.019.008-.072-.043-.075-.037-.117.148-.213,0-.249-.055-.106-.171-.109-.345.129-.4.028-.006.074.074.112.113,0-.038.01-.105,0-.109-.087-.033-.228-.1-.259-.068-.132.15-.239.285-.41.056,0,.014-.012.037-.007.041.08.064.16.171.245.176.112.008.1.015.037.081-.023.023-.065.025-.087.048-.053.056.242-.032.036.091-.019.011-.019.226-.1.023a.188.188,0,0,0-.175-.007c-.079.094-.313-.218-.284.124,0,.015-.058.043-.092.054-.2.061-.379.21-.6.13a.593.593,0,0,1-.082-.03c-.01-.006-.024-.033-.02-.04.208-.318-.077-.2-.187-.24h0c.056,0,.128.014.164-.016.124-.1-.085-.091-.06-.166l-.3.036.01-.008-.007,0,.088-.292c-.16.057-.259-.268-.422-.091-.1.108.193.33-.079.426.024.012.054.019.069.038.162.2.207-.172.344-.081l0,.012h0l-.084.065.284.079h0c-.219.12-.017.159.04.226a.238.238,0,0,1,.02.035.6.6,0,0,1-.072.018c-.247.039-.514-.071-.745.107-.013.009-.063-.008-.072-.025a.377.377,0,0,1-.034-.141c0-.031.023-.062.036-.093l-.331-.075a1.164,1.164,0,0,1,0,.12c0,.023-.014.064-.025.065-.2.028-.4.043-.6.078s-.406-.142-.6.023l-.024-.015c.01-.044.01-.1.038-.129a.673.673,0,0,1,.163-.085c-.169.046.035-.306-.191-.2a.374.374,0,0,0-.052.033.318.318,0,0,1,.036.04l.078.133s-.015.019-.024.029c-.022-.178-.135.056-.181-.045a.291.291,0,0,0-.111-.144.147.147,0,0,0-.133.071.623.623,0,0,0,0,.221c0,.013.019.025.029.037-.015.01-.032.031-.045.029a1.057,1.057,0,0,1-.259-.061c-.073-.033-.153-.158-.194-.142-.18.071.109.029.028.1-.2.175-.454.1-.663.078a1.873,1.873,0,0,1-.756-.291c-.136-.083-.188.063-.284.033l.035.183c.081-.024.163-.043.242-.074a.491.491,0,0,0,.1-.075.355.355,0,0,1-.017.124c-.039.069-.114.192-.137.183a3.216,3.216,0,0,0-1.123-.036c-.1,0-.188-.074-.284-.077-.07,0-.139.061-.212.081-.021.005-.079-.061-.078-.064.04-.064.087-.123.133-.182a1.2,1.2,0,0,0-.2.076,1.041,1.041,0,0,0-.158.136l-.061.067c-.309-.282-.638.1-.95-.033l-.073-.031c.007-.01.012-.026.021-.03.088-.039.285-.1.236-.121a1.294,1.294,0,0,0-.582-.086c-.069,0-.139.118-.2.188-.019.022-.017.095-.022.094l-.59-.052.142-.058c.005,0,0-.028,0-.043l-.3,0c0,.015,0,.036.01.047a.994.994,0,0,0,.077.067.683.683,0,0,1-.117.019c-.334-.008-.67,0-1-.036-.1-.011-.2-.134-.3-.2a.08.08,0,0,0-.062-.017c-.021.008-.051.031-.055.051-.055.341-.18-.045-.266.024-.007.005-.074-.072-.113-.111l-.054-.052a.271.271,0,0,0-.028.075c0,.014.024.029.035.046l.034.049c-.018.012-.041.036-.053.031a1.493,1.493,0,0,1-.434-.191c-.177-.152.238-.044.1-.212-.021-.026-.032-.072-.056-.079-.088-.028-.179-.049-.268-.071v-.666a.767.767,0,0,0,.314-.05c.036-.015.4-.157.463.159.182-.172.343.147.529.026.032-.021.1.016.149.027l-.033.181-.008.044c.021,0,.048,0,.061-.013a.275.275,0,0,0,.058-.076c-.086-.085-.058-.126.045-.116.024,0,.14-.116.1.049a.779.779,0,0,0,.143-.025c.01,0-.006-.071.009-.081a1.4,1.4,0,0,1,1.328-.025c.156.045.4-.13.51-.054.171.115.259-.083.4-.024a1.218,1.218,0,0,0,.38.035c.274.02.526-.149.838,0a.618.618,0,0,0,.716-.1c.072-.078.329.017.5.054.242.054.48.127.719.192.062-.352.32-.178.505-.23.223-.061.477.166.668-.091.005-.008.027,0,.042,0l-.039.4c0,.016-.024.03-.036.046.017.006.044.023.049.017l.322-.383a.447.447,0,0,1,.066-.078c.014-.009.042,0,.064.008-.02.019-.05.036-.055.06a.434.434,0,0,0,0,.112.735.735,0,0,0,.245-.009c.089-.029.164-.119.252-.131a1.962,1.962,0,0,1,.991.04c.222.085.447-.179.665-.005.054.044.074.136.11.206l-.005.005h0c-.04.118-.1.017-.108-.008-.108-.231-.055.031-.067.09l-.023,0a.368.368,0,0,1-.026-.045l-.024.036.049.009c.014.02.021.019.023,0,.095.017.19.034.285.045.01,0,.028-.061.042-.095l-.152-.033,0,0h0c.052-.05.123-.146.148-.134.135.064.339-.028.409.211.015.054.174.063.268.088a.122.122,0,0,0,.026-.07c-.023-.077-.016-.206-.156-.115-.015.009-.05-.015-.077-.023.075-.049.147-.135.224-.14.337-.02.677-.017,1.015-.021.061,0,.124.011.185.016l-.125.023c.016.016.036.049.05.046a1.2,1.2,0,0,1,.241-.057l1.433.057c.5.02,1,.053,1.5.05.26,0,.519-.086.78-.1l1.235-.012c.094,0,.256.064.289-.13.343.214.731-.1,1.067.093.2.117.313-.1.473-.088a5.824,5.824,0,0,1,1.49.077c.2.064.446-.126.66.061.011.01.132-.182.282-.161.28.039.56-.1.852.067a.647.647,0,0,0,.52-.091c.22-.124-.025.341.2.151.009-.008.051.028.058.021.038-.038.064-.1.106-.119.027-.011.075.05.132.079.162.081.309.247.445.261.313.023.657.08.961.084.261,0,.072.111.088.136.108.2.521.095.464.439.149-.1.183.354.359.165.016-.016.1.046.153.074l-.067.109c.157.088.454.208.226.427s.1.063.069.151a.489.489,0,0,0,0,.193c0,.012.067.042.067.042a1.287,1.287,0,0,1-.057.19.816.816,0,0,0-.088-.138c-.014-.017-.039-.02-.06-.029,0,.032.009.064.01.094,0,.048-.007.1-.011.143.139-.319,0,.574.193.081a.139.139,0,0,1,.114-.055,1.1,1.1,0,0,1,.107.278.373.373,0,0,1-.012.14,1.4,1.4,0,0,0,.1-.173.946.946,0,0,0,.043-.117.344.344,0,0,1,.019.1,1.282,1.282,0,0,1-.07.307c-.008.019-.057.005-.087.008.021.078.075.2.049.233a.3.3,0,0,0,.011.327c0,.005-.035.032-.054.048a1.99,1.99,0,0,0,.124.156c.025.026.084.033.089.057a.129.129,0,0,1-.048.1c-.026.015-.069,0-.1-.01l-.053-.007c.016.034.03.1.049.1.077.007-.068.237.109.127a.347.347,0,0,1,.075-.022l-.117.348c.281.081-.307.281.039.359a.834.834,0,0,1,0,.124c-.069-.174-.035.292-.121.024-.005-.015-.028-.023-.042-.034a.2.2,0,0,0-.016.035c-.016.09-.072.22-.037.262.079.1.232.41.183.531-.013.03-.15-.022-.2.013-.146.094-.045.06.029.066s.183.061.181.082c-.043.4.141.824-.063,1.217-.009.016.01.055.025.076s.036.01.053.005a1.062,1.062,0,0,0,.109-.038l.007.129a.237.237,0,0,0-.048-.056c-.009-.005-.039.009-.046.023a2.938,2.938,0,0,0-.149.331,1.452,1.452,0,0,0,0,.2c0,.015-.084.037-.092.026a1.021,1.021,0,0,1-.073-.163l-.117.079h0v0l0,0-.138-.282-.013.266a.647.647,0,0,0,.013.185c.112.017.136-.07.141-.171l0,0c.126.116.258.227.373.355.017.019-.056.122-.07.19-.06.292.315.307.308.575,0,.064.054.137.038.191s-.086.093-.133.139c0-.085,0-.171-.01-.256,0-.009-.048-.011-.073-.016.034.07-.031.118-.036.149a3.5,3.5,0,0,0-.008.543v.107a.4.4,0,0,0-.069-.055c-.014-.006-.051,0-.052.012l-.021.21c.016-.016.03-.041.05-.049.047-.019.1-.029.145-.043.01.08.026.16.031.241.019.289.045.578.045.867s-.037.59-.038.885c0,.168.068.339.053.5a1.435,1.435,0,0,1-.154.587c-.184.3-.067.63-.108.941-.008.061.132.146.2.22-.182.033-.181.216-.25.348-.039.078-.127.124-.194.184h-.006l-.143-.2-.1.269.242-.068,0,0,0,0c.485-.025.063.31.14.444a.974.974,0,0,0,.141.157c-.043.036-.158.053-.014.131.047.026.056.133.083.2-.061-.039-.082-.047-.2.13a.5.5,0,0,1-.134-.041l.028.209-.1.168a.186.186,0,0,0,0,.158.9.9,0,0,0,.2.128c-.022-.079-.051-.158-.065-.239l-.032-.215.106-.168a.186.186,0,0,0,.2-.118c-.007.3-.22.573-.073.885-.175-.116-.207.084-.292.163-.013.012-.011.044-.016.067.51-.05.073.352.2.5.162.2-.25.433.01.647-.254.068-.158.277-.159.454a2.991,2.991,0,0,1-.038.347.077.077,0,0,0,.006.026l-.29.135c.09-.022.187-.078.27-.06.1.023.261.1.268.171a7.327,7.327,0,0,0,.038.9c.059.234-.221.285-.146.39.207.286-.233.315-.142.514.106.233.071-.189.181-.062.007.008.187-.189.2-.036.02.214.123.471-.055.67a1.025,1.025,0,0,1-.221.147c.091.012.037.261.2.149a1.113,1.113,0,0,0,.047.222c.109.254-.1.459-.082.7-.192-.078-.1.13-.09.124.4-.146.157.236.155.283a1.317,1.317,0,0,1-.132.58c-.09.158-.016-.17-.128-.091-.013-.061-.014-.189-.092-.09a.363.363,0,0,0,.048.308,1.063,1.063,0,0,1,.154.8,2.19,2.19,0,0,0,.107.719.363.363,0,0,1-.157.407c-.031.024.075.229.038.29-.143.235.349.405.04.634.365.215-.226.152-.073.306a.355.355,0,0,1,.027.03c.066-.047.148-.258.188-.107a1.05,1.05,0,0,1,.01.742.76.76,0,0,0-.038.428,1.4,1.4,0,0,1-.032.391,3.242,3.242,0,0,1,.019.608c-.008.035.049.088.076.133-.143-.068-.177.293-.364.111-.027-.026-.057-.231-.168-.069a.812.812,0,0,0,.18.143c.167.068.2.522.05.715-.03.039-.064.132-.052.143.152.14.193.216-.062.164-.006,0-.025.043-.025.043.088.067.2.119.145.276.155-.036.1.1.08.147-.112.228.245.161.175.353h.069l-.068.08c.079.058.225.185.11.227-.293.1-.146.386-.172.574-.01.164.087.385-.083.5-.16.093-.3.014-.421-.111a.214.214,0,0,0-.2-.015c-.036.015-.045.11-.066.17.043-.026.1-.087.128-.077a.422.422,0,0,1,.234.142c.054.078.013.175-.1.142.029.036.084.07.081.109a.517.517,0,0,1-.319.42,1.9,1.9,0,0,0-.2.151.762.762,0,0,1,.118.1c.018.022.014.066.018.1-.187-.124-.2.2-.339.189a.43.43,0,0,1-.132-.025,1.431,1.431,0,0,1-.18-.092c-.049.124.079.086.108.13a.244.244,0,0,1-.065.371c-.061-.225-.333.427-.332-.022-.116.085-.243.161-.365.24-.141.1-.376.315-.443.272-.251-.161-.278.186-.451.12-.029-.012-.039-.053-.058-.08.167.032-.119-.23.12-.148a.911.911,0,0,0,0-.2C1804.656,959.421,1804.612,959.365,1804.56,959.346Zm-19.048-33.389-.349-.168a1.058,1.058,0,0,0-.021.182,1.855,1.855,0,0,0,.278.047Zm.789.54c-.079-.026-.085-.064-.213.048l.015-.017.006-.007.012-.015h0l-.012.015-.006.007-.046.054c.1.026.214.1.288.067C1786.46,926.6,1786.386,926.528,1786.3,926.5Zm.364-.27-.256-.169-.078.2c.03.026.062.073.082.068A2.184,2.184,0,0,0,1786.665,926.228Zm.4-.166c-.124-.037-.212-.1-.279-.078-.12.037.154.157-.02.217a.566.566,0,0,0,.159-.006C1786.961,926.181,1786.988,926.136,1787.064,926.062Zm.969.29a1.1,1.1,0,0,0-.247-.2c-.042-.018.071.27-.214.086l.021.287Zm2.262.022a.744.744,0,0,0-.505-.124c-.381.1.1.167.083.186.061-.18.135.018.217.113C1790.05,926.348,1790.34,926.4,1790.295,926.374Zm.74-.263c-.032-.185-.136-.274-.414-.224l-.207.1.259.054a.062.062,0,0,1,.031.024l.2.3c.133-.14-.144-.113-.082-.226a.2.2,0,0,0,.01-.061c.036.029.068.072.109.083A.128.128,0,0,0,1791.035,926.111Zm3.055-.486a.087.087,0,0,0-.067-.047.651.651,0,0,0-.268.029,1.17,1.17,0,0,0-.248.216.072.072,0,0,0,.005.064c.014.017.055.035.062.028.124-.128.25-.223.418-.067h.06c-.014-.02-.038-.039-.043-.062a.965.965,0,0,1-.01-.141c.013,0,.032,0,.041.009a.563.563,0,0,1,.049.067A.247.247,0,0,0,1794.09,925.625Zm3.932.641c-.121-.117-.294.126-.416-.057-.015.037-.05.082-.04.11.086.279.24.016.36.047C1798.038,926.416,1798.042,926.285,1798.022,926.266Zm4.27-.187-.043.047-.118-.189c-.08.061-.19.2-.144-.064a1.334,1.334,0,0,0,0-.212c-.013,0-.035,0-.037.008-.063.153-.118.162-.166-.008-.021.011-.054.016-.062.034a.129.129,0,0,0-.005.09c.032.081.083.158.107.241a.221.221,0,0,1,.007.09l0,0c0,.015,0,.011,0,0,.273.22.061-.161.2-.019.062.063.045.207.081.308.005.014.158,0,.164-.023A1.707,1.707,0,0,0,1802.292,926.079Zm1.754-.091c-.023-.266-.113-.026-.176-.017s-.123.053-.174-.054c-.146.442.126.235.213.244C1803.952,926.166,1804.05,926.045,1804.046,925.988Zm.753.011a2.262,2.262,0,0,0-.622-.043c-.034,0-.1.082-.094.1.131.362.348-.019.379,0C1804.726,926.169,1804.818,926.007,1804.8,926Zm2.67,4.109c-.174.031-.093.2-.134.31h0a.637.637,0,0,0-.047-.124c-.022-.036-.054-.079-.088-.089-.168-.043-.177.151-.266.23-.009.008.019.065.029.1a.888.888,0,0,1,.09-.085,1.241,1.241,0,0,1,.122-.071.269.269,0,0,0,0,.047.576.576,0,0,0,.021.123c.005.015.053.028.055.023.03-.049.054-.1.08-.154h0l0,.005,0-.006c.1-.027.218-.048.2-.211C1807.535,930.171,1807.488,930.1,1807.469,930.109Zm-.688.577.205-.484-.03-.106c-.223.109-.058.407-.221.545Zm.28,7.346c0-.13.059-.023.144.1-.015-.172-.021-.256-.028-.341-.135.146-.435.231-.372.436C1806.851,938.369,1807.059,938.289,1807.061,938.032Zm-.212,4.678a3.809,3.809,0,0,0,.129-.484c.007-.044-.093-.106-.144-.159-.025.168-.05.337-.078.528Zm.046.732.094-.12c-.242-.132-.05-.3-.04-.491-.129-.155-.262.049-.251.113A2.247,2.247,0,0,0,1806.9,943.442Zm-.392,2.4.044-.2.039-.248c.231.065.069-.123.1-.189.01-.023,0-.057,0-.085a.408.408,0,0,0-.14.033c-.217.137-.078.337-.062.512C1806.484,945.725,1806.325,945.77,1806.5,945.846Zm.383.012c.343-.171.137-.476.163-.725,0-.008-.014-.017-.022-.025l-.17.708C1806.854,945.831,1806.881,945.852,1806.887,945.859Zm.365.108c.049-.134.1-.246.126-.362.008-.028-.045-.074-.07-.112-.051.115-.107.229-.149.348C1807.152,945.86,1807.205,945.906,1807.251,945.967Zm-.521,1.327a.628.628,0,0,1,.057-.194c.138-.177-.131-.292-.049-.455-.029-.006-.066-.028-.085-.016-.14.086,0,.147.018.22a.584.584,0,0,1,0,.14c-.057,0-.134-.195-.156-.015C1806.508,947.065,1806.649,947.177,1806.731,947.294Zm.061.566.095-.239c-.1-.04-.16.191-.286.061-.017-.018-.074.012-.113.019Zm.42,4.705.161-.24-.035-.032c-.224-.052-.124.14-.191.192Zm.012,3.184c.193-.138-.222-.268,0-.407-.089-.076-.115-.026-.132.109l-.121.031C1807.068,955.552,1807.215,955.572,1807.224,955.749Z" transform="translate(-1780.275 -925.251)" fill="#ffb806"/>
      </g>
    </g>
  </g>
</svg>
