<svg xmlns="http://www.w3.org/2000/svg" width="28.889" height="28.877" viewBox="0 0 28.889 28.877">
  <g id="Group_235" data-name="Group 235" transform="translate(-3228.537 4468.258)">
    <path id="Path_10257" data-name="Path 10257" d="M3320.919-4384.755l-8,8.169-2.178-1.94,8.612-8.85Z" transform="translate(-67.748 -66.659)" fill="#fff"/>
    <path id="Path_10258" data-name="Path 10258" d="M3335.261-4369.809l-7.591,8.033-3.574-2.621,8.68-8.85Z" transform="translate(-78.754 -78.303)"/>
    <path id="Path_10259" data-name="Path 10259" d="M3247.749-4455.736l-8.169,8.067-1.225-5.616,3.846-3.574Z" transform="translate(-8.091 -9.394)" fill="#fff"/>
    <path id="Path_10260" data-name="Path 10260" d="M3265.747-4440.322l-8.986,8.611-10.858-11.3,8.68-8.816Z" transform="translate(-14.312 -13.542)" fill="#ffb806"/>
    <path id="Path_10261" data-name="Path 10261" d="M3249.954-4439.965l6.886-6.877a2,2,0,0,0,0-2.826l-1.779-1.777,0,0c-.05-.053-.1-.107-.152-.16l-14.253-14.252a.633.633,0,0,0-.324-.173l-11.04-2.212a.633.633,0,0,0-.573.173.633.633,0,0,0-.173.573l2.212,11.041a.637.637,0,0,0,.173.324l14.252,14.252h0c.041.041.083.079.124.118l.006,0,1.807,1.805h0A2.007,2.007,0,0,0,3249.954-4439.965Zm.646-14.162-1.426,1.426-10.389-10.39,1.426-1.426Zm-2.322,2.322-3.288,3.288-10.39-10.39,3.288-3.288Zm-18.3-15.012,3.046.61-2.436,2.437Zm.909,4.54,3.63-3.63,4.408.883-7.155,7.155Zm1.39,5.692,1.426-1.426,10.389,10.39-1.426,1.426Zm11.286,11.286,7.932-7.932,1.45,1.45-7.932,7.932Zm4.5,4.391-2.14-2.062,7.916-7.915.436.458.052.059,0,0,1.564,1.644a.667.667,0,0,1,0,.942l-6.886,6.877A.669.669,0,0,1,3248.067-4440.907Z"/>
    <path id="Path_10262" data-name="Path 10262" d="M3237.415-4462.921l-3.778,3.4-1.089-4.7Z" transform="translate(-3.306 -3.333)"/>
  </g>
</svg>
