<svg xmlns="http://www.w3.org/2000/svg" width="38.505" height="38.505" viewBox="0 0 38.505 38.505">
  <g id="Group_110" data-name="Group 110" transform="translate(0 0)">
    <ellipse id="Ellipse_2" data-name="Ellipse 2" cx="19.252" cy="19.252" rx="19.252" ry="19.252" transform="translate(0 0)" fill="#ffb806"/>
    <path id="Path_10153" data-name="Path 10153" d="M1097.347,941.7c-1.164,1.147-2.314,2.309-3.47,3.465l-7.758,7.758c-.034.035-.071.067-.135.128-.172-.18-.338-.358-.509-.531-1.165-1.167-2.359-2.306-3.489-3.505a1.841,1.841,0,0,0-3.179.818v.776a2.626,2.626,0,0,0,.765,1.117q2.556,2.543,5.1,5.095a1.789,1.789,0,0,0,2.652,0q5.069-5.065,10.136-10.134c.743-.743,1.48-1.49,2.23-2.225a2.511,2.511,0,0,0,.7-1.016v-.9c-.012-.036-.022-.066-.031-.1A1.8,1.8,0,0,0,1097.347,941.7Z" transform="translate(-1069.71 -929.867)" fill="#4c1400"/>
  </g>
</svg>
