<svg xmlns="http://www.w3.org/2000/svg" width="63" height="63" viewBox="0 0 63 63">
  <g id="Group_317" data-name="Group 317" transform="translate(-0.356)">
    <rect id="Rectangle_541" data-name="Rectangle 541" width="63" height="63" rx="6" transform="translate(0.356)" fill="#ffb806"/>
    <path id="Twitter" d="M27.09,2.605a11.149,11.149,0,0,1-3.192.876A5.574,5.574,0,0,0,26.341.407a11.107,11.107,0,0,1-3.53,1.347,5.561,5.561,0,0,0-9.615,3.8,5.619,5.619,0,0,0,.145,1.267A15.777,15.777,0,0,1,1.887,1.017a5.562,5.562,0,0,0,1.72,7.418A5.512,5.512,0,0,1,1.09,7.74v.071a5.559,5.559,0,0,0,4.458,5.448,5.549,5.549,0,0,1-1.465.195,5.467,5.467,0,0,1-1.045-.1,5.566,5.566,0,0,0,5.192,3.86,11.165,11.165,0,0,1-6.9,2.377A11.2,11.2,0,0,1,0,19.514a15.728,15.728,0,0,0,8.52,2.5A15.7,15.7,0,0,0,24.333,6.2c0-.242-.006-.48-.016-.719A11.3,11.3,0,0,0,27.09,2.607v0Z" transform="translate(18.281 20.743)" fill="#4c1400"/>
  </g>
</svg>
