<svg xmlns="http://www.w3.org/2000/svg" width="81.273" height="35.285" viewBox="0 0 81.273 35.285">
  <g id="Group_88" data-name="Group 88" style="mix-blend-mode: multiply;isolation: isolate">
    <path id="Path_10148" data-name="Path 10148" d="M1631.017,961.148h-74.2a2.5,2.5,0,0,1-2.257-2.686V930.723a2.5,2.5,0,0,1,2.257-2.686h74.2a2.5,2.5,0,0,1,2.258,2.686v27.739A2.5,2.5,0,0,1,1631.017,961.148Z" transform="translate(-1553.28 -926.95)" fill="#4c1400"/>
    <g id="Group_87" data-name="Group 87">
      <g id="Group_83" data-name="Group 83" transform="translate(0 33.111)">
        <path id="Path_10149" data-name="Path 10149" d="M1598.323,970.681v-.8c.141.04.3.04.335-.2.069.028.163.04.2.087.148.179.227.158.372-.021.1-.125.275-.072.383.066a1.4,1.4,0,0,0,.175-.076c.029.107.042.041.1.011a.517.517,0,0,1,.343-.046c.168.065-.059.084-.044.088.131.027.294.092.4.05.5-.2,1.019,0,1.52-.088.006,0,.011-.008.016-.008.461.112.907-.144,1.426.057a2.445,2.445,0,0,0,1.4-.154c.328-.1.466.089.693.138a1.831,1.831,0,0,0,.275-.024,10.321,10.321,0,0,1,1.079.06c.185.026.344.179.531.217.072.015.243-.111.274-.2.11-.314.407.064.535-.126.208.117.528.135.517.446.044-.091.063-.2.137-.268.244-.21.472-.031.722.02a.584.584,0,0,0,.587-.127c-.049-.008-.1-.015-.144-.027,0,0,0-.036.006-.055a2.184,2.184,0,0,1,.272.049.163.163,0,0,1,.079.1c.006.015-.034.054-.062.066a.623.623,0,0,1-.134.028c.022.022.05.067.065.063.086-.02.236-.042.242-.079.037-.242.291.026.352-.124a.849.849,0,0,0,.871.054c.124-.038.3.022.4-.032.253-.134.211.075.29.152a.478.478,0,0,0,.153.062.854.854,0,0,1-.084-.114c-.011-.021,0-.051,0-.078.183.018.3.163.564-.033.2-.151.705.05,1.05-.01a.6.6,0,0,1,.674.186c.128-.259.4-.284.666-.295.331-.014.664,0,.993-.031.258-.025.013.325.132.191a.569.569,0,0,1,.531-.172c.248.021.559-.115.74.152,0,0-.088.052-.135.079l.288.078v.01l.04.013,0-.037c.154-.293.422.005.639-.093a1.646,1.646,0,0,1,.639-.06c.126,0,.343-.135.354.13,0,.018.084.055.118.046.077-.019.193-.046.211-.094.054-.139.222-.219.493-.205a3.042,3.042,0,0,1,.835.049c.4.148.819-.014,1.245.126a1.862,1.862,0,0,1,.646.228c.121.092-.1-.163.135-.167.473-.008.043.549.464.51.163-.015.435.244.486-.121-.028.009-.062.029-.081.022-.052-.02-.1-.056-.148-.078-.184-.079-.136-.2-.087-.328.132.047.363.079.376.144.033.175.19.055.25.121-.017-.038-.036-.075-.049-.113,0-.006.025-.027.038-.027.23,0,.459,0,.689.007l-.15.157c.208-.016.5-.114.606-.031.188.152.466-.187.557.122.1-.034.181-.206.3-.021.106-.209.418.179.506-.129a2.7,2.7,0,0,1,.323.034l1.106.13c-.24.2.228.2.133.369-.011.021.025.061.039.093.01-.032.019-.064.03-.095l0,0h0c.344.37.44-.06.641-.152h0l0,0c.068.121.147.235.334.2.029-.006.046-.061.068-.094-.136-.031-.207-.257-.4-.1l0,0-.007,0c-.2-.061-.424-.107-.28-.371.019-.036.218-.083.008-.129a.219.219,0,0,0-.117.032c.054.25-.148.421-.252.62h0c-.027-.106-.116-.247-.068-.311a.866.866,0,0,1,1.026-.382,5.727,5.727,0,0,0,1.4-.023c.124,0,.314-.1.306.133.032-.04.086-.118.1-.115.5.2,1.088-.114,1.561.211.01.007.046-.009.065-.02.054-.031.1-.065.156-.1a.851.851,0,0,1-.115,0c-.014,0-.024-.027-.036-.042a1.077,1.077,0,0,1,.284-.09c.383-.015.768-.021,1.153-.015a.712.712,0,0,1,.231.1c-.1.024-.194.053-.292.071a.529.529,0,0,1-.22.012c-.252-.071-.537.12-.769-.077a.437.437,0,0,0-.056.112c-.041.216.071.088.161.061s.227-.052.256-.019c.062.069-.006.207.152.02.085-.1.461-.083.665-.02.359.11.5-.294.838-.208a1.9,1.9,0,0,0,.419-.031c.445,0,.89.007,1.335.02a.226.226,0,0,1,.152.1.547.547,0,0,1,.036.188c0-.061,0-.124.012-.184a.32.32,0,0,1,.038-.083c.012.014.033.026.036.042.018.085.032.17.047.256.162-.046.153-.146.119-.262-.006-.019.043-.053.072-.076.008-.006.032,0,.049,0a.827.827,0,0,1-.03.079c-.082.159.038.218.172.279a.98.98,0,0,1,.163.116.935.935,0,0,0-.1.049c-.014.01-.019.031-.027.046a.5.5,0,0,0,.158.009.111.111,0,0,0,.058-.095c-.01-.118-.041-.233-.049-.351-.01-.158.032-.172.261-.095a.814.814,0,0,1,.138.074c.182-.336.432-.026.633-.023.384,0,.776.183,1.091-.162.006-.007.058.015.084.028.079.041.161.126.231.118.209-.022.409-.095.618-.122a7.5,7.5,0,0,1,.842-.061c.058,0,.118.1.177.152-.011.211.039.359.339.252l.1.116c.222.006.443.02.664.016a2.678,2.678,0,0,1,1.332.194c.211.1.568.092.846.209.058.025.2-.112.309-.174-.138.007-.04-.339-.3-.152-.123-.16-.417.061-.5-.17a.837.837,0,0,1-.03-.187,1.243,1.243,0,0,0,.381.124,3.7,3.7,0,0,0,.771-.1c.2-.049.252.007.245.162,0,.015,0,.029,0,.043.053-.186.175-.066.273-.049-.011.05-.041.106-.024.148a.223.223,0,0,0,.129.112c.24.076.271-.123.375-.227l.433.007-.125.13.183.118.025.033.094.041.04-.009c.291-.214.519-.187.674.13.007.014.036.018.054.027-.128-.313.211-.254.362-.344-.116-.1-.133-.186.062-.207.256-.028.514-.042.772-.06a.256.256,0,0,1,.068.016c-.017.016-.037.031-.051.048a.808.808,0,0,0-.106.139c0,.007.065.043.1.067a1.023,1.023,0,0,1,.037-.107,1.341,1.341,0,0,0,.442.078c.278-.064.1.176.138.159a1.386,1.386,0,0,0,.253-.2.214.214,0,0,1,.129-.04c.031,0,.058.045.086.07a.352.352,0,0,0-.126,0,.457.457,0,0,0-.129.088c-.008.007,0,.047.009.047.113,0,.225,0,.338,0,.136.016.323.089.4.037.193-.133-.047-.2-.126-.216s-.174.067-.262.106c-.111-.241.32-.132.279-.328.09.139.336-.2.378.092,0,.012.02.022.032.033a.732.732,0,0,0,.15-.124c.027-.039.014-.1.02-.149s.016-.1.023-.145l.167.058a.777.777,0,0,0-.111.014A.047.047,0,0,0,1652,970c.034.078.072.155.109.232l.146-.077c-.037-.012-.09-.014-.108-.037s-.023-.09,0-.1c.11-.066.229-.12.344-.178-.02.035-.044.068-.061.1-.067.14.019.214.157.251.114.032.126.083.032.131a.887.887,0,0,1-.241.048,1.542,1.542,0,0,1,.166.073c.305.176.136-.1.2-.155.257-.226.452.144.7.059h0c.093.062.162.253.3.018a.156.156,0,0,1,.266.033c.2-.123.406-.246.611-.368a.07.07,0,0,1,.05,0c.037.115.071.231.1.346-.073-.009-.167,0-.215-.032-.2-.146-.209.137-.35.106a1.347,1.347,0,0,1,.2.121c.346.29.025-.153.157-.109.035.011.092-.037.132-.03.417.076.368-.3.567-.433a1.006,1.006,0,0,1,.28-.079c.012.037.046.082.033.11-.152.318.286.274.382.462a.606.606,0,0,0,.6.363c.069-.007.146.033.214.025.042-.005.076-.062.113-.1-.357.079-.357-.451-.742-.331a.388.388,0,0,1-.147-.02,3.5,3.5,0,0,1,.338-.221c.016-.008.1.085.151.135.01.009,0,.035,0,.053a.709.709,0,0,0,.145-.078c.067-.061.11-.154.189-.188.042-.018.139.06.21.094a1.187,1.187,0,0,0-.232.054c-.026.012-.156.127.019.11a2.128,2.128,0,0,0,.418-.151c.024-.009.094.047.1.041.154-.163.283,0,.33.06.14.188.145.378-.171.441-.036.008-.1-.081-.147-.124,0,.042-.014.116,0,.12.116.036.3.112.344.074.176-.164.319-.313.545-.061,0-.015.015-.041.008-.045-.106-.07-.211-.187-.324-.193-.149-.008-.137-.016-.049-.089.03-.026.084-.028.114-.054.072-.061-.32.035-.046-.1.025-.012.024-.248.129-.026a.3.3,0,0,0,.232.008c.1-.1.416.239.376-.136,0-.016.076-.047.122-.059.263-.067.5-.231.8-.142a.928.928,0,0,1,.109.032c.014.007.032.037.026.043-.277.349.1.222.249.263h0c-.075,0-.169-.015-.217.018-.166.112.113.1.08.181l.4-.04-.014.009.009,0-.115.32c.212-.062.343.295.559.1.131-.118-.257-.362.1-.468a.294.294,0,0,1-.091-.042c-.214-.221-.275.188-.457.089l0-.013h0l.112-.072-.377-.087h0c.289-.132.021-.175-.054-.248a.25.25,0,0,1-.025-.038c.032-.007.063-.015.095-.02.328-.043.682.078.988-.118a.114.114,0,0,1,.094.027.353.353,0,0,1,.046.155c0,.033-.03.067-.047.1l.439.083a1,1,0,0,1,0-.131c0-.026.019-.07.034-.072.263-.031.53-.047.791-.086s.539.156.8-.024a.058.058,0,0,1,.031.015c-.014.049-.014.114-.05.141a.983.983,0,0,1-.217.093c.226-.05-.046.336.254.22a.659.659,0,0,0,.068-.037.479.479,0,0,1-.047-.044c-.037-.048-.072-.1-.1-.146,0,0,.02-.021.032-.032.029.2.179-.061.24.049a.332.332,0,0,0,.146.158.21.21,0,0,0,.177-.078.579.579,0,0,0,0-.242c0-.015-.025-.028-.039-.042.02-.011.043-.034.06-.032a1.738,1.738,0,0,1,.344.067c.1.037.2.174.256.156.239-.078-.144-.032-.036-.109a1.257,1.257,0,0,1,.879-.085,2.813,2.813,0,0,1,1,.318c.182.091.251-.069.378-.037l-.047-.2c-.107.026-.216.048-.321.081a.641.641,0,0,0-.133.083c.006-.046,0-.1.022-.136.053-.076.153-.21.182-.2a5.142,5.142,0,0,0,1.49.04c.127,0,.251.081.378.084.092,0,.184-.067.28-.089.028-.006.106.067.1.071-.054.07-.115.135-.176.2a1.824,1.824,0,0,0,.26-.083,1.326,1.326,0,0,0,.21-.15c.031-.023.08-.074.081-.073.409.311.846-.111,1.26.037l.1.034c-.009.012-.015.029-.027.033-.115.043-.378.107-.314.133a2.051,2.051,0,0,0,.773.095c.092,0,.183-.13.267-.207.025-.023.023-.1.029-.1.261.015.521.037.783.058-.063.02-.127.039-.189.063-.007,0,0,.032,0,.048l.392,0c0-.017,0-.04-.015-.05a1.013,1.013,0,0,0-.1-.073.962.962,0,0,1,.153-.021c.444.009.89,0,1.331.04.137.012.26.147.392.223a.128.128,0,0,0,.083.02c.028-.009.068-.034.072-.057.073-.373.239.049.353-.026a1.054,1.054,0,0,1,.15.122l.073.058a.288.288,0,0,0,.036-.083c0-.015-.031-.032-.046-.049s-.03-.037-.045-.055c.024-.012.054-.039.07-.034a2.268,2.268,0,0,1,.575.209c.236.168-.315.049-.137.233.027.028.042.079.074.088.117.03.236.053.356.077v.732a1.193,1.193,0,0,0-.418.055c-.048.016-.525.172-.614-.175-.241.187-.455-.162-.7-.029-.042.023-.131-.018-.2-.029l.044-.2c0-.016.007-.032.01-.049a.218.218,0,0,0-.082.015.369.369,0,0,0-.076.083c.115.093.077.139-.06.127-.032,0-.184.127-.131-.054a1.259,1.259,0,0,0-.19.027c-.013,0,.007.078-.011.089a2.206,2.206,0,0,1-1.763.028c-.207-.049-.528.141-.677.059-.227-.126-.343.091-.529.026a1.933,1.933,0,0,0-.5-.038c-.363-.022-.7.163-1.111,0a.957.957,0,0,0-.95.109c-.1.086-.437-.019-.661-.06-.32-.059-.636-.14-.954-.21-.081.386-.424.2-.671.252-.3.067-.632-.182-.885.1-.007.008-.036,0-.055,0,.016-.147.032-.295.052-.441,0-.018.031-.033.047-.05-.023-.007-.059-.025-.066-.019-.145.139-.286.279-.427.42a.509.509,0,0,1-.089.086c-.017.01-.055,0-.084-.009.025-.021.066-.04.073-.066a.293.293,0,0,0,0-.123,1.17,1.17,0,0,0-.324.01c-.118.031-.218.132-.334.144a3.132,3.132,0,0,1-1.316-.044c-.295-.094-.593.2-.882.006-.072-.048-.1-.149-.146-.226l.006-.005h0c.052-.13.128-.019.143.009.143.254.074-.034.089-.1l.031,0a.37.37,0,0,1,.033.049l.032-.04-.065-.009c-.018-.021-.028-.021-.031,0-.126-.019-.252-.037-.379-.049-.015,0-.037.067-.056.1l.2.036,0,.005h0c-.069.055-.163.16-.2.147-.179-.07-.451.031-.543-.232-.021-.059-.231-.068-.356-.1-.005,0-.042.055-.034.077.029.084.021.227.206.126.02-.01.067.016.1.026-.1.054-.194.148-.3.153-.449.022-.9.02-1.348.023-.082,0-.163-.012-.245-.018l.167-.026c-.022-.018-.048-.054-.066-.05a1.875,1.875,0,0,1-.319.063c-.634-.015-1.269-.041-1.9-.062-.663-.021-1.326-.058-1.989-.055-.345,0-.689.095-1.035.106-.546.019-1.093-.007-1.639.013-.125,0-.34-.07-.383.142-.455-.235-.971.114-1.415-.1-.266-.129-.416.106-.629.1a9.324,9.324,0,0,1-1.977-.084c-.266-.069-.59.139-.876-.067-.015-.011-.175.2-.374.177-.371-.042-.743.107-1.131-.073a1.008,1.008,0,0,0-.689.1c-.292.136.032-.374-.262-.165-.011.009-.068-.031-.077-.023-.05.042-.084.114-.141.131-.036.011-.1-.056-.157-.084-.169-.085-.351-.251-.506-.235a2.592,2.592,0,0,0-1.011.277c-.239.143-.118-.064-.145-.08-.212-.128-.492.251-.66-.073-.044.195-.393-.132-.386.169,0,.026-.1.054-.155.081l-.036-.136c-.176.083-.42.3-.48-.046-.063-.37-.11.067-.165-.01a.4.4,0,0,0-.173-.1c-.011-.005-.066.054-.068.052-.055-.044-.1-.092-.156-.14.058-.013.116-.022.172-.04.022-.007.037-.032.056-.048-.033-.012-.066-.021-.1-.035-.047-.021-.093-.045-.139-.068.27.265-.594-.2-.156.185a.179.179,0,0,1,.015.147,1.381,1.381,0,0,1-.3.041.418.418,0,0,1-.134-.047c.047.054.093.11.142.162a1.038,1.038,0,0,0,.1.082.275.275,0,0,1-.1-.005,2.372,2.372,0,0,1-.275-.146c-.017-.011,0-.067.006-.1-.081.011-.2.056-.237.026-.127-.112-.227-.049-.342,0-.006,0-.039-.041-.059-.063a2.406,2.406,0,0,0-.192.147c-.032.03-.042.1-.072.1a.158.158,0,0,1-.126-.056c-.02-.03.006-.082.012-.125l.01-.063c-.043.019-.12.035-.123.057-.009.091-.293-.081-.158.129a.316.316,0,0,1,.028.089l-.428-.139c-.1.334-.346-.364-.442.047a.956.956,0,0,1-.153,0c.215-.082-.359-.042-.029-.144.019-.005.028-.032.041-.049a.164.164,0,0,0-.043-.02c-.11-.019-.271-.084-.323-.044-.119.094-.5.274-.653.216-.038-.015.026-.177-.017-.242-.115-.173-.073-.053-.08.034s-.076.217-.1.215c-.5-.051-1.015.167-1.5-.075-.019-.01-.068.012-.094.029s-.012.043-.006.063a1.276,1.276,0,0,0,.046.129l-.158.009a.293.293,0,0,0,.068-.057c.007-.011-.012-.046-.029-.054a3.5,3.5,0,0,0-.408-.176,1.634,1.634,0,0,0-.245,0c-.019,0-.047-.1-.032-.109a1.151,1.151,0,0,1,.2-.086l-.1-.139,0,0h0l0,0,.348-.163c-.11-.005-.219-.014-.328-.015a.8.8,0,0,0-.227.015c-.02.131.086.161.21.166l0,0c-.143.15-.279.3-.437.441-.024.021-.15-.066-.234-.083-.361-.07-.379.373-.708.364-.079,0-.17.065-.235.046s-.115-.1-.171-.158c.1,0,.211,0,.316-.012.009,0,.013-.057.02-.087-.086.04-.145-.037-.184-.043a4.361,4.361,0,0,0-.668-.008c-.045,0-.089,0-.132,0a.41.41,0,0,0,.067-.081c.009-.017,0-.061-.013-.062-.086-.012-.173-.017-.26-.024.02.02.051.036.06.059.023.055.036.114.053.171-.1.013-.2.031-.3.037-.355.021-.711.054-1.067.054s-.725-.044-1.088-.045c-.206,0-.418.081-.618.062a1.822,1.822,0,0,1-.723-.181c-.375-.218-.776-.08-1.159-.129-.076-.009-.18.156-.271.241-.04-.215-.266-.215-.429-.295-.095-.047-.154-.151-.227-.231v-.007h0l.249-.169-.332-.116c.028.1.056.19.084.285l0,0,0,0c.031.576-.381.075-.546.167a1.14,1.14,0,0,0-.194.166c-.046-.051-.065-.187-.162-.017-.032.055-.165.067-.251.1.048-.072.058-.1-.159-.233a.545.545,0,0,1,.051-.158l-.258.033-.206-.121a.238.238,0,0,0-.2,0,1.1,1.1,0,0,0-.158.241c.1-.026.2-.06.3-.078s.176-.027.265-.038c.088.051.153.09.207.125a.219.219,0,0,0,.145.232c-.365-.008-.7-.26-1.088-.087.142-.207-.1-.245-.2-.346-.015-.015-.054-.014-.081-.019.062.6-.433.087-.617.231-.244.191-.533-.3-.8.011-.083-.3-.341-.187-.56-.187a4.227,4.227,0,0,1-.426-.045c-.011,0-.032.008-.032.006q-.084-.17-.166-.342c.028.107.1.221.073.319-.028.118-.123.308-.21.318a9.138,9.138,0,0,0-1.114.046c-.288.069-.351-.263-.48-.173-.352.245-.388-.276-.634-.169-.287.127.233.083.076.215-.01.009.232.222.044.239-.263.023-.58.146-.824-.065a1.231,1.231,0,0,1-.181-.261c-.015.106-.323.043-.184.239a1.408,1.408,0,0,0-.273.054c-.313.13-.565-.112-.856-.1.1-.227-.159-.123-.153-.106.18.472-.291.186-.349.183a1.681,1.681,0,0,1-.714-.156c-.194-.106.21-.02.112-.152.074-.015.232-.017.11-.108a.464.464,0,0,0-.379.055,1.354,1.354,0,0,1-.981.183,2.782,2.782,0,0,0-.885.126.456.456,0,0,1-.5-.186c-.03-.037-.282.089-.357.044-.29-.17-.5.413-.781.048-.265.432-.187-.267-.375-.087-.012.012-.04.03-.037.032.057.078.317.176.132.221a1.338,1.338,0,0,1-.914.012.967.967,0,0,0-.527-.045,1.783,1.783,0,0,1-.482-.037,4.247,4.247,0,0,1-.749.021c-.043-.009-.108.058-.163.089.084-.169-.361-.209-.136-.429.032-.032.284-.068.085-.2a.984.984,0,0,0-.176.214c-.084.2-.642.237-.881.06-.048-.036-.162-.075-.176-.061-.172.179-.266.228-.2-.074,0-.007-.051-.03-.052-.029-.083.1-.147.233-.34.171.044.184-.12.124-.183.1-.28-.132-.2.29-.435.206v.082l-.1-.081c-.072.094-.227.266-.278.129-.131-.343-.4-.169-.591-.159-.167.009-.344.186-.5.022a.419.419,0,0,1-.032-.51.241.241,0,0,0-.062-.225c-.033-.035-.149-.009-.228-.009.052.037.145.072.148.112a.519.519,0,0,1-.05.314c-.055.086-.164.084-.188-.049-.021.047-.029.123-.067.138a.639.639,0,0,1-.571-.094,1.493,1.493,0,0,0-.278-.088.846.846,0,0,1,.008.176c0,.031-.042.06-.066.089-.042-.258-.3-.031-.41-.14a.622.622,0,0,1-.1-.125c-.04-.068-.071-.141-.105-.212-.138.074.018.132.011.192-.015.148-.067.29-.294.284.065-.256-.539.208-.313-.222-.166.022-.334.032-.495.07-.2.046-.495.211-.557.157-.258-.224-.326.163-.5.079-.03-.014-.041-.06-.062-.091.188.044-.136-.259.139-.156a.921.921,0,0,0,.01-.225C1598.45,970.768,1598.394,970.705,1598.323,970.681Zm70.014.2.464.184a1.02,1.02,0,0,0,.028-.2,3.1,3.1,0,0,0-.369-.052Zm-1.047-.594c.1.03.113.071.283-.053l-.019.019-.008.008-.016.016h0l.016-.016.008-.008.06-.059c-.129-.028-.283-.109-.382-.073C1667.079,970.173,1667.177,970.252,1667.29,970.283Zm-.483.3.34.186.1-.216c-.039-.028-.082-.08-.108-.074A3.487,3.487,0,0,0,1666.808,970.58Zm-.529.182c.163.042.281.108.37.086.16-.041-.2-.172.028-.238a.916.916,0,0,0-.212.007C1666.414,970.631,1666.379,970.681,1666.279,970.762Zm-1.287-.319a1.453,1.453,0,0,0,.327.217c.056.021-.093-.3.284-.094-.012-.139-.02-.227-.027-.314Zm-3-.024a1.145,1.145,0,0,0,.671.136c.5-.115-.139-.183-.11-.2-.082.2-.18-.019-.289-.124C1662.316,970.449,1661.931,970.391,1661.991,970.42Zm-.982.289c.043.2.181.3.549.246l.275-.112-.344-.059a.073.073,0,0,1-.04-.026c-.089-.107-.178-.216-.266-.324-.176.152.192.124.109.248-.013.018-.01.044-.014.066a.48.48,0,0,0-.145-.091A.182.182,0,0,0,1661.009,970.708Zm-4.054.534a.12.12,0,0,0,.09.05,1.05,1.05,0,0,0,.355-.031,1.5,1.5,0,0,0,.329-.239c.013-.01.008-.055-.007-.07s-.074-.038-.083-.031c-.164.141-.331.245-.555.073h-.079c.019.022.05.043.057.068a1.053,1.053,0,0,1,.013.155c-.019,0-.043,0-.054-.009a.768.768,0,0,1-.064-.074C1656.955,971.172,1656.94,971.213,1656.954,971.243Zm-5.218-.7c.161.129.39-.138.552.063.019-.041.065-.089.054-.121-.115-.307-.318-.017-.478-.052C1651.714,970.374,1651.711,970.518,1651.736,970.538Zm-5.666.205.057-.052.158.209c.106-.066.252-.221.192.07a1.122,1.122,0,0,0,0,.233c.017,0,.046,0,.05-.009.083-.168.156-.177.22.009.028-.012.071-.018.083-.037a.119.119,0,0,0,.006-.1,2.746,2.746,0,0,1-.142-.265.206.206,0,0,1-.009-.1l0,0c0-.016,0-.013,0,0-.362-.242-.081.178-.267.021-.082-.069-.059-.227-.108-.338a.414.414,0,0,0-.216.026A1.52,1.52,0,0,0,1646.071,970.743Zm-2.327.1c.029.292.15.028.232.02s.162-.059.231.059c.194-.486-.167-.258-.283-.268C1643.868,970.649,1643.737,970.781,1643.743,970.843Zm-.986,0a4.84,4.84,0,0,0,.811.033c.046,0,.137-.091.126-.114-.173-.4-.461.021-.5,0C1642.835,970.649,1642.729,970.841,1642.757,970.846Zm-6.51.341c-.039-.206-.251-.11-.383-.158v0a.857.857,0,0,0,.152-.056c.045-.026.1-.063.11-.1.054-.2-.187-.21-.284-.313-.01-.011-.08.021-.123.034a1.269,1.269,0,0,1,.1.107c.033.045.058.1.088.144a.434.434,0,0,0-.058,0,.745.745,0,0,0-.152.026c-.018.006-.035.062-.029.066.061.035.126.064.19.094v0l-.007,0,.008,0c.033.124.059.258.26.24C1636.169,971.264,1636.251,971.208,1636.247,971.186Zm-.712-.814.6.243.129-.036c-.134-.263-.5-.068-.672-.26Zm-9.045.331c.161,0,.028.07-.121.17l.419-.033c-.179-.16-.284-.515-.537-.439C1626.076,970.455,1626.173,970.7,1626.49,970.7Zm-5.76-.251a5.044,5.044,0,0,0,.6.154c.053.008.13-.111.2-.17l-.651-.094Zm-.9.055.148.11c.162-.286.366-.058.6-.047.191-.153-.059-.31-.138-.3A2.8,2.8,0,0,0,1619.829,970.507Zm-2.962-.464c.087.019.167.038.248.053.1.018.2.031.305.046-.08.274.153.082.232.116a.3.3,0,0,0,.106,0,.517.517,0,0,0-.041-.165c-.171-.256-.416-.092-.631-.073C1617.016,970.02,1616.963,969.833,1616.868,970.043Zm-.015.454c.211.405.587.162.893.192.01,0,.021-.016.031-.026-.291-.068-.581-.136-.872-.2C1616.887,970.459,1616.861,970.49,1616.852,970.5Zm-.132.431c.166.058.3.114.447.149.034.009.091-.053.137-.083-.142-.06-.282-.127-.429-.176C1616.851,970.81,1616.795,970.874,1616.72,970.928Zm-1.634-.616a.777.777,0,0,1,.239.067c.218.163.36-.155.56-.059.007-.034.034-.078.02-.1-.106-.165-.18,0-.272.022a.823.823,0,0,1-.172,0c0-.067.24-.158.018-.185C1615.368,970.048,1615.229,970.215,1615.086,970.312Zm-.7.072.294.113c.05-.124-.236-.19-.076-.339.022-.02-.014-.088-.024-.134Zm-5.794.5c.1.065.194.13.3.191a.351.351,0,0,0,.038-.042c.065-.266-.172-.146-.236-.226Zm-3.921.015c.171.227.331-.262.5-.005.094-.106.032-.137-.133-.157l-.038-.144C1604.918,970.712,1604.895,970.885,1604.674,970.9Z" transform="translate(-1598.323 -969.619)" fill="#4c1400"/>
      </g>
      <g id="Group_84" data-name="Group 84" transform="translate(0 0.408)">
        <path id="Path_10150" data-name="Path 10150" d="M1557.82,927.881v.725c-.107-.03-.24-.026-.232.194-.05-.02-.117-.022-.153-.061-.141-.154-.21-.114-.253.062-.031.117-.146.11-.285.011-.008-.006-.053.068-.078.1-.073-.08-.049-.023-.073.016-.042.057-.1.134-.181.13-.143,0-.018-.082-.029-.08-.1.012-.237.031-.272.093-.119.31-.52.42-.59.719a.046.046,0,0,0,0,.011c-.261.212-.043.484-.28.761-.17.3.018.779.181,1.138.122.267-.1.379-.161.563-.021.068.031.149.027.223a5.8,5.8,0,0,1-.07.877c-.031.151-.209.28-.255.432-.018.059.13.2.233.222.37.09-.075.331.148.435-.137.17-.159.429-.524.421a1.1,1.1,0,0,1,.315.112c.247.2.037.383-.024.586a.373.373,0,0,0,.149.477c.01-.039.019-.078.032-.116a.336.336,0,0,1,.064,0,1.217,1.217,0,0,1-.057.22c-.015.03-.075.054-.121.064-.019,0-.064-.028-.078-.05a.4.4,0,0,1-.033-.109c-.026.017-.078.04-.074.052.024.07.051.193.094.2.284.03-.03.237.146.286-.224.33-.218.364-.064.707.046.1-.025.245.039.329.156.2-.089.172-.18.236-.039.028-.05.082-.074.123a1.122,1.122,0,0,1,.135-.068.281.281,0,0,1,.091,0c-.02.149-.192.247.04.457.177.161-.06.573.011.854a.405.405,0,0,1-.218.547.5.5,0,0,1,.346.542c.017.268,0,.539.037.805.029.209-.383.011-.224.108a.383.383,0,0,1,.2.431c-.026.2.135.454-.18.6l-.092-.109-.092.234h-.012l-.015.033.044,0c.345.125-.007.343.109.519a.945.945,0,0,1,.07.519c0,.1.158.279-.154.288-.02,0-.063.068-.054.1.022.062.054.156.111.172a.341.341,0,0,1,.241.4,1.73,1.73,0,0,1-.056.677c-.175.328.015.665-.148,1.012a1.263,1.263,0,0,1-.269.525c-.108.1.192-.085.2.109.009.383-.645.035-.6.376.017.133-.287.353.142.395-.01-.022-.034-.05-.026-.066.023-.043.066-.078.092-.12.093-.15.239-.11.385-.071-.055.107-.093.295-.169.3-.205.028-.065.155-.142.2.044-.013.088-.029.134-.04.006,0,.032.02.032.032l-.009.559-.184-.122c.02.169.135.408.036.492-.178.153.22.379-.142.452.04.078.242.147.024.242.246.086-.21.34.151.411a1.442,1.442,0,0,1-.04.263l-.153.9c-.233-.2-.241.185-.434.108-.024-.009-.072.02-.11.032l.112.024,0,0h0c-.434.279.072.358.18.521v0l0,0c-.143.056-.278.12-.234.272.007.023.073.036.111.055.037-.11.3-.168.124-.327h0l0-.005c.072-.164.126-.344.437-.228.042.016.1.177.151.007a.141.141,0,0,0-.037-.1,1.393,1.393,0,0,1-.73-.2h0c.124-.021.29-.094.365-.055.373.192.6.4.451.833a3.23,3.23,0,0,0,.027,1.141c0,.1.121.255-.157.249a.858.858,0,0,1,.135.077c-.239.4.135.884-.249,1.269-.008.008.011.036.025.053l.114.126a.369.369,0,0,1,0-.092c0-.012.031-.019.048-.029a.7.7,0,0,1,.106.23c.019.311.025.624.018.936,0,.063-.075.125-.116.187-.028-.078-.062-.157-.083-.237a.305.305,0,0,1-.014-.179c.083-.2-.141-.436.09-.625a.663.663,0,0,0-.131-.046c-.255-.033-.1.059-.071.132s.061.184.022.208c-.082.05-.244-.005-.024.123.118.068.1.373.024.54-.129.292.346.408.244.681-.037.1.037.227.036.341q0,.541-.024,1.084c0,.043-.063.1-.116.123a.866.866,0,0,1-.221.03c.072,0,.145,0,.216.01a.449.449,0,0,1,.1.031c-.016.01-.031.026-.049.029l-.3.039c.053.133.176.113.308.094.022,0,.064.027.092.043.009,0,0,.019,0,.03-.031,0-.064-.008-.095-.016a.246.246,0,0,0-.32.13,1.684,1.684,0,0,1-.118.129.937.937,0,0,0-.072-.065.213.213,0,0,0-.055-.016.218.218,0,0,0,.012.122.155.155,0,0,0,.118.03c.135-.024.266-.062.4-.082.185-.026.2,0,.147.147a.617.617,0,0,1-.056.1c.412.022.13.244.21.37.123.211.186.541.652.462.009,0,.022.032.026.052.012.057-.005.151.044.177a3.128,3.128,0,0,0,.487.123c.213.047.415.1.623.13.043.007.059.106.095.162-.062.186-.043.325.242.258l.081.109c.2.017.443.026.671.022a3.2,3.2,0,0,1,1.4.177c.221.094.6.084.887.19.061.022.214-.1.325-.158-.145.006-.042-.309-.313-.138-.129-.146-.437.056-.529-.155a.668.668,0,0,1-.031-.17,1.443,1.443,0,0,0,.4.113,4.451,4.451,0,0,0,.808-.09c.214-.045.264.006.257.147v.039c.055-.169.183-.06.286-.044-.012.046-.043.1-.026.135a.227.227,0,0,0,.135.1c.251.069.284-.112.394-.206l.454.006-.131.119.192.107.026.03.1.037.042-.008c.3-.195.544-.171.707.119.007.012.038.016.057.025-.135-.286.222-.231.38-.313-.122-.092-.14-.169.064-.189.269-.026.54-.038.81-.055a.309.309,0,0,1,.072.015c-.018.015-.038.028-.054.043a.753.753,0,0,0-.111.126c0,.006.068.04.1.061a.87.87,0,0,1,.039-.1,1.6,1.6,0,0,0,.463.071c.292-.058.1.161.146.145a1.455,1.455,0,0,0,.265-.179.248.248,0,0,1,.135-.036c.032,0,.061.041.09.064a.427.427,0,0,0-.132,0,.491.491,0,0,0-.135.08c-.009.006.009.043.009.043l.354,0c.142.015.339.081.417.034.2-.121-.049-.178-.132-.2s-.182.061-.275.1c-.117-.219.336-.12.292-.3.095.126.352-.185.4.084,0,.011.021.02.033.03a.756.756,0,0,0,.158-.113c.028-.036.014-.09.021-.136l.025-.132.175.053a.94.94,0,0,0-.117.013.041.041,0,0,0-.02.041l.115.211.153-.07c-.039-.011-.095-.013-.113-.033s-.024-.082,0-.092c.116-.06.24-.109.361-.162-.021.032-.046.062-.064.1-.07.127.02.195.165.229.119.029.132.075.034.119a1.053,1.053,0,0,1-.253.044,1.649,1.649,0,0,1,.173.066c.321.161.143-.091.21-.141.268-.206.474.131.73.054h0c.1.057.17.23.319.016a.176.176,0,0,1,.279.03l.641-.335a.085.085,0,0,1,.052,0l.11.315a.62.62,0,0,1-.226-.029c-.207-.134-.219.125-.367.1a1.489,1.489,0,0,1,.214.11c.363.265.026-.14.165-.1.037.01.1-.034.138-.027.437.069.386-.273.595-.394a1.187,1.187,0,0,1,.294-.072c.013.034.048.074.034.1-.159.289.3.25.4.421a.648.648,0,0,0,.631.331c.073-.006.153.03.224.023.044,0,.079-.057.118-.088-.375.072-.375-.41-.779-.3a.465.465,0,0,1-.154-.018,3.781,3.781,0,0,1,.354-.2c.016-.007.107.078.158.123.01.009,0,.032-.005.048a.771.771,0,0,0,.153-.071c.071-.055.116-.14.2-.171.044-.016.146.054.221.085a1.412,1.412,0,0,0-.244.049c-.027.011-.164.116.02.1a2.466,2.466,0,0,0,.439-.137c.026-.008.1.043.1.037a.223.223,0,0,1,.346.055c.146.171.152.344-.18.4-.038.007-.1-.074-.154-.113,0,.038-.015.106,0,.109.121.033.319.1.361.068.184-.15.334-.285.571-.056,0-.014.015-.037.009-.041-.112-.064-.222-.171-.34-.176-.157-.007-.144-.015-.051-.081.031-.023.089-.026.119-.049.075-.056-.336.032-.049-.091.026-.011.026-.226.135-.023a.355.355,0,0,0,.244.007c.11-.094.436.218.394-.124,0-.015.08-.043.128-.053a1.691,1.691,0,0,1,.842-.13.985.985,0,0,1,.113.03c.015.006.034.033.028.04-.29.318.106.2.261.24h0c-.078,0-.177-.014-.227.016-.174.1.118.09.083.165l.42-.036-.015.008.009,0-.121.292c.222-.057.359.269.586.091.137-.108-.269-.33.11-.426a.334.334,0,0,1-.1-.038c-.225-.2-.288.171-.48.081l.005-.012h0l.118-.065-.394-.079h0c.3-.12.022-.159-.057-.226a.17.17,0,0,1-.026-.035c.033-.006.066-.014.1-.018.344-.039.715.071,1.036-.107a.132.132,0,0,1,.1.025.292.292,0,0,1,.049.141c0,.03-.032.061-.049.092l.46.075a.8.8,0,0,1,0-.12c0-.023.02-.064.036-.066.276-.028.555-.043.83-.078s.566.142.837-.022c0,0,.032.014.032.014-.015.044-.015.1-.053.129a1.115,1.115,0,0,1-.227.084c.237-.046-.049.307.267.2a.756.756,0,0,0,.072-.034.477.477,0,0,1-.049-.04l-.108-.133s.021-.019.033-.03c.031.179.187-.056.251.045a.33.33,0,0,0,.154.144.234.234,0,0,0,.185-.071.449.449,0,0,0,0-.22c0-.014-.026-.026-.041-.038.021-.01.045-.031.063-.029a2.054,2.054,0,0,1,.361.061c.1.033.212.158.269.142.25-.071-.152-.029-.04-.1a1.5,1.5,0,0,1,.923-.078,3.276,3.276,0,0,1,1.051.29c.191.083.263-.063.4-.033l-.049-.183c-.112.024-.227.043-.337.074a.67.67,0,0,0-.14.075c.007-.042,0-.091.023-.124.055-.069.159-.192.191-.183a6.2,6.2,0,0,0,1.562.036c.133,0,.263.074.4.077a1.525,1.525,0,0,0,.294-.081c.029-.005.111.061.108.064-.056.063-.121.123-.184.182a2.133,2.133,0,0,0,.273-.075,1.411,1.411,0,0,0,.22-.137l.085-.067c.429.283.888-.1,1.321.033l.1.031c-.009.011-.015.026-.028.03-.121.039-.4.1-.329.121a2.453,2.453,0,0,0,.811.086c.1,0,.193-.118.28-.189.026-.021.024-.094.031-.094l.82.053-.2.057c-.008,0,0,.029,0,.043l.411,0c0-.016,0-.036-.014-.046a1.048,1.048,0,0,0-.106-.067,1.13,1.13,0,0,1,.161-.019c.466.008.934,0,1.4.036.144.011.272.134.411.2a.153.153,0,0,0,.087.018c.03-.008.072-.031.076-.052.077-.34.25.045.37-.024a1.1,1.1,0,0,1,.158.111l.077.053a.248.248,0,0,0,.038-.076c0-.014-.032-.029-.049-.045l-.047-.05c.025-.011.056-.036.073-.031a2.617,2.617,0,0,1,.6.191c.247.153-.331.044-.145.212.029.026.045.072.078.08.123.027.248.048.373.07v.667a1.429,1.429,0,0,0-.438.05c-.05.015-.55.157-.644-.159-.253.171-.477-.147-.736-.026-.045.021-.137-.016-.207-.026l.046-.182.01-.044a.261.261,0,0,0-.086.013.36.36,0,0,0-.08.076c.12.085.08.126-.063.116-.033,0-.193.116-.138-.049a1.492,1.492,0,0,0-.2.025c-.014,0,.008.071-.012.082a2.636,2.636,0,0,1-1.849.026c-.217-.045-.554.129-.71.054-.239-.115-.359.083-.555.024a2.333,2.333,0,0,0-.528-.035c-.381-.02-.732.149-1.165,0a1.134,1.134,0,0,0-1,.1c-.1.078-.459-.017-.693-.054-.336-.053-.667-.127-1-.192-.085.352-.445.178-.7.23-.31.061-.663-.166-.929.092-.008.007-.038,0-.058,0l.055-.4c0-.016.032-.03.049-.046-.024-.006-.062-.022-.069-.017l-.448.382a.507.507,0,0,1-.093.078c-.018.009-.058,0-.088-.008.026-.019.069-.036.077-.06a.323.323,0,0,0,0-.112,1.411,1.411,0,0,0-.34.009c-.123.029-.228.12-.35.131a3.766,3.766,0,0,1-1.38-.04c-.309-.085-.622.179-.925.005-.076-.043-.1-.136-.153-.206l.006,0h0c.055-.118.135-.017.151.008.15.231.077-.031.094-.09l.032,0a.325.325,0,0,1,.035.045l.033-.036-.068-.009c-.019-.019-.029-.019-.032,0-.132-.017-.264-.034-.4-.045-.015,0-.039.061-.059.095l.211.032,0,0h0c-.072.05-.171.146-.206.134-.188-.063-.473.028-.569-.211-.022-.054-.242-.062-.373-.088-.005,0-.044.051-.037.07.031.077.023.206.217.115.021-.009.07.015.106.023a.931.931,0,0,1-.31.14c-.471.02-.943.018-1.414.021-.086,0-.171-.011-.257-.016l.175-.023c-.023-.016-.05-.049-.069-.046a2.244,2.244,0,0,1-.335.057l-2-.057c-.7-.019-1.39-.053-2.085-.05-.362,0-.722.086-1.085.1l-1.719.012c-.131,0-.357-.064-.4.13-.477-.214-1.018.1-1.484-.093-.279-.117-.436.1-.659.088a11.258,11.258,0,0,1-2.073-.077c-.279-.063-.619.126-.918-.061-.015-.01-.184.182-.393.161a3.777,3.777,0,0,1-1.186-.067,1.2,1.2,0,0,0-.722.091c-.306.124.034-.341-.274-.151-.011.008-.072-.028-.081-.021-.053.038-.089.1-.148.12-.038.01-.1-.05-.183-.08a3.037,3.037,0,0,0-.619-.261c-.434-.023-.913-.08-1.337-.084-.365,0-.1-.111-.123-.136-.15-.2-.725-.095-.646-.439-.207.1-.256-.354-.5-.165-.022.016-.139-.046-.212-.074l.094-.109c-.22-.088-.632-.208-.313-.427.336-.223-.145-.062-.1-.151a.352.352,0,0,0,0-.193c0-.012-.094-.042-.094-.042a.988.988,0,0,1,.079-.19.852.852,0,0,0,.123.138.254.254,0,0,0,.083.03.921.921,0,0,1-.014-.094,1.328,1.328,0,0,1,.016-.142c-.193.318-.005-.575-.269-.081-.018.037-.15.066-.159.055a.923.923,0,0,1-.15-.278.253.253,0,0,1,.017-.14,1.421,1.421,0,0,0-.147.172.884.884,0,0,0-.06.118c-.009-.034-.031-.071-.026-.1a1.02,1.02,0,0,1,.1-.307c.009-.019.078-.005.12-.008-.03-.078-.1-.2-.067-.233.124-.127.039-.239-.015-.327,0-.005.048-.032.074-.048a2.287,2.287,0,0,0-.173-.156c-.035-.026-.118-.033-.124-.057a.119.119,0,0,1,.066-.1c.036-.016.1.005.146.01l.074.008c-.022-.035-.041-.1-.066-.1-.107-.008.095-.238-.152-.128a.542.542,0,0,1-.1.023l.163-.348c-.392-.081.429-.281-.054-.359-.009,0,0-.081,0-.124.1.174.049-.292.169-.024.007.016.038.023.059.034a.124.124,0,0,0,.022-.035c.022-.09.1-.22.052-.262-.109-.1-.322-.41-.254-.531.017-.03.209.022.285-.013.2-.093.062-.06-.04-.066a.513.513,0,0,1-.253-.082c.061-.4-.2-.824.089-1.217.011-.016-.015-.055-.035-.076a.114.114,0,0,0-.074-.005c-.051.009-.1.025-.152.038l-.009-.129a.274.274,0,0,0,.067.056.082.082,0,0,0,.063-.023,2.467,2.467,0,0,0,.207-.331c.027-.059-.008-.133.005-.2a.213.213,0,0,1,.129-.026.86.86,0,0,1,.1.162l.163-.079,0,0v0h0l.193.282.017-.266c0-.063,0-.182-.018-.185-.155-.017-.19.07-.2.171l0,0c-.176-.116-.359-.227-.52-.355-.023-.019.078-.121.1-.189.082-.293-.44-.308-.429-.576,0-.064-.075-.137-.054-.191s.12-.093.185-.139c0,.085,0,.172.015.257a.447.447,0,0,0,.1.015c-.047-.07.043-.118.05-.149a2.529,2.529,0,0,0,.01-.543v-.107a.517.517,0,0,0,.1.055.114.114,0,0,0,.073-.011l.029-.211a.242.242,0,0,1-.07.049c-.066.019-.134.029-.2.043-.014-.08-.036-.16-.043-.241-.025-.289-.062-.578-.063-.867s.052-.59.054-.885c0-.168-.1-.339-.074-.5a1.138,1.138,0,0,1,.213-.587c.256-.3.095-.63.151-.941.011-.061-.183-.146-.283-.22.253-.033.252-.217.347-.349a1,1,0,0,1,.271-.184h.009l.2.2.136-.269-.336.068,0,0-.005,0c-.676.025-.089-.31-.2-.443a1.187,1.187,0,0,0-.2-.158c.06-.036.221-.052.02-.131-.065-.025-.078-.133-.115-.2.085.039.114.047.274-.129a.843.843,0,0,1,.187.041l-.039-.21.142-.168c.032-.039.038-.133.005-.158a1.437,1.437,0,0,0-.284-.128,2.189,2.189,0,0,1,.091.24l.045.214-.147.169a.285.285,0,0,0-.273.117c.009-.3.306-.573.1-.885.243.116.288-.084.407-.163.018-.012.015-.044.022-.067-.709.05-.1-.352-.272-.5-.225-.2.348-.432-.014-.647.353-.067.221-.277.221-.454a2.294,2.294,0,0,1,.054-.346.057.057,0,0,0-.008-.026l.4-.135a1.238,1.238,0,0,1-.375.06c-.139-.023-.363-.1-.374-.171a5.191,5.191,0,0,0-.054-.9c-.082-.234.309-.285.2-.39-.288-.286.325-.315.2-.514-.149-.233-.1.189-.252.061-.01-.008-.261.189-.281.036-.027-.213-.171-.47.077-.669a1.562,1.562,0,0,1,.308-.148c-.126-.012-.052-.261-.282-.149a.9.9,0,0,0-.065-.222c-.153-.254.132-.458.113-.7.267.078.145-.13.125-.124-.555.146-.218-.236-.215-.283a1.031,1.031,0,0,1,.183-.58c.125-.157.024.17.179.091.017.06.021.188.128.09.056-.053.011-.237-.067-.307a.829.829,0,0,1-.214-.8,1.635,1.635,0,0,0-.149-.719c-.057-.145,0-.287.219-.406.043-.025-.106-.229-.053-.291.2-.235-.486-.405-.056-.634-.508-.215.314-.152.1-.3l-.038-.031c-.09.047-.206.258-.261.108a.777.777,0,0,1-.014-.743.56.56,0,0,0,.053-.428c-.039-.15.037-.272.045-.391.013-.192-.09-.4-.026-.608.011-.036-.068-.088-.106-.133.2.068.247-.292.506-.111.038.026.079.231.234.07a1.16,1.16,0,0,0-.251-.144c-.233-.068-.279-.521-.071-.715.042-.039.089-.132.072-.143-.211-.14-.268-.216.087-.165.009,0,.034-.043.034-.043-.123-.067-.275-.119-.2-.276-.216.036-.146-.1-.112-.147.156-.228-.341-.161-.243-.353h-.1l.1-.08c-.11-.058-.313-.185-.153-.227.407-.1.2-.385.239-.574.014-.164-.122-.385.116-.5a.566.566,0,0,1,.585.111.4.4,0,0,0,.275.014c.05-.015.062-.11.092-.17-.059.026-.132.087-.177.077a.661.661,0,0,1-.326-.142c-.074-.078-.018-.175.14-.142-.04-.035-.117-.07-.112-.109.02-.216.227-.337.443-.42a2.823,2.823,0,0,0,.282-.151,1.078,1.078,0,0,1-.165-.1c-.025-.022-.019-.066-.026-.1.26.125.279-.2.473-.189a.81.81,0,0,1,.183.025,2.175,2.175,0,0,1,.25.093c.068-.125-.111-.087-.15-.131-.1-.112-.15-.248.09-.371.083.225.463-.427.462.022.163-.085.337-.161.507-.24.2-.1.524-.315.617-.272.349.161.388-.186.628-.12.039.012.055.053.079.08-.232-.032.167.23-.166.148a.637.637,0,0,0,0,.2C1557.686,927.806,1557.747,927.862,1557.82,927.881Zm26.509,33.389.486.168a.822.822,0,0,0,.03-.182,3.721,3.721,0,0,0-.387-.047Zm-1.1-.541c.11.027.118.064.3-.048l-.02.017-.009.007-.017.015h0l.017-.015.009-.007.063-.053c-.135-.026-.3-.1-.4-.067C1583.009,960.629,1583.112,960.7,1583.23,960.729Zm-.506.27.356.169.107-.2c-.041-.026-.086-.073-.113-.068C1582.954,960.928,1582.84,960.966,1582.724,961Zm-.555.166a1.231,1.231,0,0,0,.388.078c.167-.037-.213-.157.029-.216a1.106,1.106,0,0,0-.222.006C1582.312,961.046,1582.275,961.092,1582.17,961.166Zm-1.349-.29a1.563,1.563,0,0,0,.343.2c.059.019-.1-.27.3-.086l-.028-.286Zm-3.148-.022a1.356,1.356,0,0,0,.7.124c.529-.1-.146-.167-.116-.186-.085.18-.187-.017-.3-.113C1578.014,960.88,1577.61,960.827,1577.673,960.854Zm-1.03.263c.045.186.19.274.576.224l.288-.1-.36-.054a.077.077,0,0,1-.042-.024l-.279-.295c-.185.139.2.113.114.226-.014.016-.01.04-.015.061a.522.522,0,0,0-.152-.083A.206.206,0,0,0,1576.643,961.117Zm-4.252.487a.131.131,0,0,0,.095.046,1.263,1.263,0,0,0,.372-.028,1.583,1.583,0,0,0,.345-.217c.014-.009.008-.05-.008-.064a.138.138,0,0,0-.086-.028.449.449,0,0,1-.582.067h-.083c.02.02.053.04.06.062a.849.849,0,0,1,.014.141.152.152,0,0,1-.057-.009.745.745,0,0,1-.067-.067C1572.392,961.539,1572.376,961.576,1572.391,961.6Zm-5.473-.642c.169.117.409-.126.578.057.021-.037.069-.081.057-.11-.121-.279-.335-.016-.5-.047C1566.9,960.812,1566.891,960.943,1566.919,960.961Zm-5.942.187.06-.047.165.19c.112-.06.264-.2.2.064a.923.923,0,0,0,0,.212c.019,0,.049,0,.053-.008.087-.153.164-.161.231.008.03-.011.075-.016.087-.033a.1.1,0,0,0,.007-.091,2.437,2.437,0,0,1-.149-.241.163.163,0,0,1-.009-.09l0,0c0-.015,0-.012,0,0-.38-.22-.086.162-.28.019-.086-.063-.062-.207-.113-.308a.5.5,0,0,0-.227.023A1.211,1.211,0,0,0,1560.977,961.148Zm-2.441.091c.031.266.157.026.244.018s.17-.054.242.054c.2-.442-.175-.235-.3-.245C1558.667,961.062,1558.53,961.183,1558.536,961.239Zm-1.049-.011a4.346,4.346,0,0,0,.865.043c.048,0,.142-.083.132-.1-.182-.362-.484.019-.528,0C1557.588,961.058,1557.46,961.221,1557.488,961.228Zm-3.717-4.109c.242-.031.129-.2.186-.31h.006a.575.575,0,0,0,.066.124.252.252,0,0,0,.122.089c.234.044.247-.151.37-.23.012-.009-.026-.065-.04-.1a1.125,1.125,0,0,1-.126.085c-.053.028-.112.048-.169.071a.213.213,0,0,0,0-.047.46.46,0,0,0-.03-.123c-.008-.015-.074-.028-.078-.023-.042.049-.076.1-.112.154h0l0-.005,0,.006c-.146.027-.3.048-.282.211C1553.68,957.057,1553.745,957.123,1553.771,957.119Zm.958-.577-.286.485.042.1c.31-.109.08-.407.307-.546Zm-.391-7.346c0,.13-.081.023-.2-.1.02.172.03.257.039.341.189-.146.607-.231.516-.436C1554.631,948.859,1554.342,948.938,1554.338,949.2Zm.3-4.678a3.14,3.14,0,0,0-.181.485c-.009.043.129.106.2.159.035-.169.07-.338.11-.529Zm-.064-.732-.13.12c.336.133.068.3.055.491a.214.214,0,0,0,.35-.113A1.984,1.984,0,0,0,1554.57,943.786Zm.545-2.4-.062.2-.054.248c-.322-.065-.1.123-.136.188-.014.022,0,.057.005.085a.786.786,0,0,0,.193-.033c.3-.138.109-.338.088-.513C1555.142,941.5,1555.363,941.459,1555.115,941.381Zm-.533-.012c-.477.171-.191.476-.227.725,0,.008.02.017.031.025l.237-.708C1554.627,941.4,1554.59,941.375,1554.582,941.369Zm-.508-.108a3.354,3.354,0,0,0-.175.362c-.01.028.062.075.1.113.072-.116.149-.229.208-.348C1554.213,941.367,1554.139,941.321,1554.074,941.261Zm.724-1.327c-.027.073-.03.149-.078.194-.193.178.182.292.069.455.039.006.091.028.118.016.2-.086,0-.147-.026-.22a.455.455,0,0,1-.005-.14c.08,0,.186.195.217.015C1555.109,940.163,1554.912,940.05,1554.8,939.934Zm-.085-.566-.132.238c.146.04.223-.191.4-.06.024.018.1-.012.158-.02Zm-.584-4.705-.224.239.049.032c.312.052.172-.14.266-.192Zm-.017-3.184c-.268.138.308.269.006.407.124.077.161.026.184-.109l.17-.03C1554.329,931.675,1554.125,931.657,1554.112,931.478Z" transform="translate(-1553.058 -927.24)" fill="#4c1400"/>
      </g>
      <g id="Group_85" data-name="Group 85" transform="translate(4.308)">
        <path id="Path_10151" data-name="Path 10151" d="M1635.613,927.873v.8c-.141-.04-.3-.04-.335.2-.069-.027-.163-.039-.2-.086-.148-.18-.227-.159-.372.02-.1.125-.275.072-.383-.066a1.39,1.39,0,0,0-.175.076c-.029-.107-.041-.041-.1-.011a.517.517,0,0,1-.343.046c-.168-.065.059-.084.044-.088-.131-.027-.294-.092-.4-.05-.5.2-1.02,0-1.52.088-.006,0-.011.008-.015.008-.461-.112-.907.144-1.426-.057a2.445,2.445,0,0,0-1.4.154c-.328.1-.466-.089-.693-.138a1.839,1.839,0,0,0-.275.024,10.078,10.078,0,0,1-1.08-.06c-.185-.026-.344-.178-.531-.217-.072-.015-.243.111-.274.2-.11.314-.407-.064-.535.126-.208-.117-.528-.135-.517-.445-.044.091-.063.2-.137.268-.244.21-.472.031-.722-.021a.584.584,0,0,0-.586.127c.049.008.1.015.144.027,0,0,0,.036-.006.054a2.027,2.027,0,0,1-.272-.048.162.162,0,0,1-.079-.1c-.006-.015.034-.054.063-.066a.676.676,0,0,1,.134-.028c-.022-.022-.05-.066-.065-.063-.086.02-.236.043-.242.079-.037.242-.291-.026-.352.124a.849.849,0,0,0-.871-.054c-.124.038-.3-.022-.4.033-.253.133-.211-.076-.29-.153a.5.5,0,0,0-.153-.062.833.833,0,0,1,.084.114c.011.021,0,.051,0,.078-.184-.018-.3-.164-.564.033-.2.151-.705-.05-1.05.01-.3.054-.5.033-.674-.186-.128.259-.4.284-.666.295-.331.014-.664,0-.993.031-.258.025-.013-.325-.132-.191a.569.569,0,0,1-.531.172c-.248-.021-.559.115-.74-.152,0,0,.088-.052.135-.079l-.288-.078v-.01l-.04-.013,0,.038c-.154.293-.422-.006-.639.093a1.663,1.663,0,0,1-.639.059c-.126,0-.343.135-.354-.13,0-.018-.084-.055-.118-.046-.077.019-.193.046-.211.094-.054.139-.222.219-.493.205a3.039,3.039,0,0,1-.835-.048c-.4-.148-.819.014-1.245-.125a1.88,1.88,0,0,1-.646-.229c-.121-.092.1.163-.135.167-.473.008-.043-.549-.464-.51-.163.015-.435-.244-.486.121.028-.009.062-.029.081-.022.052.02.1.056.148.078.184.079.136.2.087.328-.132-.047-.363-.079-.376-.144-.033-.175-.19-.055-.25-.12a1.19,1.19,0,0,1,.049.113c0,.005-.025.026-.038.026-.23,0-.459,0-.689-.007l.15-.157c-.208.017-.5.114-.606.032-.188-.152-.466.187-.557-.122-.1.034-.181.206-.3.02-.105.21-.418-.179-.506.129a2.683,2.683,0,0,1-.323-.034l-1.106-.13c.24-.2-.228-.2-.133-.369.011-.02-.025-.061-.039-.093-.01.031-.02.064-.03.1l0,0h0c-.344-.37-.44.06-.641.152h0l-.005,0c-.068-.121-.147-.235-.334-.2-.029.006-.045.061-.068.094.135.031.207.257.4.1l0,0,.006,0c.2.061.424.107.28.371-.019.036-.218.083-.008.129a.219.219,0,0,0,.117-.032c-.055-.25.148-.421.252-.62h0c.027.106.116.247.068.311a.866.866,0,0,1-1.026.382,5.727,5.727,0,0,0-1.4.023c-.124,0-.314.1-.306-.133-.032.04-.086.119-.095.115-.5-.2-1.088.114-1.561-.211-.01-.007-.046.009-.065.02-.053.031-.1.065-.156.1a.852.852,0,0,1,.115,0c.014,0,.024.027.036.042a1.081,1.081,0,0,1-.283.09c-.383.015-.769.02-1.153.015a.672.672,0,0,1-.231-.1c.1-.024.194-.053.292-.071a.541.541,0,0,1,.22-.012c.252.071.537-.12.769.077a.434.434,0,0,0,.056-.112c.041-.216-.072-.088-.162-.06s-.227.051-.256.018c-.062-.069.007-.207-.152-.02-.085.1-.461.083-.665.02-.359-.11-.5.295-.838.208a1.9,1.9,0,0,0-.419.031c-.445,0-.89-.007-1.334-.02a.226.226,0,0,1-.152-.1.545.545,0,0,1-.037-.188c0,.061,0,.124-.012.184a.319.319,0,0,1-.038.083c-.012-.014-.032-.026-.036-.042-.018-.085-.032-.17-.047-.256-.162.045-.153.145-.12.261.006.02-.043.053-.071.076-.008.006-.032,0-.049,0,.011-.026.017-.054.03-.079.082-.159-.038-.218-.172-.279a1.025,1.025,0,0,1-.162-.115,1.011,1.011,0,0,0,.095-.05c.014-.01.019-.031.027-.046a.5.5,0,0,0-.157-.009.111.111,0,0,0-.058.095c.01.118.042.233.049.351.01.158-.032.172-.261.1a.869.869,0,0,1-.138-.075c-.182.336-.432.026-.633.024-.384,0-.777-.184-1.091.161-.006.007-.058-.015-.085-.028-.079-.041-.161-.126-.231-.118-.209.022-.41.094-.618.122a7.49,7.49,0,0,1-.842.061c-.058,0-.119-.1-.177-.152.011-.211-.039-.359-.339-.252l-.1-.116c-.222-.006-.443-.02-.664-.016a2.678,2.678,0,0,1-1.332-.194c-.211-.1-.568-.092-.845-.209-.058-.024-.2.112-.31.174.138-.007.04.339.3.152.124.16.417-.06.5.17a.843.843,0,0,1,.03.187,1.223,1.223,0,0,0-.381-.124,3.7,3.7,0,0,0-.771.1c-.2.049-.252-.007-.245-.162,0-.014,0-.029,0-.043-.053.186-.175.066-.273.049.011-.05.041-.106.024-.148a.224.224,0,0,0-.129-.112c-.24-.075-.271.124-.375.227l-.433-.007.125-.13-.184-.118-.025-.033-.094-.041-.041.009c-.29.214-.518.187-.674-.13-.006-.014-.036-.018-.054-.027.128.314-.211.254-.362.345.116.1.133.185-.062.206-.256.028-.514.043-.772.06a.226.226,0,0,1-.068-.016c.017-.016.036-.031.051-.048a.806.806,0,0,0,.106-.139c0-.007-.065-.043-.1-.066a1.069,1.069,0,0,1-.037.107,1.339,1.339,0,0,0-.441-.078c-.279.064-.1-.176-.139-.159a1.391,1.391,0,0,0-.253.2.213.213,0,0,1-.129.04c-.031,0-.058-.045-.086-.07a.353.353,0,0,0,.126,0,.463.463,0,0,0,.129-.088c.008-.007,0-.047-.009-.047-.113,0-.225,0-.338,0-.136-.016-.323-.089-.4-.037-.193.133.047.2.126.216s.174-.067.262-.107c.111.241-.32.132-.279.328-.09-.139-.335.2-.378-.092,0-.012-.02-.022-.032-.033a.727.727,0,0,0-.15.124c-.027.039-.014.1-.02.149s-.016.1-.024.145l-.166-.058a.786.786,0,0,0,.111-.014.047.047,0,0,0,.02-.045c-.034-.078-.072-.155-.11-.232l-.146.077c.037.012.09.014.108.037s.023.089,0,.1c-.11.066-.229.12-.345.179.02-.035.044-.069.061-.106.067-.14-.019-.214-.158-.251-.114-.032-.126-.083-.032-.131a.89.89,0,0,1,.241-.048,1.541,1.541,0,0,1-.166-.072c-.305-.176-.136.1-.2.155-.257.226-.452-.144-.7-.059h0c-.093-.062-.162-.253-.3-.018a.156.156,0,0,1-.266-.033c-.2.123-.406.246-.611.368a.07.07,0,0,1-.049,0c-.037-.115-.071-.231-.1-.346.073.009.167,0,.215.032.2.147.209-.137.35-.106a1.29,1.29,0,0,1-.2-.121c-.346-.29-.024.153-.158.109-.035-.011-.092.037-.132.03-.417-.076-.368.3-.567.433a.983.983,0,0,1-.28.079c-.012-.037-.046-.082-.033-.11.152-.318-.286-.274-.383-.462a.6.6,0,0,0-.6-.362c-.069.007-.145-.034-.214-.026-.042.005-.076.062-.113.1.358-.079.358.451.743.331a.385.385,0,0,1,.147.02,3.486,3.486,0,0,1-.338.221c-.015.008-.1-.085-.151-.135-.01-.009,0-.035,0-.053a.7.7,0,0,0-.145.078c-.068.06-.11.154-.189.188-.042.018-.139-.06-.21-.094a1.138,1.138,0,0,0,.232-.054c.026-.011.156-.127-.019-.11a2.131,2.131,0,0,0-.418.151c-.024.008-.094-.047-.1-.041-.154.163-.283,0-.33-.061-.14-.187-.145-.378.172-.441.036-.008.1.081.147.124,0-.042.014-.116,0-.12-.116-.036-.3-.112-.344-.074-.176.164-.318.313-.544.061,0,.015-.015.041-.008.045.106.071.212.187.324.193.149.009.137.016.049.089-.03.026-.084.028-.114.054-.072.061.32-.035.046.1-.025.012-.024.248-.128.026a.3.3,0,0,0-.232-.008c-.1.1-.416-.239-.376.136,0,.016-.076.047-.122.059-.263.066-.5.231-.8.142a.921.921,0,0,1-.108-.032c-.014-.007-.032-.037-.026-.043.277-.349-.1-.222-.249-.263h0c.075,0,.169.015.217-.017.166-.113-.113-.1-.08-.182l-.4.04.014-.009-.009,0,.115-.32c-.212.062-.343-.295-.559-.1-.131.118.257.362-.1.468a.3.3,0,0,1,.091.042c.214.221.275-.188.457-.089l0,.013h0l-.112.072.376.087h0c-.289.132-.021.175.054.248a.245.245,0,0,1,.025.038c-.032.007-.063.015-.1.02-.328.043-.682-.078-.988.118a.113.113,0,0,1-.094-.027.349.349,0,0,1-.046-.155c0-.033.03-.067.047-.1l-.439-.083a1,1,0,0,1,0,.131c0,.026-.019.071-.034.072-.263.031-.53.047-.791.086s-.539-.156-.8.024a.058.058,0,0,1-.031-.015c.014-.049.014-.114.05-.141a.972.972,0,0,1,.217-.093c-.226.05.045-.336-.254-.22a.674.674,0,0,0-.068.038.479.479,0,0,1,.047.044c.036.048.071.1.1.147,0,0-.02.021-.032.032-.029-.2-.179.061-.24-.049a.333.333,0,0,0-.146-.158.21.21,0,0,0-.177.078.584.584,0,0,0,0,.243c0,.014.025.027.039.041-.02.011-.043.034-.06.031a1.674,1.674,0,0,1-.345-.067c-.1-.037-.2-.174-.256-.156-.239.078.144.032.036.109a1.262,1.262,0,0,1-.879.086,2.831,2.831,0,0,1-1-.319c-.182-.091-.251.069-.378.037l.047.2c.107-.026.216-.048.321-.081a.623.623,0,0,0,.133-.083c-.006.046,0,.1-.022.136-.053.076-.153.21-.182.2a5.14,5.14,0,0,0-1.49-.04c-.127,0-.251-.081-.378-.084-.092,0-.184.067-.28.089-.028.006-.106-.067-.1-.071.054-.07.115-.135.175-.2a1.83,1.83,0,0,0-.26.083,1.334,1.334,0,0,0-.21.15c-.031.023-.08.074-.081.073-.409-.31-.846.111-1.26-.037l-.1-.034c.009-.012.015-.029.027-.033.115-.043.378-.107.314-.133a2.05,2.05,0,0,0-.773-.095c-.092,0-.184.13-.267.207-.025.024-.023.1-.029.1-.261-.015-.522-.037-.783-.057.063-.021.128-.04.189-.064.007,0,0-.032,0-.048l-.392,0c0,.017,0,.04.015.05a1.184,1.184,0,0,0,.1.074,1.058,1.058,0,0,1-.153.02c-.444-.009-.89,0-1.331-.04-.137-.012-.26-.147-.391-.223a.122.122,0,0,0-.083-.019c-.028.008-.068.033-.072.056-.073.373-.239-.049-.352.026a1.053,1.053,0,0,1-.15-.122l-.073-.058a.289.289,0,0,0-.036.083c0,.015.031.032.046.049s.03.037.045.055c-.024.013-.054.04-.07.034a2.239,2.239,0,0,1-.575-.21c-.236-.167.315-.049.137-.233-.027-.028-.042-.079-.074-.088-.117-.03-.236-.053-.356-.077v-.732a1.173,1.173,0,0,0,.418-.055c.048-.016.525-.172.614.175.241-.188.455.161.7.028.042-.023.131.018.2.029l-.044.2c0,.016-.007.032-.01.049a.22.22,0,0,0,.082-.015.371.371,0,0,0,.076-.083c-.115-.093-.077-.139.06-.127.032,0,.184-.127.132.054a1.246,1.246,0,0,0,.19-.027c.013,0-.007-.078.011-.089a2.2,2.2,0,0,1,1.763-.027c.207.049.528-.142.677-.06.227.126.343-.091.529-.026a1.94,1.94,0,0,0,.5.038c.363.022.7-.164,1.111,0a.955.955,0,0,0,.95-.109c.095-.086.437.019.661.06.32.059.636.14.954.21.081-.386.424-.2.671-.252.3-.067.632.182.885-.1.007-.008.036,0,.055,0-.016.146-.032.294-.052.44,0,.018-.031.033-.047.05.023.007.059.025.066.019.145-.139.286-.279.427-.42a.511.511,0,0,1,.089-.086c.017-.01.055.005.084.008-.025.021-.066.04-.073.066a.3.3,0,0,0,0,.123,1.173,1.173,0,0,0,.324-.01c.118-.031.218-.132.334-.144a3.132,3.132,0,0,1,1.316.044c.295.094.593-.2.882-.006.072.048.1.149.145.226l-.006.006h0c-.052.129-.128.019-.143-.009-.143-.254-.074.034-.089.1l-.031,0a.387.387,0,0,1-.033-.049l-.032.04.065.009c.018.022.028.02.031,0,.126.019.252.037.379.049.015,0,.037-.067.056-.1l-.2-.036,0-.005h0c.069-.055.163-.16.2-.147.18.07.451-.031.543.232.021.059.231.068.356.1,0,0,.042-.055.034-.077-.029-.084-.021-.227-.206-.126-.02.01-.067-.016-.1-.026.1-.054.194-.148.3-.153.449-.022.9-.02,1.349-.023.082,0,.163.012.245.018l-.166.026c.022.018.048.054.066.05a1.879,1.879,0,0,1,.319-.063c.634.014,1.269.041,1.9.062.663.021,1.326.058,1.989.055.345,0,.689-.095,1.035-.107.546-.019,1.093.007,1.639-.013.125,0,.34.07.383-.142.455.235.971-.114,1.415.1.266.129.416-.107.629-.1a9.332,9.332,0,0,1,1.977.084c.266.069.591-.139.876.067.015.011.175-.2.375-.177.371.042.742-.107,1.131.073a1.009,1.009,0,0,0,.689-.1c.292-.136-.033.374.262.165.01-.008.068.031.077.023.05-.042.084-.114.141-.131.036-.011.1.056.158.084.169.085.351.251.506.235a2.593,2.593,0,0,0,1.011-.277c.239-.143.118.064.145.08.212.128.492-.251.66.073.044-.2.393.132.386-.169,0-.026.1-.054.155-.081l.036.136c.176-.083.42-.3.48.046.063.37.11-.067.165.01a.4.4,0,0,0,.173.1c.011.005.066-.054.068-.052.054.044.1.092.156.14-.058.013-.116.022-.172.04-.022.007-.037.032-.056.049.033.011.066.02.1.034.047.021.093.045.139.068-.27-.265.594.2.156-.185a.179.179,0,0,1-.015-.147,1.389,1.389,0,0,1,.3-.041.426.426,0,0,1,.134.047c-.047-.054-.093-.11-.142-.162a1.046,1.046,0,0,0-.1-.082.275.275,0,0,1,.1.005,2.354,2.354,0,0,1,.275.146c.017.011,0,.067-.006.1.081-.011.2-.056.237-.026.127.112.228.049.342,0,.006,0,.039.042.059.064.065-.049.133-.094.192-.147.032-.03.041-.1.071-.1a.158.158,0,0,1,.126.056c.019.03-.006.082-.012.124l-.01.063c.043-.019.12-.035.123-.057.009-.091.293.081.158-.129a.324.324,0,0,1-.028-.089l.428.139c.1-.334.346.364.442-.047a.956.956,0,0,1,.153,0c-.214.082.359.042.029.144-.019.005-.028.032-.041.049a.161.161,0,0,0,.043.02c.11.019.271.084.322.044.12-.093.5-.274.653-.216.038.014-.026.177.017.242.115.173.073.053.08-.034s.076-.217.1-.215c.5.052,1.015-.167,1.5.076.02.009.068-.013.094-.03s.012-.043.006-.063a1.281,1.281,0,0,0-.046-.129l.158-.009a.3.3,0,0,0-.068.057c-.006.011.012.046.029.054a3.5,3.5,0,0,0,.408.176,1.548,1.548,0,0,0,.244,0c.019,0,.047.1.033.109a1.153,1.153,0,0,1-.2.086l.1.139,0,0h0l0,0-.348.164c.11.005.219.014.328.015a.8.8,0,0,0,.227-.015c.02-.131-.086-.161-.21-.165v0c.143-.15.279-.3.437-.441.024-.02.15.066.234.083.361.07.38-.373.708-.364.079,0,.169-.064.235-.046s.115.1.171.158c-.1,0-.211,0-.316.012-.009,0-.013.057-.02.087.086-.04.145.037.184.043a4.36,4.36,0,0,0,.668.008h.132a.417.417,0,0,0-.067.081c-.009.017,0,.06.013.062.086.012.173.017.26.024-.02-.02-.051-.036-.06-.059-.023-.055-.036-.114-.053-.171.1-.012.2-.031.3-.037.355-.021.711-.053,1.067-.054s.726.044,1.089.045c.206,0,.417-.081.618-.062a1.824,1.824,0,0,1,.723.181c.374.218.776.08,1.159.129.075.009.18-.156.271-.241.04.216.266.215.429.295.1.047.154.151.227.231v.007h0l-.248.169.332.116c-.028-.1-.056-.19-.084-.285l0,0,0,0c-.031-.576.381-.075.546-.166a1.19,1.19,0,0,0,.194-.167c.045.051.065.187.162.017.031-.055.165-.066.251-.1-.048.072-.058.1.159.233a.563.563,0,0,1-.051.158l.258-.034.206.121a.239.239,0,0,0,.2,0,1.084,1.084,0,0,0,.157-.241c-.1.026-.195.06-.295.078s-.176.027-.265.038c-.088-.051-.153-.09-.207-.124a.22.22,0,0,0-.145-.233c.365.009.7.26,1.088.087-.142.207.1.245.2.346.015.015.054.014.081.019-.062-.6.433-.087.617-.231.245-.191.533.3.8-.011.083.3.341.187.56.187a4.03,4.03,0,0,1,.426.046c.011,0,.032-.008.032-.007q.084.17.166.342c-.028-.107-.1-.221-.073-.319.029-.118.124-.308.21-.318a9.177,9.177,0,0,0,1.114-.046c.287-.069.351.263.48.173.352-.245.388.276.634.169.287-.127-.233-.083-.076-.215.01-.009-.232-.222-.044-.239.263-.023.58-.146.825.065a1.232,1.232,0,0,1,.181.262c.015-.107.322-.043.184-.239a1.414,1.414,0,0,0,.273-.055c.313-.13.565.112.856.1-.1.227.159.123.153.107-.18-.472.291-.186.349-.183a1.68,1.68,0,0,1,.714.156c.194.106-.209.02-.112.152-.074.015-.232.017-.11.108a.465.465,0,0,0,.379-.055,1.348,1.348,0,0,1,.981-.182,2.812,2.812,0,0,0,.885-.127.455.455,0,0,1,.5.186c.03.037.282-.089.357-.044.29.17.5-.413.781-.048.265-.432.187.267.375.087.012-.012.04-.03.037-.032-.057-.078-.317-.175-.132-.221a1.338,1.338,0,0,1,.914-.012.965.965,0,0,0,.527.045,1.78,1.78,0,0,1,.482.038,4.161,4.161,0,0,1,.749-.022c.043.009.108-.058.163-.089-.084.169.361.21.136.429-.033.032-.284.068-.085.2a.966.966,0,0,0,.176-.214c.084-.2.643-.237.881-.06.048.036.162.075.175.061.172-.179.266-.228.2.074,0,.007.051.03.052.029.083-.1.147-.233.34-.171-.044-.184.12-.124.183-.1.28.133.2-.29.435-.206v-.082l.1.081c.072-.094.228-.266.279-.129.131.343.4.169.591.159.166-.008.344-.186.5-.022a.419.419,0,0,1,.033.51.241.241,0,0,0,.062.225c.033.035.149.009.228.009-.052-.037-.145-.072-.148-.112a.519.519,0,0,1,.05-.314c.055-.086.164-.084.188.049.021-.047.028-.123.067-.137a.636.636,0,0,1,.571.093,1.5,1.5,0,0,0,.278.088.863.863,0,0,1-.008-.175c0-.031.042-.06.066-.089.042.258.3.031.41.141a.592.592,0,0,1,.1.124c.04.069.071.141.106.212.138-.074-.018-.132-.011-.191.015-.149.067-.291.294-.285-.065.256.539-.208.314.222.166-.022.334-.032.495-.07.2-.046.495-.21.557-.157.258.224.327-.163.5-.079.03.014.041.06.062.091-.188-.043.136.259-.139.156a.9.9,0,0,0-.01.225C1635.486,927.786,1635.542,927.849,1635.613,927.873Zm-70.014-.2-.464-.184a1.023,1.023,0,0,0-.028.2,3.1,3.1,0,0,0,.369.052Zm1.047.594c-.1-.03-.113-.071-.283.053l.02-.019.008-.008.016-.016h0l-.016.016-.008.008-.06.059c.129.028.283.109.382.073C1566.857,928.381,1566.759,928.3,1566.646,928.271Zm.483-.3-.34-.186-.1.216c.039.028.082.08.108.074A3.489,3.489,0,0,0,1567.128,927.974Zm.529-.182c-.163-.041-.281-.108-.37-.086-.16.041.2.172-.028.238a.916.916,0,0,0,.212-.007C1567.522,927.923,1567.557,927.873,1567.657,927.792Zm1.287.319a1.452,1.452,0,0,0-.327-.217c-.056-.02.093.3-.284.095l.027.315Zm3,.024a1.152,1.152,0,0,0-.671-.136c-.5.115.139.183.11.2.082-.2.179.019.289.124C1571.62,928.105,1572.005,928.163,1571.945,928.134Zm.982-.289c-.043-.2-.181-.3-.549-.246l-.275.112.344.059a.072.072,0,0,1,.04.026q.134.161.266.324c.176-.153-.192-.124-.109-.247a.167.167,0,0,0,.014-.067.482.482,0,0,0,.145.091A.183.183,0,0,0,1572.927,927.845Zm4.054-.534a.12.12,0,0,0-.09-.05,1.029,1.029,0,0,0-.355.031,1.464,1.464,0,0,0-.329.238c-.013.01-.008.055.007.07s.073.038.082.031c.164-.141.331-.245.555-.073h.079c-.02-.022-.05-.043-.057-.068a1.105,1.105,0,0,1-.013-.155c.019,0,.043,0,.054.009a.767.767,0,0,1,.064.074C1576.981,927.382,1577,927.341,1576.982,927.311Zm5.218.7c-.161-.129-.39.138-.552-.063-.019.041-.065.089-.054.121.115.307.318.017.479.052C1582.222,928.18,1582.225,928.036,1582.2,928.016Zm5.666-.205-.057.052-.158-.209c-.106.066-.252.221-.192-.07a1.1,1.1,0,0,0,0-.233c-.017,0-.045,0-.049.009-.083.168-.156.177-.22-.009-.028.012-.072.018-.083.037a.119.119,0,0,0-.006.1,2.746,2.746,0,0,1,.142.265.2.2,0,0,1,.009.1l0,0c0,.017,0,.013,0,0,.362.242.081-.178.267-.02.082.069.059.227.108.338a.413.413,0,0,0,.216-.026A1.516,1.516,0,0,0,1587.865,927.811Zm2.327-.1c-.029-.292-.15-.028-.232-.02s-.163.059-.231-.059c-.194.486.167.258.283.268C1590.068,927.905,1590.2,927.773,1590.193,927.711Zm.986,0a4.753,4.753,0,0,0-.811-.032c-.046,0-.136.09-.126.113.173.4.461-.021.5,0C1591.1,927.905,1591.207,927.713,1591.179,927.708Zm6.511-.341c.038.206.25.11.382.158v0a.855.855,0,0,0-.152.056c-.045.026-.1.063-.11.1-.054.2.187.21.284.313.01.011.08-.021.123-.034a1.274,1.274,0,0,1-.1-.107c-.033-.045-.059-.1-.088-.144a.434.434,0,0,0,.058,0,.8.8,0,0,0,.152-.026c.018-.006.035-.062.029-.066-.061-.035-.126-.064-.19-.095v0l.007,0-.008,0c-.033-.124-.058-.258-.26-.24C1597.767,927.29,1597.685,927.345,1597.69,927.368Zm.711.814-.6-.243-.129.036c.134.263.5.068.672.26Zm9.045-.331c-.161,0-.028-.07.121-.17l-.419.033c.18.16.284.515.537.439C1607.86,928.1,1607.764,927.853,1607.446,927.851Zm5.76.251a5.032,5.032,0,0,0-.6-.154c-.053-.008-.13.111-.2.17l.651.094Zm.9-.055-.148-.111c-.162.286-.365.058-.6.047-.191.153.059.31.138.3A2.845,2.845,0,0,0,1614.107,928.047Zm2.962.463c-.087-.019-.167-.038-.249-.053-.1-.018-.2-.031-.3-.046.08-.273-.153-.082-.232-.116a.3.3,0,0,0-.106,0,.525.525,0,0,0,.041.165c.171.256.416.092.631.074C1616.92,928.534,1616.973,928.721,1617.068,928.511Zm.015-.454c-.211-.4-.587-.162-.893-.192-.01,0-.021.017-.031.026.291.068.581.137.873.2C1617.049,928.1,1617.075,928.064,1617.084,928.057Zm.132-.431c-.166-.058-.3-.114-.447-.149-.034-.009-.091.053-.137.083.142.06.282.127.429.176C1617.085,927.744,1617.141,927.68,1617.216,927.626Zm1.633.616a.775.775,0,0,1-.239-.067c-.219-.164-.36.155-.56.059-.007.034-.034.078-.02.1.106.165.18,0,.272-.022a.822.822,0,0,1,.172,0c0,.068-.24.158-.018.185C1618.568,928.506,1618.707,928.339,1618.85,928.242Zm.7-.072-.294-.112c-.049.124.236.19.076.339-.022.02.014.088.024.134Zm5.794-.5c-.1-.065-.194-.13-.3-.191a.375.375,0,0,0-.038.042c-.065.266.172.146.236.226Zm3.921-.014c-.171-.228-.331.261-.5,0-.094.107-.032.137.133.157l.038.144C1629.018,927.842,1629.042,927.669,1629.262,927.658Z" transform="translate(-1558.648 -926.761)" fill="#4c1400"/>
      </g>
      <g id="Group_86" data-name="Group 86" transform="translate(42.713 0.141)">
        <path id="Path_10152" data-name="Path 10152" d="M1687.2,961.022V960.3c.107.03.24.026.232-.194.05.019.117.022.153.061.141.153.21.113.253-.063.031-.117.146-.11.285-.011.008.007.053-.068.078-.1.072.08.048.023.072-.015.042-.057.1-.134.181-.13.143,0,.018.081.029.08.1-.012.237-.031.272-.093.119-.31.52-.42.59-.719a.045.045,0,0,0,0-.011c.261-.211.042-.483.28-.761.17-.3-.018-.779-.181-1.138-.122-.267.1-.379.161-.563.022-.068-.032-.149-.027-.223a5.83,5.83,0,0,1,.07-.877c.031-.151.209-.279.256-.432.018-.059-.13-.2-.233-.222-.37-.09.075-.331-.148-.435.137-.169.159-.429.524-.421a1.1,1.1,0,0,1-.315-.112c-.247-.2-.037-.383.024-.586a.373.373,0,0,0-.149-.477c-.01.039-.019.078-.032.116a.333.333,0,0,1-.064,0,1.229,1.229,0,0,1,.057-.22c.015-.03.075-.054.121-.064.019,0,.064.028.078.05a.4.4,0,0,1,.033.109c.026-.017.078-.04.074-.052-.024-.07-.051-.192-.094-.2-.284-.03.03-.237-.146-.286.224-.33.218-.364.064-.707-.046-.1.026-.244-.039-.329-.156-.2.089-.172.18-.235.039-.029.05-.082.074-.124a1.132,1.132,0,0,1-.135.068.257.257,0,0,1-.091,0c.02-.149.193-.247-.04-.457-.177-.161.06-.573-.011-.853a.406.406,0,0,1,.218-.548.5.5,0,0,1-.346-.542c-.017-.268,0-.539-.037-.805-.029-.209.383-.011.224-.108a.383.383,0,0,1-.2-.431c.026-.2-.135-.454.18-.6l.092.109.092-.234h.012l.015-.033-.044,0c-.345-.125.007-.343-.109-.519a.944.944,0,0,1-.07-.519c0-.1-.158-.279.154-.288.02,0,.063-.068.054-.1-.022-.063-.054-.157-.111-.172a.342.342,0,0,1-.241-.4,1.727,1.727,0,0,1,.056-.677c.175-.327-.015-.665.148-1.012.078-.165.085-.356.269-.524.108-.1-.192.085-.2-.11-.009-.383.645-.035.6-.376-.017-.133.287-.353-.142-.394.01.022.035.05.026.065-.023.043-.066.078-.092.12-.093.15-.239.11-.385.071.055-.107.093-.295.169-.3.205-.028.065-.154.142-.2-.044.013-.088.029-.134.04-.006,0-.031-.02-.031-.031l.008-.559.184.122c-.02-.169-.135-.408-.036-.492.178-.153-.22-.379.142-.452-.04-.078-.242-.147-.024-.242-.246-.085.21-.34-.151-.411a1.407,1.407,0,0,1,.04-.262l.153-.9c.234.195.241-.186.434-.109.024.009.072-.02.11-.032l-.113-.024,0,0h0c.434-.279-.072-.358-.18-.521v0l0,0c.143-.056.278-.12.234-.272-.007-.023-.072-.036-.111-.055-.037.11-.3.168-.124.327h0l0,.005c-.072.164-.126.345-.437.228-.042-.016-.1-.177-.151-.006-.009.028.032.1.038.095a1.392,1.392,0,0,1,.73.2h0c-.124.021-.29.094-.365.055-.373-.192-.6-.4-.451-.833a3.221,3.221,0,0,0-.027-1.141c0-.1-.121-.255.157-.249a.867.867,0,0,1-.135-.077c.239-.4-.135-.884.249-1.268.008-.009-.011-.037-.025-.053l-.114-.127a.369.369,0,0,1,0,.092c0,.012-.031.019-.048.03a.718.718,0,0,1-.106-.231c-.019-.311-.025-.624-.018-.936,0-.063.075-.125.116-.187.028.078.062.157.083.237a.3.3,0,0,1,.014.179c-.083.2.141.436-.09.625a.669.669,0,0,0,.131.046c.255.033.1-.059.071-.132s-.061-.184-.022-.208c.082-.05.244.005.024-.123-.118-.068-.1-.373-.024-.54.129-.291-.346-.408-.244-.681.037-.1-.037-.227-.036-.341q0-.541.024-1.084c0-.043.063-.1.116-.123a.866.866,0,0,1,.221-.03c-.072,0-.145,0-.216-.01a.442.442,0,0,1-.1-.031c.016-.01.031-.026.049-.029l.3-.039c-.053-.133-.176-.112-.308-.093-.022,0-.064-.027-.092-.044-.009,0,0-.019,0-.03.031,0,.064.009.095.016a.246.246,0,0,0,.32-.13,1.657,1.657,0,0,1,.118-.129.948.948,0,0,0,.072.065.215.215,0,0,0,.055.016.218.218,0,0,0-.012-.122.155.155,0,0,0-.118-.03c-.135.024-.266.062-.4.082-.185.026-.2,0-.147-.147a.6.6,0,0,1,.056-.1c-.412-.022-.13-.244-.21-.37-.123-.211-.186-.541-.652-.462-.009,0-.022-.032-.026-.052-.012-.057.005-.151-.043-.177a3.116,3.116,0,0,0-.487-.123c-.213-.047-.415-.1-.623-.13-.043-.006-.059-.106-.095-.162.062-.186.043-.325-.242-.258l-.081-.109c-.2-.018-.443-.026-.671-.023a3.2,3.2,0,0,1-1.4-.177c-.221-.094-.6-.084-.887-.19-.06-.022-.214.1-.325.158.145-.006.042.309.313.138.13.146.437-.055.529.155a.679.679,0,0,1,.031.171,1.425,1.425,0,0,0-.4-.113,4.443,4.443,0,0,0-.808.09c-.214.045-.264-.006-.257-.147V928.1c-.055.169-.183.06-.286.044.012-.046.043-.1.026-.135a.228.228,0,0,0-.135-.1c-.251-.068-.284.113-.393.206l-.455-.006.131-.119-.193-.107-.026-.03-.1-.037-.042.008c-.3.195-.544.171-.707-.119-.007-.012-.037-.016-.057-.025.135.286-.221.231-.38.314.122.091.14.168-.064.188-.269.026-.54.039-.81.055a.269.269,0,0,1-.072-.015c.018-.015.038-.028.054-.044a.757.757,0,0,0,.111-.126c0-.006-.068-.04-.1-.06a.877.877,0,0,1-.039.1,1.6,1.6,0,0,0-.463-.071c-.292.058-.1-.161-.146-.145a1.451,1.451,0,0,0-.265.178.247.247,0,0,1-.135.036c-.032,0-.06-.041-.09-.064a.424.424,0,0,0,.132,0,.492.492,0,0,0,.135-.08c.009-.006-.009-.043-.009-.043l-.354,0c-.142-.015-.339-.081-.417-.034-.2.121.049.178.132.2s.182-.061.275-.1c.117.22-.336.12-.292.3-.095-.126-.352.185-.4-.084,0-.011-.021-.02-.033-.03a.753.753,0,0,0-.157.113c-.028.036-.015.09-.021.136l-.025.132-.175-.053a.94.94,0,0,0,.117-.013.041.041,0,0,0,.021-.041l-.115-.211-.153.07c.039.011.095.013.113.034s.024.081,0,.092c-.116.06-.24.109-.361.163.021-.032.046-.063.064-.1.07-.127-.02-.195-.165-.229-.119-.029-.132-.075-.034-.12a1.065,1.065,0,0,1,.253-.044,1.656,1.656,0,0,1-.173-.066c-.321-.161-.143.091-.21.141-.268.206-.474-.131-.73-.054h0c-.1-.057-.17-.23-.319-.016a.176.176,0,0,1-.278-.03l-.641.335a.084.084,0,0,1-.052,0l-.11-.315a.653.653,0,0,1,.226.029c.207.133.219-.125.367-.1a1.419,1.419,0,0,1-.214-.11c-.363-.265-.026.14-.165.1-.037-.01-.1.034-.138.027-.437-.069-.386.273-.595.394a1.149,1.149,0,0,1-.294.072c-.013-.033-.048-.074-.034-.1.159-.289-.3-.25-.4-.421a.647.647,0,0,0-.631-.33c-.072.006-.152-.031-.224-.023-.044,0-.079.057-.118.088.375-.072.375.411.779.3a.462.462,0,0,1,.154.018,3.766,3.766,0,0,1-.354.2c-.016.007-.107-.078-.158-.123-.01-.009,0-.032.005-.048a.765.765,0,0,0-.153.071c-.071.055-.116.14-.2.171-.044.016-.146-.054-.221-.085a1.35,1.35,0,0,0,.244-.049c.027-.01.164-.116-.02-.1a2.461,2.461,0,0,0-.439.137c-.026.008-.1-.043-.1-.037a.223.223,0,0,1-.346-.055c-.146-.171-.152-.345.18-.4.037-.007.1.074.154.113,0-.038.015-.106,0-.109-.121-.033-.319-.1-.361-.068-.184.15-.334.285-.571.056,0,.014-.015.037-.009.041.112.064.222.171.34.176.157.008.144.015.051.081-.031.023-.089.026-.119.049-.075.056.336-.032.049.091-.026.011-.026.226-.135.023a.352.352,0,0,0-.243-.007c-.11.094-.436-.218-.394.124,0,.015-.08.043-.128.054a1.691,1.691,0,0,1-.842.13.985.985,0,0,1-.113-.029c-.015-.006-.034-.033-.028-.04.29-.318-.106-.2-.262-.24h0a.632.632,0,0,0,.228-.016c.174-.1-.118-.091-.083-.166l-.42.036.015-.008-.009,0,.121-.292c-.222.057-.359-.268-.586-.091-.137.108.269.33-.11.426a.335.335,0,0,1,.1.038c.225.2.288-.172.48-.081l-.005.012h0l-.117.065.394.079h0c-.3.12-.022.159.057.226a.169.169,0,0,1,.026.035c-.033.006-.066.014-.1.018-.344.039-.715-.071-1.036.107a.131.131,0,0,1-.1-.025.289.289,0,0,1-.049-.141c0-.03.032-.061.049-.092l-.46-.075a.8.8,0,0,1,0,.12c0,.024-.02.064-.036.066-.276.028-.555.043-.83.078s-.566-.142-.837.022c0,0-.032-.014-.032-.014.015-.044.015-.1.053-.129a1.108,1.108,0,0,1,.228-.085c-.237.046.049-.307-.267-.2-.025.009-.048.022-.072.034a.485.485,0,0,1,.049.04l.108.133s-.021.019-.033.029c-.031-.178-.188.056-.251-.045a.331.331,0,0,0-.154-.144.234.234,0,0,0-.185.071.452.452,0,0,0,0,.221c0,.013.026.025.041.037-.021.01-.045.031-.063.029a1.994,1.994,0,0,1-.361-.061c-.1-.033-.212-.158-.269-.142-.25.071.152.029.04.1a1.511,1.511,0,0,1-.923.078,3.3,3.3,0,0,1-1.051-.291c-.191-.083-.263.063-.4.033l.049.183c.112-.024.227-.044.336-.074a.676.676,0,0,0,.14-.075c-.007.042,0,.091-.023.124-.055.069-.159.192-.191.183a6.2,6.2,0,0,0-1.562-.036c-.133,0-.263-.074-.4-.077a1.582,1.582,0,0,0-.294.081c-.029.005-.111-.061-.108-.064.056-.064.121-.123.184-.182a2.131,2.131,0,0,0-.273.075,1.4,1.4,0,0,0-.221.137l-.085.067c-.429-.282-.888.1-1.321-.033l-.1-.031c.009-.011.015-.026.028-.03.121-.039.4-.1.329-.121a2.457,2.457,0,0,0-.811-.086c-.1,0-.193.118-.28.189-.026.022-.024.094-.031.094l-.82-.052.2-.058c.008,0,0-.029,0-.043l-.411,0c0,.016,0,.037.015.046a1.235,1.235,0,0,0,.106.068,1.255,1.255,0,0,1-.161.019c-.466-.008-.933,0-1.4-.036-.144-.011-.272-.134-.411-.2a.145.145,0,0,0-.087-.017c-.03.007-.072.03-.076.051-.077.34-.25-.045-.37.024a1.1,1.1,0,0,1-.158-.111l-.077-.053a.248.248,0,0,0-.038.076c0,.014.032.029.049.045l.047.05c-.025.012-.056.036-.073.031a2.582,2.582,0,0,1-.6-.191c-.247-.152.331-.044.145-.212-.029-.026-.045-.072-.078-.08-.123-.027-.248-.048-.373-.07v-.667a1.407,1.407,0,0,0,.438-.05c.05-.015.55-.157.644.16.253-.172.477.147.736.026.045-.021.137.016.207.026l-.046.182-.01.044a.261.261,0,0,0,.086-.013.357.357,0,0,0,.08-.076c-.12-.085-.08-.126.063-.116.033,0,.193-.116.138.049a1.5,1.5,0,0,0,.2-.025c.014,0-.008-.071.012-.081a2.632,2.632,0,0,1,1.849-.025c.217.044.554-.13.71-.054.239.115.359-.083.555-.024a2.333,2.333,0,0,0,.528.035c.381.02.732-.149,1.165,0a1.131,1.131,0,0,0,1-.1c.1-.078.459.017.693.054.337.054.668.127,1,.192.085-.352.445-.178.7-.23.31-.061.663.166.929-.092.008-.007.038,0,.058,0l-.054.4c0,.016-.032.03-.049.046.024.006.062.023.069.017l.448-.383a.509.509,0,0,1,.093-.078c.018-.009.058,0,.088.008-.026.019-.069.036-.077.06a.321.321,0,0,0,0,.112,1.409,1.409,0,0,0,.34-.009c.123-.029.228-.12.35-.131a3.767,3.767,0,0,1,1.38.04c.309.085.622-.179.925-.005.076.044.1.136.152.206l-.007.005h.005c-.055.118-.135.017-.151-.008-.15-.231-.078.031-.094.09l-.032,0a.356.356,0,0,1-.035-.045l-.033.036.068.009c.019.02.029.019.032,0,.132.017.264.034.4.045.015,0,.039-.061.059-.095l-.211-.033,0,0h0c.072-.05.171-.146.206-.134.188.064.473-.028.569.211.022.054.242.062.373.088.005,0,.044-.05.037-.07-.031-.077-.023-.206-.217-.115-.021.009-.07-.015-.106-.023a.931.931,0,0,1,.31-.14c.471-.02.943-.018,1.414-.021.086,0,.171.011.257.016l-.175.023c.023.016.05.049.069.046a2.245,2.245,0,0,1,.335-.057l1.995.057c.7.019,1.39.053,2.085.05.362,0,.722-.086,1.085-.1l1.719-.012c.131,0,.357.064.4-.13.477.214,1.018-.1,1.484.093.279.117.436-.1.659-.088a11.251,11.251,0,0,1,2.073.077c.279.063.619-.127.918.061.015.01.184-.182.393-.161a3.774,3.774,0,0,1,1.186.067,1.2,1.2,0,0,0,.722-.091c.306-.124-.034.341.274.151.011-.008.072.028.081.021.053-.038.089-.1.148-.12.038-.01.1.05.183.08a3.041,3.041,0,0,0,.619.261c.434.023.913.08,1.337.084.365,0,.1.111.123.136.15.2.725.095.646.439.207-.1.255.354.5.165.022-.016.139.046.212.074l-.094.109c.22.088.632.208.313.427-.336.223.145.063.1.151a.35.35,0,0,0,0,.193c0,.012.094.042.094.042a.984.984,0,0,1-.079.19.839.839,0,0,0-.123-.138.253.253,0,0,0-.083-.029.748.748,0,0,1,.013.094,1.114,1.114,0,0,1-.015.142c.193-.318.005.575.269.081.018-.037.15-.066.158-.055a.923.923,0,0,1,.15.278.253.253,0,0,1-.017.14,1.426,1.426,0,0,0,.146-.172.874.874,0,0,0,.06-.118c.009.034.031.071.026.1a1.017,1.017,0,0,1-.1.307c-.009.019-.078.005-.12.008.03.078.1.2.067.233-.124.127-.039.239.015.327,0,.005-.048.032-.074.048a2.251,2.251,0,0,0,.173.156c.035.026.118.033.124.057a.12.12,0,0,1-.066.1c-.036.016-.1-.005-.146-.01l-.074-.007c.022.034.041.1.066.1.107.008-.094.238.152.128a.55.55,0,0,1,.1-.023l-.163.348c.392.081-.428.281.054.359.01,0,0,.081,0,.124-.1-.174-.049.292-.169.024-.007-.016-.038-.023-.059-.034a.126.126,0,0,0-.022.035c-.022.09-.1.22-.052.262.109.1.322.41.254.531-.017.03-.209-.022-.285.013-.2.094-.062.06.04.066a.514.514,0,0,1,.253.082c-.061.4.2.824-.089,1.217-.011.016.014.055.035.076a.114.114,0,0,0,.074.005c.051-.009.1-.025.152-.038l.009.129a.277.277,0,0,0-.067-.056.082.082,0,0,0-.063.023,2.483,2.483,0,0,0-.207.331c-.027.059.008.134-.005.2a.214.214,0,0,1-.129.026.87.87,0,0,1-.1-.162l-.163.079h0v0l0,0-.193-.282-.017.266c0,.064,0,.182.018.185.155.017.19-.07.2-.171l0,0c.176.116.359.227.52.355.023.019-.078.121-.1.189-.082.293.44.308.428.576,0,.064.075.137.054.191s-.12.093-.185.139c0-.085,0-.172-.014-.256,0-.008-.066-.011-.1-.016.047.07-.043.118-.05.149a2.513,2.513,0,0,0-.01.543v.107a.571.571,0,0,0-.1-.055.115.115,0,0,0-.072.011l-.029.211a.264.264,0,0,1,.07-.049c.066-.019.134-.029.2-.043.015.08.036.16.043.241.025.289.062.578.063.867s-.052.59-.054.885c0,.168.1.339.074.5a1.138,1.138,0,0,1-.213.587c-.256.3-.094.63-.151.941-.011.061.183.146.283.22-.253.033-.252.216-.347.349a1,1,0,0,1-.271.184h-.009l-.2-.2-.136.269.336-.068,0,0,.005,0c.676-.025.089.31.2.443a1.141,1.141,0,0,0,.2.158c-.061.036-.221.053-.021.131.065.026.078.133.115.2-.085-.039-.114-.047-.273.129a.8.8,0,0,1-.187-.041l.039.21-.142.168c-.032.039-.038.133-.005.158a1.436,1.436,0,0,0,.284.128,2.163,2.163,0,0,1-.091-.24l-.045-.214.147-.169a.285.285,0,0,0,.273-.117c-.009.3-.306.573-.1.885-.243-.116-.288.084-.407.163-.018.012-.015.044-.022.067.709-.05.1.352.272.5.225.2-.348.432.014.647-.353.067-.221.277-.221.454a2.318,2.318,0,0,1-.054.347.056.056,0,0,0,.008.026l-.4.135a1.238,1.238,0,0,1,.375-.06c.139.023.363.1.374.171a5.179,5.179,0,0,0,.054.9c.082.234-.309.285-.2.39.288.286-.325.315-.2.514.149.234.1-.189.252-.061.01.008.261-.189.281-.036.027.213.171.471-.077.67a1.6,1.6,0,0,1-.308.147c.126.012.052.261.282.149a.891.891,0,0,0,.065.222c.153.254-.132.459-.113.7-.267-.078-.145.13-.125.124.555-.146.218.236.215.283a1.03,1.03,0,0,1-.183.58c-.125.157-.024-.17-.179-.091-.017-.061-.021-.189-.128-.09-.056.053-.011.237.067.308a.827.827,0,0,1,.214.8,1.637,1.637,0,0,0,.149.719c.057.146,0,.287-.219.406-.043.025.106.229.053.291-.2.235.486.405.056.634.508.215-.314.152-.1.3l.038.031c.09-.047.206-.258.26-.107a.772.772,0,0,1,.015.742.56.56,0,0,0-.053.428c.039.15-.038.272-.045.391-.013.192.09.4.026.608-.011.035.068.088.106.133-.2-.068-.247.292-.506.111-.037-.026-.079-.231-.234-.07a1.163,1.163,0,0,0,.251.144c.233.068.279.521.071.715-.042.039-.089.132-.072.143.211.14.268.216-.087.164-.009,0-.034.043-.034.043.123.067.275.119.2.276.215-.036.146.1.112.147-.156.228.341.161.243.353h.1l-.1.08c.11.058.313.185.152.227-.407.1-.2.385-.239.574-.014.164.122.385-.116.5a.567.567,0,0,1-.585-.11.4.4,0,0,0-.275-.015c-.05.015-.062.11-.092.17.059-.026.132-.087.177-.077a.661.661,0,0,1,.326.142c.074.078.018.175-.14.142.04.036.117.07.113.109-.02.216-.227.337-.443.42a2.848,2.848,0,0,0-.282.151,1.085,1.085,0,0,1,.165.1c.025.022.019.066.026.1-.26-.124-.278.2-.473.189a.809.809,0,0,1-.183-.025,2.335,2.335,0,0,1-.25-.092c-.068.124.111.086.15.13.1.112.15.248-.09.371-.083-.225-.463.427-.462-.022-.163.085-.337.161-.507.24-.2.1-.524.315-.617.272-.349-.161-.388.186-.628.12-.039-.012-.054-.053-.079-.08.232.032-.167-.23.166-.148a.633.633,0,0,0,0-.2C1687.33,961.1,1687.269,961.04,1687.2,961.022Zm-26.509-33.389-.486-.168a.817.817,0,0,0-.03.182,3.725,3.725,0,0,0,.387.047Zm1.1.541c-.11-.027-.119-.064-.3.048l.021-.017.009-.007.017-.015h0l-.017.015-.009.007-.063.054c.135.026.3.1.4.067C1662.007,928.274,1661.9,928.2,1661.786,928.173Zm.506-.27-.356-.169-.107.2c.041.026.086.073.113.068C1662.062,927.974,1662.176,927.936,1662.292,927.9Zm.555-.166a1.252,1.252,0,0,0-.388-.078c-.167.037.213.157-.029.216a1.1,1.1,0,0,0,.222-.006C1662.7,927.856,1662.741,927.811,1662.846,927.737Zm1.349.29a1.561,1.561,0,0,0-.343-.2c-.059-.019.1.27-.3.086l.028.287Zm3.148.022a1.364,1.364,0,0,0-.7-.124c-.529.1.146.167.116.186.085-.18.187.017.3.113C1667,928.023,1667.406,928.075,1667.343,928.049Zm1.03-.263c-.045-.185-.19-.274-.576-.224l-.288.1.36.054a.077.077,0,0,1,.042.024l.279.295c.185-.139-.2-.113-.114-.225.014-.017.01-.041.015-.061a.522.522,0,0,0,.152.083A.207.207,0,0,0,1668.373,927.786Zm4.252-.487a.131.131,0,0,0-.095-.046,1.235,1.235,0,0,0-.372.029,1.551,1.551,0,0,0-.345.216c-.014.009-.009.05.008.064a.137.137,0,0,0,.086.028.449.449,0,0,1,.582-.067h.083c-.021-.02-.053-.04-.06-.062a.862.862,0,0,1-.014-.141.152.152,0,0,1,.057.009.724.724,0,0,1,.067.068C1672.624,927.364,1672.64,927.326,1672.625,927.3Zm5.472.642c-.169-.117-.409.126-.578-.057-.021.037-.069.082-.057.11.121.279.335.016.5.047C1678.12,928.091,1678.125,927.96,1678.1,927.941Zm5.942-.187-.06.047-.165-.19c-.112.061-.264.2-.2-.064a.924.924,0,0,0,0-.212c-.019,0-.049,0-.053.008-.087.153-.164.161-.231-.008-.03.011-.075.016-.087.033a.1.1,0,0,0-.007.091,2.42,2.42,0,0,1,.149.241.163.163,0,0,1,.009.09l0,0c0,.016,0,.012,0,0,.38.22.086-.162.28-.019.086.063.062.207.113.308a.494.494,0,0,0,.227-.023A1.2,1.2,0,0,0,1684.039,927.754Zm2.441-.091c-.031-.266-.158-.026-.244-.018s-.17.054-.242-.054c-.2.442.176.235.3.244C1686.349,927.84,1686.486,927.72,1686.48,927.663Zm1.049.011a4.341,4.341,0,0,0-.865-.043c-.048,0-.142.082-.132.1.182.362.484-.019.528,0C1687.428,927.844,1687.556,927.682,1687.528,927.674Zm3.717,4.109c-.242.031-.129.2-.186.31h-.006a.563.563,0,0,0-.066-.124.251.251,0,0,0-.122-.089c-.234-.043-.247.151-.37.23-.012.008.026.065.04.1a1.1,1.1,0,0,1,.126-.085c.053-.028.113-.048.169-.071a.212.212,0,0,0,0,.047.465.465,0,0,0,.03.123c.008.015.074.028.078.023a1.8,1.8,0,0,0,.112-.154h0l0,.005,0-.006c.146-.027.3-.048.282-.211C1691.336,931.846,1691.271,931.78,1691.245,931.784Zm-.958.577.286-.485-.042-.1c-.31.109-.08.407-.307.546Zm.391,7.346c0-.13.081-.023.2.1-.02-.172-.03-.257-.039-.341-.189.146-.607.231-.516.436C1690.385,940.044,1690.674,939.964,1690.678,939.707Zm-.3,4.678a3.142,3.142,0,0,0,.181-.485c.009-.043-.13-.1-.2-.159-.035.169-.07.338-.11.529Zm.064.732.13-.12c-.336-.133-.068-.3-.055-.491a.214.214,0,0,0-.35.113A1.932,1.932,0,0,0,1690.446,945.117Zm-.545,2.4.062-.2.054-.248c.322.065.1-.123.136-.189.014-.023,0-.057-.005-.085a.758.758,0,0,0-.193.033c-.3.137-.108.337-.088.512C1689.874,947.4,1689.653,947.445,1689.9,947.522Zm.533.012c.477-.171.191-.476.227-.725,0-.008-.02-.017-.031-.025l-.237.708C1690.389,947.506,1690.426,947.527,1690.434,947.534Zm.508.108a3.375,3.375,0,0,0,.176-.362c.01-.028-.062-.074-.1-.112-.072.115-.149.229-.208.348C1690.8,947.535,1690.877,947.581,1690.942,947.642Zm-.724,1.327c.027-.073.03-.149.078-.194.192-.177-.182-.292-.069-.456-.039-.005-.09-.028-.118-.016-.2.086,0,.147.026.22a.457.457,0,0,1,.005.14c-.08,0-.186-.195-.217-.015C1689.907,948.74,1690.1,948.852,1690.218,948.969Zm.085.566.132-.239c-.146-.04-.223.191-.4.061-.024-.018-.1.012-.158.019Zm.584,4.705.224-.24-.048-.032c-.312-.052-.172.14-.266.192Zm.017,3.184c.268-.138-.308-.269-.006-.407-.124-.077-.161-.026-.184.109l-.17.03C1690.687,957.227,1690.891,957.246,1690.9,957.424Z" transform="translate(-1653.398 -926.926)" fill="#4c1400"/>
      </g>
    </g>
  </g>
</svg>
