<svg xmlns="http://www.w3.org/2000/svg" width="40.668" height="42.762" viewBox="0 0 40.668 42.762">
  <g id="Group_369" data-name="Group 369" transform="translate(0 -0.001)">
    <g id="Group_169" data-name="Group 169" transform="translate(0 0.001)">
      <g id="Group_168" data-name="Group 168">
        <path id="Path_10213" data-name="Path 10213" d="M3615.816-3936.174l-6.287-2.019-3.868-5.363-3.9-5.328.022-6.612-.022-6.6,3.9-5.336,3.862-5.355,6.3-2.021,6.271-2.061,6.281,2.065,6.287,2.018,3.868,5.364,3.9,5.328-.022,6.612.022,6.6-3.9,5.336-3.862,5.354-6.3,2.022-6.271,2.062Z" transform="translate(-3601.763 3976.871)" fill="#ffb806"/>
        <path id="Path_10214" data-name="Path 10214" d="M3623.762-3971.816l5.307,1.745,5.319,1.708,3.268,4.531,3.3,4.508-.02,5.586.02,5.587-3.3,4.508-3.268,4.531-5.319,1.708-5.307,1.745-5.307-1.745-5.318-1.708-3.268-4.531-3.3-4.508.019-5.587-.019-5.586,3.3-4.508,3.268-4.531,5.318-1.708Z" transform="translate(-3603.428 3975.12)" fill="#aa5515"/>
        <path id="Path_10215" data-name="Path 10215" d="M3619.215-3937.761l-5.043-1.619-3.094-4.29-3.127-4.274.018-5.289-.018-5.3,3.124-4.268,3.1-4.295,5.037-1.617,5.031-1.654,5.025,1.652,5.043,1.619,3.094,4.29,3.128,4.273-.018,5.29.018,5.3-3.124,4.269-3.1,4.3-5.037,1.617-5.031,1.654Z" transform="translate(-3603.906 3974.617)" fill="#ce7c11"/>
      </g>
      <path id="Path_10216" data-name="Path 10216" d="M3626.451-3961.814l3.519,7.129,7.868,1.143-5.693,5.55,1.344,7.835-7.037-3.7-7.037,3.7,1.344-7.835-5.693-5.55,7.868-1.143Z" transform="translate(-3605.611 3972.557)" fill="#aa5515"/>
      <path id="Path_10217" data-name="Path 10217" d="M3624.9-3962.4l3.518,7.129,7.868,1.143-5.694,5.55,1.344,7.835-7.037-3.7-7.037,3.7,1.344-7.835-5.693-5.55,7.867-1.143Z" transform="translate(-3605.075 3972.758)" fill="#ffb806"/>
    </g>
  </g>
</svg>
