<svg xmlns="http://www.w3.org/2000/svg" width="63" height="63" viewBox="0 0 63 63">
  <g id="Group_439" data-name="Group 439" transform="translate(0.2)">
    <g id="Group_440" data-name="Group 440">
      <rect id="Rectangle_542" data-name="Rectangle 542" width="63" height="63" rx="6" transform="translate(-0.2)" fill="#ffb806"/>
      <g id="Instagram" transform="translate(19.242 19.25)">
        <path id="Path_3" data-name="Path 3" d="M12.058,2.144a36.971,36.971,0,0,1,4.823.134,6.214,6.214,0,0,1,2.278.4,4.705,4.705,0,0,1,2.278,2.278,6.214,6.214,0,0,1,.4,2.278c0,1.206.134,1.608.134,4.823a36.971,36.971,0,0,1-.134,4.823,6.214,6.214,0,0,1-.4,2.278,4.705,4.705,0,0,1-2.278,2.278,6.214,6.214,0,0,1-2.278.4c-1.206,0-1.608.134-4.823.134a36.971,36.971,0,0,1-4.823-.134,6.214,6.214,0,0,1-2.278-.4,4.705,4.705,0,0,1-2.278-2.278,6.214,6.214,0,0,1-.4-2.278c0-1.206-.134-1.608-.134-4.823a36.971,36.971,0,0,1,.134-4.823,6.214,6.214,0,0,1,.4-2.278,4.812,4.812,0,0,1,.938-1.34,2.265,2.265,0,0,1,1.34-.938,6.214,6.214,0,0,1,2.278-.4,36.971,36.971,0,0,1,4.823-.134m0-2.144A39.585,39.585,0,0,0,7.1.134,8.271,8.271,0,0,0,4.153.67,5.245,5.245,0,0,0,2.01,2.01,5.245,5.245,0,0,0,.67,4.153,6.1,6.1,0,0,0,.134,7.1,39.585,39.585,0,0,0,0,12.058a39.585,39.585,0,0,0,.134,4.957A8.271,8.271,0,0,0,.67,19.962a5.245,5.245,0,0,0,1.34,2.144,5.245,5.245,0,0,0,2.144,1.34,8.271,8.271,0,0,0,2.947.536,39.585,39.585,0,0,0,4.957.134,39.585,39.585,0,0,0,4.957-.134,8.271,8.271,0,0,0,2.947-.536,5.621,5.621,0,0,0,3.483-3.483,8.271,8.271,0,0,0,.536-2.947c0-1.34.134-1.742.134-4.957A39.585,39.585,0,0,0,23.981,7.1a8.271,8.271,0,0,0-.536-2.947,5.245,5.245,0,0,0-1.34-2.144A5.245,5.245,0,0,0,19.962.67,8.271,8.271,0,0,0,17.015.134,39.585,39.585,0,0,0,12.058,0m0,5.895a6.064,6.064,0,0,0-6.163,6.163,6.163,6.163,0,1,0,6.163-6.163m0,10.182a3.947,3.947,0,0,1-4.019-4.019,3.947,3.947,0,0,1,4.019-4.019,3.947,3.947,0,0,1,4.019,4.019,3.947,3.947,0,0,1-4.019,4.019M18.488,4.153a1.474,1.474,0,1,0,1.474,1.474,1.487,1.487,0,0,0-1.474-1.474" fill="#4c1400"/>
      </g>
    </g>
  </g>
</svg>
