<svg xmlns="http://www.w3.org/2000/svg" width="63" height="63" viewBox="0 0 63 63">
  <g id="Group_319" data-name="Group 319" transform="translate(0.2)">
    <rect id="Rectangle_542" data-name="Rectangle 542" width="63" height="63" rx="6" transform="translate(-0.2)" fill="#ffb806"/>
    <path id="ic_insert_link_24px" d="M2.526,6.647A4.125,4.125,0,0,1,6.647,2.526h5.317V0H6.647a6.647,6.647,0,1,0,0,13.294h5.317V10.768H6.647A4.125,4.125,0,0,1,2.526,6.647Zm5.45,1.329H18.611V5.317H7.976ZM19.94,0H14.623V2.526H19.94a4.121,4.121,0,0,1,0,8.242H14.623v2.526H19.94A6.647,6.647,0,0,0,19.94,0Z" transform="translate(26.8 17.4) rotate(45)" fill="#4c1400"/>
  </g>
</svg>
