<svg id="Group_188" data-name="Group 188" xmlns="http://www.w3.org/2000/svg" width="19.89" height="20.914" viewBox="0 0 19.89 20.914">
  <g id="Group_172" data-name="Group 172">
    <path id="Path_10223" data-name="Path 10223" d="M3708.119-3956.968l-3.074-.987-1.892-2.623-1.906-2.605.011-3.234-.011-3.229,1.909-2.609,1.889-2.619,3.08-.989,3.067-1.008,3.072,1.01,3.074.987,1.892,2.623,1.907,2.605-.011,3.234.011,3.229-1.91,2.609-1.888,2.619-3.079.989-3.067,1.009Z" transform="translate(-3701.247 3976.871)" fill="#ffb806"/>
    <path id="Path_10224" data-name="Path 10224" d="M3714.462-3971.817l2.6.854,2.6.835,1.6,2.216,1.614,2.2-.009,2.732.009,2.731-1.614,2.205-1.6,2.216-2.6.835-2.6.854-2.6-.854-2.6-.835-1.6-2.216-1.613-2.205.009-2.731-.009-2.732,1.613-2.2,1.6-2.216,2.6-.835Z" transform="translate(-3704.517 3973.433)" fill="#aa5515"/>
    <path id="Path_10225" data-name="Path 10225" d="M3712.944-3954.419l-2.466-.792-1.513-2.1-1.53-2.09.009-2.587-.009-2.59,1.528-2.087,1.515-2.1,2.463-.791,2.46-.809,2.458.808,2.466.792,1.513,2.1,1.53,2.09-.009,2.587.009,2.59-1.528,2.087-1.515,2.1-2.463.791-2.461.809Z" transform="translate(-3705.457 3972.444)" fill="#ce7c11"/>
  </g>
  <g id="Group_173" data-name="Group 173" transform="translate(3.81 4.615)">
    <path id="Path_10226" data-name="Path 10226" d="M3722.731-3958.1l-2.08-3.8-2.08,3.8-3.8,2.08,3.8,2.081,2.08,3.8,2.08-3.8,3.8-2.081Z" transform="translate(-3714.254 3962.072)" fill="#aa5515"/>
    <path id="Path_10227" data-name="Path 10227" d="M3721.129-3958.631l-2.081-3.8-2.08,3.8-3.8,2.081,3.8,2.08,2.08,3.8,2.081-3.8,3.8-2.08Z" transform="translate(-3713.164 3962.435)" fill="#ffb806"/>
  </g>
</svg>
