<svg xmlns="http://www.w3.org/2000/svg" xmlns:xlink="http://www.w3.org/1999/xlink" width="63" height="63" viewBox="0 0 63 63">
  <defs>
    <clipPath id="clip-path">
      <rect id="Rectangle_543" data-name="Rectangle 543" width="26.109" height="26.113" fill="#4c1400"/>
    </clipPath>
  </defs>
  <g id="Group_316" data-name="Group 316" transform="translate(-0.444)">
    <rect id="Rectangle_542" data-name="Rectangle 542" width="63" height="63" rx="6" transform="translate(0.444)" fill="#ffb806"/>
    <g id="Group_315" data-name="Group 315" transform="translate(18.446 18.32)">
      <g id="Group_314" data-name="Group 314" clip-path="url(#clip-path)">
        <path id="Path_10292" data-name="Path 10292" d="M1.456,26.105c.138-.713.272-1.41.407-2.107q.195-1,.39-2.005c.074-.382.141-.766.223-1.147a.247.247,0,0,0-.049-.219A12.929,12.929,0,0,1,.669,17.2a12.727,12.727,0,0,1-.606-2.85A13.1,13.1,0,0,1,5.088,2.722,13.023,13.023,0,0,1,20.9,2.633,12.962,12.962,0,0,1,24.767,7.3a12.807,12.807,0,0,1,1.168,3.643,13.08,13.08,0,0,1-9.672,14.776,13.027,13.027,0,0,1-9.623-1.3.228.228,0,0,0-.209-.017q-2.413.836-4.826,1.667c-.044.015-.09.024-.148.04m2.553-2.929c.9-.309,1.766-.607,2.633-.91A.26.26,0,0,1,6.9,22.3a11.11,11.11,0,0,0,5.727,1.863,10.834,10.834,0,0,0,3.585-.447,11.158,11.158,0,0,0,7.9-9.572,11.145,11.145,0,0,0-.877-5.522A11.159,11.159,0,0,0,14.116,2a10.869,10.869,0,0,0-2.682.071,10.712,10.712,0,0,0-3.235,1,11.079,11.079,0,0,0-5.211,5.3,10.847,10.847,0,0,0-1.025,4,10.993,10.993,0,0,0,.209,2.938,10.277,10.277,0,0,0,1.255,3.271c.327.54.717,1.043,1.075,1.565a.258.258,0,0,1,.058.163c-.123.656-.254,1.311-.381,1.966-.057.294-.111.588-.171.905" transform="translate(0 0)" fill="#4c1400"/>
        <path id="Path_10293" data-name="Path 10293" d="M23.913,29.071a2.675,2.675,0,0,1,.4-1.633,5.955,5.955,0,0,1,.852-1.1,1.055,1.055,0,0,1,.777-.32c.287.008.576,0,.861.033a.709.709,0,0,1,.615.462c.364.88.745,1.753,1.107,2.633a.8.8,0,0,1-.088.812c-.223.3-.466.581-.717.855a.7.7,0,0,0-.084.982A17.276,17.276,0,0,0,29.2,33.771a7.29,7.29,0,0,0,2.151,1.519c.305.152.619.287.933.421a.509.509,0,0,0,.665-.158c.35-.419.7-.842,1.042-1.264a.668.668,0,0,1,.886-.21c.68.325,1.355.66,2.032.992.227.111.451.229.679.336a.461.461,0,0,1,.286.43,3.447,3.447,0,0,1-.322,1.535,2.085,2.085,0,0,1-.582.632,3.7,3.7,0,0,1-1.7.881,3.631,3.631,0,0,1-1.518-.048,13.1,13.1,0,0,1-4.9-2.155A10.44,10.44,0,0,1,27.261,35.2c-.549-.6-1.093-1.2-1.6-1.834A7.241,7.241,0,0,1,24.22,30.8a8.151,8.151,0,0,1-.307-1.726" transform="translate(-17.842 -19.411)" fill="#4c1400"/>
      </g>
    </g>
  </g>
</svg>
