<svg xmlns="http://www.w3.org/2000/svg" width="33" height="30.801" viewBox="0 0 33 30.801">
  <g id="Group_97" data-name="Group 97" transform="translate(-2007.898 -1102.452)">
    <path id="Path_10154" data-name="Path 10154" d="M2065.671,1119.516v-.769q0-7.031,0-14.062a2.171,2.171,0,0,1,4.287-.541,2.859,2.859,0,0,1,.054.679q0,6.974,0,13.948v.605l.19.136a2.426,2.426,0,0,1,.292-.474q2.477-2.495,4.968-4.975a1.849,1.849,0,1,1,2.618,2.586q-4.441,4.453-8.893,8.892a1.727,1.727,0,0,1-2.7-.014q-4.452-4.44-8.892-8.892a1.845,1.845,0,1,1,2.6-2.6C2061.987,1115.823,2063.774,1117.617,2065.671,1119.516Z" transform="translate(-43.439)" fill="#4c1400"/>
    <path id="Path_10155" data-name="Path 10155" d="M2024.39,1312.335q-6.288,0-12.575,0a3.663,3.663,0,0,1-3.277-1.507,3.825,3.825,0,0,1-.586-1.68,23.745,23.745,0,0,1-.027-2.741,1.685,1.685,0,0,1,1.793-1.72,1.74,1.74,0,0,1,1.869,1.671c.011.228,0,.457,0,.686a1.866,1.866,0,0,0,2,2c1.886.012,3.773,0,5.659,0h15.376c2.026,0,2.57-.529,2.6-2.545a1.651,1.651,0,0,1,1.072-1.659,1.761,1.761,0,0,1,2.018.308,2.1,2.1,0,0,1,.55,1.182c.084.849-.008,1.714.033,2.569a3.386,3.386,0,0,1-3.019,3.366,9.053,9.053,0,0,1-1.082.068Q2030.592,1312.339,2024.39,1312.335Z" transform="translate(0 -179.083)" fill="#4c1400"/>
  </g>
</svg>
